<svg xmlns="http://www.w3.org/2000/svg" width="65.017" height="46.857" viewBox="0 0 65.017 46.857">
  <g id="Group_1660" data-name="Group 1660" transform="translate(0)">
    <g id="code_1_" data-name="code (1)" transform="translate(0 0)">
      <g id="Group_1504" data-name="Group 1504" transform="translate(0 0)">
        <path id="Path_1160" data-name="Path 1160" d="M60.255,71.5H56.92a.952.952,0,1,0,0,1.9h3.335a2.861,2.861,0,0,1,2.857,2.857v4.381H1.9V76.262A2.86,2.86,0,0,1,4.762,73.4H52.738a.952.952,0,1,0,0-1.9H4.762A4.767,4.767,0,0,0,0,76.262v10.5a.952.952,0,0,0,1.9,0V82.548H63.112V107.1a.952.952,0,0,0,1.9,0V76.262A4.767,4.767,0,0,0,60.255,71.5Z" transform="translate(0 -71.5)" fill="#173069"/>
        <path id="Path_1161" data-name="Path 1161" d="M64.064,236.637a.952.952,0,0,0-.952.952v2.477a2.861,2.861,0,0,1-2.857,2.857H4.762A2.86,2.86,0,0,1,1.9,240.067V217.319a.952.952,0,0,0-1.9,0v22.747a4.767,4.767,0,0,0,4.762,4.762H60.255a4.767,4.767,0,0,0,4.762-4.762V237.59A.952.952,0,0,0,64.064,236.637Z" transform="translate(0 -197.971)" fill="#173069"/>
        <path id="Path_1162" data-name="Path 1162" d="M57.958,232.54a.953.953,0,0,0-1.347,0l-5.723,5.723a.953.953,0,0,0,0,1.347l5.648,5.648a.952.952,0,1,0,1.347-1.347l-4.974-4.974,5.05-5.05A.952.952,0,0,0,57.958,232.54Z" transform="translate(-44.182 -211.847)" fill="#173069"/>
        <path id="Path_1163" data-name="Path 1163" d="M206.906,245.257a.952.952,0,0,0,1.347,0l5.648-5.647a.953.953,0,0,0,0-1.347l-5.723-5.723a.952.952,0,0,0-1.347,1.347l5.05,5.05-4.974,4.974A.952.952,0,0,0,206.906,245.257Z" transform="translate(-180.322 -211.846)" fill="#173069"/>
        <path id="Path_1164" data-name="Path 1164" d="M125.442,226.564a.953.953,0,0,0,.891-.615l6.768-17.828a.952.952,0,1,0-1.781-.676l-6.768,17.829a.953.953,0,0,0,.89,1.291Z" transform="translate(-108.681 -189.645)" fill="#173069"/>
        <path id="Path_1165" data-name="Path 1165" d="M33.006,95.728a2.857,2.857,0,1,0,2.857-2.857A2.86,2.86,0,0,0,33.006,95.728Zm3.81,0a.952.952,0,1,1-.952-.952A.953.953,0,0,1,36.816,95.728Z" transform="translate(-28.815 -90.157)" fill="#173069"/>
        <path id="Path_1166" data-name="Path 1166" d="M91.166,95.728a2.857,2.857,0,1,0,2.857-2.857A2.86,2.86,0,0,0,91.166,95.728Zm3.81,0a.952.952,0,1,1-.952-.952A.953.953,0,0,1,94.976,95.728Z" transform="translate(-79.589 -90.157)" fill="#173069"/>
        <path id="Path_1167" data-name="Path 1167" d="M149.325,95.728a2.857,2.857,0,1,0,2.857-2.857A2.86,2.86,0,0,0,149.325,95.728Zm3.81,0a.952.952,0,1,1-.952-.952A.953.953,0,0,1,153.135,95.728Z" transform="translate(-130.363 -90.157)" fill="#173069"/>
        <path id="Path_1168" data-name="Path 1168" d="M315.857,203.082h5.968a2.857,2.857,0,1,0,0-5.714h-5.968a2.857,2.857,0,1,0,0,5.714Zm0-3.81h5.968a.952.952,0,1,1,0,1.9h-5.968a.952.952,0,1,1,0-1.9Z" transform="translate(-273.254 -181.385)" fill="#173069"/>
        <path id="Path_1169" data-name="Path 1169" d="M315.857,263.082H331.6a2.857,2.857,0,0,0,0-5.714H315.857a2.857,2.857,0,1,0,0,5.714Zm0-3.81H331.6a.952.952,0,1,1,0,1.9H315.857a.952.952,0,1,1,0-1.9Z" transform="translate(-273.254 -233.765)" fill="#173069"/>
        <path id="Path_1170" data-name="Path 1170" d="M315.857,323.082h11.069a2.857,2.857,0,0,0,0-5.714H315.857a2.857,2.857,0,1,0,0,5.714Zm0-3.81h11.069a.952.952,0,1,1,0,1.9H315.857a.952.952,0,1,1,0-1.9Z" transform="translate(-273.254 -286.146)" fill="#173069"/>
      </g>
    </g>
  </g>
</svg>
