<svg xmlns="http://www.w3.org/2000/svg" width="64.815" height="64.822" viewBox="0 0 64.815 64.822">
  <path id="home" d="M63.574,28.194l0,0L37.127,1.748a5.967,5.967,0,0,0-8.439,0L2.26,28.175l-.027.027A5.965,5.965,0,0,0,6.2,38.369c.061.006.123.009.184.009H7.441V57.837a6.992,6.992,0,0,0,6.985,6.984H24.771a1.9,1.9,0,0,0,1.9-1.9V47.666a3.19,3.19,0,0,1,3.187-3.186h6.1a3.19,3.19,0,0,1,3.186,3.186V62.922a1.9,1.9,0,0,0,1.9,1.9H51.389a6.992,6.992,0,0,0,6.985-6.984V38.378h.977a5.968,5.968,0,0,0,4.223-10.185Zm-2.689,5.751a2.156,2.156,0,0,1-1.534.636H56.474a1.9,1.9,0,0,0-1.9,1.9V57.837a3.19,3.19,0,0,1-3.186,3.186H42.943V47.666a6.992,6.992,0,0,0-6.985-6.985h-6.1a6.993,6.993,0,0,0-6.985,6.985V61.023H14.426a3.19,3.19,0,0,1-3.186-3.186V36.479a1.9,1.9,0,0,0-1.9-1.9H6.514l-.089,0a2.167,2.167,0,0,1-1.494-3.7h0L31.374,4.433a2.168,2.168,0,0,1,3.067,0L60.877,30.868l.012.012a2.174,2.174,0,0,1,0,3.065Zm0,0" transform="translate(-0.5 0.001)" fill="#a2aed2"/>
</svg>
