<svg id="development_1_" data-name="development (1)" xmlns="http://www.w3.org/2000/svg" width="29.753" height="29.753" viewBox="0 0 29.753 29.753">
  <g id="Group_1495" data-name="Group 1495" transform="translate(0.002)">
    <g id="Group_1494" data-name="Group 1494">
      <path id="Path_1155" data-name="Path 1155" d="M29.2,0H19.964a.581.581,0,0,0-.411.992l2.175,2.175-7.319,7.319L7.65,3.726a.581.581,0,0,0-.822,0L.2,10.357a.581.581,0,1,0,.822.822L7.239,4.959l8.1,8.1a.581.581,0,1,0,.822-.822l-.925-.925L22.55,3.988l3.245,3.245-5.9,5.9a.581.581,0,1,0,.822.822l5.9-5.9,2.169,2.169a.581.581,0,0,0,.992-.411V.581A.581.581,0,0,0,29.2,0Zm-.581,8.41L21.367,1.162h7.248Z" transform="translate(-0.026)" fill="#173069"/>
    </g>
  </g>
  <g id="Group_1497" data-name="Group 1497" transform="translate(18.264 14.399)">
    <g id="Group_1496" data-name="Group 1496">
      <path id="Path_1156" data-name="Path 1156" d="M315.282,247.96a.58.58,0,1,0,.17.411A.583.583,0,0,0,315.282,247.96Z" transform="translate(-314.29 -247.79)" fill="#173069"/>
    </g>
  </g>
  <g id="Group_1499" data-name="Group 1499" transform="translate(0.001 10.341)">
    <g id="Group_1498" data-name="Group 1498">
      <path id="Path_1157" data-name="Path 1157" d="M11.207,183.024l-3.15-3.15.938-.938a.581.581,0,1,0-.822-.822L.192,186.1a.581.581,0,0,0,.822.822L7.235,180.7l3.15,3.15a.581.581,0,0,0,.822-.822Z" transform="translate(-0.022 -177.945)" fill="#173069"/>
    </g>
  </g>
  <g id="Group_1501" data-name="Group 1501" transform="translate(14.295 21.321)">
    <g id="Group_1500" data-name="Group 1500">
      <path id="Path_1158" data-name="Path 1158" d="M246.608,366.9h-.027a.581.581,0,1,0,0,1.162h.023a.581.581,0,0,0,0-1.162Z" transform="translate(-246 -366.901)" fill="#173069"/>
    </g>
  </g>
  <g id="Group_1503" data-name="Group 1503" transform="translate(0 14.303)">
    <g id="Group_1502" data-name="Group 1502">
      <path id="Path_1159" data-name="Path 1159" d="M29.172,260.415H28.152v-2.6a.581.581,0,0,0-.441-.564l-2.7-.673-.968-2.336,1.434-2.385a.581.581,0,0,0-.087-.71l-2.252-2.252a.581.581,0,0,0-.71-.087l-2.385,1.434-2.336-.968-.673-2.7a.581.581,0,0,0-.564-.441H13.284a.581.581,0,0,0-.564.441l-.673,2.7-2.336.968L7.326,248.8a.581.581,0,0,0-.71.087l-2.252,2.252a.581.581,0,0,0-.087.71l1.434,2.385-.968,2.336-2.7.673a.581.581,0,0,0-.441.564v2.6H.581a.581.581,0,0,0,0,1.162h28.59a.581.581,0,0,0,0-1.162Zm-2.182,0H21.051a6.262,6.262,0,0,0-3.942-6.859.581.581,0,1,0-.414,1.086,5.1,5.1,0,0,1,3.175,5.773H9.882a5.1,5.1,0,0,1,3.194-5.78.581.581,0,0,0-.41-1.088A6.262,6.262,0,0,0,8.7,260.415H2.763v-2.15l2.545-.634a.581.581,0,0,0,.4-.341L6.9,254.412a.581.581,0,0,0-.039-.522l-1.351-2.247,1.61-1.61,2.247,1.351a.581.581,0,0,0,.522.039l2.878-1.192a.581.581,0,0,0,.341-.4l.634-2.544h2.276l.634,2.544a.581.581,0,0,0,.341.4l2.878,1.192a.581.581,0,0,0,.522-.039l2.247-1.351,1.61,1.61L22.9,253.89a.581.581,0,0,0-.039.522l1.192,2.878a.581.581,0,0,0,.4.341l2.545.634Z" transform="translate(0 -246.127)" fill="#173069"/>
    </g>
  </g>
</svg>
