<svg id="development_1_" data-name="development (1)" xmlns="http://www.w3.org/2000/svg" width="44.014" height="44.014" viewBox="0 0 44.014 44.014">
  <g id="Group_1495" data-name="Group 1495" transform="translate(0.002)">
    <g id="Group_1494" data-name="Group 1494">
      <path id="Path_1155" data-name="Path 1155" d="M43.178,0H29.521a.86.86,0,0,0-.608,1.467L32.13,4.684,21.3,15.511l-10-10a.86.86,0,0,0-1.216,0l-9.81,9.81a.86.86,0,1,0,1.216,1.216l9.2-9.2L22.671,19.311A.86.86,0,0,0,23.887,18.1l-1.368-1.368L33.345,5.9l4.8,4.8-8.725,8.725a.86.86,0,1,0,1.216,1.216l8.725-8.725,3.209,3.209a.86.86,0,0,0,1.468-.608V.86A.86.86,0,0,0,43.178,0Zm-.86,12.441L31.6,1.719H42.318Z" transform="translate(-0.026)" fill="#173069"/>
    </g>
  </g>
  <g id="Group_1497" data-name="Group 1497" transform="translate(27.018 21.301)">
    <g id="Group_1496" data-name="Group 1496">
      <path id="Path_1156" data-name="Path 1156" d="M315.757,248.042a.859.859,0,1,0,.252.608A.862.862,0,0,0,315.757,248.042Z" transform="translate(-314.29 -247.79)" fill="#173069"/>
    </g>
  </g>
  <g id="Group_1499" data-name="Group 1499" transform="translate(0.002 15.297)">
    <g id="Group_1498" data-name="Group 1498">
      <path id="Path_1157" data-name="Path 1157" d="M16.567,185.459,11.908,180.8l1.387-1.387A.86.86,0,1,0,12.08,178.2L.274,190a.86.86,0,0,0,1.216,1.216l9.2-9.2,4.659,4.659a.86.86,0,1,0,1.216-1.216Z" transform="translate(-0.022 -177.945)" fill="#173069"/>
    </g>
  </g>
  <g id="Group_1501" data-name="Group 1501" transform="translate(21.147 31.54)">
    <g id="Group_1500" data-name="Group 1500">
      <path id="Path_1158" data-name="Path 1158" d="M246.9,366.9h-.04a.86.86,0,1,0,0,1.719h.034a.86.86,0,0,0,.006-1.719Z" transform="translate(-246 -366.901)" fill="#173069"/>
    </g>
  </g>
  <g id="Group_1503" data-name="Group 1503" transform="translate(0 21.158)">
    <g id="Group_1502" data-name="Group 1502">
      <path id="Path_1159" data-name="Path 1159" d="M43.154,267.263H41.646v-3.852a.86.86,0,0,0-.652-.834l-4-1-1.432-3.456,2.121-3.529a.86.86,0,0,0-.129-1.051l-3.331-3.331a.86.86,0,0,0-1.051-.129l-3.529,2.121-3.456-1.432-1-4a.86.86,0,0,0-.834-.652H19.651a.86.86,0,0,0-.834.652l-1,4-3.456,1.432-3.529-2.121a.859.859,0,0,0-1.051.129l-3.331,3.332a.86.86,0,0,0-.129,1.051l2.121,3.529-1.432,3.456-4,1a.86.86,0,0,0-.652.834v3.852H.86a.86.86,0,0,0,0,1.719H43.154a.86.86,0,0,0,0-1.719Zm-3.227,0H31.141a9.263,9.263,0,0,0-5.831-10.147.86.86,0,1,0-.612,1.606,7.544,7.544,0,0,1,4.7,8.54H14.619a7.544,7.544,0,0,1,4.725-8.551.86.86,0,0,0-.606-1.609,9.263,9.263,0,0,0-5.867,10.16H4.087v-3.18l3.764-.938a.86.86,0,0,0,.586-.505l1.764-4.257a.859.859,0,0,0-.057-.772l-2-3.324,2.381-2.381,3.324,2a.859.859,0,0,0,.772.057L18.88,252.2a.86.86,0,0,0,.505-.586l.938-3.764H23.69l.938,3.764a.86.86,0,0,0,.505.586l4.257,1.764a.859.859,0,0,0,.772-.057l3.324-2,2.381,2.381-2,3.324a.859.859,0,0,0-.057.772l1.764,4.257a.86.86,0,0,0,.586.505l3.764.938Z" transform="translate(0 -246.127)" fill="#173069"/>
    </g>
  </g>
</svg>
