<svg id="Group_1885" data-name="Group 1885" xmlns="http://www.w3.org/2000/svg" width="77.42" height="72.241" viewBox="0 0 77.42 72.241">
  <g id="Group_1736" data-name="Group 1736" transform="translate(34.083 4.799)">
    <path id="Path_1651" data-name="Path 1651" d="M261.719,73.907a3.3,3.3,0,0,1-1.109-4.14A7.612,7.612,0,0,0,254.335,58.9a3.3,3.3,0,0,1-3.029-3.029,7.612,7.612,0,0,0-9.255-6.831,7.482,7.482,0,0,1,4.241,3.285c1.153,1.911.689,4.341,1.857,6.18,1.284,2.022,3.834,2.079,5.825,2.968,3.884,1.735,3.48,5.657,2.816,9.142a5.265,5.265,0,0,0,.665,3.6c.7,1.054,1.991,1.581,2.711,2.636a5.381,5.381,0,0,1,.475,5c-.989,2.528-3.835,4.109-4.049,7-.149,2.013,1.311,3.919.881,5.932-.483,2.263-2.461,2.931-4.459,3.361a7.993,7.993,0,0,0-3.881,2.23c-1.259,1.384-1.333,3.436-2.206,5.03a5.281,5.281,0,0,1-2.434,2.335,7.4,7.4,0,0,1-4.062.061c-1.425-.3-3.4-.421-4.654.493-1.335.973-1.943,2.673-3.341,3.589a11.117,11.117,0,0,1-5.934,1.8,7.368,7.368,0,0,1-1.1-.081,7.611,7.611,0,0,0,10.9-1.733,3.3,3.3,0,0,1,4.14-1.109,7.612,7.612,0,0,0,10.865-6.274,3.3,3.3,0,0,1,3.029-3.029,7.612,7.612,0,0,0,6.274-10.865,3.3,3.3,0,0,1,1.109-4.14,7.61,7.61,0,0,0,0-12.545Z" transform="translate(-225.403 -48.857)" fill="#f3c0ae"/>
  </g>
  <g id="Group_1737" data-name="Group 1737" transform="translate(13.84 11.251)">
    <ellipse id="Ellipse_101" data-name="Ellipse 101" cx="24.87" cy="24.87" rx="24.87" ry="24.87" transform="translate(0 0)" fill="#faf7f7"/>
  </g>
  <g id="Group_1738" data-name="Group 1738" transform="translate(30.902 11.684)">
    <path id="Path_1652" data-name="Path 1652" d="M237.04,118.826a24.888,24.888,0,0,1-32.679,23.619,24.876,24.876,0,0,0,12.452-48.057A24.878,24.878,0,0,1,237.04,118.826Z" transform="translate(-204.361 -94.389)" fill="#f3c0ae"/>
  </g>
  <g id="Group_1744" data-name="Group 1744" transform="translate(1.131 27.845)">
    <path id="Path_1657" data-name="Path 1657" d="M81.177,217.822H8.944a1.462,1.462,0,0,1-1.462-1.462V202.733a1.462,1.462,0,0,1,1.462-1.462H81.177a1.462,1.462,0,0,1,1.462,1.462V216.36A1.462,1.462,0,0,1,81.177,217.822Z" transform="translate(-7.482 -201.271)" fill="#f3c0ae"/>
  </g>
  <g id="Group_1745" data-name="Group 1745" transform="translate(71.809 27.845)">
    <path id="Path_1658" data-name="Path 1658" d="M479.376,202.732v13.625a1.462,1.462,0,0,1-1.462,1.463H474.9a1.462,1.462,0,0,0,1.462-1.463V202.732a1.462,1.462,0,0,0-1.462-1.463h3.017A1.462,1.462,0,0,1,479.376,202.732Z" transform="translate(-474.897 -201.269)" fill="#e9b19d"/>
  </g>
  <g id="Group_1746" data-name="Group 1746" transform="translate(0)">
    <path id="Path_1659" data-name="Path 1659" d="M176.1,116.7a17.382,17.382,0,0,0-13.962,7.078,1.478,1.478,0,0,0,1.193,2.351h0l25.513-.033a1.478,1.478,0,0,0,1.189-2.353A17.386,17.386,0,0,0,176.1,116.7Zm-11.109,7.163a15.041,15.041,0,0,1,22.191-.029Z" transform="translate(-137.377 -101.645)" fill="#ea8e6f"/>
    <path id="Path_1660" data-name="Path 1660" d="M162.011,333.754a1.468,1.468,0,0,0,.126,1.54,17.31,17.31,0,0,0,27.9.036,1.478,1.478,0,0,0-1.189-2.354l-25.513-.033h0A1.472,1.472,0,0,0,162.011,333.754Zm25.169,1.483a15.041,15.041,0,0,1-22.191-.029Z" transform="translate(-137.377 -285.188)" fill="#ea8e6f"/>
    <path id="Path_1661" data-name="Path 1661" d="M74.826,43.837H70.14a2.176,2.176,0,0,1,.171-.518,8.743,8.743,0,0,0-7.2-12.48,2.16,2.16,0,0,1-1.991-1.991,8.743,8.743,0,0,0-12.479-7.205,2.161,2.161,0,0,1-2.72-.729,8.743,8.743,0,0,0-14.41,0,2.161,2.161,0,0,1-2.72.729,8.743,8.743,0,0,0-12.479,7.205,2.16,2.16,0,0,1-1.991,1.991,8.743,8.743,0,0,0-7.205,12.48,2.187,2.187,0,0,1,.169.518H2.593A2.6,2.6,0,0,0,0,46.43V60.057A2.6,2.6,0,0,0,2.593,62.65H7.279a2.183,2.183,0,0,1-.17.519,8.743,8.743,0,0,0,7.205,12.48,2.16,2.16,0,0,1,1.991,1.991,8.743,8.743,0,0,0,12.479,7.205,2.161,2.161,0,0,1,2.72.729,8.743,8.743,0,0,0,14.41,0,2.161,2.161,0,0,1,2.72-.729A8.743,8.743,0,0,0,61.115,77.64a2.16,2.16,0,0,1,1.991-1.991,8.743,8.743,0,0,0,7.2-12.48,2.181,2.181,0,0,1-.17-.519h4.685a2.6,2.6,0,0,0,2.593-2.593V46.43A2.6,2.6,0,0,0,74.826,43.837ZM9.388,36.315a6.484,6.484,0,0,1,5.1-3.22,4.414,4.414,0,0,0,4.068-4.068,6.48,6.48,0,0,1,9.251-5.341A4.413,4.413,0,0,0,33.369,22.2a6.48,6.48,0,0,1,10.682,0,4.414,4.414,0,0,0,5.557,1.489,6.48,6.48,0,0,1,9.251,5.341,4.413,4.413,0,0,0,4.068,4.068,6.48,6.48,0,0,1,5.341,9.251,4.449,4.449,0,0,0-.412,1.491h-4.91a26.029,26.029,0,0,0-6.911-9.982,1.131,1.131,0,1,0-1.508,1.687,23.756,23.756,0,0,1,5.971,8.3H16.917A23.745,23.745,0,0,1,50.465,32.615a1.131,1.131,0,0,0,1.122-1.965A26.01,26.01,0,0,0,14.47,43.837H9.565a4.455,4.455,0,0,0-.413-1.491,6.484,6.484,0,0,1,.236-6.031ZM68.032,70.173a6.484,6.484,0,0,1-5.1,3.22,4.414,4.414,0,0,0-4.068,4.068A6.48,6.48,0,0,1,49.608,82.8a4.414,4.414,0,0,0-5.557,1.489,6.48,6.48,0,0,1-10.682,0A4.415,4.415,0,0,0,27.812,82.8a6.48,6.48,0,0,1-9.251-5.341,4.413,4.413,0,0,0-4.068-4.068,6.48,6.48,0,0,1-5.341-9.251,4.455,4.455,0,0,0,.413-1.491h4.906a26,26,0,0,0,48.479,0h4.9a4.454,4.454,0,0,0,.414,1.491A6.484,6.484,0,0,1,68.032,70.173Zm7.125-10.116a.331.331,0,0,1-.331.331H26.4a1.131,1.131,0,1,0,0,2.263H60.5a23.735,23.735,0,0,1-43.586,0H21.1a1.131,1.131,0,1,0,0-2.263H2.593a.331.331,0,0,1-.331-.331V46.43a.331.331,0,0,1,.331-.331H74.826a.331.331,0,0,1,.331.331Z" transform="translate(0 -17.123)" fill="#ec9a7f"/>
    <path id="Path_1662" data-name="Path 1662" d="M273.975,218.953a1.131,1.131,0,0,0-1.131,1.131v8.941a1.131,1.131,0,1,0,2.263,0v-8.941A1.131,1.131,0,0,0,273.975,218.953Z" transform="translate(-231.587 -188.434)" fill="#ea8e6f"/>
    <path id="Path_1663" data-name="Path 1663" d="M351.633,218.953a1.131,1.131,0,0,0-1.131,1.131v8.941a1.131,1.131,0,1,0,2.263,0v-8.941A1.131,1.131,0,0,0,351.633,218.953Z" transform="translate(-297.503 -188.434)" fill="#ea8e6f"/>
    <path id="Path_1664" data-name="Path 1664" d="M305.825,221.65a1.131,1.131,0,0,0,0-2.263h-3.6a1.131,1.131,0,0,0-1.131,1.131v8.875a1.131,1.131,0,1,0,2.263,0V226h2.18a1.131,1.131,0,1,0,0-2.263h-2.18V221.65h2.466Z" transform="translate(-255.567 -188.803)" fill="#ea8e6f"/>
    <path id="Path_1665" data-name="Path 1665" d="M112.206,221.756a1.131,1.131,0,1,0,0-2.263h-3.733a1.131,1.131,0,0,0-1.131,1.131v8.859a1.131,1.131,0,0,0,1.131,1.131h3.733a1.131,1.131,0,1,0,0-2.263h-2.6v-2.167h2.326a1.131,1.131,0,0,0,0-2.263H109.6v-2.167Z" transform="translate(-91.111 -188.893)" fill="#ea8e6f"/>
    <path id="Path_1666" data-name="Path 1666" d="M380.984,221.756a1.131,1.131,0,1,0,0-2.263h-3.733a1.131,1.131,0,0,0-1.131,1.131v8.859a1.131,1.131,0,0,0,1.131,1.131h3.733a1.131,1.131,0,1,0,0-2.263h-2.6v-2.167h2.326a1.131,1.131,0,0,0,0-2.263h-2.326v-2.167Z" transform="translate(-319.247 -188.893)" fill="#ea8e6f"/>
    <path id="Path_1667" data-name="Path 1667" d="M430.014,220.7h-2.458a1.131,1.131,0,0,0-1.131,1.134v.007h0s.008,8.674.022,8.745a1.129,1.129,0,0,0,1.128,1.053h0c.074,0,1.827-.007,2.527-.019,2.633-.046,4.544-2.338,4.544-5.45C434.649,222.9,432.786,220.7,430.014,220.7Zm.052,8.658c-.314.005-.862.01-1.364.013,0-1.023-.008-2.477-.008-3.211,0-.614,0-2.132,0-3.2h1.324c2.2,0,2.372,2.454,2.372,3.207C432.386,228.346,431.221,229.339,430.066,229.36Z" transform="translate(-361.945 -189.919)" fill="#ea8e6f"/>
    <path id="Path_1668" data-name="Path 1668" d="M40.332,226.9a1.132,1.132,0,0,0-1.594.14,2.391,2.391,0,0,1-1.949.858,3.339,3.339,0,1,1,1.866-6.108,1.131,1.131,0,0,0,1.267-1.875,5.6,5.6,0,1,0-3.133,10.246,4.652,4.652,0,0,0,3.683-1.667A1.132,1.132,0,0,0,40.332,226.9Z" transform="translate(-26.471 -188.433)" fill="#ea8e6f"/>
    <path id="Path_1669" data-name="Path 1669" d="M220.227,218.953h-4.938a1.131,1.131,0,0,0,0,2.263h1.327v7.81a1.131,1.131,0,0,0,2.263,0v-7.81h1.347a1.131,1.131,0,0,0,0-2.263Z" transform="translate(-181.775 -188.434)" fill="#ea8e6f"/>
    <path id="Path_1670" data-name="Path 1670" d="M167.09,222.407a3.527,3.527,0,0,0-3.587-3.455h-2.379a1.131,1.131,0,0,0-1.132,1.131v8.941a1.131,1.131,0,0,0,2.263,0V226.53l2.853,3.242a1.131,1.131,0,1,0,1.7-1.495l-2.258-2.565A3.48,3.48,0,0,0,167.09,222.407ZM163.5,223.6l-1.234,0c0-.446-.005-1.921-.007-2.389H163.5a1.2,1.2,0,1,1,0,2.385Z" transform="translate(-135.8 -188.433)" fill="#ea8e6f"/>
  </g>
</svg>
