<svg id="Group_1886" data-name="Group 1886" xmlns="http://www.w3.org/2000/svg" width="66.936" height="77.229" viewBox="0 0 66.936 77.229">
  <circle id="Ellipse_172" data-name="Ellipse 172" cx="14" cy="14" r="14" transform="translate(19.931 2.829)" fill="#7ed2ff"/>
  <path id="Path_1941" data-name="Path 1941" d="M3127,4014.2v12.194l4.306-2.9,3.871,2.9V4014.2Z" transform="translate(-3079.58 -3953.619)" fill="#7ed2ff"/>
  <g id="learning" transform="translate(0)">
    <path id="Path_1615" data-name="Path 1615" d="M30.989,2h2.574V4.574H30.989Z" transform="translate(1.179 -2)" fill="#0757a0"/>
    <path id="Path_1616" data-name="Path 1616" d="M0,0H2.574V2.574H0Z" transform="translate(25.87 1.761) rotate(-22.514)" fill="#0757a0"/>
    <path id="Path_1617" data-name="Path 1617" d="M0,0H2.574V2.574H0Z" transform="translate(20.711 5.814) rotate(-45)" fill="#0757a0"/>
    <path id="Path_1618" data-name="Path 1618" d="M0,0H2.574V2.574H0Z" transform="translate(17.511 11.517) rotate(-67.486)" fill="#0757a0"/>
    <path id="Path_1619" data-name="Path 1619" d="M0,0H2.574V2.574H0Z" transform="translate(46.056 10.118) rotate(-22.514)" fill="#0757a0"/>
    <path id="Path_1620" data-name="Path 1620" d="M0,0H2.574V2.574H0Z" transform="translate(42.552 5.816) rotate(-45)" fill="#0757a0"/>
    <path id="Path_1621" data-name="Path 1621" d="M0,0H2.574V2.574H0Z" transform="translate(37.696 3.153) rotate(-67.486)" fill="#0757a0"/>
    <path id="Path_1622" data-name="Path 1622" d="M72.922,54.477,69.06,21.011a1.287,1.287,0,0,0-1.276-1.139h-16.8a11.844,11.844,0,0,0,.071-1.287,11.584,11.584,0,0,0-23.169,0,11.843,11.843,0,0,0,.071,1.287h-16.8a1.287,1.287,0,0,0-1.278,1.139L6.01,54.477a1.287,1.287,0,0,0,.366,1.057,7.816,7.816,0,0,1,0,11.052,1.287,1.287,0,0,0,.913,2.2h27.03A7.612,7.612,0,0,0,39.467,66.8a7.612,7.612,0,0,0,5.149,1.987h6.436v7.723a1.287,1.287,0,0,0,2.2.91l4.239-4.239,4.239,4.239a1.287,1.287,0,0,0,2.2-.91V68.784h7.723a1.287,1.287,0,0,0,.91-2.2,7.816,7.816,0,0,1,0-11.052,1.287,1.287,0,0,0,.366-1.058ZM39.467,9.574a9.02,9.02,0,0,1,9.01,9.01,8.928,8.928,0,0,1-3.653,7.23,1.287,1.287,0,0,0-.515.922l-.417,4.72H40.754v-7.19l3.484-3.484-1.82-1.82-2.951,2.951-2.951-2.951-1.82,1.82,3.484,3.484v7.19H35.042l-.417-4.72a1.287,1.287,0,0,0-.515-.922,8.928,8.928,0,0,1-3.653-7.23,9.02,9.02,0,0,1,9.01-9.01ZM35.5,36.6,35.27,34.03h8.395L43.437,36.6Zm7.451,2.574a3.641,3.641,0,0,1-6.964,0Zm18.4,34.22L58.4,70.448a1.287,1.287,0,0,0-1.82,0L53.626,73.4V61.061h7.723Zm7.7-7.19H63.923V59.773a1.287,1.287,0,0,0-1.287-1.287H45.9v2.574h5.149v5.149H44.616A5.1,5.1,0,0,1,40.5,64.118a1.335,1.335,0,0,0-2.059,0,5.1,5.1,0,0,1-4.119,2.092H9.882a10.287,10.287,0,0,0,1.03-2.574h22.12V61.061H11.241a10.336,10.336,0,0,0-1.359-5.149H34.318A5.1,5.1,0,0,1,38.437,58,1.335,1.335,0,0,0,40.5,58a5.1,5.1,0,0,1,4.119-2.092H69.052A10.426,10.426,0,0,0,69.052,66.209ZM44.616,53.338a7.612,7.612,0,0,0-5.149,1.987,7.612,7.612,0,0,0-5.149-1.987H8.732L12.3,22.446H28.543a11.5,11.5,0,0,0,3.567,5.073l.922,10.486a1.244,1.244,0,0,0,.055.194h-.022l.351,1.4a6.231,6.231,0,0,0,12.092,0l.351-1.4h-.022a1.242,1.242,0,0,0,.066-.194l.927-10.486a11.5,11.5,0,0,0,3.562-5.073H66.636L70.2,53.338Z" transform="translate(-5.997 -0.564)" fill="#0757a0"/>
    <path id="Path_1623" data-name="Path 1623" d="M13.287,35.159H24.872a1.287,1.287,0,0,0,1.287-1.287V22.287A1.287,1.287,0,0,0,24.872,21h-10.3a1.287,1.287,0,0,0-1.279,1.146L12.008,33.73a1.287,1.287,0,0,0,1.279,1.429Zm2.446-11.584h7.852v9.01h-8.86Z" transform="translate(-4.273 3.456)" fill="#0757a0"/>
    <path id="Path_1624" data-name="Path 1624" d="M12,34h7.723v2.574H12Z" transform="translate(-4.273 7.189)" fill="#0757a0"/>
    <path id="Path_1625" data-name="Path 1625" d="M20,34h2.574v2.574H20Z" transform="translate(-1.976 7.189)" fill="#0757a0"/>
    <path id="Path_1626" data-name="Path 1626" d="M11,38H22.584v2.574H11Z" transform="translate(-4.561 8.338)" fill="#0757a0"/>
    <path id="Path_1627" data-name="Path 1627" d="M22,38h6.436v2.574H22Z" transform="translate(-1.402 8.338)" fill="#0757a0"/>
    <path id="Path_1628" data-name="Path 1628" d="M41,22H53.872v2.574H41Z" transform="translate(4.054 3.743)" fill="#0757a0"/>
    <path id="Path_1629" data-name="Path 1629" d="M40,26h2.574v2.574H40Z" transform="translate(3.767 4.892)" fill="#0757a0"/>
    <path id="Path_1630" data-name="Path 1630" d="M44,26H54.3v2.574H44Z" transform="translate(4.916 4.892)" fill="#0757a0"/>
    <path id="Path_1631" data-name="Path 1631" d="M39,30h6.436v2.574H39Z" transform="translate(3.48 6.04)" fill="#0757a0"/>
    <path id="Path_1632" data-name="Path 1632" d="M46,30h7.723v2.574H46Z" transform="translate(5.49 6.04)" fill="#0757a0"/>
    <path id="Path_1633" data-name="Path 1633" d="M51,34h2.574v2.574H51Z" transform="translate(6.926 7.189)" fill="#0757a0"/>
    <path id="Path_1634" data-name="Path 1634" d="M38,34H52.159v2.574H38Z" transform="translate(3.193 7.189)" fill="#0757a0"/>
    <path id="Path_1635" data-name="Path 1635" d="M36,38H48.872v2.574H36Z" transform="translate(2.618 8.338)" fill="#0757a0"/>
    <path id="Path_1636" data-name="Path 1636" d="M48,38h6.436v2.574H48Z" transform="translate(6.064 8.338)" fill="#0757a0"/>
  </g>
</svg>
