<svg id="Group_1884" data-name="Group 1884" xmlns="http://www.w3.org/2000/svg" width="71.719" height="71.712" viewBox="0 0 71.719 71.712">
  <path id="Path_1648" data-name="Path 1648" d="M3408.952,4032l-2.923,5.677H3400.8l3.586,3.586-1.494,6.574,6.061-2.838,5.743,2.838-1.046-5.678,3.287-4.482h-4.931Z" transform="translate(-3373.093 -4010.989)" fill="#b2ebb8" stroke="#707070" stroke-width="1"/>
  <path id="Path_1649" data-name="Path 1649" d="M3261.4,4203.6l3.81,16.136h47.065l4.482-16.136Z" transform="translate(-3253.219 -4158.552)" fill="#b2ebb8"/>
  <g id="badge" transform="translate(0 0)">
    <path id="Path_1637" data-name="Path 1637" d="M122.008,266.2a1.051,1.051,0,1,0-1.051-1.051A1.051,1.051,0,0,0,122.008,266.2Z" transform="translate(-104.014 -227.115)" fill="#10c125"/>
    <path id="Path_1638" data-name="Path 1638" d="M114,229.2a1.051,1.051,0,1,0-1.051-1.051A1.051,1.051,0,0,0,114,229.2Z" transform="translate(-97.127 -195.297)" fill="#10c125"/>
    <path id="Path_1639" data-name="Path 1639" d="M112.926,189.882a1.051,1.051,0,1,0-1.051,1.051A1.051,1.051,0,0,0,112.926,189.882Z" transform="translate(-95.308 -162.384)" fill="#10c125"/>
    <path id="Path_1640" data-name="Path 1640" d="M375.868,265.1a1.051,1.051,0,1,0,1.051-1.051A1.051,1.051,0,0,0,375.868,265.1Z" transform="translate(-323.218 -227.068)" fill="#10c125"/>
    <path id="Path_1641" data-name="Path 1641" d="M386.025,228.1a1.051,1.051,0,1,0-1.051,1.051A1.051,1.051,0,0,0,386.025,228.1Z" transform="translate(-330.153 -195.25)" fill="#10c125"/>
    <path id="Path_1642" data-name="Path 1642" d="M387.1,188.831a1.051,1.051,0,1,0,1.051,1.051A1.051,1.051,0,0,0,387.1,188.831Z" transform="translate(-331.972 -162.384)" fill="#10c125"/>
    <path id="Path_1643" data-name="Path 1643" d="M68.8,57.745c2.444-3.15,2.891-8.059,2.91-8.283a1.05,1.05,0,0,0-.945-1.135c-.117-.011-2.629-.251-6.209-.247.244-1.5.336-2.441.346-2.551a1.051,1.051,0,0,0-.949-1.145l-.48-.042c3.94-10.6,3.165-25.808,1.273-32.667a1.051,1.051,0,0,0-1.192-.767c-8.572,1.464-15.673.185-21.107-3.8A18.349,18.349,0,0,1,36.819.645a1.055,1.055,0,0,0-1.924,0c-.041.093-4.228,9.327-17.012,10.677a1.051,1.051,0,1,0,.221,2.089A24.483,24.483,0,0,0,32.727,6.941,21.185,21.185,0,0,0,35.857,3.2c5.589,8.648,16.588,11.684,27.077,9.941a61.563,61.563,0,0,1,1.219,9.426,56.521,56.521,0,0,1-2.842,21.609c-.807-.06-1.783-.128-2.908-.2a46.333,46.333,0,0,0,2.352-8.994,1.051,1.051,0,1,0-2.075-.332A43.853,43.853,0,0,1,56.2,43.838a371.051,371.051,0,0,0-40.691,0c-3.187-7.354-3.674-18.947-2.65-25.389.588.025,1.172.037,1.746.037,9.156,0,15.345-3.168,18.925-5.825a27.535,27.535,0,0,0,2.323-1.932,27.513,27.513,0,0,0,2.323,1.932c3.58,2.657,9.77,5.825,18.925,5.825.578,0,1.165-.013,1.756-.038a59.846,59.846,0,0,1,.341,11.66,1.051,1.051,0,1,0,2.1.15A62.048,62.048,0,0,0,60.812,17.2a1.049,1.049,0,0,0-1.108-.9c-.874.057-1.748.086-2.6.086-8.581,0-14.347-2.942-17.672-5.411A25.3,25.3,0,0,1,36.6,8.528a1.057,1.057,0,0,0-1.488,0,25.319,25.319,0,0,1-2.832,2.446c-3.325,2.468-9.09,5.411-17.672,5.411-.847,0-1.718-.029-2.589-.085a1.051,1.051,0,0,0-1.108.9,60.24,60.24,0,0,0,.1,18.089,46.194,46.194,0,0,0,2.3,8.684c-1.125.072-2.1.141-2.909.2a56.53,56.53,0,0,1-2.841-21.61,61.549,61.549,0,0,1,1.219-9.426,41.227,41.227,0,0,0,4.582.43,1.051,1.051,0,1,0,.075-2.1,39.991,39.991,0,0,1-5.281-.558,1.051,1.051,0,0,0-1.192.767C5.071,18.584,4.294,33.7,8.237,44.343l-.48.042a1.051,1.051,0,0,0-.949,1.145c.01.11.1,1.05.347,2.551-3.578,0-6.088.235-6.205.247A1.05,1.05,0,0,0,0,49.462c.019.224.466,5.133,2.91,8.283C.47,60.9.023,65.8,0,66.028a1.05,1.05,0,0,0,.937,1.134c.222.023,3.785.388,8.528.388a77.482,77.482,0,0,0,7.984-.388,1.051,1.051,0,0,0,.89-1.37,20.541,20.541,0,0,1-.795-3.82q.888-.065,1.9-.13a44.723,44.723,0,0,0,5.56,4.417,1.051,1.051,0,0,0,1.174-1.743,43.215,43.215,0,0,1-3.769-2.848c1.338-.07,2.78-.136,4.312-.191a46.278,46.278,0,0,0,8.715,4.874,1.05,1.05,0,0,0,.83,0,46.282,46.282,0,0,0,8.716-4.874c1.531.055,2.973.12,4.311.19a48.133,48.133,0,0,1-13.442,7.886,53.838,53.838,0,0,1-5.692-2.637,1.051,1.051,0,1,0-1,1.85,56.2,56.2,0,0,0,6.308,2.9,1.05,1.05,0,0,0,.76,0,49.378,49.378,0,0,0,16.028-9.821q1.014.065,1.905.131a20.536,20.536,0,0,1-.794,3.819,1.051,1.051,0,0,0,.889,1.37,77.407,77.407,0,0,0,7.984.388c4.742,0,8.306-.365,8.528-.388a1.05,1.05,0,0,0,.937-1.134c-.019-.224-.466-5.133-2.91-8.283ZM2.24,65.167c.275-1.651,1.019-4.867,2.813-6.683a1.05,1.05,0,0,0,0-1.477c-1.79-1.812-2.535-5.018-2.811-6.672,1.116-.073,3.009-.165,5.292-.152a59.565,59.565,0,0,0,3.523,11.629,1.052,1.052,0,0,0,1.083.631c.034,0,1.225-.136,3.313-.308a20.712,20.712,0,0,0,.539,3.055A90.354,90.354,0,0,1,2.24,65.167Zm33.617-.925a45.748,45.748,0,0,1-5.493-2.869c3.468-.08,7.519-.08,10.987,0A45.726,45.726,0,0,1,35.857,64.242Zm0-5.03c-11.467,0-20.521.8-23.166,1.062A60.514,60.514,0,0,1,9.029,46.386c3.326-.269,13.976-1.041,26.828-1.041s23.5.771,26.829,1.041a60.39,60.39,0,0,1-3.663,13.889C56.378,60.013,47.325,59.212,35.857,59.212ZM55.725,65.19a20.705,20.705,0,0,0,.539-3.054c2.086.172,3.275.3,3.309.308a1.051,1.051,0,0,0,1.083-.631,59.555,59.555,0,0,0,3.523-11.629c2.283-.014,4.179.079,5.3.152-.275,1.652-1.016,4.853-2.813,6.672a1.05,1.05,0,0,0,0,1.477c1.795,1.816,2.538,5.033,2.813,6.684a90.241,90.241,0,0,1-13.754.023Z" transform="translate(0 -0.022)" fill="#10c125"/>
    <path id="Path_1644" data-name="Path 1644" d="M203.617,139.754a1.05,1.05,0,0,0-.9-.725c-.1-.01-2.277-.224-5.574-.339-1.44-3.74-2.694-6.447-2.708-6.475a1.055,1.055,0,0,0-1.906,0c-.013.028-1.263,2.726-2.7,6.455-1.96.063-3.835.184-5.583.359a1.051,1.051,0,0,0-.587,1.836c1.189,1.042,2.6,2.168,4.2,3.354-.753,2.331-1.347,4.49-1.767,6.43a1.055,1.055,0,0,0,1.556,1.13c.027-.016,2.583-1.51,5.836-3.648,3.254,2.138,5.809,3.632,5.836,3.648a1.051,1.051,0,0,0,1.556-1.13c-.42-1.939-1.013-4.1-1.767-6.43,1.6-1.186,3.008-2.313,4.2-3.354a1.05,1.05,0,0,0,.308-1.111Zm-6.359,3.221a1.05,1.05,0,0,0-.378,1.18c.528,1.589.982,3.1,1.358,4.512-1.112-.687-2.572-1.609-4.17-2.67a1.051,1.051,0,0,0-1.162,0c-1.6,1.061-3.058,1.983-4.17,2.67.375-1.413.829-2.923,1.358-4.512a1.051,1.051,0,0,0-.378-1.18q-1.463-1.068-2.714-2.065c1.157-.076,2.357-.129,3.59-.16a1.051,1.051,0,0,0,.957-.678c.723-1.911,1.414-3.584,1.939-4.812.526,1.231,1.219,2.91,1.946,4.829a1.05,1.05,0,0,0,.952.678c1.375.04,2.589.1,3.567.16Q198.712,141.914,197.258,142.976Z" transform="translate(-157.63 -113.18)" fill="#10c125"/>
    <path id="Path_1645" data-name="Path 1645" d="M142.136,349.481a1.053,1.053,0,0,0-1.078-1.022c-2.342.062-4.721.148-7.069.256a1.051,1.051,0,1,0,.1,2.1c2.335-.107,4.7-.193,7.028-.254A1.05,1.05,0,0,0,142.136,349.481Z" transform="translate(-114.359 -299.651)" fill="#10c125"/>
    <path id="Path_1646" data-name="Path 1646" d="M242.1,347.962c-6.847-.312-13.409-.433-20.1-.357a1.051,1.051,0,0,0,.024,2.1c6.653-.076,13.175.045,19.982.355a1.051,1.051,0,0,0,.1-2.1Z" transform="translate(-190.008 -298.898)" fill="#10c125"/>
    <path id="Path_1647" data-name="Path 1647" d="M191.233,382.771c-7.76-.252-15.023-.252-22.783,0a1.051,1.051,0,1,0,.068,2.1c7.714-.251,14.931-.25,22.646,0a1.051,1.051,0,1,0,.069-2.1Z" transform="translate(-143.981 -328.995)" fill="#10c125"/>
  </g>
</svg>
