<svg xmlns="http://www.w3.org/2000/svg" xmlns:xlink="http://www.w3.org/1999/xlink" width="119.126" height="99.033" viewBox="0 0 119.126 99.033">
  <defs>
    <linearGradient id="linear-gradient" x1="0.047" y1="0.689" x2="0.898" y2="0.144" gradientUnits="objectBoundingBox">
      <stop offset="0" stop-color="#dcfdee" stop-opacity="0"/>
      <stop offset="0.629" stop-color="#d2f3e4"/>
    </linearGradient>
  </defs>
  <g id="Group_1890" data-name="Group 1890" transform="translate(-1184.375 -2642.967)">
    <g id="Group_1833" data-name="Group 1833" transform="translate(1184.375 2642.967)">
      <g id="Group_1831" data-name="Group 1831" transform="translate(9.12 0)">
        <path id="Path_1712" data-name="Path 1712" d="M3.454,78.188c4.024,13.751,15.621,41.8,35.22,39.285,19.656-2.526,11.98-27.872,29.974-31.346,7.921-1.529,13.29,12.18,21.229,11.753C100.1,97.331,105.3,87.21,108.162,78.7c6.058-18.041-3.014-48.633-24.248-53.931-18.53-4.623-20.7,18.017-36.809,11.441-9.056-3.7-8.151-14.734-19.181-16.961C-5.443,12.512-1.9,59.89,3.454,78.188Z" transform="translate(0 -18.599)" fill="url(#linear-gradient)"/>
      </g>
      <path id="Path_1856" data-name="Path 1856" d="M407.116,374.8a3.071,3.071,0,1,1,3.07-3.071A3.074,3.074,0,0,1,407.116,374.8Zm0-3.993a.922.922,0,1,0,.922.922A.923.923,0,0,0,407.116,370.8Z" transform="translate(-308.113 -293.444)" fill="#9fb0fe"/>
      <path id="Path_1857" data-name="Path 1857" d="M70.357,159.284a1.074,1.074,0,0,1-1.074-1.074,1.29,1.29,0,0,0-1.289-1.289,1.074,1.074,0,1,1,0-2.149,1.29,1.29,0,0,0,1.289-1.289,1.074,1.074,0,1,1,2.149,0,1.29,1.29,0,0,0,1.289,1.289,1.074,1.074,0,1,1,0,2.149,1.29,1.29,0,0,0-1.289,1.289A1.074,1.074,0,0,1,70.357,159.284Z" transform="translate(-64.708 -123.659)" fill="#22d4ea"/>
      <path id="Path_1858" data-name="Path 1858" d="M420.09,417.368a1.074,1.074,0,0,1-1.074-1.074,1.29,1.29,0,0,0-1.289-1.289,1.074,1.074,0,1,1,0-2.149,1.29,1.29,0,0,0,1.289-1.289,1.074,1.074,0,1,1,2.149,0,1.29,1.29,0,0,0,1.289,1.289,1.074,1.074,0,1,1,0,2.149,1.29,1.29,0,0,0-1.289,1.289A1.074,1.074,0,0,1,420.09,417.368Z" transform="translate(-318.012 -326.293)" fill="#22d4ea"/>
      <g id="Group_1832" data-name="Group 1832" transform="translate(0 21.491)">
        <path id="Path_1742" data-name="Path 1742" d="M431.09,125.5a1.074,1.074,0,0,1-1.074-1.074,1.29,1.29,0,0,0-1.289-1.289,1.074,1.074,0,1,1,0-2.149,1.29,1.29,0,0,0,1.289-1.289,1.074,1.074,0,0,1,2.149,0,1.29,1.29,0,0,0,1.289,1.289,1.074,1.074,0,0,1,0,2.149,1.29,1.29,0,0,0-1.289,1.289A1.074,1.074,0,0,1,431.09,125.5Z" transform="translate(-326.648 -118.622)" fill="#f65ccb"/>
        <path id="Path_1743" data-name="Path 1743" d="M60.065,208.581a1.074,1.074,0,0,1-1.074-1.074,1.29,1.29,0,0,0-1.289-1.289,1.074,1.074,0,0,1,0-2.149,1.29,1.29,0,0,0,1.289-1.289,1.074,1.074,0,0,1,2.149,0,1.29,1.29,0,0,0,1.289,1.289,1.074,1.074,0,1,1,0,2.149,1.29,1.29,0,0,0-1.289,1.289A1.074,1.074,0,0,1,60.065,208.581Z" transform="translate(-56.627 -183.855)" fill="#f65ccb"/>
      </g>
    </g>
    <g id="hourglass" transform="translate(1200.064 2647.9)">
      <g id="Group_1802" data-name="Group 1802" transform="translate(1.262 1.262)">
        <path id="Path_1854" data-name="Path 1854" d="M38.193,0A38.193,38.193,0,1,1,0,38.193,38.193,38.193,0,0,1,38.193,0Z" transform="translate(3.618 3.581)" fill="#f65ccb"/>
        <path id="Path_1786" data-name="Path 1786" d="M97.982,66.947A41.815,41.815,0,1,1,60.061,7.5V49.311Z" transform="translate(-18.25 -7.5)" fill="#24dcef"/>
        <g id="Group_1801" data-name="Group 1801" transform="translate(23.907 11.791)">
          <path id="Path_1787" data-name="Path 1787" d="M201.177,119.44a37.452,37.452,0,0,1,3.591,12.673,3.05,3.05,0,0,1-.852,2.313,50.527,50.527,0,0,1-5.532,4.91,3.805,3.805,0,0,0,0,6.036,50.528,50.528,0,0,1,5.532,4.91,3.05,3.05,0,0,1,.852,2.313,37.457,37.457,0,0,1-3.591,12.673H176.939a37.457,37.457,0,0,1-3.591-12.673,3.05,3.05,0,0,1,.852-2.313,50.529,50.529,0,0,1,5.531-4.91,3.805,3.805,0,0,0,0-6.036,50.527,50.527,0,0,1-5.531-4.91,3.05,3.05,0,0,1-.852-2.313,37.457,37.457,0,0,1,3.591-12.673Z" transform="translate(-171.154 -112.397)" fill="#d3effb"/>
          <path id="Path_1788" data-name="Path 1788" d="M185.115,145.412a47.9,47.9,0,0,0-2.718,5.961,78.606,78.606,0,0,0,1.468,13.891H176.94a37.451,37.451,0,0,1-3.592-12.675,3.05,3.05,0,0,1,.852-2.313,50.519,50.519,0,0,1,5.531-4.91,3.8,3.8,0,0,0,0-6.035,50.539,50.539,0,0,1-5.531-4.91,3.05,3.05,0,0,1-.852-2.313,37.456,37.456,0,0,1,3.592-12.675h6.925a78.607,78.607,0,0,0-1.468,13.891,47.9,47.9,0,0,0,2.718,5.961A7.773,7.773,0,0,1,185.115,145.412Z" transform="translate(-171.154 -112.392)" fill="#9dc6fb"/>
          <path id="Path_1789" data-name="Path 1789" d="M226.642,169.063a5.66,5.66,0,0,1-1.8,5.6c-.584.507-1.241,1.049-1.96,1.6a6.448,6.448,0,0,0-1.961,2.453,4.706,4.706,0,0,1-8.508,0,6.445,6.445,0,0,0-1.96-2.453c-.718-.549-1.375-1.09-1.959-1.6a5.66,5.66,0,0,1-1.8-5.6q.051-.214.106-.424h19.737q.054.208.105.421Z" transform="translate(-198.764 -153.32)" fill="#feeca8"/>
          <path id="Path_1790" data-name="Path 1790" d="M216.668,181.4a4.661,4.661,0,0,1-4.253-2.694,6.455,6.455,0,0,0-1.96-2.453c-.718-.549-1.375-1.09-1.958-1.6a5.662,5.662,0,0,1-1.8-5.6c.035-.141.071-.284.106-.424h5.968c-.015.14-.029.283-.042.424a11.817,11.817,0,0,0,.712,5.6c.23.506.491,1.048.774,1.6a8.844,8.844,0,0,1,.776,2.453C215.285,180.367,215.95,181.4,216.668,181.4Z" transform="translate(-198.764 -153.315)" fill="#fbcd9c"/>
          <g id="Group_1799" data-name="Group 1799" transform="translate(9.04 36.378)">
            <path id="Path_1791" data-name="Path 1791" d="M231.8,307.1c0-5.747-4.556-10.46-7.135-12.668a2.66,2.66,0,0,0-3.457,0c-2.579,2.208-7.135,6.921-7.135,12.668" transform="translate(-214.069 -293.788)" fill="#feeca8"/>
            <path id="Path_1792" data-name="Path 1792" d="M221.2,294.621a2.619,2.619,0,0,1,1.273-.6,1.88,1.88,0,0,0-.151.3,36.922,36.922,0,0,0-2.508,12.968H214.07C214.07,301.542,218.624,296.828,221.2,294.621Z" transform="translate(-214.07 -293.984)" fill="#fbcd9c"/>
          </g>
          <path id="Path_1793" data-name="Path 1793" d="M192.513,372.875H163.978a3.636,3.636,0,0,0-3.636,3.636v3.084a3.636,3.636,0,0,0,3.636,3.636h28.536a3.636,3.636,0,0,0,3.636-3.636v-3.084A3.636,3.636,0,0,0,192.513,372.875Z" transform="translate(-160.341 -323.191)" fill="#49177b"/>
          <path id="Path_1794" data-name="Path 1794" d="M192.513,77.582H163.978a3.636,3.636,0,0,0-3.636,3.636V84.3a3.636,3.636,0,0,0,3.636,3.636h28.536a3.636,3.636,0,0,0,3.636-3.636V81.218A3.636,3.636,0,0,0,192.513,77.582Z" transform="translate(-160.341 -77.581)" fill="#49177b"/>
          <g id="Group_1800" data-name="Group 1800">
            <path id="Path_1795" data-name="Path 1795" d="M170.354,87.933h-6.376a3.635,3.635,0,0,1-3.636-3.634V81.215a3.636,3.636,0,0,1,3.636-3.636h6.376a3.636,3.636,0,0,0-3.636,3.636V84.3A3.635,3.635,0,0,0,170.354,87.933Z" transform="translate(-160.341 -77.579)" fill="#5a4487"/>
            <path id="Path_1796" data-name="Path 1796" d="M170.351,383.228h-6.376a3.635,3.635,0,0,1-3.636-3.634V376.51a3.636,3.636,0,0,1,3.636-3.636h6.376a3.636,3.636,0,0,0-3.636,3.636v3.084A3.635,3.635,0,0,0,170.351,383.228Z" transform="translate(-160.339 -323.19)" fill="#5a4487"/>
          </g>
        </g>
      </g>
      <g id="Group_1803" data-name="Group 1803" transform="translate(0 0)">
        <path id="Path_1797" data-name="Path 1797" d="M92.276,59.565l-2.17-1.009A39.459,39.459,0,0,0,55.085,3.6V1.262A1.262,1.262,0,0,0,53.823,0a43.046,43.046,0,0,0-36.69,20.5,1.262,1.262,0,1,0,2.148,1.324A40.519,40.519,0,0,1,52.561,2.544v9.248H39.555a4.9,4.9,0,0,0-4.9,4.9v3.084a4.906,4.906,0,0,0,3.884,4.792,33.366,33.366,0,0,0-1.688,8.123,4.3,4.3,0,0,0,1.2,3.271A51.282,51.282,0,0,0,43.73,41a2.543,2.543,0,0,1,0,4.03,51.587,51.587,0,0,0-5.671,5.034,4.315,4.315,0,0,0-1.205,3.274,33.494,33.494,0,0,0,1.727,8.239,4.906,4.906,0,0,0-3.924,4.8v3.084a4.9,4.9,0,0,0,4.9,4.9H68.091a4.9,4.9,0,0,0,4.9-4.9V66.373a4.906,4.906,0,0,0-3.923-4.8,33.49,33.49,0,0,0,1.727-8.238,4.278,4.278,0,0,0-.055-1l7.354,3.42a1.262,1.262,0,1,0,1.064-2.288L67.522,48.052c-1.007-.924-2.217-1.963-3.606-3.025a2.543,2.543,0,0,1,0-4.03,51.639,51.639,0,0,0,5.673-5.036,4.311,4.311,0,0,0,1.2-3.272A33.362,33.362,0,0,0,69.1,24.565a4.905,4.905,0,0,0,3.884-4.792V16.689a4.9,4.9,0,0,0-4.9-4.9H55.085V6.129A36.944,36.944,0,0,1,87.816,57.491l-4.108-1.91a1.262,1.262,0,1,0-1.064,2.288l7.4,3.443a40.555,40.555,0,0,1-76.775-18.24,40.2,40.2,0,0,1,3.7-16.934,1.262,1.262,0,0,0-2.292-1.055,43.083,43.083,0,0,0,62.6,54.125A43.156,43.156,0,0,0,92.887,61.242a1.262,1.262,0,0,0-.612-1.677ZM70.464,66.373v3.084a2.376,2.376,0,0,1-2.374,2.374H39.555a2.376,2.376,0,0,1-2.374-2.374V66.373A2.376,2.376,0,0,1,39.555,64H68.091A2.376,2.376,0,0,1,70.464,66.373Zm-24.156-4.9c.327-2.446,1.729-6.273,6.606-10.448a1.407,1.407,0,0,1,1.816,0c4.877,4.175,6.279,8,6.606,10.448H46.308Zm21.466-27.27a49.066,49.066,0,0,1-5.392,4.786,5.067,5.067,0,0,0,0,8.04,49.386,49.386,0,0,1,5.391,4.783,1.793,1.793,0,0,1,.5,1.358,31.855,31.855,0,0,1-1.844,8.3H63.881c-.578-5.624-4.874-10.109-7.509-12.365a3.9,3.9,0,0,0-5.1,0c-2.635,2.256-6.931,6.741-7.509,12.365H41.216a31.863,31.863,0,0,1-1.844-8.3,1.787,1.787,0,0,1,.5-1.356,49.066,49.066,0,0,1,5.39-4.784,5.067,5.067,0,0,0,0-8.04A49.411,49.411,0,0,1,39.871,34.2a1.779,1.779,0,0,1-.5-1.353,31.7,31.7,0,0,1,1.8-8.179h25.3a31.692,31.692,0,0,1,1.8,8.181,1.785,1.785,0,0,1-.5,1.354Zm2.69-17.516v3.084a2.376,2.376,0,0,1-2.374,2.374H39.555a2.376,2.376,0,0,1-2.374-2.374V16.689a2.376,2.376,0,0,1,2.374-2.374H68.091A2.376,2.376,0,0,1,70.464,16.689Z" transform="translate(-10.75 0)"/>
        <path id="Path_1798" data-name="Path 1798" d="M221.51,162.088a1.262,1.262,0,0,0-1.222-.946H200.552a1.262,1.262,0,0,0-1.222.947q-.057.22-.111.444a6.9,6.9,0,0,0,2.2,6.85c.662.574,1.341,1.127,2.019,1.646A5.214,5.214,0,0,1,205.018,173a5.968,5.968,0,0,0,10.8,0,5.217,5.217,0,0,1,1.58-1.973c.679-.519,1.358-1.073,2.02-1.647a6.9,6.9,0,0,0,2.2-6.853Q221.567,162.306,221.51,162.088Zm-3.743,5.387c-.623.54-1.262,1.061-1.9,1.548a7.751,7.751,0,0,0-2.344,2.932,3.444,3.444,0,0,1-6.21,0,7.746,7.746,0,0,0-2.343-2.933c-.637-.487-1.276-1.008-1.9-1.548a4.384,4.384,0,0,1-1.5-3.81h17.686A4.383,4.383,0,0,1,217.768,167.475Z" transform="translate(-167.347 -134.029)"/>
        <path id="Path_1799" data-name="Path 1799" d="M281.512,344.934v.06a1.262,1.262,0,1,0,2.524,0v-.06a1.262,1.262,0,1,0-2.524,0Z" transform="translate(-235.955 -285.848)"/>
        <path id="Path_1800" data-name="Path 1800" d="M271.053,325.623v.06a1.262,1.262,0,1,0,2.524,0v-.06a1.262,1.262,0,0,0-2.524,0Z" transform="translate(-227.256 -269.786)"/>
        <path id="Path_1801" data-name="Path 1801" d="M261.112,343.493a1.262,1.262,0,0,0-1.262,1.262v.06a1.262,1.262,0,1,0,2.524,0v-.06A1.262,1.262,0,0,0,261.112,343.493Z" transform="translate(-217.938 -285.699)"/>
      </g>
    </g>
  </g>
</svg>
