<svg xmlns="http://www.w3.org/2000/svg" xmlns:xlink="http://www.w3.org/1999/xlink" width="120.448" height="100.131" viewBox="0 0 120.448 100.131">
  <defs>
    <linearGradient id="linear-gradient" x1="0.047" y1="0.689" x2="0.898" y2="0.144" gradientUnits="objectBoundingBox">
      <stop offset="0" stop-color="#dcfdee" stop-opacity="0"/>
      <stop offset="0.629" stop-color="#d2f3e4"/>
    </linearGradient>
  </defs>
  <g id="Group_1909" data-name="Group 1909" transform="translate(-437 -2681.069)">
    <g id="Group_1837" data-name="Group 1837" transform="translate(437 2681.069)">
      <g id="Group_1831" data-name="Group 1831" transform="translate(9.221 0)">
        <path id="Path_1712" data-name="Path 1712" d="M3.492,78.849c4.068,13.9,15.795,42.267,35.61,39.721,19.874-2.554,12.113-28.181,30.307-31.694C77.417,85.33,82.846,99.191,90.873,98.76c10.338-.555,15.6-10.789,18.489-19.392,6.125-18.241-3.048-49.172-24.517-54.529C66.109,20.164,63.917,43.055,47.627,36.406c-9.156-3.737-8.242-14.9-19.393-17.149C-5.5,12.445-1.922,60.348,3.492,78.849Z" transform="translate(0 -18.599)" fill="url(#linear-gradient)"/>
      </g>
      <path id="Path_1856" data-name="Path 1856" d="M407.15,374.866a3.1,3.1,0,1,1,3.1-3.1A3.108,3.108,0,0,1,407.15,374.866Zm0-4.037a.932.932,0,1,0,.932.932A.933.933,0,0,0,407.15,370.829Z" transform="translate(-307.049 -292.61)" fill="#9fb0fe"/>
      <path id="Path_1857" data-name="Path 1857" d="M70.395,159.361a1.086,1.086,0,0,1-1.086-1.086,1.3,1.3,0,0,0-1.3-1.3,1.086,1.086,0,1,1,0-2.172,1.3,1.3,0,0,0,1.3-1.3,1.086,1.086,0,1,1,2.172,0,1.3,1.3,0,0,0,1.3,1.3,1.086,1.086,0,1,1,0,2.172,1.3,1.3,0,0,0-1.3,1.3A1.086,1.086,0,0,1,70.395,159.361Z" transform="translate(-64.683 -123.34)" fill="#22d4ea"/>
      <path id="Path_1858" data-name="Path 1858" d="M420.128,417.445a1.086,1.086,0,0,1-1.086-1.086,1.3,1.3,0,0,0-1.3-1.3,1.086,1.086,0,1,1,0-2.172,1.3,1.3,0,0,0,1.3-1.3,1.086,1.086,0,1,1,2.172,0,1.3,1.3,0,0,0,1.3,1.3,1.086,1.086,0,1,1,0,2.172,1.3,1.3,0,0,0-1.3,1.3A1.086,1.086,0,0,1,420.128,417.445Z" transform="translate(-316.918 -325.359)" fill="#22d4ea"/>
      <g id="Group_1832" data-name="Group 1832" transform="translate(0 21.729)">
        <path id="Path_1742" data-name="Path 1742" d="M431.128,125.574a1.086,1.086,0,0,1-1.086-1.086,1.3,1.3,0,0,0-1.3-1.3,1.086,1.086,0,0,1,0-2.172,1.3,1.3,0,0,0,1.3-1.3,1.086,1.086,0,1,1,2.172,0,1.3,1.3,0,0,0,1.3,1.3,1.086,1.086,0,0,1,0,2.172,1.3,1.3,0,0,0-1.3,1.3A1.086,1.086,0,0,1,431.128,125.574Z" transform="translate(-325.528 -118.622)" fill="#f65ccb"/>
        <path id="Path_1743" data-name="Path 1743" d="M60.1,208.658a1.086,1.086,0,0,1-1.086-1.086,1.3,1.3,0,0,0-1.3-1.3,1.086,1.086,0,1,1,0-2.172,1.3,1.3,0,0,0,1.3-1.3,1.086,1.086,0,0,1,2.172,0,1.3,1.3,0,0,0,1.3,1.3,1.086,1.086,0,1,1,0,2.172,1.3,1.3,0,0,0-1.3,1.3A1.086,1.086,0,0,1,60.1,208.658Z" transform="translate(-56.627 -183.657)" fill="#f65ccb"/>
      </g>
    </g>
    <g id="Group_1838" data-name="Group 1838" transform="translate(451 2686.343)">
      <path id="Path_1862" data-name="Path 1862" d="M55.421,10.507a7.071,7.071,0,0,0,8.767,2.349,7.071,7.071,0,0,1,10.023,5.787,7.069,7.069,0,0,0,6.417,6.417,7.071,7.071,0,0,1,5.787,10.023,7.071,7.071,0,0,0,2.349,8.767,7.071,7.071,0,0,1,0,11.573,7.07,7.07,0,0,0-2.349,8.766,7.071,7.071,0,0,1-5.787,10.023,7.069,7.069,0,0,0-6.417,6.417,7.071,7.071,0,0,1-10.023,5.786,7.071,7.071,0,0,0-8.767,2.349,7.07,7.07,0,0,1-11.573,0,7.07,7.07,0,0,0-8.766-2.349,7.071,7.071,0,0,1-10.023-5.786,7.07,7.07,0,0,0-6.417-6.417,7.07,7.07,0,0,1-5.786-10.023,7.07,7.07,0,0,0-2.349-8.766,7.07,7.07,0,0,1,0-11.573,7.071,7.071,0,0,0,2.349-8.767,7.071,7.071,0,0,1,5.786-10.023,7.07,7.07,0,0,0,6.417-6.417,7.07,7.07,0,0,1,10.023-5.787,7.07,7.07,0,0,0,8.766-2.349A7.07,7.07,0,0,1,55.421,10.507Zm0,0" transform="translate(-6.227 -6.227)" fill="#f65ccb"/>
      <path id="Path_1863" data-name="Path 1863" d="M129.927,97.58A32.346,32.346,0,1,1,97.58,65.234,32.347,32.347,0,0,1,129.927,97.58Zm0,0" transform="translate(-54.173 -54.173)" fill="#24dcef"/>
      <path id="Path_1864" data-name="Path 1864" d="M233.948,65.234a32.673,32.673,0,0,0-4.5.313,32.348,32.348,0,0,1,0,64.066,32.672,32.672,0,0,0,4.5.313,32.346,32.346,0,1,0,0-64.693Zm0,0" transform="translate(-190.54 -54.173)" fill="#0fa8b8"/>
      <path id="Path_1865" data-name="Path 1865" d="M159.555,158.835l-7.4-9.119a2.341,2.341,0,0,0-1.816-.888H120.756a2.341,2.341,0,0,0-1.815.888l-7.4,9.119a2.681,2.681,0,0,0-.587,1.586h0a2.4,2.4,0,0,0,.488,1.559L133.636,191.1a2.407,2.407,0,0,0,3.828,0l22.189-29.123a2.4,2.4,0,0,0,.488-1.559h0a2.682,2.682,0,0,0-.587-1.586Zm0,0" transform="translate(-92.142 -123.593)" fill="#5a4487"/>
      <path id="Path_1866" data-name="Path 1866" d="M197.969,217.2l9.84,31.63,9.84-31.63Zm0,0" transform="translate(-164.401 -180.371)" fill="#917cbc"/>
      <path id="Path_1867" data-name="Path 1867" d="M197.969,160.421l9.84-11.593,9.84,11.593Zm0,0" transform="translate(-164.401 -123.593)" fill="#49177b"/>
      <path id="Path_1868" data-name="Path 1868" d="M320.8,150.683a2.415,2.415,0,0,0-.9-.69l-5.874,11.4h14.752a2.681,2.681,0,0,0-.588-1.586Zm0,0" transform="translate(-260.784 -124.56)" fill="#917cbc"/>
      <path id="Path_1869" data-name="Path 1869" d="M118.947,150.683a2.415,2.415,0,0,1,.9-.69l5.874,11.4H110.965a2.681,2.681,0,0,1,.587-1.586Zm0,0" transform="translate(-92.149 -124.56)" fill="#917cbc"/>
      <path id="Path_1870" data-name="Path 1870" d="M154.316,151.8l-7.394-9.118a3.6,3.6,0,0,0-2.8-1.358H114.529a3.6,3.6,0,0,0-2.8,1.358l-7.4,9.119a3.983,3.983,0,0,0-.871,2.338c0,.019,0,.039,0,.058a3.681,3.681,0,0,0,.749,2.321L126.4,185.646a3.678,3.678,0,0,0,5.851,0l22.189-29.123a3.681,3.681,0,0,0,.749-2.321c0-.019,0-.038,0-.058a3.974,3.974,0,0,0-.871-2.338Zm-2.37,1.116h-10.7l4.157-8.064Zm-36.352-9.05h10.982l-6.833,8.05Zm13.73.693,7.092,8.356H122.231Zm9.58,7.357-6.833-8.05h10.982Zm-25.663-7.065,4.157,8.064H106.7ZM106.6,155.464h11.947l2.507,8.058a1.272,1.272,0,1,0,2.429-.756l-2.272-7.3h16.225l-8.112,26.077-4.308-13.848a1.272,1.272,0,0,0-2.429.755l4.205,13.517Zm25.255,26.5,8.244-26.5h11.947Zm0,0" transform="translate(-85.916 -117.364)"/>
      <path id="Path_1871" data-name="Path 1871" d="M83.266,36.58a5.792,5.792,0,0,1-1.926-7.189,8.342,8.342,0,0,0-6.827-11.826A5.792,5.792,0,0,1,69.249,12.3,8.342,8.342,0,0,0,57.424,5.475a5.793,5.793,0,0,1-7.189-1.926,8.342,8.342,0,0,0-13.655,0,5.792,5.792,0,0,1-7.189,1.926A8.342,8.342,0,0,0,17.565,12.3,5.792,5.792,0,0,1,12.3,17.565,8.342,8.342,0,0,0,5.475,29.391,5.793,5.793,0,0,1,3.549,36.58a8.342,8.342,0,0,0,0,13.655,5.792,5.792,0,0,1,1.926,7.189A8.342,8.342,0,0,0,12.3,69.249a5.792,5.792,0,0,1,5.263,5.263A8.342,8.342,0,0,0,29.391,81.34a5.793,5.793,0,0,1,7.189,1.926,8.342,8.342,0,0,0,13.655,0,5.793,5.793,0,0,1,7.189-1.926,8.342,8.342,0,0,0,11.826-6.827,5.792,5.792,0,0,1,5.263-5.263A8.342,8.342,0,0,0,81.34,57.424a5.793,5.793,0,0,1,1.926-7.189,8.342,8.342,0,0,0,0-13.655ZM81.8,48.153A8.333,8.333,0,0,0,79.034,58.5a5.8,5.8,0,0,1-4.746,8.22,8.334,8.334,0,0,0-7.571,7.571,5.8,5.8,0,0,1-8.22,4.746A8.335,8.335,0,0,0,48.152,81.8a5.8,5.8,0,0,1-9.491,0,8.333,8.333,0,0,0-10.343-2.771,5.8,5.8,0,0,1-8.22-4.746,8.334,8.334,0,0,0-7.572-7.572A5.8,5.8,0,0,1,7.781,58.5,8.333,8.333,0,0,0,5.01,48.153a5.8,5.8,0,0,1,0-9.491A8.333,8.333,0,0,0,7.781,28.318a5.8,5.8,0,0,1,4.746-8.22A8.334,8.334,0,0,0,20.1,12.527a5.8,5.8,0,0,1,8.22-4.746A8.335,8.335,0,0,0,38.662,5.01a5.8,5.8,0,0,1,9.491,0A8.334,8.334,0,0,0,58.5,7.781a5.8,5.8,0,0,1,8.22,4.746A8.334,8.334,0,0,0,74.288,20.1a5.8,5.8,0,0,1,4.746,8.22A8.333,8.333,0,0,0,81.8,38.661a5.8,5.8,0,0,1,0,9.491Zm0,0" transform="translate(0 0)"/>
      <path id="Path_1872" data-name="Path 1872" d="M124.194,263.7a1.27,1.27,0,0,0-1.367,1.168,31.077,31.077,0,0,1-61.955,0,1.272,1.272,0,0,0-2.535.2,33.62,33.62,0,0,0,67.026,0A1.271,1.271,0,0,0,124.194,263.7Zm0,0" transform="translate(-48.441 -218.982)"/>
      <path id="Path_1873" data-name="Path 1873" d="M59.5,90.038q.051,0,.1,0a1.271,1.271,0,0,0,1.266-1.172,31.076,31.076,0,0,1,61.952-.024,1.272,1.272,0,0,0,2.535-.2,33.62,33.62,0,0,0-67.023.027A1.272,1.272,0,0,0,59.5,90.038Zm0,0" transform="translate(-48.441 -47.945)"/>
    </g>
  </g>
</svg>
