<svg xmlns="http://www.w3.org/2000/svg" xmlns:xlink="http://www.w3.org/1999/xlink" width="96.33" height="89.332" viewBox="0 0 96.33 89.332">
  <defs>
    <linearGradient id="linear-gradient" x1="0.047" y1="0.689" x2="0.898" y2="0.144" gradientUnits="objectBoundingBox">
      <stop offset="0" stop-color="#dcfdee" stop-opacity="0"/>
      <stop offset="0.629" stop-color="#d2f3e4"/>
    </linearGradient>
  </defs>
  <g id="Group_1891" data-name="Group 1891" transform="translate(-480 -2808.069)">
    <g id="Group_1749" data-name="Group 1749" transform="translate(480 2808.069)">
      <path id="Path_1712" data-name="Path 1712" d="M3.024,70.78c3.523,12.042,13.679,36.606,30.841,34.4,17.213-2.212,10.491-24.407,26.248-27.449C67.049,76.393,71.751,88.4,78.7,88.024c8.953-.481,13.511-9.344,16.013-16.795C100.02,55.431,92.076,28.643,73.481,24,57.255,19.954,55.357,39.78,41.248,34.021c-7.93-3.237-7.138-12.9-16.8-14.852C-4.766,13.269-1.664,54.756,3.024,70.78Z" transform="translate(0 -18.599)" fill="url(#linear-gradient)"/>
    </g>
    <path id="Path_1713" data-name="Path 1713" d="M172.871,135.634H137.412a5.644,5.644,0,0,1-5.644-5.644V58.367a5.644,5.644,0,0,1,5.644-5.644h35.458a5.644,5.644,0,0,1,5.644,5.644V129.99A5.644,5.644,0,0,1,172.871,135.634Z" transform="translate(373.024 2761.766)" fill="#2626bc" opacity="0.1"/>
    <path id="Path_1714" data-name="Path 1714" d="M172.871,111.634H137.412a5.644,5.644,0,0,1-5.644-5.644V34.367a5.644,5.644,0,0,1,5.644-5.644h35.458a5.644,5.644,0,0,1,5.644,5.644V105.99A5.644,5.644,0,0,1,172.871,111.634Z" transform="translate(373.024 2781.25)" fill="#24dcef"/>
    <path id="Path_1715" data-name="Path 1715" d="M131.77,71.632h46.746V138.4H131.77Z" transform="translate(373.022 2746.415)" fill="#49177b"/>
    <path id="Path_1716" data-name="Path 1716" d="M189.748,147.512h-9.585a1.881,1.881,0,0,1-1.881-1.881v-8.845a1.881,1.881,0,0,1,1.881-1.881h9.585a1.881,1.881,0,0,1,1.881,1.881v8.845A1.881,1.881,0,0,1,189.748,147.512Z" transform="translate(335.261 2695.047)" fill="#5a4487"/>
    <path id="Path_1717" data-name="Path 1717" d="M274.667,147.23h-9.585a1.881,1.881,0,0,1-1.881-1.881V136.5a1.881,1.881,0,0,1,1.881-1.881h9.585a1.881,1.881,0,0,1,1.881,1.881v8.845A1.881,1.881,0,0,1,274.667,147.23Z" transform="translate(266.319 2695.276)" fill="#5a4487"/>
    <g id="Group_1750" data-name="Group 1750" transform="translate(545.549 2829.898)">
      <path id="Path_1718" data-name="Path 1718" d="M354.334,134.622V147.23H350.28a1.882,1.882,0,0,1-1.881-1.881V136.5a1.882,1.882,0,0,1,1.881-1.881Z" transform="translate(-348.398 -134.622)" fill="#5a4487"/>
    </g>
    <g id="Group_1751" data-name="Group 1751" transform="translate(517.095 2822.078)">
      <path id="Path_1719" data-name="Path 1719" d="M218.36,93.061H198.1a.941.941,0,0,0,0,1.881H218.36a.941.941,0,0,0,0-1.881Z" transform="translate(-197.16 -93.061)" fill="#fff"/>
    </g>
    <g id="Group_1757" data-name="Group 1757" transform="translate(513.543 2827.92)">
      <g id="Group_1753" data-name="Group 1753" transform="translate(0 0.053)">
        <path id="Path_1720" data-name="Path 1720" d="M189.748,137h-9.585a1.881,1.881,0,0,1-1.881-1.881v-8.845a1.881,1.881,0,0,1,1.881-1.881h9.585a1.881,1.881,0,0,1,1.881,1.881v8.845A1.881,1.881,0,0,1,189.748,137Z" transform="translate(-178.282 -124.392)" fill="#f65ccb"/>
        <g id="Group_1752" data-name="Group 1752" transform="translate(4.634 5.604)">
          <path id="Path_1721" data-name="Path 1721" d="M207.745,170.507h-3.891a.941.941,0,1,0,0,1.881h3.891a.941.941,0,0,0,0-1.881Z" transform="translate(-202.913 -167.435)" fill="#fff"/>
          <path id="Path_1722" data-name="Path 1722" d="M219.923,154.177h-1.069a.941.941,0,0,0,0,1.881h1.069a.941.941,0,1,0,0-1.881Z" transform="translate(-215.091 -154.177)" fill="#fff"/>
        </g>
      </g>
      <g id="Group_1755" data-name="Group 1755" transform="translate(15.977)">
        <path id="Path_1723" data-name="Path 1723" d="M274.667,136.718h-9.585a1.881,1.881,0,0,1-1.881-1.881v-8.845a1.881,1.881,0,0,1,1.881-1.881h9.585a1.881,1.881,0,0,1,1.881,1.881v8.845A1.882,1.882,0,0,1,274.667,136.718Z" transform="translate(-263.201 -124.11)" fill="#22d4ea"/>
        <g id="Group_1754" data-name="Group 1754" transform="translate(4.634 5.604)">
          <path id="Path_1724" data-name="Path 1724" d="M292.664,170.226h-3.891a.941.941,0,1,0,0,1.881h3.891a.941.941,0,1,0,0-1.881Z" transform="translate(-287.832 -167.153)" fill="#fff"/>
          <path id="Path_1725" data-name="Path 1725" d="M304.842,153.9h-1.069a.941.941,0,0,0,0,1.881h1.069a.941.941,0,1,0,0-1.881Z" transform="translate(-300.01 -153.895)" fill="#fff"/>
        </g>
      </g>
      <g id="Group_1756" data-name="Group 1756" transform="translate(32.006 0)">
        <path id="Path_1726" data-name="Path 1726" d="M354.334,124.111v12.608H350.28a1.882,1.882,0,0,1-1.881-1.881v-8.845a1.882,1.882,0,0,1,1.881-1.881Z" transform="translate(-348.398 -124.111)" fill="#9fb0fe"/>
      </g>
    </g>
    <path id="Path_1727" data-name="Path 1727" d="M131.77,256.213V221.456a4.7,4.7,0,0,1,4.7-4.7h37.339a4.7,4.7,0,0,1,4.7,4.7v34.758Z" transform="translate(373.022 2628.598)" fill="#fff"/>
    <path id="Path_1728" data-name="Path 1728" d="M168.812,108.516H133.353a6.593,6.593,0,0,1-6.585-6.585V30.309a6.593,6.593,0,0,1,6.585-6.585h35.458a6.593,6.593,0,0,1,6.585,6.585v71.622A6.592,6.592,0,0,1,168.812,108.516ZM133.353,25.605a4.709,4.709,0,0,0-4.7,4.7v71.622a4.709,4.709,0,0,0,4.7,4.7h35.458a4.709,4.709,0,0,0,4.7-4.7V30.309a4.709,4.709,0,0,0-4.7-4.7Z" transform="translate(377.083 2785.309)"/>
    <g id="Group_1758" data-name="Group 1758" transform="translate(523.935 2813.242)">
      <path id="Path_1729" data-name="Path 1729" d="M241.036,47.975h-6.579a.941.941,0,1,1,0-1.881h6.579a.941.941,0,0,1,0,1.881Z" transform="translate(-233.517 -46.094)" fill="#d3effb"/>
    </g>
    <circle id="Ellipse_104" data-name="Ellipse 104" cx="0.941" cy="0.941" r="0.941" transform="translate(534.903 2813.241)" fill="#d3effb"/>
    <g id="Group_1762" data-name="Group 1762" transform="translate(510.038 2851.429)">
      <g id="Group_1761" data-name="Group 1761" transform="translate(9.268)">
        <path id="Path_1730" data-name="Path 1730" d="M213.745,249.062h-3.891a.941.941,0,0,0,0,1.881h3.891a.941.941,0,0,0,0-1.881Z" transform="translate(-208.913 -249.062)" fill="#24dcef"/>
        <path id="Path_1731" data-name="Path 1731" d="M232.936,269.335H209.854a.941.941,0,1,0,0,1.881h23.082a.941.941,0,0,0,0-1.881Z" transform="translate(-208.913 -265.521)" fill="#9fb0fe"/>
      </g>
      <path id="Path_1732" data-name="Path 1732" d="M164.409,254.759h-3.814a.941.941,0,0,1-.941-.941V250a.941.941,0,0,1,.941-.941h3.814a.941.941,0,0,1,.941.941v3.814A.941.941,0,0,1,164.409,254.759Z" transform="translate(-159.654 -249.063)" fill="#24dcef"/>
    </g>
    <g id="Group_1764" data-name="Group 1764" transform="translate(510.038 2863.084)">
      <g id="Group_1763" data-name="Group 1763" transform="translate(9.268)">
        <path id="Path_1733" data-name="Path 1733" d="M213.745,311.006h-3.891a.941.941,0,1,0,0,1.881h3.891a.941.941,0,0,0,0-1.881Z" transform="translate(-208.913 -311.006)" fill="#f65ccb"/>
        <path id="Path_1734" data-name="Path 1734" d="M232.936,331.278H209.854a.941.941,0,1,0,0,1.881h23.082a.941.941,0,0,0,0-1.881Z" transform="translate(-208.913 -327.464)" fill="#9fb0fe"/>
      </g>
      <path id="Path_1735" data-name="Path 1735" d="M164.409,316.7h-3.814a.941.941,0,0,1-.941-.941v-3.814a.941.941,0,0,1,.941-.941h3.814a.941.941,0,0,1,.941.941v3.814A.941.941,0,0,1,164.409,316.7Z" transform="translate(-159.654 -311.006)" fill="#f65ccb"/>
    </g>
    <g id="Group_1766" data-name="Group 1766" transform="translate(510.038 2874.738)">
      <g id="Group_1765" data-name="Group 1765" transform="translate(9.268)">
        <path id="Path_1736" data-name="Path 1736" d="M213.745,372.949h-3.891a.941.941,0,1,0,0,1.881h3.891a.941.941,0,0,0,0-1.881Z" transform="translate(-208.913 -372.949)" fill="#6583fe"/>
        <path id="Path_1737" data-name="Path 1737" d="M232.936,393.221H209.854a.941.941,0,1,0,0,1.881h23.082a.941.941,0,0,0,0-1.881Z" transform="translate(-208.913 -389.407)" fill="#9fb0fe"/>
      </g>
      <path id="Path_1738" data-name="Path 1738" d="M164.409,378.645h-3.814a.941.941,0,0,1-.941-.941V373.89a.941.941,0,0,1,.941-.941h3.814a.941.941,0,0,1,.941.941V377.7A.941.941,0,0,1,164.409,378.645Z" transform="translate(-159.654 -372.949)" fill="#9fb0fe"/>
    </g>
    <path id="Path_1739" data-name="Path 1739" d="M406.734,374.034a2.689,2.689,0,1,1,2.689-2.689A2.692,2.692,0,0,1,406.734,374.034Zm0-3.5a.807.807,0,1,0,.807.807A.808.808,0,0,0,406.734,370.538Z" transform="translate(151.974 2505.274)" fill="#9fb0fe"/>
    <path id="Path_1740" data-name="Path 1740" d="M69.929,158.43a.941.941,0,0,1-.941-.941,1.13,1.13,0,0,0-1.129-1.129.941.941,0,1,1,0-1.881,1.13,1.13,0,0,0,1.129-1.129.941.941,0,1,1,1.881,0A1.13,1.13,0,0,0,72,154.479a.941.941,0,1,1,0,1.881,1.13,1.13,0,0,0-1.129,1.129A.941.941,0,0,1,69.929,158.43Z" transform="translate(425.671 2680.835)" fill="#22d4ea"/>
    <path id="Path_1741" data-name="Path 1741" d="M419.662,416.514a.941.941,0,0,1-.941-.941,1.13,1.13,0,0,0-1.129-1.129.941.941,0,0,1,0-1.881,1.13,1.13,0,0,0,1.129-1.129.941.941,0,1,1,1.881,0,1.13,1.13,0,0,0,1.129,1.129.941.941,0,0,1,0,1.881,1.13,1.13,0,0,0-1.129,1.129A.941.941,0,0,1,419.662,416.514Z" transform="translate(141.739 2471.308)" fill="#22d4ea"/>
    <g id="Group_1768" data-name="Group 1768" transform="translate(490.654 2826.887)">
      <path id="Path_1742" data-name="Path 1742" d="M430.662,124.643a.941.941,0,0,1-.941-.941,1.13,1.13,0,0,0-1.129-1.129.941.941,0,1,1,0-1.881,1.13,1.13,0,0,0,1.129-1.129.941.941,0,1,1,1.881,0,1.13,1.13,0,0,0,1.129,1.129.941.941,0,0,1,0,1.881A1.13,1.13,0,0,0,431.6,123.7.941.941,0,0,1,430.662,124.643Z" transform="translate(-357.846 -118.622)" fill="#f65ccb"/>
      <path id="Path_1743" data-name="Path 1743" d="M59.637,207.727a.941.941,0,0,1-.941-.941,1.13,1.13,0,0,0-1.129-1.129.941.941,0,1,1,0-1.881,1.13,1.13,0,0,0,1.129-1.129.941.941,0,1,1,1.881,0,1.13,1.13,0,0,0,1.129,1.129.941.941,0,1,1,0,1.881,1.13,1.13,0,0,0-1.129,1.129A.941.941,0,0,1,59.637,207.727Z" transform="translate(-56.627 -186.074)" fill="#f65ccb"/>
    </g>
    <path id="Subtraction_2" data-name="Subtraction 2" d="M18.205,82.911H0V0H18.205a5.25,5.25,0,0,1,3.819,1.653,5.739,5.739,0,0,1,1.582,3.991V77.267a5.739,5.739,0,0,1-1.582,3.991A5.25,5.25,0,0,1,18.205,82.911Z" transform="translate(527.933 2809.973)" opacity="0.5" style="mix-blend-mode: overlay;isolation: isolate"/>
  </g>
</svg>
