<svg xmlns="http://www.w3.org/2000/svg" xmlns:xlink="http://www.w3.org/1999/xlink" width="106.872" height="96.211" viewBox="0 0 106.872 96.211">
  <defs>
    <linearGradient id="linear-gradient" x1="0.047" y1="0.689" x2="0.898" y2="0.144" gradientUnits="objectBoundingBox">
      <stop offset="0" stop-color="#dcfdee" stop-opacity="0"/>
      <stop offset="0.629" stop-color="#d2f3e4"/>
    </linearGradient>
  </defs>
  <g id="Group_1892" data-name="Group 1892" transform="translate(-792 -2515.069)">
    <g id="Group_1836" data-name="Group 1836" transform="translate(792 2515.069)">
      <g id="Group_1834" data-name="Group 1834" transform="translate(0 0)">
        <path id="Path_1712" data-name="Path 1712" d="M3.355,76.49c3.909,13.36,15.176,40.612,34.216,38.166C56.667,112.2,49.21,87.578,66.691,84.2c7.7-1.486,12.912,11.833,20.624,11.419,9.933-.534,14.989-10.366,17.765-18.632,5.886-17.527-2.928-47.247-23.557-52.395-18-4.492-20.108,17.5-35.761,11.115-8.8-3.591-7.919-14.314-18.634-16.478C-5.288,12.685-1.846,58.713,3.355,76.49Z" transform="translate(0 -18.599)" fill="url(#linear-gradient)"/>
      </g>
      <path id="Path_1859" data-name="Path 1859" d="M407.028,374.622a2.983,2.983,0,1,1,2.983-2.983A2.986,2.986,0,0,1,407.028,374.622Zm0-3.879a.9.9,0,1,0,.9.9A.9.9,0,0,0,407.028,370.744Z" transform="translate(-319.707 -295.587)" fill="#9fb0fe"/>
      <path id="Path_1860" data-name="Path 1860" d="M419.992,417.173a1.044,1.044,0,0,1-1.044-1.044,1.254,1.254,0,0,0-1.252-1.252,1.044,1.044,0,1,1,0-2.087,1.254,1.254,0,0,0,1.252-1.252,1.044,1.044,0,1,1,2.087,0,1.254,1.254,0,0,0,1.252,1.252,1.044,1.044,0,1,1,0,2.087,1.254,1.254,0,0,0-1.252,1.252A1.044,1.044,0,0,1,419.992,417.173Z" transform="translate(-329.683 -328.692)" fill="#22d4ea"/>
      <g id="Group_1835" data-name="Group 1835" transform="translate(11.82 20.878)">
        <path id="Path_1742" data-name="Path 1742" d="M430.992,125.3a1.044,1.044,0,0,1-1.044-1.044,1.254,1.254,0,0,0-1.252-1.252,1.044,1.044,0,1,1,0-2.087,1.254,1.254,0,0,0,1.252-1.252,1.044,1.044,0,1,1,2.087,0,1.254,1.254,0,0,0,1.252,1.252,1.044,1.044,0,0,1,0,2.087,1.254,1.254,0,0,0-1.252,1.252A1.044,1.044,0,0,1,430.992,125.3Z" transform="translate(-350.207 -118.622)" fill="#f65ccb"/>
        <path id="Path_1743" data-name="Path 1743" d="M59.967,208.385a1.044,1.044,0,0,1-1.044-1.044,1.254,1.254,0,0,0-1.252-1.252,1.044,1.044,0,1,1,0-2.087,1.254,1.254,0,0,0,1.252-1.252,1.044,1.044,0,1,1,2.087,0A1.254,1.254,0,0,0,62.263,204a1.044,1.044,0,1,1,0,2.087,1.254,1.254,0,0,0-1.252,1.252A1.044,1.044,0,0,1,59.967,208.385Z" transform="translate(-56.627 -184.364)" fill="#f65ccb"/>
      </g>
    </g>
    <g id="programmer" transform="translate(813.151 2515.198)">
      <path id="Path_1744" data-name="Path 1744" d="M65.514,53.512A18.251,18.251,0,0,0,75.035,41.3a2.691,2.691,0,0,0,.7.094c1.9,0,3.387-1.959,3.387-4.461a5.825,5.825,0,0,0-.251-1.711V29.07a21.69,21.69,0,1,0-43.38,0v6.155a5.838,5.838,0,0,0-.25,1.705c0,2.5,1.487,4.461,3.387,4.461a2.691,2.691,0,0,0,.7-.094,18.25,18.25,0,0,0,9.521,12.214A23.33,23.33,0,0,0,26.813,76.78v9.271a6.948,6.948,0,0,0,1.928,4.814l3.771,3.953c0,.055-.016.107-.016.163a3.27,3.27,0,0,0,3.266,3.267H78.608a3.271,3.271,0,0,0,3.267-3.267c0-.056-.013-.108-.016-.163l3.771-3.953a6.947,6.947,0,0,0,1.928-4.814V76.78A23.33,23.33,0,0,0,65.514,53.512Z" transform="translate(-23.713 -4.279)" fill="#e6e7e8"/>
      <path id="Path_1745" data-name="Path 1745" d="M60.482,63.858H46.338A22.524,22.524,0,0,0,23.814,86.382v9.272a6.2,6.2,0,0,0,1.713,4.278l4.014,4.21a2.489,2.489,0,0,1,2.448-2.049H74.834a2.489,2.489,0,0,1,2.448,2.049l4.013-4.209a6.2,6.2,0,0,0,1.713-4.278V86.382A22.524,22.524,0,0,0,60.482,63.858Z" transform="translate(-23.038 -16.983)" fill="#f65ccb"/>
      <path id="Path_1746" data-name="Path 1746" d="M60.117,64.048h-.225a17.362,17.362,0,0,1-6.764-1.363v2.507a6.876,6.876,0,1,0,13.753,0V62.685a17.362,17.362,0,0,1-6.764,1.363Z" transform="translate(-29.632 -16.719)" fill="#feeca8"/>
      <path id="Path_1747" data-name="Path 1747" d="M55.93,4.38A20.915,20.915,0,0,0,35.015,25.294v6.312a2.728,2.728,0,0,1,2.362-2.135,1.976,1.976,0,0,1,1.031.3V26.859a14.925,14.925,0,0,1,4.317-10.518A5.873,5.873,0,0,1,48.8,14.99a23.417,23.417,0,0,0,7.131.992,23.417,23.417,0,0,0,7.131-.992,5.873,5.873,0,0,1,6.071,1.351,14.925,14.925,0,0,1,4.317,10.518v2.913a1.976,1.976,0,0,1,1.031-.3,2.729,2.729,0,0,1,2.362,2.135V25.294A20.915,20.915,0,0,0,55.931,4.38Z" transform="translate(-25.558 -3.604)" fill="#24dcef"/>
      <path id="Path_1748" data-name="Path 1748" d="M85.572,36.753a1.976,1.976,0,0,0-1.031.3V40.8a17.506,17.506,0,0,1-.232,2.838,2.038,2.038,0,0,0,1.264.484c1.442,0,2.611-1.65,2.611-3.686S87.015,36.753,85.572,36.753Z" transform="translate(-36.645 -10.886)" fill="#fff"/>
      <path id="Path_1749" data-name="Path 1749" d="M38.335,40.8V37.054a1.976,1.976,0,0,0-1.031-.3c-1.442,0-2.611,1.651-2.611,3.687s1.169,3.686,2.611,3.686a2.04,2.04,0,0,0,1.265-.481,17.517,17.517,0,0,1-.234-2.841Z" transform="translate(-25.485 -10.886)" fill="#fff"/>
      <path id="Path_1750" data-name="Path 1750" d="M70.123,19.323a5.873,5.873,0,0,0-6.071-1.351,23.417,23.417,0,0,1-7.131.992,23.417,23.417,0,0,1-7.131-.992,5.873,5.873,0,0,0-6.071,1.351A14.925,14.925,0,0,0,39.4,29.841v6.666A17.41,17.41,0,0,0,56.8,53.916h.226A17.41,17.41,0,0,0,74.44,36.5V29.839A14.925,14.925,0,0,0,70.123,19.323Z" transform="translate(-26.544 -6.586)" fill="#feeca8"/>
      <path id="Path_1751" data-name="Path 1751" d="M53.6,29.54h-6.88a3.933,3.933,0,0,0-3.933,3.933v2.683a4.567,4.567,0,0,0,4.565,4.566h4.377a4.566,4.566,0,0,0,4.565-4.565V32.235A2.694,2.694,0,0,0,53.6,29.54Z" transform="translate(-27.306 -9.263)" fill="#d3effb"/>
      <path id="Path_1752" data-name="Path 1752" d="M73.36,29.54h-7.8a1.773,1.773,0,0,0-1.773,1.773v4.843a4.567,4.567,0,0,0,4.565,4.566h4.377a4.566,4.566,0,0,0,4.565-4.565V33.473A3.932,3.932,0,0,0,73.36,29.54Z" transform="translate(-32.029 -9.263)" fill="#d3effb"/>
      <path id="Path_1855" data-name="Path 1855" d="M.423,0H47.408a.423.423,0,0,1,.423.423V30.114a.423.423,0,0,1-.423.423H.423A.423.423,0,0,1,0,30.114V.423A.423.423,0,0,1,.423,0Z" transform="translate(6.458 54.574)" fill="#49177b"/>
      <path id="Path_1753" data-name="Path 1753" d="M33.637,73.791H76.483a2.491,2.491,0,0,1,2.492,2.492v2.325a2.491,2.491,0,0,0-2.492-2.492H33.637a2.491,2.491,0,0,0-2.492,2.492V76.283a2.491,2.491,0,0,1,2.492-2.492Z" transform="translate(-24.687 -19.217)" fill="#fff"/>
      <path id="Path_1754" data-name="Path 1754" d="M76.483,113.19H33.637a2.492,2.492,0,1,0,0,4.984H76.483a2.492,2.492,0,0,0,0-4.984Z" transform="translate(-24.687 -28.079)" fill="#5a4487"/>
      <g id="Group_1770" data-name="Group 1770" transform="translate(0 0)">
        <path id="Path_1755" data-name="Path 1755" d="M61.514,49.512A18.249,18.249,0,0,0,71.035,37.3a2.654,2.654,0,0,0,.7.1c1.9,0,3.387-1.959,3.387-4.461a5.824,5.824,0,0,0-.251-1.711V25.069a21.69,21.69,0,1,0-43.38,0v6.156a5.838,5.838,0,0,0-.25,1.705c0,2.5,1.487,4.461,3.387,4.461a2.655,2.655,0,0,0,.7-.1,18.249,18.249,0,0,0,9.522,12.217A23.33,23.33,0,0,0,22.813,72.779v9.271a6.948,6.948,0,0,0,1.928,4.814l3.771,3.953c0,.055-.016.107-.016.163a3.27,3.27,0,0,0,3.266,3.267H74.608a3.271,3.271,0,0,0,3.267-3.267c0-.056-.013-.108-.016-.163l3.771-3.953a6.947,6.947,0,0,0,1.928-4.814V72.779A23.33,23.33,0,0,0,61.514,49.512Zm-13.79,7.666H31.762a3.212,3.212,0,0,0-.945.155,21.675,21.675,0,0,1,14.717-6.29v.808A7.6,7.6,0,0,0,47.724,57.178Zm2.494,0a6.1,6.1,0,0,1-3.134-5.326V50.466a18.1,18.1,0,0,0,5.989,1.018H53.3a18.1,18.1,0,0,0,5.989-1.018v1.386a6.1,6.1,0,0,1-3.134,5.326Zm10.618-5.326v-.808a21.676,21.676,0,0,1,14.716,6.29,3.23,3.23,0,0,0-.945-.155H58.647a7.6,7.6,0,0,0,2.19-5.327Zm8-24.584a4.71,4.71,0,0,0-4.691-4.387h-7.8a2.551,2.551,0,0,0-2.548,2.548v.594H52.542a3.462,3.462,0,0,0-3.437-3.141H42.226a4.71,4.71,0,0,0-4.691,4.387l-1.1.31v-.943a14.112,14.112,0,0,1,4.094-9.974,4.924,4.924,0,0,1,3.53-1.448,5.512,5.512,0,0,1,1.744.287,24.207,24.207,0,0,0,7.379,1.032A24.207,24.207,0,0,0,60.565,15.5a5.078,5.078,0,0,1,5.27,1.163,14.115,14.115,0,0,1,4.094,9.974v.942Zm-1.534.324v2.683a3.8,3.8,0,0,1-3.79,3.791H59.136a3.8,3.8,0,0,1-3.791-3.791V25.428a1,1,0,0,1,1-1h7.8A3.161,3.161,0,0,1,67.3,27.588Zm-16.276-1.24v3.921a3.8,3.8,0,0,1-3.79,3.791H42.859a3.8,3.8,0,0,1-3.791-3.791V27.588a3.161,3.161,0,0,1,3.158-3.158h6.88a1.922,1.922,0,0,1,1.92,1.92Zm20.714,9.493a1.122,1.122,0,0,1-.426-.1,18.136,18.136,0,0,0,.17-2.451v-3.24a1.145,1.145,0,0,1,.256-.033c1,0,1.837,1.333,1.837,2.912S72.735,35.844,71.739,35.844ZM53.186,4.93A20.162,20.162,0,0,1,73.325,25.069v3.907a2.782,2.782,0,0,0-1.586-.505c-.087,0-.17.017-.256.026v-1.86a15.656,15.656,0,0,0-4.54-11.065,6.621,6.621,0,0,0-6.868-1.542,22.641,22.641,0,0,1-6.89.953,22.64,22.64,0,0,1-6.89-.953,6.621,6.621,0,0,0-6.868,1.542,15.656,15.656,0,0,0-4.54,11.063v1.86c-.086-.009-.169-.026-.256-.026a2.779,2.779,0,0,0-1.587.506V25.069A20.163,20.163,0,0,1,53.186,4.93ZM34.632,35.844c-1,0-1.837-1.333-1.837-2.911s.841-2.912,1.837-2.912a1.14,1.14,0,0,1,.256.033V33.3a18.136,18.136,0,0,0,.17,2.451A1.122,1.122,0,0,1,34.632,35.844ZM36.438,33.3V29.19l1.08-.31v1.4a5.348,5.348,0,0,0,5.341,5.341h4.376a5.348,5.348,0,0,0,5.34-5.341v-2.7h1.219v2.7a5.348,5.348,0,0,0,5.341,5.341h4.376a5.348,5.348,0,0,0,5.34-5.341v-1.4l1.085.31v4.108A16.655,16.655,0,0,1,53.3,49.933h-.225A16.654,16.654,0,0,1,36.438,33.3ZM25.862,85.8a5.405,5.405,0,0,1-1.5-3.744V72.779a21.631,21.631,0,0,1,4.179-12.8,3.259,3.259,0,0,0-.047.465v12a.775.775,0,1,0,1.55,0v-12a1.718,1.718,0,0,1,1.716-1.717H74.608a1.718,1.718,0,0,1,1.717,1.717V86a1.719,1.719,0,0,1-1.717,1.717H31.762A1.718,1.718,0,0,1,30.046,86V82.82a.775.775,0,1,0-1.55,0V86a3.234,3.234,0,0,0,1.179,2.492,3.284,3.284,0,0,0-.615.659Zm48.746,6.9H31.762a1.717,1.717,0,1,1,0-3.434H74.608a1.717,1.717,0,0,1,0,3.434Zm7.4-10.648a5.4,5.4,0,0,1-1.5,3.744l-3.2,3.354a3.284,3.284,0,0,0-.615-.659A3.235,3.235,0,0,0,77.875,86V60.445a3.272,3.272,0,0,0-.047-.465,21.631,21.631,0,0,1,4.179,12.8Z" transform="translate(-22.813 -3.379)" fill="#3a2c60"/>
        <path id="Path_1756" data-name="Path 1756" d="M51.517,36.425a1.752,1.752,0,1,0,1.752,1.752,1.752,1.752,0,0,0-1.752-1.752Z" transform="translate(-28.875 -10.812)" fill="#3a2c60"/>
        <path id="Path_1757" data-name="Path 1757" d="M71.465,36.425a1.752,1.752,0,1,0,1.752,1.752,1.752,1.752,0,0,0-1.752-1.752Z" transform="translate(-33.362 -10.812)" fill="#3a2c60"/>
        <path id="Path_1758" data-name="Path 1758" d="M61.2,49.382a2.771,2.771,0,0,0,2.768-2.769V45.446a.775.775,0,1,0-1.55,0v1.167a1.218,1.218,0,1,1-2.435,0V45.446a.775.775,0,1,0-1.55,0v1.167A2.771,2.771,0,0,0,61.2,49.382Z" transform="translate(-30.824 -12.667)" fill="#3a2c60"/>
        <path id="Path_1759" data-name="Path 1759" d="M73.765,32.931l-3.429-.6a.775.775,0,1,0-.267,1.527l3.431.6a.789.789,0,0,0,.134.011.775.775,0,0,0,.132-1.539Z" transform="translate(-33.298 -9.889)" fill="#3a2c60"/>
        <path id="Path_1760" data-name="Path 1760" d="M52.218,32.334l-3.43.6a.775.775,0,0,0,.132,1.539.788.788,0,0,0,.134-.011l3.431-.6a.775.775,0,1,0-.267-1.527Z" transform="translate(-28.511 -9.889)" fill="#3a2c60"/>
        <path id="Path_1761" data-name="Path 1761" d="M65.149,53.586a.775.775,0,1,0-1.235-.936,4.3,4.3,0,0,1-3.265,1.487,4.154,4.154,0,0,1-3.255-1.473.775.775,0,1,0-1.254.911,5.711,5.711,0,0,0,4.509,2.112,5.873,5.873,0,0,0,4.5-2.1Z" transform="translate(-30.276 -14.393)" fill="#3a2c60"/>
        <path id="Path_1762" data-name="Path 1762" d="M48.883,96.08l5.6,2.429a.994.994,0,0,0,1.39-.912V97.58a.994.994,0,0,0-.63-.925l-4.839-1.907,4.836-1.86a.994.994,0,0,0,.637-.93V91.93a.994.994,0,0,0-1.39-.912l-5.6,2.429a1.426,1.426,0,0,0-.86,1.309v.015a1.427,1.427,0,0,0,.856,1.308Z" transform="translate(-28.484 -23.073)" fill="#fff"/>
        <path id="Path_1763" data-name="Path 1763" d="M59.925,100.116a.906.906,0,0,0,.218.026.921.921,0,0,0,.9-.707L63.5,89.252a.924.924,0,0,0-1.8-.434L59.244,99a.925.925,0,0,0,.681,1.115Z" transform="translate(-31.002 -22.438)" fill="#fff"/>
        <path id="Path_1764" data-name="Path 1764" d="M67.235,98.508l5.6-2.441a1.427,1.427,0,0,0,0-2.619l-5.6-2.417a.994.994,0,0,0-.753,1.841l4.853,1.877-4.858,1.907a1,1,0,0,0-.631.925V97.6a1,1,0,0,0,1.392.912Z" transform="translate(-32.492 -23.078)" fill="#fff"/>
        <path id="Path_1765" data-name="Path 1765" d="M30.92,101.452a.775.775,0,0,0,.775-.775v-4.65a.775.775,0,1,0-1.55,0v4.65A.775.775,0,0,0,30.92,101.452Z" transform="translate(-24.462 -24.044)" fill="#3a2c60"/>
      </g>
    </g>
    <path id="Path_1861" data-name="Path 1861" d="M70.259,159.089a1.044,1.044,0,0,1-1.044-1.044,1.254,1.254,0,0,0-1.252-1.252,1.044,1.044,0,1,1,0-2.087,1.254,1.254,0,0,0,1.252-1.252,1.044,1.044,0,1,1,2.087,0,1.254,1.254,0,0,0,1.252,1.252,1.044,1.044,0,1,1,0,2.087,1.254,1.254,0,0,0-1.252,1.252A1.044,1.044,0,0,1,70.259,159.089Z" transform="translate(740.822 2390.59)" fill="#22d4ea"/>
  </g>
</svg>
