<svg id="agenda" xmlns="http://www.w3.org/2000/svg" width="24.168" height="24.169" viewBox="0 0 24.168 24.169">
  <g id="Group_1747" data-name="Group 1747">
    <g id="Group_1746" data-name="Group 1746">
      <path id="Path_1664" data-name="Path 1664" d="M21.289,2.879V0H1.463V2.879H0V7.128H1.463V9.96H0v4.248H1.463v2.832H0v4.248H1.463v2.879H21.289V21.289h2.879V2.879ZM1.416,5.712V4.3H2.879V5.712Zm0,7.081V11.376H2.879v1.416Zm0,7.081V18.457H2.879v1.416Zm18.457,2.879H2.879V21.289H4.3V17.041H2.879V14.208H4.3V9.96H2.879V7.128H4.3V2.879H2.879V1.416H19.873Zm2.879-2.879H21.289V17.041h1.463Zm0-4.248H21.289V12.792h1.463Zm0-4.248H21.289V8.544h1.463Zm0-4.248H21.289V4.3h1.463Z" fill="#173069"/>
    </g>
  </g>
  <g id="Group_1749" data-name="Group 1749" transform="translate(8.544 4.296)">
    <g id="Group_1748" data-name="Group 1748">
      <path id="Path_1665" data-name="Path 1665" d="M185.956,96.664h2.124V91h-2.124A4.962,4.962,0,0,0,181,95.956v5.664a4.962,4.962,0,0,0,4.956,4.956h2.124v-5.664h-2.124a.709.709,0,0,1-.708-.708V97.373A.709.709,0,0,1,185.956,96.664Zm0,5.665h.708v2.832h-.708a3.544,3.544,0,0,1-3.54-3.54V95.956a3.544,3.544,0,0,1,3.54-3.54h.708v2.832h-.708a2.127,2.127,0,0,0-2.124,2.124V100.2A2.127,2.127,0,0,0,185.956,102.329Z" transform="translate(-181 -91)" fill="#173069"/>
    </g>
  </g>
</svg>
