<svg xmlns="http://www.w3.org/2000/svg" width="21.525" height="16.396" viewBox="0 0 21.525 16.396">
  <path id="Path_683" data-name="Path 683" d="M19.634,12.826H1.892A1.9,1.9,0,0,0,0,14.718V27.33a1.9,1.9,0,0,0,1.892,1.892H19.634a1.9,1.9,0,0,0,1.892-1.892V14.718A1.9,1.9,0,0,0,19.634,12.826Zm-.261,1.261L10.8,22.656l-8.644-8.57ZM1.261,27.069v-12.1l6.074,6.022Zm.892.892,6.078-6.078,2.13,2.111a.631.631,0,0,0,.89,0l2.077-2.077,6.045,6.045Zm18.111-.892-6.045-6.045,6.045-6.045Z" transform="translate(0 -12.826)" fill="#274584"/>
</svg>
