<svg xmlns="http://www.w3.org/2000/svg" width="24.168" height="23.977" viewBox="0 0 24.168 23.977">
  <path id="whatsapp_1_" data-name="whatsapp (1)" d="M12.084,23.976h0a12.106,12.106,0,0,1-5.43-1.29L1.484,23.861A.944.944,0,0,1,.353,22.737l1.119-5.086A11.933,11.933,0,0,1,0,12c0-.007,0-.013,0-.02A11.853,11.853,0,0,1,3.558,3.51a12.09,12.09,0,0,1,17.039,0,11.847,11.847,0,0,1,1.492,15.181.944.944,0,1,1-1.558-1.066A9.959,9.959,0,0,0,19.264,4.85,10.192,10.192,0,0,0,1.888,11.966c0,.006,0,.012,0,.018a10.09,10.09,0,0,0,1.4,5.045.943.943,0,0,1,.105.677l-.876,3.984,4.052-.922a.946.946,0,0,1,.66.091,10.206,10.206,0,0,0,4.851,1.23h0a10.214,10.214,0,0,0,5.229-1.44.944.944,0,0,1,.967,1.622,12.1,12.1,0,0,1-6.2,1.706ZM9.418,7.185C9.211,6.726,8.993,6.71,8.8,6.7h-.53a1.017,1.017,0,0,0-.737.345,3.084,3.084,0,0,0-.967,2.3A5.351,5.351,0,0,0,7.69,12.194a11.333,11.333,0,0,0,4.722,4.158c2.335.918,2.81.735,3.317.689a2.79,2.79,0,0,0,1.866-1.31,2.293,2.293,0,0,0,.161-1.31c-.069-.115-.253-.184-.53-.321s-1.631-.816-1.885-.908-.438-.138-.622.138-.727.913-.889,1.1-.322.207-.6.069a7.645,7.645,0,0,1-2.214-1.373,8.468,8.468,0,0,1-1.553-1.937c-.161-.275-.017-.425.121-.562s.292-.292.43-.453a1.854,1.854,0,0,0,.269-.459.506.506,0,0,0-.023-.483c-.069-.138-.6-1.5-.846-2.045" transform="translate(0 0)" fill="#173069"/>
</svg>
