<svg xmlns="http://www.w3.org/2000/svg" width="230.534" height="221.528" viewBox="0 0 230.534 221.528">
  <g id="Group_1756" data-name="Group 1756" transform="translate(-254.789 -6050.476)">
    <path id="Path_1196" data-name="Path 1196" d="M216.653,102.622a3.377,3.377,0,0,0,2.182.8c.1,0,.192,0,.288-.012a3.376,3.376,0,0,0,2.3-1.2l21.545-25.707a3.377,3.377,0,0,0-5.176-4.338L218.427,95.275l-8.858-7.5a3.377,3.377,0,1,0-4.364,5.154Z" transform="translate(142.637 6006.963)" fill="#17ecff"/>
    <path id="Path_1197" data-name="Path 1197" d="M196.127,99.952A44.972,44.972,0,1,0,160.189,27.9a3.377,3.377,0,0,0,5.392,4.068,38.234,38.234,0,1,1-6.261,12.611,3.377,3.377,0,1,0-6.5-1.834,44.963,44.963,0,0,0,43.307,57.211Z" transform="translate(171.708 6040.475)" fill="#274584"/>
    <path id="Path_1198" data-name="Path 1198" d="M216.8,290.958c-1.121-.639-2.278-1.3-3.467-2.008l-8.83-5.3a33.4,33.4,0,0,0,8.393-14.971,20.938,20.938,0,0,0,.558-4.678V241.654c0-10.167-7.65-19.343-19.5-23.373-10.356-3.521-20.636-1.887-26.169,4.021-5.673,1-13.629,5.5-13.359,22.918,0,.153,0,.279,0,.378v18.407a20.73,20.73,0,0,0,.558,4.665,33.334,33.334,0,0,0,8.393,14.989l-8.681,5.205c-.063.032-.126.072-.189.108-1.171.7-2.319,1.355-3.426,1.986-3.318,1.887-6.551,3.719-9.046,6.286l-6.223-3.733a33.418,33.418,0,0,0,8.4-14.971,21.134,21.134,0,0,0,.545-4.683v-9.933s0,0,0-.007V251.5c0-10.163-7.646-19.334-19.481-23.364-10.354-3.526-20.638-1.9-26.172,4.01-5.677,1-13.635,5.495-13.36,22.913,0,.157,0,.286,0,.383v18.41a21.926,21.926,0,0,0,.545,4.683,33.385,33.385,0,0,0,8.4,14.971l-6.214,3.733c-2.5-2.566-5.732-4.4-9.055-6.29-1.121-.639-2.278-1.292-3.463-2l-.09-.054-.027-.016-8.715-5.221a33.382,33.382,0,0,0,8.4-14.975,20.821,20.821,0,0,0,.546-4.677V241.655c0-10.165-7.647-19.337-19.483-23.369-10.356-3.528-20.645-1.895-26.182,4.015-5.673,1-13.623,5.5-13.347,22.913,0,.158,0,.286,0,.383v18.41a20.811,20.811,0,0,0,.544,4.668,33.405,33.405,0,0,0,8.4,14.982l-8.834,5.293c-1.182.709-2.338,1.366-3.457,2C6.669,294.963,0,298.752,0,309.8v19.839a5.745,5.745,0,0,0,1.478,4.172,5.235,5.235,0,0,0,3.9,1.347c.17,0,.332,0,.484-.005s.329-.006.506-.006H68.678v4.341a5.747,5.747,0,0,0,1.486,4.183,5.236,5.236,0,0,0,3.895,1.351c.171,0,.333,0,.486,0s.324-.009.5-.009h3.89a3.377,3.377,0,0,0,0-6.754h-3.5v-18.6c0-6.831,2.981-8.794,10.325-12.959.113-.063.225-.131.342-.194.468-.266.941-.54,1.427-.819l5.633,3.647,5.8,3.76c.05.027.1.059.149.086.405.234.761.482,1.108.716a6.7,6.7,0,0,0,3.692,1.4,4.41,4.41,0,0,0,2.148-.567l.464,1.819L99.939,330.8c0,.009-.009.022-.014.032a3.485,3.485,0,0,0,.225,3.5l2.3,3.917h-7.92a3.377,3.377,0,1,0,0,6.754h60.948c.176,0,.342,0,.5.009s.315,0,.486,0a5.265,5.265,0,0,0,3.908-1.351,5.759,5.759,0,0,0,1.481-4.183v-4.341h62.316c.171,0,.342,0,.5,0s.315.009.486.009a5.235,5.235,0,0,0,3.895-1.351,5.736,5.736,0,0,0,1.481-4.169V309.8c0-11.04-6.667-14.832-13.732-18.839Zm-148.95,1-8.585,5.552c-.354.21-.67.413-.949.6l-1.846-1.955c-.031-.036-.065-.069-.1-.1L53.3,292.79q.5-.167,1.009-.358a31.871,31.871,0,0,0,7.515-4.09Zm-35.41-63.113a3.377,3.377,0,0,0,2.379-1.3c3.428-4.448,11.489-5.623,19.6-2.86,6.876,2.342,14.906,8.193,14.906,16.976v9.024H67.909c-3.328,0-5.478-1.855-8.709-4.882-3.638-3.407-8.165-7.647-16.026-7.647h-6.05c-7.346,0-8.573,5.97-9.306,9.537-.843,4.1-1.242,4.906-3.93,4.906h-.056v-7c0-.124,0-.289-.006-.49-.162-10.276,2.736-15.749,8.617-16.266ZM24.2,267.164a14.055,14.055,0,0,1-.373-3.157v-4.661h.056c8.429,0,9.805-6.7,10.545-10.3.851-4.142,1.2-4.142,2.691-4.142h6.05c5.192,0,8.074,2.7,11.409,5.822,3.356,3.143,7.16,6.706,13.326,6.706h1.422v6.574a14.068,14.068,0,0,1-.375,3.166c-1.79,7.848-9.1,15.987-17.01,18.932a15.145,15.145,0,0,1-5.364,1.113,15.153,15.153,0,0,1-5.369-1.114C33.308,283.159,26,275.021,24.2,267.164Zm26,32.183-1.1,4.291H44.036l-1.09-4.273,3.635-3.85Zm-18.861-11a31.856,31.856,0,0,0,7.511,4.088q.515.192,1.014.36l-5.018,5.315c-.281-.187-.6-.391-.954-.6l-8.582-5.55Zm.089,36.073,2.34,3.973H6.754V309.8c0-6.841,2.977-8.8,10.312-12.973.579-.33,1.169-.665,1.771-1.012l11.449,7.4c.044.028.088.055.133.082.4.236.761.48,1.106.717a6.716,6.716,0,0,0,3.713,1.441,4.369,4.369,0,0,0,2.144-.577l.461,1.809-6.58,14.257A3.5,3.5,0,0,0,31.427,324.416Zm20.1,3.973H41.606l-3.554-6.034,5.521-11.962h5.992l5.521,11.962Zm17.148-8.744v8.744h-9.31l2.34-3.972a3.5,3.5,0,0,0,.165-3.469l-6.581-14.258.466-1.821a4.381,4.381,0,0,0,2.166.589,6.734,6.734,0,0,0,3.728-1.45c.342-.235.7-.478,1.1-.712.043-.025.085-.051.126-.077l11.449-7.4c.6.347,1.191.683,1.769,1.014a49.631,49.631,0,0,1,6.313,3.994C75.347,304.826,68.679,308.617,68.679,319.644Zm136.533-27.687-8.569,5.547c-.36.212-.68.419-.964.608l-1.846-1.959c-.036-.041-.081-.086-.122-.126l-3.053-3.237c.333-.108.666-.23,1.009-.356a32.054,32.054,0,0,0,7.515-4.093Zm-35.4-63.118a3.375,3.375,0,0,0,2.382-1.3c3.422-4.444,11.477-5.624,19.591-2.864,6.88,2.346,14.917,8.195,14.917,16.979v9.023H205.27c-3.327,0-5.475-1.851-8.7-4.876-3.638-3.409-8.163-7.65-16.034-7.65h-6.052c-7.348,0-8.573,5.97-9.3,9.541-.842,4.1-1.238,4.9-3.917,4.9h-.072V245.6c0-.122,0-.288,0-.486-.158-10.279,2.742-15.755,8.627-16.272Zm-8.235,38.326a14.082,14.082,0,0,1-.387-3.161v-4.66h.072c8.42,0,9.793-6.7,10.532-10.3.851-4.142,1.2-4.142,2.688-4.142h6.052c5.2,0,8.082,2.7,11.414,5.822,3.354,3.143,7.155,6.7,13.323,6.7H206.7v6.574a14.222,14.222,0,0,1-.387,3.17c-1.788,7.848-9.1,15.984-17.015,18.934a13.488,13.488,0,0,1-10.716,0c-7.916-2.949-15.228-11.085-17.006-18.938Zm25.985,32.185-1.09,4.286H181.4l-1.09-4.273,3.634-3.85Zm-18.857-11a31.9,31.9,0,0,0,7.51,4.084c.342.126.68.248,1.013.36l-5.02,5.313c-.284-.185-.6-.387-.955-.6l-8.573-5.552Zm-32.167,13.467-8.568,5.552c-.36.207-.68.414-.964.6l-5.025-5.313c.333-.113.666-.23,1.009-.356a31.869,31.869,0,0,0,7.519-4.1Zm-35.4-63.123a3.377,3.377,0,0,0,2.38-1.3c3.424-4.443,11.479-5.617,19.594-2.854,6.875,2.341,14.9,8.19,14.9,16.97v8.6s0,0,0,.006v.426h-1.422c-3.327,0-5.473-1.854-8.7-4.879-3.637-3.408-8.164-7.65-16.034-7.65H105.8c-7.349,0-8.574,5.973-9.306,9.541-.841,4.1-1.239,4.9-3.917,4.9h-.069v-7.008c0-.124,0-.289-.006-.489-.163-10.276,2.74-15.749,8.628-16.266Zm-8.24,38.372a15.214,15.214,0,0,1-.383-3.206v-4.648h.069c8.422,0,9.8-6.7,10.534-10.3.85-4.144,1.2-4.144,2.689-4.144h6.05c5.2,0,8.081,2.7,11.416,5.824,3.354,3.142,7.155,6.7,13.32,6.7h1.421v6.562a14.312,14.312,0,0,1-.374,3.174c-1.792,7.839-9.1,15.98-17,18.934a13.467,13.467,0,0,1-10.739,0c-7.907-2.953-15.219-11.094-17-18.9Zm25.989,32.14-1.09,4.286h-5.079l-1.085-4.273,3.634-3.845ZM103.52,307.96c-.279-.185-.594-.387-.955-.594L94,301.814l6.02-3.62a32.194,32.194,0,0,0,7.528,4.106c.338.122.671.239,1,.347Zm16.691,30.289h-9.924l-3.553-6.047,5.516-11.959h6.007l5.511,11.968Zm34.891,0H128.05l2.341-3.971a3.527,3.527,0,0,0,.176-3.449c0-.009-.009-.022-.014-.032l-6.569-14.26.464-1.81a4.391,4.391,0,0,0,2.157.585,6.751,6.751,0,0,0,3.71-1.432c.347-.239.7-.482,1.108-.716.05-.027.1-.059.149-.086l11.437-7.407c.477.279.955.549,1.418.815.122.068.243.14.365.207,7.335,4.165,10.311,6.128,10.311,12.95Zm13.729-13.778,2.305,3.917h-9.28v-8.744c0-11.027-6.668-14.814-13.729-18.826a0,0,0,0,1,0,0,49.01,49.01,0,0,1,6.3-3.985c.581-.333,1.175-.666,1.779-1.018l11.441,7.4a1.3,1.3,0,0,0,.131.086c.405.234.761.477,1.108.711a6.737,6.737,0,0,0,3.719,1.418,4.4,4.4,0,0,0,2.134-.563l.464,1.819-6.578,14.26s0,0,0,.009a3.457,3.457,0,0,0,.212,3.517Zm20.059,3.917H178.97l-3.553-6.043,5.516-11.954h6l5.516,11.95Zm34.891,0H196.729l2.337-3.971a3.476,3.476,0,0,0,.27-3.264c-.027-.068-.059-.14-.09-.207l-6.583-14.26.464-1.815a4.394,4.394,0,0,0,2.161.585,6.753,6.753,0,0,0,3.724-1.445c.342-.234.7-.477,1.1-.711.045-.027.09-.054.135-.086l11.437-7.4c.6.351,1.2.684,1.779,1.018,7.339,4.165,10.316,6.128,10.316,12.968Z" transform="translate(254.789 5926.987)" fill="#274584"/>
  </g>
</svg>
