<svg xmlns="http://www.w3.org/2000/svg" width="34.198" height="39.811" viewBox="0 0 34.198 39.811">
  <g id="chronometer" transform="translate(0)">
    <path id="Path_1152" data-name="Path 1152" d="M40.186,13.52l1.694-2.946a.586.586,0,0,0-.216-.8L39.269,8.4a.586.586,0,0,0-.8.216l-1.691,2.943a16.961,16.961,0,0,0-4.787-1.277V8.49H33.18a.586.586,0,0,0,.586-.586V5.143a.586.586,0,0,0-.586-.586H26.87a.586.586,0,0,0-.586.586V7.9a.586.586,0,0,0,.586.586h1.188v1.789a16.961,16.961,0,0,0-4.787,1.277L21.58,8.613a.586.586,0,0,0-.8-.216L18.385,9.772a.586.586,0,0,0-.216.8l1.694,2.948a17.1,17.1,0,1,0,20.323,0ZM39.194,9.7l1.378.794-1.355,2.359q-.67-.428-1.377-.794ZM27.455,5.729h5.138v1.59H27.455ZM29.23,8.49h1.59v1.693c-.263-.012-.527-.021-.795-.021s-.531.008-.795.02ZM19.477,10.5l1.378-.792,1.354,2.357q-.708.366-1.377.794ZM30.025,43.187A15.926,15.926,0,1,1,45.951,27.261,15.926,15.926,0,0,1,30.025,43.187Z" transform="translate(-12.926 -4.557)" fill="#173069"/>
    <path id="Path_1153" data-name="Path 1153" d="M49.135,52.58A13.231,13.231,0,0,0,49.1,39.333a.543.543,0,0,0-.027-.059.561.561,0,0,0-.033-.045,13.372,13.372,0,0,0-4.722-4.7.509.509,0,0,0-.05-.037.538.538,0,0,0-.059-.026,13.229,13.229,0,0,0-13.246.036.6.6,0,0,0-.06.027.541.541,0,0,0-.045.033,13.375,13.375,0,0,0-4.7,4.722.317.317,0,0,0-.062.108,13.23,13.23,0,0,0,.036,13.246.578.578,0,0,0,.027.059c.007.013.018.022.026.033a13.372,13.372,0,0,0,4.728,4.708.569.569,0,0,0,.051.037c.015.008.031.012.046.019a13.233,13.233,0,0,0,13.274-.038c.014-.007.03-.01.044-.018a.5.5,0,0,0,.045-.033,13.375,13.375,0,0,0,4.706-4.735c.009-.013.02-.023.028-.037a.484.484,0,0,0,.026-.059Zm-4.9,3.539-.753-1.283a.586.586,0,1,0-1.011.593l.754,1.286A12.019,12.019,0,0,1,38.2,58.081V56.587a.586.586,0,1,0-1.172,0v1.495a12.016,12.016,0,0,1-4.96-1.337l.747-1.29a.586.586,0,1,0-1.014-.587l-.746,1.289A12.2,12.2,0,0,1,27.485,52.6l1.285-.753a.586.586,0,1,0-.592-1.011l-1.286.754a12.019,12.019,0,0,1-1.367-5.022h1.495a.586.586,0,0,0,0-1.172H25.524a12.019,12.019,0,0,1,1.336-4.961l1.29.746a.586.586,0,1,0,.587-1.014l-1.288-.745A12.2,12.2,0,0,1,31,35.857l.753,1.285a.586.586,0,1,0,1.011-.592l-.754-1.286A12.013,12.013,0,0,1,37.031,33.9v1.494a.586.586,0,0,0,1.172,0V33.9a12.019,12.019,0,0,1,4.961,1.336l-.748,1.291a.586.586,0,1,0,1.014.587l.746-1.29a12.2,12.2,0,0,1,3.571,3.552l-1.285.753a.586.586,0,1,0,.592,1.011l1.287-.754A12.024,12.024,0,0,1,49.708,45.4H48.213a.586.586,0,1,0,0,1.172h1.495a12.019,12.019,0,0,1-1.336,4.96l-1.29-.747a.586.586,0,1,0-.587,1.014l1.288.746A12.2,12.2,0,0,1,44.232,56.119Z" transform="translate(-20.517 -23.285)" fill="#173069"/>
    <path id="Path_1154" data-name="Path 1154" d="M67.518,54.815a.586.586,0,0,0-.586-.586H61.291a2.683,2.683,0,0,0-2.023-2.024V46.565a.586.586,0,0,0-1.172,0v5.641a2.675,2.675,0,1,0,3.2,3.2h5.641A.586.586,0,0,0,67.518,54.815Zm-8.836,1.5a1.5,1.5,0,1,1,1.5-1.5A1.5,1.5,0,0,1,58.682,56.32Z" transform="translate(-41.583 -32.112)" fill="#173069"/>
  </g>
</svg>
