<svg id="_06-cart" data-name="06-cart" xmlns="http://www.w3.org/2000/svg" width="59.981" height="59.981" viewBox="0 0 59.981 59.981">
  <g id="linear_color" data-name="linear color">
    <path id="Path_927" data-name="Path 927" d="M62.862,6H9.119A3.123,3.123,0,0,0,6,9.119V51.345a3.123,3.123,0,0,0,3.119,3.119H30.313l-.816,6.53a28.61,28.61,0,0,0-5.688,2.789,1.2,1.2,0,0,0,.665,2.2H47.507a1.2,1.2,0,0,0,.665-2.2,28.61,28.61,0,0,0-5.688-2.789l-.816-6.53H62.862a3.123,3.123,0,0,0,3.119-3.119V9.119A3.123,3.123,0,0,0,62.862,6ZM9.119,8.4H62.862a.72.72,0,0,1,.72.72V42.468H8.4V9.119A.72.72,0,0,1,9.119,8.4ZM30.232,63.581h-.783a18.059,18.059,0,0,1,6.541-1.44,18.06,18.06,0,0,1,6.533,1.44Zm9.741-3.34a16.137,16.137,0,0,0-7.964,0l.722-5.777H39.25Zm23.608-8.9a.72.72,0,0,1-.72.72H9.119a.72.72,0,0,1-.72-.72V44.867H63.581Z" transform="translate(-6 -6)" fill="#2c367f"/>
    <path id="Path_928" data-name="Path 928" d="M231.2,352.4h3.839a1.2,1.2,0,1,0,0-2.4H231.2a1.2,1.2,0,0,0,0,2.4Z" transform="translate(-203.129 -308.733)" fill="#2c367f"/>
    <path id="Path_929" data-name="Path 929" d="M95.2,56.4h2.974l5.485,16.454a1.2,1.2,0,0,0,.178.34h0a3.123,3.123,0,1,0,1.659.48h10.012c-.023.237-.035.477-.035.72a7.558,7.558,0,1,0,7.558-7.558c-.238,0-.474.012-.707.034l1.845-5.533a1.2,1.2,0,0,0-1.138-1.579H107.676a1.2,1.2,0,0,0,0,2.4h13.691l-1.121,3.364c-.031,0-.062,0-.093,0H109.595a1.2,1.2,0,0,0,0,2.4h9.548a7.607,7.607,0,0,0-2.993,3.359H105.661L100.176,54.82A1.2,1.2,0,0,0,99.038,54H95.2a1.2,1.2,0,1,0,0,2.4Zm8.637,20.633a.72.72,0,1,1,.72-.72A.72.72,0,0,1,103.837,77.033Zm24.352-2.639a5.158,5.158,0,1,1-5.158-5.158,5.158,5.158,0,0,1,5.158,5.158Z" transform="translate(-83.443 -48.242)" fill="#2c367f"/>
    <path id="Path_930" data-name="Path 930" d="M310.668,202.188l1.919.96a1.2,1.2,0,0,0,1.535-.408l1.919-2.879a1.2,1.2,0,1,0-2-1.331l-1.332,2-.972-.486a1.2,1.2,0,1,0-1.073,2.146Z" transform="translate(-273.537 -174.964)" fill="#2c367f"/>
  </g>
</svg>
