<svg id="Group_6" data-name="Group 6" xmlns="http://www.w3.org/2000/svg" width="59.988" height="61.922" viewBox="0 0 59.988 61.922">
  <path id="Path_708" data-name="Path 708" d="M169.788,99.642h3.885a1.821,1.821,0,1,0,0-3.642h-3.885a1.821,1.821,0,1,0,0,3.642Z" transform="translate(-148.54 -84.344)" fill="#274584"/>
  <path id="Path_709" data-name="Path 709" d="M169.788,155.642h3.885a1.821,1.821,0,1,0,0-3.642h-3.885a1.821,1.821,0,1,0,0,3.642Z" transform="translate(-148.54 -133.545)" fill="#274584"/>
  <path id="Path_710" data-name="Path 710" d="M169.788,219.642h3.885a1.821,1.821,0,1,0,0-3.642h-3.885a1.821,1.821,0,1,0,0,3.642Z" transform="translate(-148.54 -189.774)" fill="#274584"/>
  <path id="Path_711" data-name="Path 711" d="M180.473,280H169.788a1.821,1.821,0,1,0,0,3.642h10.685a1.821,1.821,0,1,0,0-3.642Z" transform="translate(-148.541 -246.004)" fill="#274584"/>
  <path id="Path_712" data-name="Path 712" d="M180.473,344H169.788a1.821,1.821,0,1,0,0,3.642h10.685a1.821,1.821,0,1,0,0-3.642Z" transform="translate(-148.541 -302.233)" fill="#274584"/>
  <g id="Group_1277" data-name="Group 1277">
    <path id="Path_707" data-name="Path 707" d="M66.031,43.4a1.806,1.806,0,0,0-.132-.2,12.084,12.084,0,0,0-5.723-4.54V7.649A7.658,7.658,0,0,0,52.527,0H15.616A7.658,7.658,0,0,0,7.967,7.649v7.892a3.647,3.647,0,0,0,3.642,3.642h8.013V52.452a3.647,3.647,0,0,0,3.642,3.642H45.627a12.017,12.017,0,1,0,20.4-12.7ZM19.623,15.541H11.609V7.649a4.007,4.007,0,0,1,8.013,0Zm24.556,36.91H23.265V8.621a8.316,8.316,0,0,0-1.137-4.978h30.4a4.011,4.011,0,0,1,4.007,4.007V37.9A12.033,12.033,0,0,0,44.179,52.452ZM55.926,58.28a8.375,8.375,0,1,1,6.086-14.126l-5.6,5.6-1.626-1.626A1.821,1.821,0,0,0,52.21,50.7l2.914,2.914a1.822,1.822,0,0,0,2.576,0L63.921,47.4A8.387,8.387,0,0,1,55.926,58.28Z" transform="translate(-7.967 0)" fill="#274584"/>
    <path id="Path_713" data-name="Path 713" d="M273.064,74.82a18.715,18.715,0,0,1-4.582-1.972,1.149,1.149,0,0,1-.32-1.134c.377-2.095,3.628-2,4.89-.989l-.023-.019,0,0a1.82,1.82,0,1,0,2.331-2.794,7,7,0,0,0-3.014-1.357v-.582a1.821,1.821,0,1,0-3.642,0v.7c-4.552,1.184-5.535,6.827-2.364,9.128a20.148,20.148,0,0,0,5.59,2.486c1.728.565,1.818,1.728,1.718,2.37a3.009,3.009,0,0,1-3.133,2.423,5.594,5.594,0,0,1-3.788-.918,1.821,1.821,0,0,0-1.887,3.116,8.546,8.546,0,0,0,3.864,1.378v.672a1.821,1.821,0,1,0,3.642,0v-.836C278.189,84.984,279.449,76.909,273.064,74.82Z" transform="translate(-232.881 -56.361)" fill="#69e0c1"/>
  </g>
</svg>
