<svg xmlns="http://www.w3.org/2000/svg" width="741.35" height="606.657" viewBox="0 0 741.35 606.657">
  <g id="Group_1760" data-name="Group 1760" transform="translate(-1044.028 -305)">
    <path id="Path_1562" data-name="Path 1562" d="M752.031,584.643V731.155H384.963c-41.822,0-75.85-32.864-75.85-73.256s34.027-73.256,75.85-73.256Z" transform="translate(742.803 175.993)" fill="#f2f2f2"/>
    <path id="Path_1563" data-name="Path 1563" d="M761.937,730.409a5.637,5.637,0,0,1-5.635,5.635H379.315a77.2,77.2,0,1,1,0-154.4H756.3a5.635,5.635,0,1,1,0,11.27H379.315a65.93,65.93,0,0,0,0,131.861H756.3A5.637,5.637,0,0,1,761.937,730.409Z" transform="translate(741.914 175.612)" fill="#17ecff"/>
    <path id="Path_1564" data-name="Path 1564" d="M746.7,614.9H352.241a1.127,1.127,0,0,1,0-2.254H746.7a1.127,1.127,0,0,1,0,2.254Z" transform="translate(748.137 179.55)" fill="#ccc"/>
    <path id="Path_1565" data-name="Path 1565" d="M746.7,638.9H352.241a1.127,1.127,0,0,1,0-2.254H746.7a1.127,1.127,0,0,1,0,2.254Z" transform="translate(748.137 182.598)" fill="#ccc"/>
    <path id="Path_1566" data-name="Path 1566" d="M746.7,662.9H352.241a1.127,1.127,0,0,1,0-2.254H746.7a1.127,1.127,0,0,1,0,2.254Z" transform="translate(748.137 185.647)" fill="#ccc"/>
    <path id="Path_1567" data-name="Path 1567" d="M746.7,686.9H352.241a1.127,1.127,0,0,1,0-2.254H746.7a1.127,1.127,0,0,1,0,2.254Z" transform="translate(748.137 188.695)" fill="#ccc"/>
    <path id="Path_1568" data-name="Path 1568" d="M999.656,637.01,907.731,751.1,621.9,520.789c-32.566-26.24-38.443-73.18-13.1-104.633s72.459-35.694,105.025-9.453Z" transform="translate(778.868 151.206)" fill="#f2f2f2"/>
    <path id="Path_1569" data-name="Path 1569" d="M916.343,756.62a5.637,5.637,0,0,1-7.923.852L614.867,520.943a77.2,77.2,0,1,1,96.875-120.229l293.552,236.529a5.635,5.635,0,1,1-7.071,8.776L704.67,409.49a65.93,65.93,0,0,0-82.732,102.678L915.49,748.7a5.637,5.637,0,0,1,.853,7.923Z" transform="translate(777.985 150.461)" fill="#ccc"/>
    <path id="Path_1570" data-name="Path 1570" d="M969.673,660.592,662.518,413.1a1.127,1.127,0,1,1,1.414-1.755l307.155,247.49a1.127,1.127,0,1,1-1.414,1.755Z" transform="translate(787.637 153.95)" fill="#ccc"/>
    <path id="Path_1571" data-name="Path 1571" d="M954.615,679.281,647.46,431.791a1.127,1.127,0,1,1,1.414-1.755L956.03,677.526a1.127,1.127,0,1,1-1.414,1.755Z" transform="translate(785.725 156.324)" fill="#ccc"/>
    <path id="Path_1572" data-name="Path 1572" d="M939.557,697.969,632.4,450.48a1.127,1.127,0,0,1,1.414-1.755l307.155,247.49a1.127,1.127,0,1,1-1.414,1.755Z" transform="translate(783.812 158.698)" fill="#ccc"/>
    <path id="Path_1573" data-name="Path 1573" d="M924.5,716.657,617.344,469.168a1.127,1.127,0,0,1,1.414-1.755L925.912,714.9a1.127,1.127,0,1,1-1.414,1.755Z" transform="translate(781.899 161.072)" fill="#ccc"/>
    <path id="Path_1575" data-name="Path 1575" d="M340.224,396.223H327.34l-6.128-49.7,19.016,0Z" transform="translate(1001.299 349.014)" fill="#ffb8b8"/>
    <path id="Path_1576" data-name="Path 1576" d="M320.245,387.355h24.848V403H304.6a15.645,15.645,0,0,1,15.645-15.645Z" transform="translate(999.189 354.2)" fill="#2f2e41"/>
    <path id="Path_1577" data-name="Path 1577" d="M223.429,396.223H210.545l-6.128-49.7,19.016,0Z" transform="translate(986.464 349.014)" fill="#ffb8b8"/>
    <path id="Path_1578" data-name="Path 1578" d="M203.451,387.355H228.3V403H187.806a15.645,15.645,0,0,1,15.645-15.645Z" transform="translate(984.354 354.2)" fill="#2f2e41"/>
    <path id="Path_1579" data-name="Path 1579" d="M487.471,248.621v-5.635a36.346,36.346,0,0,1,36.346-36.346h0a36.346,36.346,0,0,1,36.346,36.346v5.635a26.2,26.2,0,0,1-26.2,26.2H513.674a26.2,26.2,0,0,1-26.2-26.2Z" transform="translate(765.457 127.981)" fill="#2f2e41"/>
    <circle id="Ellipse_87" data-name="Ellipse 87" cx="27.681" cy="27.681" r="27.681" transform="translate(1261.594 349.383)" fill="#ffb8b8"/>
    <path id="Path_1580" data-name="Path 1580" d="M634.488,376.475" transform="translate(784.13 149.553)" fill="#ffb8b8"/>
    <path id="Path_1581" data-name="Path 1581" d="M386.506,329.038a10.568,10.568,0,0,1,16.094,1.89l23.729-4.489,6.245,13.755-33.6,5.868a10.625,10.625,0,0,1-12.469-17.025Z" transform="translate(752.203 143.161)" fill="#ffb8b8"/>
    <path id="Path_1582" data-name="Path 1582" d="M512.632,284.484l.31.47-38.912,25.634-65.658,20.966a3.953,3.953,0,0,0-2.718,4.213l1.432,12.337a3.945,3.945,0,0,0,4.745,3.4l61.794-13.246a22.323,22.323,0,0,0,8.308-3.658l43.715-31.1a11.242,11.242,0,0,0-12.706-18.546Z" transform="translate(755.062 137.692)" fill="#ccc"/>
    <path id="Path_1583" data-name="Path 1583" d="M570.825,585.4a5.093,5.093,0,0,1-4.664-3.045L507.095,436.4a1.69,1.69,0,0,0-3.165.178L455.741,578.666a5.073,5.073,0,0,1-6.629,3.258l-16.16-6.06a5.059,5.059,0,0,1-3.265-4.175c-7.27-63.33,56.125-223.183,56.767-224.79l.177-.445,57.79,12.784.12.131c23.056,25.153,42.008,183.8,45.573,215.343a5.047,5.047,0,0,1-3.349,5.349L572.5,585.106a5.022,5.022,0,0,1-1.678.289Z" transform="translate(758.044 145.739)" fill="#2f2e41"/>
    <path id="Path_1584" data-name="Path 1584" d="M514.723,373.607c-14,0-29.612-2.792-34.417-14.314l-.111-.265.149-.245c3.793-6.223,8.805-16.838,6.111-18.831-5.307-3.924-7.883-10.38-7.654-19.188.5-19.121,13.525-36.1,32.42-42.243h0a143.876,143.876,0,0,1,16.074-4.139,27.365,27.365,0,0,1,22.69,5.6,27.641,27.641,0,0,1,10.251,21.267c.2,20.434-2.948,48.894-19.06,68.433a5.012,5.012,0,0,1-2.967,1.726,137.744,137.744,0,0,1-23.486,2.2Z" transform="translate(764.354 136.517)" fill="#ccc"/>
    <path id="Path_1585" data-name="Path 1585" d="M506.1,364.31a10.77,10.77,0,0,1,13.162-7.511,10.6,10.6,0,0,1,1.632.6l18.017-16.4,12.53,8.442-25.766,22.8a10.751,10.751,0,0,1-12.187,5.169A10.587,10.587,0,0,1,506.1,364.31Z" transform="translate(767.771 145.048)" fill="#ffb8b8"/>
    <path id="Path_1586" data-name="Path 1586" d="M534,371.844A5.058,5.058,0,0,1,530.8,370.7l-7.105-5.806a5.072,5.072,0,0,1,.123-7.951l29.8-22.856a1.694,1.694,0,0,0,.319-2.361l-18.393-24.317a14.973,14.973,0,0,1,1-19.288h0a14.931,14.931,0,0,1,20.16-1.612l.116.123,19.207,27.5a17.122,17.122,0,0,1-.406,27.257l-38.6,29.459a5.079,5.079,0,0,1-3.019.995Z" transform="translate(769.821 137.722)" fill="#ccc"/>
    <path id="Path_1587" data-name="Path 1587" d="M497.965,240.144V226.411L522.484,215.7l23.379,10.707v13.734a2.254,2.254,0,0,1-2.254,2.254h-43.39A2.254,2.254,0,0,1,497.965,240.144Z" transform="translate(766.79 129.132)" fill="#2f2e41"/>
    <path id="Path_1588" data-name="Path 1588" d="M518.824,211.8c-3.605-11.539,3.966-24.763,15.159-29.331s24.584-1.375,34.029,6.171,15.3,18.849,18.409,30.532,3.694,23.867,4.267,35.942c13.752,2.526,23.107,18.837,18.343,31.983s-22.4,19.676-34.574,12.806-15.7-25.341-6.916-36.215a29.724,29.724,0,0,0-34.586-46.106C526.179,220.417,517.675,213.053,518.824,211.8Z" transform="translate(769.324 124.643)" fill="#2f2e41"/>
    <path id="Path_1589" data-name="Path 1589" d="M387.33,288.337A117.715,117.715,0,0,1,339.6,277.884a5.041,5.041,0,0,1-2.989-4.625V232.215a5.077,5.077,0,0,1,5.072-5.072h91.288a5.077,5.077,0,0,1,5.072,5.072v41.044a5.041,5.041,0,0,1-2.989,4.625h0a117.716,117.716,0,0,1-47.727,10.453Z" transform="translate(746.296 130.585)" fill="#17ecff"/>
    <path id="Path_1590" data-name="Path 1590" d="M390.333,259.617a5.076,5.076,0,0,1-1.971-.4l-72.39-30.542a5.071,5.071,0,0,1,.173-9.414L388.535,191.8a5.053,5.053,0,0,1,3.619.008l71.421,27.463a5.072,5.072,0,0,1,.174,9.4l-71.422,30.542a5.078,5.078,0,0,1-1.995.406Z" transform="translate(743.28 126.054)" fill="#17ecff"/>
    <circle id="Ellipse_88" data-name="Ellipse 88" cx="6.762" cy="6.762" r="6.762" transform="translate(1084.6 397.737)" fill="#3f3d56"/>
    <path id="Path_1591" data-name="Path 1591" d="M463.881,220.844l-71.422,30.541a4.508,4.508,0,0,1-3.525.009l-72.39-30.541a4.423,4.423,0,0,1-2.155-1.895,4.5,4.5,0,0,0,2.155,6.4l72.39,30.541a4.508,4.508,0,0,0,3.525-.009l71.423-30.541a4.5,4.5,0,0,0,2.135-6.394,4.426,4.426,0,0,1-2.135,1.886Z" transform="translate(743.396 129.545)" opacity="0.2"/>
    <path id="Path_1592" data-name="Path 1592" d="M344.745,274.777a1.127,1.127,0,0,0,1.127-1.127V235.938l37.17-13.541a1.127,1.127,0,0,0,.034-2.254l-37.17,13.541a2.211,2.211,0,0,0-1.615.648,2.238,2.238,0,0,0-.672,1.606V273.65A1.127,1.127,0,0,0,344.745,274.777Z" transform="translate(747.185 129.696)" fill="#3f3d56"/>
  </g>
</svg>
