<svg id="graduate-cap" xmlns="http://www.w3.org/2000/svg" width="80.339" height="59.598" viewBox="0 0 80.339 59.598">
  <path id="Path_926" data-name="Path 926" d="M1.192,85.61l11.99,5.776V101a2.106,2.106,0,0,0,1.192,1.9l22.938,11.049a2.107,2.107,0,0,0,.914.208H42.08a2.109,2.109,0,0,0,.914-.208l22.875-11.019a2.107,2.107,0,0,0,1-1.024c.029-.063.056-.127.084-.191a2.105,2.105,0,0,0,.169-.827v-9.5l3.271-1.575v13.038a3.773,3.773,0,0,0-1.517,2.039l-1.861,6.064a3.773,3.773,0,0,0,.018,2.281l1.726,5.318a3.8,3.8,0,0,0,3.488,2.618h.117a3.768,3.768,0,0,0,3.525-2.4l2-5.065a3.805,3.805,0,0,0,.109-2.46l-1.86-6.316a3.768,3.768,0,0,0-1.53-2.083V87.782l4.542-2.188a2.105,2.105,0,0,0,1.192-1.9V82.021a2.106,2.106,0,0,0-1.192-1.9L41.066,61.78a2.106,2.106,0,0,0-1.827,0L1.192,80.108A2.105,2.105,0,0,0,0,82v1.709A2.105,2.105,0,0,0,1.192,85.61ZM72.4,116.135l-1.323-4.076,1.411-4.6,1.424,4.834Zm-9.49-16.457L41.6,109.945H38.706L17.392,99.678V93.414l21.846,10.524a2.106,2.106,0,0,0,1.827,0L62.913,93.414v6.263ZM40.152,66.014l34.97,16.845L64.383,88.032a2.127,2.127,0,0,0-.279.109L40.152,99.679,16.2,88.141a2.124,2.124,0,0,0-.279-.109L5.183,82.859Z" transform="translate(0 -61.572)" fill="#2c367f"/>
</svg>
