<svg id="Group_3" data-name="Group 3" xmlns="http://www.w3.org/2000/svg" width="24.786" height="18.88" viewBox="0 0 24.786 18.88">
  <path id="Path_683" data-name="Path 683" d="M22.607,12.826H2.178A2.182,2.182,0,0,0,0,15V29.527a2.182,2.182,0,0,0,2.178,2.178H22.607a2.182,2.182,0,0,0,2.178-2.178V15A2.182,2.182,0,0,0,22.607,12.826Zm-.3,1.452-9.867,9.867L2.486,14.278ZM1.452,29.226V15.3l6.994,6.934Zm1.027,1.027,7-7,2.452,2.431a.726.726,0,0,0,1.025,0l2.391-2.391,6.961,6.961Zm20.854-1.027-6.961-6.961L23.333,15.3Z" transform="translate(0 -12.826)" fill="#fbfbfd"/>
</svg>
