<svg xmlns="http://www.w3.org/2000/svg" width="313.543" height="238.828" viewBox="0 0 313.543 238.828">
  <path id="Path_1691" data-name="Path 1691" d="M285.986,12.826H27.557A27.607,27.607,0,0,0,0,40.383V224.1a27.6,27.6,0,0,0,27.557,27.557H285.986A27.6,27.6,0,0,0,313.543,224.1V40.383A27.6,27.6,0,0,0,285.986,12.826ZM282.179,31.2,157.358,156.02,31.454,31.194ZM18.373,220.3V44.1l88.477,87.717Zm12.991,12.991L119.9,144.754l31.024,30.756a9.184,9.184,0,0,0,12.963-.028l30.248-30.248,88.052,88.052ZM295.175,220.3l-88.052-88.052,88.052-88.058Z" transform="translate(0 -12.826)" fill="#a2aed2"/>
</svg>
