<svg xmlns="http://www.w3.org/2000/svg" width="63.135" height="60.346" viewBox="0 0 63.135 60.346">
  <g id="Group_1761" data-name="Group 1761" transform="translate(-669 -3090.598)">
    <g id="Group_8" data-name="Group 8" transform="translate(712.299 3119.419)">
      <g id="Group_1225" data-name="Group 1225">
        <path id="Path_758" data-name="Path 758" d="M366.518,243.865h-2.659a1.392,1.392,0,0,0-1.391,1.391v1.255l-5.853,0v-1.261a1.388,1.388,0,0,0-1.387-1.387h-2.79a1.3,1.3,0,0,0-1.3,1.3v25.879a1.3,1.3,0,0,0,1.3,1.3h14.079a1.3,1.3,0,0,0,1.3-1.3V245.165A1.3,1.3,0,0,0,366.518,243.865Zm-.55,26.629H352.989V245.715h1.777v.8a1.85,1.85,0,0,0,1.848,1.848h5.908a1.8,1.8,0,0,0,1.8-1.8v-.85h1.65v24.779Z" transform="translate(-351.139 -243.865)" fill="#173069"/>
      </g>
    </g>
    <g id="Group_9" data-name="Group 9" transform="translate(719.047 3119.234)">
      <g id="Group_1227" data-name="Group 1227">
        <path id="Path_759" data-name="Path 759" d="M408.2,242.838h-1.414a.925.925,0,1,0,0,1.85H408.2a.925.925,0,0,0,0-1.85Z" transform="translate(-405.86 -242.838)" fill="#173069"/>
      </g>
    </g>
    <g id="Group_10" data-name="Group 10" transform="translate(696.667 3134.247)">
      <g id="Group_1229" data-name="Group 1229">
        <path id="Path_760" data-name="Path 760" d="M226.2,364.573a.9.9,0,0,0-.137-.333.994.994,0,0,0-.116-.141.908.908,0,0,0-.141-.115.931.931,0,0,0-.159-.085.973.973,0,0,0-.173-.053.943.943,0,0,0-.363,0,.958.958,0,0,0-.173.053.94.94,0,0,0-.159.085.913.913,0,0,0-.141.115.968.968,0,0,0-.116.141.943.943,0,0,0-.155.513.905.905,0,0,0,.018.181.847.847,0,0,0,.053.173.864.864,0,0,0,.084.16.99.99,0,0,0,.116.141.9.9,0,0,0,.141.115.936.936,0,0,0,.159.085.976.976,0,0,0,.173.053.96.96,0,0,0,.363,0,.964.964,0,0,0,.173-.053.937.937,0,0,0,.159-.085.912.912,0,0,0,.141-.115.932.932,0,0,0,.271-.655A.9.9,0,0,0,226.2,364.573Z" transform="translate(-224.369 -363.83)" fill="#173069"/>
      </g>
    </g>
    <g id="Group_11" data-name="Group 11" transform="translate(719.828 3142.593)">
      <g id="Group_1231" data-name="Group 1231">
        <path id="Path_761" data-name="Path 761" d="M413.3,431.117a.925.925,0,1,0,.745.907A.926.926,0,0,0,413.3,431.117Z" transform="translate(-412.192 -431.099)" fill="#173069"/>
      </g>
    </g>
    <g id="Group_12" data-name="Group 12" transform="translate(716.357 3134.734)">
      <g id="Group_1233" data-name="Group 1233">
        <path id="Path_762" data-name="Path 762" d="M391.912,367.757h-6.941a.925.925,0,1,0,0,1.85h6.941a.925.925,0,0,0,0-1.85Z" transform="translate(-384.046 -367.757)" fill="#173069"/>
      </g>
    </g>
    <g id="Group_13" data-name="Group 13" transform="translate(716.357 3138.939)">
      <g id="Group_1235" data-name="Group 1235">
        <path id="Path_763" data-name="Path 763" d="M391.912,401.646h-6.941a.925.925,0,1,0,0,1.85h6.941a.925.925,0,1,0,0-1.85Z" transform="translate(-384.046 -401.646)" fill="#173069"/>
      </g>
    </g>
    <g id="Group_14" data-name="Group 14" transform="translate(716.357 3126.324)">
      <g id="Group_1237" data-name="Group 1237">
        <path id="Path_764" data-name="Path 764" d="M391.912,299.98h-6.941a.925.925,0,0,0,0,1.85h6.941a.925.925,0,0,0,0-1.85Z" transform="translate(-384.046 -299.98)" fill="#173069"/>
      </g>
    </g>
    <g id="Group_15" data-name="Group 15" transform="translate(716.357 3130.529)">
      <g id="Group_1239" data-name="Group 1239">
        <path id="Path_765" data-name="Path 765" d="M391.912,333.868h-6.941a.925.925,0,0,0,0,1.85h6.941a.925.925,0,0,0,0-1.85Z" transform="translate(-384.046 -333.868)" fill="#173069"/>
      </g>
    </g>
    <g id="Group_16" data-name="Group 16" transform="translate(684.67 3104.995)">
      <g id="Group_1241" data-name="Group 1241">
        <path id="Path_766" data-name="Path 766" d="M147.676,131.283H132.463l-.656-2.8a.925.925,0,0,0-.9-.714H128a.925.925,0,1,0,0,1.85h2.176L132.857,141v0l.535,2.227a1.9,1.9,0,0,0,.406.794,2.5,2.5,0,1,0,4.541.661h4.311a2.5,2.5,0,1,0,2.783-1.819.924.924,0,0,0-.231-.03h-9.965a.048.048,0,0,1-.047-.037l-.261-1.086h11.149a.925.925,0,0,0,.9-.7l1.99-8.091.005-.024A1.328,1.328,0,0,0,147.676,131.283Zm-2.611,13.4a.654.654,0,1,1-.654.654A.655.655,0,0,1,145.065,144.684Zm-9.139,0a.654.654,0,1,1-.654.654A.655.655,0,0,1,135.926,144.684Zm9.429-4.822H134.489l-1.59-6.73H147.01Z" transform="translate(-127.072 -127.766)" fill="#173069"/>
      </g>
    </g>
    <g id="Group_17" data-name="Group 17" transform="translate(677.51 3097.808)">
      <g id="Group_1243" data-name="Group 1243">
        <path id="Path_767" data-name="Path 767" d="M69.939,70.156a.924.924,0,1,0,.925.923A.924.924,0,0,0,69.939,70.156Z" transform="translate(-69.014 -70.156)" fill="#173069"/>
      </g>
    </g>
    <g id="Group_18" data-name="Group 18" transform="translate(681.002 3097.808)">
      <g id="Group_1245" data-name="Group 1245">
        <path id="Path_768" data-name="Path 768" d="M98.441,70.169a.925.925,0,1,0,.744.906A.927.927,0,0,0,98.441,70.169Z" transform="translate(-97.335 -70.151)" fill="#173069"/>
      </g>
    </g>
    <g id="Group_19" data-name="Group 19" transform="translate(684.498 3097.807)">
      <g id="Group_1247" data-name="Group 1247">
        <path id="Path_769" data-name="Path 769" d="M126.79,70.168a.924.924,0,1,0,.745.906A.926.926,0,0,0,126.79,70.168Z" transform="translate(-125.685 -70.15)" fill="#173069"/>
      </g>
    </g>
    <g id="Group_20" data-name="Group 20" transform="translate(688.708 3097.807)">
      <g id="Group_1249" data-name="Group 1249">
        <path id="Path_770" data-name="Path 770" d="M187.568,70.15H160.75a.925.925,0,0,0,0,1.85h26.819a.925.925,0,0,0,0-1.85Z" transform="translate(-159.825 -70.15)" fill="#173069"/>
      </g>
    </g>
    <g id="Group_21" data-name="Group 21" transform="translate(669 3090.598)">
      <g id="Group_1251" data-name="Group 1251">
        <path id="Path_771" data-name="Path 771" d="M43.061,11.58H4.5a4.509,4.509,0,0,0-4.5,4.5V39.742a.925.925,0,1,0,1.85,0V16.084A2.657,2.657,0,0,1,4.5,13.43H43.061a.925.925,0,0,0,0-1.85Z" transform="translate(0 -11.58)" fill="#173069"/>
      </g>
    </g>
    <g id="Group_22" data-name="Group 22" transform="translate(669 3090.664)">
      <g id="Group_1253" data-name="Group 1253">
        <path id="Path_772" data-name="Path 772" d="M62.211,59.371a.925.925,0,0,0,.925-.925V41.2A4.14,4.14,0,0,0,59,37.066H57.184V16.084a4.509,4.509,0,0,0-4.5-4.5h-5.3a.925.925,0,1,0,0,1.85h5.3a2.657,2.657,0,0,1,2.654,2.654V37.066H53.566V16.708a1.537,1.537,0,0,0-1.536-1.536H5.154a1.537,1.537,0,0,0-1.536,1.536V48.07a1.537,1.537,0,0,0,1.536,1.536H40.142v1.763H1.85v-7.31a.925.925,0,1,0-1.85,0V55.943a4.509,4.509,0,0,0,4.5,4.5H21.6l-.447,3.784a2.407,2.407,0,0,1-.921,1.635l-.782.53h-1.68a2.731,2.731,0,0,0,0,5.462H39.416a2.727,2.727,0,0,0,2.134-1.03,4.117,4.117,0,0,0,2.726,1.03H59a4.14,4.14,0,0,0,4.135-4.135V62.762a.925.925,0,0,0-1.85,0v4.962A2.288,2.288,0,0,1,59,70.01H44.277a2.288,2.288,0,0,1-2.285-2.285V41.2a2.288,2.288,0,0,1,2.285-2.285H59A2.288,2.288,0,0,1,61.286,41.2V58.446A.925.925,0,0,0,62.211,59.371ZM4.5,58.6A2.657,2.657,0,0,1,1.85,55.943V53.219H40.142V58.6Zm35.638,1.85V66.5a2.724,2.724,0,0,0-.725-.1h-1.68l-.782-.53a2.406,2.406,0,0,1-.92-1.633l-.448-3.787ZM34.93,66.4H22.254a4.429,4.429,0,0,0,.732-1.944v0l.473-4H33.724l.474,4.007A4.43,4.43,0,0,0,34.93,66.4Zm4.486,3.613H17.767a.881.881,0,1,1,0-1.763H39.416a.881.881,0,0,1,0,1.763Zm12.3-32.944H44.277A4.14,4.14,0,0,0,40.142,41.2v6.555H5.468V24.029H51.716Zm0-14.887H5.468V17.022H51.716Z" transform="translate(0 -11.58)" fill="#173069"/>
      </g>
    </g>
  </g>
</svg>
