<svg xmlns="http://www.w3.org/2000/svg" width="62" height="62.254" viewBox="0 0 62 62.254">
  <g id="Group_1765" data-name="Group 1765" transform="translate(-1275 -3085.627)">
    <path id="Path_83" data-name="Path 83" d="M51.6,44.22a12.357,12.357,0,1,0-4.272-23.954,6.205,6.205,0,0,0-6.062-4.879h-.009A13.95,13.95,0,1,0,13.471,17.6,13.376,13.376,0,0,0,15.433,44.22H23.7v5.149H18.533v2.06h6.2a1.032,1.032,0,0,0,1.033-1.03V44.22h2.067v2.06H29.9V44.22h2.067V57.607H29.9v2.06H33a1.032,1.032,0,0,0,1.033-1.03V44.22H36.1v4.119h2.067V44.22h2.067v10.3a1.032,1.032,0,0,0,1.033,1.03h5.167v-2.06H42.3V44.22h2.067V50.4a1.032,1.032,0,0,0,1.033,1.03h6.2v-2.06H46.433V44.22ZM4.067,30.833a11.349,11.349,0,0,1,10.664-11.29,1.031,1.031,0,0,0,.95-1.236A11.879,11.879,0,1,1,39.2,15.9c0,.114-.008.227-.017.34l-.014.238a1.032,1.032,0,0,0,1.244,1.058A4.132,4.132,0,0,1,45.4,21.546c0,.033-.02.168-.021.2a1.033,1.033,0,0,0,1.506.963A10.3,10.3,0,1,1,51.6,42.161H15.433A11.36,11.36,0,0,1,4.067,30.833Z" transform="translate(1273 3083.627)" fill="#274584"/>
    <path id="Path_84" data-name="Path 84" d="M29.57,7.527A9.169,9.169,0,0,0,26.5,7V9.167a7.006,7.006,0,0,1,2.347.4Z" transform="translate(1273.756 3083.961)" fill="#274584"/>
    <path id="Path_85" data-name="Path 85" d="M24.862,9.528l-.725-2.042A9.231,9.231,0,0,0,18,16.168h2.167A7.06,7.06,0,0,1,24.862,9.528Z" transform="translate(1273.439 3084.018)" fill="#274584"/>
    <path id="Path_86" data-name="Path 86" d="M38.065,26.542l-1.933-.793a9.808,9.808,0,0,0-.457-1.109l.8-1.924a1.084,1.084,0,0,0-.143-1.081A12.023,12.023,0,0,0,34.2,19.5a1.084,1.084,0,0,0-1.081-.143l-1.924.8a9.976,9.976,0,0,0-1.109-.457l-.793-1.933a1.086,1.086,0,0,0-.866-.664,10.671,10.671,0,0,0-3.018,0,1.081,1.081,0,0,0-.866.664L23.75,19.7a9.976,9.976,0,0,0-1.109.457l-1.924-.8a1.087,1.087,0,0,0-1.081.143A12.017,12.017,0,0,0,17.5,21.634a1.083,1.083,0,0,0-.143,1.082l.8,1.924a9.976,9.976,0,0,0-.457,1.109l-1.933.793a1.086,1.086,0,0,0-.664.866A11.644,11.644,0,0,0,15,28.917a11.824,11.824,0,0,0,.105,1.509,1.081,1.081,0,0,0,.664.866l1.933.793a9.976,9.976,0,0,0,.457,1.109l-.8,1.924A1.084,1.084,0,0,0,17.5,36.2a12.017,12.017,0,0,0,2.136,2.137,1.084,1.084,0,0,0,1.082.143l1.924-.8a9.976,9.976,0,0,0,1.109.457l.793,1.933a1.086,1.086,0,0,0,.866.664,10.888,10.888,0,0,0,3.018,0,1.081,1.081,0,0,0,.866-.664l.793-1.933a9.807,9.807,0,0,0,1.109-.457l1.924.8a1.082,1.082,0,0,0,1.081-.143A11.988,11.988,0,0,0,36.336,36.2a1.082,1.082,0,0,0,.143-1.081l-.8-1.924a9.977,9.977,0,0,0,.457-1.109l1.933-.793a1.086,1.086,0,0,0,.664-.866,10.888,10.888,0,0,0,0-3.018,1.081,1.081,0,0,0-.663-.866Zm-1.422,2.991-1.8.74a1.086,1.086,0,0,0-.632.707,7.523,7.523,0,0,1-.674,1.634,1.085,1.085,0,0,0-.054.947l.747,1.79a9.865,9.865,0,0,1-.877.878l-1.79-.747a1.084,1.084,0,0,0-.948.054,7.5,7.5,0,0,1-1.633.673,1.088,1.088,0,0,0-.707.632l-.74,1.8a8.074,8.074,0,0,1-1.233,0l-.74-1.8a1.085,1.085,0,0,0-.707-.632,7.523,7.523,0,0,1-1.634-.674,1.085,1.085,0,0,0-.947-.054l-1.79.749a9.721,9.721,0,0,1-.877-.878l.747-1.79a1.078,1.078,0,0,0-.054-.947,7.545,7.545,0,0,1-.674-1.634,1.088,1.088,0,0,0-.632-.707l-1.8-.74c-.014-.217-.022-.419-.022-.616s.008-.4.024-.616l1.8-.74a1.085,1.085,0,0,0,.632-.707,7.523,7.523,0,0,1,.674-1.634,1.085,1.085,0,0,0,.054-.947l-.749-1.79a9.722,9.722,0,0,1,.878-.877l1.79.747a1.082,1.082,0,0,0,.947-.054,7.545,7.545,0,0,1,1.634-.674,1.088,1.088,0,0,0,.707-.632l.74-1.8a8.075,8.075,0,0,1,1.233,0l.74,1.8a1.085,1.085,0,0,0,.707.632,7.523,7.523,0,0,1,1.634.674,1.086,1.086,0,0,0,.947.054l1.79-.747a9.722,9.722,0,0,1,.877.877l-.747,1.79a1.084,1.084,0,0,0,.054.948,7.5,7.5,0,0,1,.673,1.633,1.088,1.088,0,0,0,.632.707l1.8.74c.016.217.024.419.024.616s-.008.4-.024.616Z" transform="translate(1273.057 3083.715)" fill="#274584"/>
    <path id="Path_87" data-name="Path 87" d="M49.533,37.08l1.054.609,1.083-1.876L50.616,35.2a5.473,5.473,0,0,0,.192-.62H52V32.418H50.807a5.065,5.065,0,0,0-.192-.62l1.055-.609-1.083-1.876-1.054.609a5.44,5.44,0,0,0-.454-.454l.609-1.054L47.812,27.33,47.2,28.386a5.473,5.473,0,0,0-.62-.192V27H44.417v1.193a5.065,5.065,0,0,0-.62.192l-.609-1.055-1.876,1.083.609,1.054a5.439,5.439,0,0,0-.454.454l-1.054-.609-1.083,1.876,1.055.609a5.472,5.472,0,0,0-.192.62H39v2.167h1.193a5.065,5.065,0,0,0,.192.62l-1.055.609,1.083,1.876,1.054-.609a5.439,5.439,0,0,0,.454.454l-.609,1.054,1.876,1.083.609-1.055a5.472,5.472,0,0,0,.62.192V40h2.167V38.807a5.065,5.065,0,0,0,.62-.192l.609,1.055,1.876-1.083-.609-1.054A5.427,5.427,0,0,0,49.533,37.08ZM45.5,36.75a3.25,3.25,0,1,1,3.25-3.25A3.254,3.254,0,0,1,45.5,36.75Z" transform="translate(1273.771 3084.212)" fill="#274584"/>
    <path id="Path_88" data-name="Path 88" d="M26.417,23a5.417,5.417,0,1,0,5.417,5.417A5.423,5.423,0,0,0,26.417,23Zm0,8.667a3.25,3.25,0,1,1,3.25-3.25A3.254,3.254,0,0,1,26.417,31.667Z" transform="translate(1273.443 3084.152)" fill="#274584"/>
    <path id="Path_89" data-name="Path 89" d="M13,48h3.25v2.167H13Z" transform="translate(1273.338 3085.259)" fill="#274584"/>
    <path id="Path_90" data-name="Path 90" d="M29.5,53.5V47H27.333v5.417H23v2.167h5.417A1.084,1.084,0,0,0,29.5,53.5Z" transform="translate(1273.584 3084.556)" fill="#274584"/>
    <path id="Path_91" data-name="Path 91" d="M18,52h3.25v2.167H18Z" transform="translate(1273.491 3084.995)" fill="#274584"/>
    <path id="Path_92" data-name="Path 92" d="M13,52h3.25v2.167H13Z" transform="translate(1273.338 3084.995)" fill="#274584"/>
    <path id="Path_93" data-name="Path 93" d="M19,56h8.667v2.167H19Z" transform="translate(1273.436 3085.355)" fill="#274584"/>
    <path id="Path_94" data-name="Path 94" d="M15,60h2.167v2.167H15Z" transform="translate(1273.411 3085.715)" fill="#274584"/>
    <path id="Path_95" data-name="Path 95" d="M19,60h2.167v2.167H19Z" transform="translate(1273.537 3085.715)" fill="#274584"/>
    <path id="Path_96" data-name="Path 96" d="M23,60h2.167v2.167H23Z" transform="translate(1273.664 3085.715)" fill="#274584"/>
    <path id="Path_97" data-name="Path 97" d="M35.667,60.333H27V62.5h9.75a1.084,1.084,0,0,0,1.083-1.083V56H35.667Z" transform="translate(1273.584 3085.364)" fill="#274584"/>
    <path id="Path_98" data-name="Path 98" d="M35,49h2.167v5.417H35Z" transform="translate(1274.043 3084.732)" fill="#274584"/>
    <path id="Path_99" data-name="Path 99" d="M8.3,50.333H11.75V48.167H8.3a3.25,3.25,0,1,0,0,2.167ZM4.167,49.25A1.083,1.083,0,1,1,5.25,50.333,1.085,1.085,0,0,1,4.167,49.25Z" transform="translate(1273 3085.022)" fill="#274584"/>
    <path id="Path_100" data-name="Path 100" d="M47,52h3.25v2.167H47Z" transform="translate(1274.382 3084.995)" fill="#274584"/>
    <path id="Path_101" data-name="Path 101" d="M52,52h3.25v2.167H52Z" transform="translate(1274.166 3084.995)" fill="#274584"/>
    <path id="Path_102" data-name="Path 102" d="M59.583,46a3.246,3.246,0,0,0-3.051,2.167H52v2.167h4.533A3.244,3.244,0,1,0,59.583,46Zm0,4.333a1.083,1.083,0,1,1,1.083-1.083A1.085,1.085,0,0,1,59.583,50.333Z" transform="translate(1274.166 3085.022)" fill="#274584"/>
    <path id="Path_103" data-name="Path 103" d="M8.25,54A3.25,3.25,0,1,0,11.3,58.333H18V56.167H11.3A3.246,3.246,0,0,0,8.25,54Zm0,4.333A1.083,1.083,0,1,1,9.333,57.25,1.085,1.085,0,0,1,8.25,58.333Z" transform="translate(1273.25 3085.184)" fill="#274584"/>
  </g>
</svg>
