<svg xmlns="http://www.w3.org/2000/svg" width="64.161" height="64.161" viewBox="0 0 64.161 64.161">
  <g id="Group_1760" data-name="Group 1760" transform="translate(-663 -2893.445)">
    <path id="Path_104" data-name="Path 104" d="M68.539,8H11.622A3.626,3.626,0,0,0,8,11.622v38.29a3.626,3.626,0,0,0,3.622,3.622H29.277l4.736,8.842a1.033,1.033,0,0,0,.193.256l1.749,1.688-.008,1.632h-1.04a1.035,1.035,0,0,0-1.035,1.035v4.139a1.035,1.035,0,0,0,1.035,1.035H51.464A1.035,1.035,0,0,0,52.5,71.126V66.987a1.035,1.035,0,0,0-1.035-1.035H50.429V64.311L52.2,62.545a1.036,1.036,0,0,0,.3-.732V53.534h16.04a3.626,3.626,0,0,0,3.622-3.622V11.622A3.626,3.626,0,0,0,68.539,8ZM50.429,70.092H35.941v-2.07H50.429Zm0-8.707L48.662,63.15a1.036,1.036,0,0,0-.3.732v2.07H38.016l.01-2.065a1.034,1.034,0,0,0-.316-.749L35.76,61.255,30.274,51.013l-.016-.027a1.039,1.039,0,0,1,.38-1.416,1.018,1.018,0,0,1,.515-.138,1.039,1.039,0,0,1,.885.5L33.981,53.8a1.035,1.035,0,0,0,1.96-.463V36.976a1.035,1.035,0,0,1,2.07,0V50.429a1.035,1.035,0,1,0,2.07,0V45.255a1.035,1.035,0,0,1,2.07,0v5.174a1.035,1.035,0,1,0,2.07,0V46.29a1.035,1.035,0,0,1,2.07,0v4.139a1.035,1.035,0,1,0,2.07,0v-2.07a1.035,1.035,0,1,1,2.07,0Zm1.16-15.223a3.111,3.111,0,0,0-3.337-.689,3.106,3.106,0,0,0-4.518-1.889,3.2,3.2,0,0,0-.423-.526,3.11,3.11,0,0,0-3.23-.73V36.976a3.1,3.1,0,1,0-6.209,0V48.965c-.009-.017-.017-.034-.027-.049a3.1,3.1,0,0,0-4.982-.542,1,1,0,0,0-.166-.014H16.279V13.174h47.6V48.359H52.5a3.1,3.1,0,0,0-.909-2.2Zm18.5,3.75a1.554,1.554,0,0,1-1.552,1.552H52.5V50.429H64.917a1.035,1.035,0,0,0,1.035-1.035V12.139A1.035,1.035,0,0,0,64.917,11.1H15.244a1.035,1.035,0,0,0-1.035,1.035V49.394a1.035,1.035,0,0,0,1.035,1.035H28.053a3.07,3.07,0,0,0,.163,1.035H11.622a1.554,1.554,0,0,1-1.552-1.552V11.622a1.554,1.554,0,0,1,1.552-1.552H68.539a1.554,1.554,0,0,1,1.552,1.552Z" transform="translate(655 2885.445)" fill="#274584"/>
    <path id="Path_105" data-name="Path 105" d="M33.035,136A1.035,1.035,0,0,0,32,137.035v10.349a1.035,1.035,0,0,0,2.07,0V137.035A1.035,1.035,0,0,0,33.035,136Z" transform="translate(634.104 2774.004)" fill="#274584"/>
    <path id="Path_106" data-name="Path 106" d="M465.035,160A1.035,1.035,0,0,0,464,161.035v4.139a1.035,1.035,0,1,0,2.07,0v-4.139A1.035,1.035,0,0,0,465.035,160Z" transform="translate(257.986 2753.115)" fill="#274584"/>
    <path id="Path_107" data-name="Path 107" d="M89.314,57.035A1.035,1.035,0,0,0,88.279,56H81.035a1.035,1.035,0,0,0,0,2.07h7.244A1.035,1.035,0,0,0,89.314,57.035Z" transform="translate(592.313 2843.571)" fill="#274584"/>
    <path id="Path_108" data-name="Path 108" d="M161.035,58.07h1.035a1.035,1.035,0,1,0,0-2.07h-1.035a1.035,1.035,0,0,0,0,2.07Z" transform="translate(522.662 2843.571)" fill="#274584"/>
    <path id="Path_109" data-name="Path 109" d="M261.732,79.523H247.115l-.137-1.035H260.7a1.035,1.035,0,0,0,1.028-.921l1.035-9.314a1.034,1.034,0,0,0-1.028-1.149H245.459l-.294-2.207a1.035,1.035,0,0,0-1.026-.9h-3.1a1.035,1.035,0,0,0,0,2.07h2.2l1.949,14.625a1.035,1.035,0,0,0,1.026.9h.179a3.1,3.1,0,1,0,5.852,0H255.7a3.1,3.1,0,1,0,5.852,0h.179a1.035,1.035,0,0,0,0-2.07Zm-16-10.349h14.84l-.8,7.244H246.7Zm3.578,14.488a1.035,1.035,0,1,1,1.035-1.035,1.035,1.035,0,0,1-1.035,1.035Zm9.314,0a1.035,1.035,0,1,1,1.035-1.035A1.035,1.035,0,0,1,258.627,83.662Z" transform="translate(453.011 2836.651)" fill="#274584"/>
    <path id="Path_110" data-name="Path 110" d="M337.035,117.174a1.035,1.035,0,0,0,1.035-1.035v-3.1a1.035,1.035,0,0,0-2.07,0v3.1A1.035,1.035,0,0,0,337.035,117.174Z" transform="translate(369.43 2794.866)" fill="#274584"/>
    <path id="Path_111" data-name="Path 111" d="M305.035,117.174a1.035,1.035,0,0,0,1.035-1.035v-3.1a1.035,1.035,0,0,0-2.07,0v3.1A1.035,1.035,0,0,0,305.035,117.174Z" transform="translate(397.29 2794.866)" fill="#274584"/>
    <path id="Path_112" data-name="Path 112" d="M369.035,117.174a1.035,1.035,0,0,0,1.035-1.035v-3.1a1.035,1.035,0,1,0-2.07,0v3.1A1.035,1.035,0,0,0,369.035,117.174Z" transform="translate(341.568 2794.866)" fill="#274584"/>
    <path id="Path_113" data-name="Path 113" d="M129.06,111.114a1.035,1.035,0,0,0,0-1.809l-9.314-5.174a1.035,1.035,0,0,0-1.537.9v2.07h-5.174A1.035,1.035,0,0,0,112,108.14v4.139a1.035,1.035,0,0,0,1.035,1.035h5.174v2.07a1.035,1.035,0,0,0,1.537.9Zm-14.991.13v-2.07h5.174a1.035,1.035,0,0,0,1.035-1.035v-1.345l6.148,3.415-6.148,3.415v-1.345a1.035,1.035,0,0,0-1.035-1.035Z" transform="translate(564.453 2801.838)" fill="#274584"/>
  </g>
</svg>
