<svg xmlns="http://www.w3.org/2000/svg" width="62.707" height="62.867" viewBox="0 0 62.707 62.867">
  <g id="Group_1763" data-name="Group 1763" transform="translate(-1270 -2682.059)">
    <path id="Path_63" data-name="Path 63" d="M2.084,44.582a1.044,1.044,0,0,0,.821.939l3.642.786a16.511,16.511,0,0,0,.489,1.831l-2.757,2.5a1.045,1.045,0,0,0-.241,1.224A20.9,20.9,0,0,0,5.706,54.77a1.045,1.045,0,0,0,1.18.4l3.54-1.14a16.746,16.746,0,0,0,1.348,1.348l-1.14,3.54a1.045,1.045,0,0,0,.4,1.18,20.9,20.9,0,0,0,2.911,1.668,1.046,1.046,0,0,0,1.224-.241l2.5-2.757a16.825,16.825,0,0,0,1.832.489l.786,3.642a1.047,1.047,0,0,0,.937.821c.556.044,1.113.084,1.681.084s1.125-.04,1.681-.084a1.044,1.044,0,0,0,.939-.821l.786-3.642a16.531,16.531,0,0,0,1.832-.489l2.5,2.757a1.044,1.044,0,0,0,1.224.241A21,21,0,0,0,34.771,60.1a1.045,1.045,0,0,0,.4-1.18l-1.14-3.54a16.906,16.906,0,0,0,1.348-1.347l3.54,1.14a1.044,1.044,0,0,0,1.18-.4,20.9,20.9,0,0,0,1.668-2.911,1.045,1.045,0,0,0-.241-1.224l-2.757-2.5a16.825,16.825,0,0,0,.489-1.832L42.9,45.52a1.047,1.047,0,0,0,.821-.937c.043-.557.083-1.114.083-1.682s-.04-1.125-.084-1.681a1.044,1.044,0,0,0-.821-.939L39.257,39.5a16.529,16.529,0,0,0-.489-1.832l2.757-2.5a1.045,1.045,0,0,0,.241-1.224A21,21,0,0,0,40.1,31.032a1.044,1.044,0,0,0-1.18-.4l-3.54,1.14a16.745,16.745,0,0,0-1.348-1.348l1.14-3.54a1.045,1.045,0,0,0-.4-1.18,20.9,20.9,0,0,0-2.911-1.668,1.043,1.043,0,0,0-1.224.241l-2.5,2.757a16.825,16.825,0,0,0-1.832-.489L25.52,22.9a1.047,1.047,0,0,0-.937-.821,21.24,21.24,0,0,0-3.362,0,1.044,1.044,0,0,0-.939.821L19.5,26.546a16.511,16.511,0,0,0-1.831.489l-2.5-2.757a1.044,1.044,0,0,0-1.224-.241A20.9,20.9,0,0,0,11.033,25.7a1.045,1.045,0,0,0-.4,1.18l1.14,3.54a16.745,16.745,0,0,0-1.348,1.348l-3.539-1.14a1.043,1.043,0,0,0-1.18.4,20.9,20.9,0,0,0-1.668,2.911,1.045,1.045,0,0,0,.241,1.224l2.757,2.5A16.825,16.825,0,0,0,6.547,39.5l-3.642.786a1.047,1.047,0,0,0-.821.937C2.04,41.777,2,42.334,2,42.9s.04,1.125.084,1.681ZM4.112,42.16l3.555-.768a1.045,1.045,0,0,0,.811-.854,14.569,14.569,0,0,1,.751-2.812,1.044,1.044,0,0,0-.276-1.144L6.269,34.149c.234-.448.479-.878.732-1.284l3.445,1.11a1.049,1.049,0,0,0,1.13-.332,14.694,14.694,0,0,1,2.067-2.067,1.044,1.044,0,0,0,.332-1.13L12.865,27q.61-.381,1.284-.732l2.433,2.686a1.046,1.046,0,0,0,1.145.276,14.5,14.5,0,0,1,2.811-.751,1.045,1.045,0,0,0,.854-.811l.767-3.555a13.763,13.763,0,0,1,1.483,0l.768,3.555a1.045,1.045,0,0,0,.854.811,14.57,14.57,0,0,1,2.812.751,1.043,1.043,0,0,0,1.144-.276l2.433-2.685c.448.234.878.479,1.284.732l-1.11,3.445a1.046,1.046,0,0,0,.332,1.13,14.7,14.7,0,0,1,2.067,2.067,1.041,1.041,0,0,0,1.13.332l3.445-1.11q.381.61.732,1.283l-2.686,2.433a1.045,1.045,0,0,0-.276,1.145,14.5,14.5,0,0,1,.751,2.811,1.045,1.045,0,0,0,.811.854l3.555.767c.014.246.023.493.023.742s-.008.5-.022.741l-3.555.768a1.045,1.045,0,0,0-.811.854,14.57,14.57,0,0,1-.751,2.812,1.044,1.044,0,0,0,.276,1.144l2.685,2.433c-.234.448-.479.878-.732,1.284l-3.445-1.11a1.04,1.04,0,0,0-1.13.332,14.75,14.75,0,0,1-2.067,2.067,1.045,1.045,0,0,0-.332,1.129l1.11,3.445q-.61.381-1.283.732l-2.433-2.686a1.049,1.049,0,0,0-1.145-.276,14.5,14.5,0,0,1-2.811.751,1.045,1.045,0,0,0-.854.811l-.767,3.555a13.764,13.764,0,0,1-1.483,0l-.768-3.555a1.045,1.045,0,0,0-.854-.811,14.57,14.57,0,0,1-2.812-.751,1.043,1.043,0,0,0-1.144.276L14.15,59.532c-.448-.234-.878-.479-1.284-.732l1.11-3.445a1.046,1.046,0,0,0-.332-1.13,14.7,14.7,0,0,1-2.067-2.067,1.044,1.044,0,0,0-1.13-.332L7,52.937q-.381-.61-.732-1.284l2.686-2.433a1.045,1.045,0,0,0,.276-1.145,14.5,14.5,0,0,1-.751-2.811,1.045,1.045,0,0,0-.811-.854l-3.558-.765C4.1,43.4,4.09,43.15,4.09,42.9S4.1,42.405,4.112,42.16Z" transform="translate(1268 2681.122)" fill="#274584"/>
    <path id="Path_64" data-name="Path 64" d="M55.266,16.877A1.044,1.044,0,0,0,55.991,16a12.29,12.29,0,0,0,.092-1.459,12.5,12.5,0,0,0-.091-1.459,1.044,1.044,0,0,0-.724-.877l-2.9-.91q-.13-.356-.288-.7l1.4-2.691a1.047,1.047,0,0,0-.107-1.132,12.654,12.654,0,0,0-2.068-2.068A1.048,1.048,0,0,0,50.179,4.6L47.486,6q-.342-.157-.7-.287l-.91-2.9A1.044,1.044,0,0,0,45,2.093a11.561,11.561,0,0,0-2.919,0,1.044,1.044,0,0,0-.877.724l-.91,2.9q-.356.13-.7.288L36.9,4.6a1.05,1.05,0,0,0-1.132.107A12.654,12.654,0,0,0,33.7,6.774,1.045,1.045,0,0,0,33.6,7.906L35,10.6q-.157.342-.287.7l-2.9.91a1.044,1.044,0,0,0-.724.877,11.75,11.75,0,0,0,0,2.918,1.044,1.044,0,0,0,.724.877l2.9.91q.13.356.288.7l-1.4,2.691a1.047,1.047,0,0,0,.107,1.132,12.653,12.653,0,0,0,2.068,2.068,1.047,1.047,0,0,0,1.132.108l2.691-1.4q.342.157.7.287l.91,2.9a1.044,1.044,0,0,0,.877.724,12.352,12.352,0,0,0,1.461.092A12.5,12.5,0,0,0,45,26.992a1.044,1.044,0,0,0,.877-.724l.91-2.9q.356-.13.7-.288l2.691,1.4a1.045,1.045,0,0,0,1.132-.107,12.654,12.654,0,0,0,2.068-2.068,1.045,1.045,0,0,0,.108-1.132l-1.4-2.691q.158-.342.288-.7Zm-4.034-.924a1.048,1.048,0,0,0-.688.7A7.362,7.362,0,0,1,49.986,18a1.042,1.042,0,0,0-.006.978l1.326,2.542a10.665,10.665,0,0,1-.784.784L47.981,20.98a1.045,1.045,0,0,0-.978.006,7.361,7.361,0,0,1-1.352.558,1.048,1.048,0,0,0-.7.688l-.861,2.742a8.8,8.8,0,0,1-1.1,0l-.861-2.742a1.048,1.048,0,0,0-.7-.688,7.262,7.262,0,0,1-1.351-.558,1.044,1.044,0,0,0-.979-.006L36.56,22.306a10.667,10.667,0,0,1-.784-.784L37.1,18.981A1.045,1.045,0,0,0,37.1,18a7.362,7.362,0,0,1-.558-1.352,1.048,1.048,0,0,0-.688-.7l-2.742-.861c-.013-.191-.018-.374-.018-.551s.005-.36.018-.551l2.742-.861a1.048,1.048,0,0,0,.688-.7,7.263,7.263,0,0,1,.558-1.351A1.044,1.044,0,0,0,37.1,10.1L35.776,7.56a10.665,10.665,0,0,1,.784-.784L39.1,8.1A1.048,1.048,0,0,0,40.08,8.1a7.361,7.361,0,0,1,1.352-.558,1.048,1.048,0,0,0,.7-.688l.861-2.742a8.8,8.8,0,0,1,1.1,0l.861,2.742a1.048,1.048,0,0,0,.7.688A7.262,7.262,0,0,1,47,8.1a1.044,1.044,0,0,0,.979.006l2.542-1.326a10.665,10.665,0,0,1,.784.784L49.98,10.1a1.045,1.045,0,0,0,.006.978,7.362,7.362,0,0,1,.558,1.352,1.048,1.048,0,0,0,.688.7l2.742.861c.013.191.018.374.018.551s-.005.36-.018.551Z" transform="translate(1269.309 2680.059)" fill="#274584"/>
    <path id="Path_65" data-name="Path 65" d="M62.131,35.323l-1.8-.638a8.47,8.47,0,0,0-.352-.854l.816-1.719a1.041,1.041,0,0,0-.121-1.091,10.518,10.518,0,0,0-1.8-1.8,1.045,1.045,0,0,0-1.092-.121l-1.72.816a8.346,8.346,0,0,0-.853-.351l-.639-1.8a1.047,1.047,0,0,0-.859-.688,9.631,9.631,0,0,0-2.536,0,1.044,1.044,0,0,0-.859.688l-.638,1.8a8.471,8.471,0,0,0-.854.352L47.113,29.1a1.046,1.046,0,0,0-1.091.121,10.518,10.518,0,0,0-1.8,1.8,1.047,1.047,0,0,0-.121,1.092l.816,1.72a8.347,8.347,0,0,0-.351.853l-1.8.639a1.048,1.048,0,0,0-.688.859A10.239,10.239,0,0,0,42,37.451a10.476,10.476,0,0,0,.084,1.268,1.044,1.044,0,0,0,.688.859l1.8.638a8.469,8.469,0,0,0,.352.854L44.1,42.788a1.041,1.041,0,0,0,.121,1.091,10.518,10.518,0,0,0,1.8,1.8,1.047,1.047,0,0,0,1.092.121l1.72-.816a8.349,8.349,0,0,0,.853.351l.639,1.8a1.048,1.048,0,0,0,.859.688,10.094,10.094,0,0,0,1.268.086,10.475,10.475,0,0,0,1.268-.084,1.044,1.044,0,0,0,.859-.688l.638-1.8a8.469,8.469,0,0,0,.854-.352l1.719.816a1.038,1.038,0,0,0,1.091-.121,10.518,10.518,0,0,0,1.8-1.8,1.047,1.047,0,0,0,.121-1.092l-.816-1.72a8.347,8.347,0,0,0,.351-.853l1.8-.639a1.048,1.048,0,0,0,.688-.859,10.094,10.094,0,0,0,.086-1.268,10.475,10.475,0,0,0-.084-1.268,1.045,1.045,0,0,0-.688-.86ZM60.8,37.833l-1.656.588a1.045,1.045,0,0,0-.657.705,6.219,6.219,0,0,1-.58,1.408,1.048,1.048,0,0,0-.034.963l.75,1.581q-.26.285-.544.544l-1.581-.75a1.048,1.048,0,0,0-.963.034,6.222,6.222,0,0,1-1.407.58,1.049,1.049,0,0,0-.706.657L52.834,45.8a7.144,7.144,0,0,1-.763,0l-.588-1.656a1.045,1.045,0,0,0-.705-.657,6.219,6.219,0,0,1-1.408-.58,1.054,1.054,0,0,0-.963-.034l-1.581.75q-.285-.26-.545-.544l.75-1.581A1.044,1.044,0,0,0,47,40.534a6.223,6.223,0,0,1-.58-1.407,1.049,1.049,0,0,0-.657-.706L44.1,37.833c-.008-.126-.013-.253-.013-.381s0-.256.01-.381l1.656-.589a1.041,1.041,0,0,0,.656-.705,6.25,6.25,0,0,1,.581-1.408,1.048,1.048,0,0,0,.034-.963l-.75-1.581q.26-.285.545-.545l1.581.75a1.041,1.041,0,0,0,.963-.034,6.222,6.222,0,0,1,1.407-.58,1.049,1.049,0,0,0,.706-.657l.588-1.656a7.145,7.145,0,0,1,.763,0l.588,1.656a1.045,1.045,0,0,0,.705.657,6.219,6.219,0,0,1,1.408.58,1.041,1.041,0,0,0,.963.034l1.581-.75q.285.26.544.545l-.75,1.581a1.044,1.044,0,0,0,.034.963,6.222,6.222,0,0,1,.58,1.407,1.049,1.049,0,0,0,.657.706l1.656.588c.008.128.013.254.013.383s0,.255-.01.381Z" transform="translate(1269.805 2681.342)" fill="#274584"/>
    <path id="Path_66" data-name="Path 66" d="M22.5,53.992A11.5,11.5,0,1,0,11,42.5,11.51,11.51,0,0,0,22.5,53.992Zm0-20.9A9.406,9.406,0,1,1,13.09,42.5,9.417,9.417,0,0,1,22.5,33.09Z" transform="translate(1268.406 2681.552)" fill="#274584"/>
    <path id="Path_67" data-name="Path 67" d="M2.022,25.9l1.605,1.339A25.032,25.032,0,0,1,22.9,18.212c.532,0,1.063.03,1.594.064l-1.288,1.288,1.478,1.478,3.135-3.135a1.044,1.044,0,0,0,0-1.478l-3.135-3.135-1.478,1.478,1.42,1.42c-.575-.037-1.151-.069-1.727-.069A27.118,27.118,0,0,0,2.022,25.9Z" transform="translate(1268.001 2680.621)" fill="#274584"/>
    <path id="Path_68" data-name="Path 68" d="M43.226,9a5.226,5.226,0,1,0,5.226,5.226A5.231,5.231,0,0,0,43.226,9Zm0,8.361a3.135,3.135,0,1,1,3.135-3.135A3.139,3.139,0,0,1,43.226,17.361Z" transform="translate(1269.624 2680.394)" fill="#274584"/>
    <path id="Path_69" data-name="Path 69" d="M52.18,33a4.18,4.18,0,1,0,4.18,4.18A4.185,4.185,0,0,0,52.18,33Zm0,6.271a2.09,2.09,0,1,1,2.09-2.09A2.092,2.092,0,0,1,52.18,39.271Z" transform="translate(1270.075 2681.628)" fill="#274584"/>
    <path id="Path_70" data-name="Path 70" d="M61.52,5.066,56.294,4.021a1.043,1.043,0,0,0-1.23.819l-1.045,5.226,2.049.411.563-2.813a15.681,15.681,0,0,1,1.548,6.788,15.509,15.509,0,0,1-3.438,9.8l1.631,1.307A17.781,17.781,0,0,0,58.435,6.58l2.675.535Z" transform="translate(1270.347 2680.155)" fill="#274584"/>
  </g>
</svg>
