<svg id="surface1" xmlns="http://www.w3.org/2000/svg" width="71.811" height="69.495" viewBox="0 0 71.811 69.495">
  <path id="Path_737" data-name="Path 737" d="M5.791,62.67H35.905V60.353H5.791a3.475,3.475,0,0,1-3.475-3.475V5.916A3.474,3.474,0,0,1,5.791,2.441H56.754a3.474,3.474,0,0,1,3.475,3.475V32.555h2.317V5.916A5.8,5.8,0,0,0,56.754.125H5.791A5.8,5.8,0,0,0,0,5.916V56.879A5.8,5.8,0,0,0,5.791,62.67Zm0,0" transform="translate(0 -0.125)" fill="#173069"/>
  <path id="Path_738" data-name="Path 738" d="M62.344,62.469H64.66v2.316H62.344Zm0,0" transform="translate(-57.71 -57.835)" fill="#173069"/>
  <path id="Path_739" data-name="Path 739" d="M124.676,62.469h2.317v2.316h-2.317Zm0,0" transform="translate(-115.41 -57.835)" fill="#173069"/>
  <path id="Path_740" data-name="Path 740" d="M187.016,62.469h2.317v2.316h-2.317Zm0,0" transform="translate(-173.117 -57.835)" fill="#173069"/>
  <path id="Path_741" data-name="Path 741" d="M62.344,124.8h53.279v2.317H62.344Zm0,0" transform="translate(-57.71 -115.535)" fill="#173069"/>
  <path id="Path_742" data-name="Path 742" d="M73.83,191.707l-2.942,2.942a5.809,5.809,0,1,0,1.638,1.638l2.942-2.942ZM67.7,202.95a3.474,3.474,0,1,1,0-6.949,3.414,3.414,0,0,1,1.489.347l-2.307,2.307,1.637,1.638,2.309-2.306a3.41,3.41,0,0,1,.347,1.488A3.474,3.474,0,0,1,67.7,202.95Zm0,0" transform="translate(-57.275 -177.469)" fill="#173069"/>
  <path id="Path_743" data-name="Path 743" d="M264.941,249.484h19.69V251.8h-19.69Zm0,0" transform="translate(-245.251 -230.952)" fill="#173069"/>
  <path id="Path_744" data-name="Path 744" d="M264.941,311.82h8.107v2.316h-8.107Zm0,0" transform="translate(-245.251 -288.655)" fill="#173069"/>
  <path id="Path_745" data-name="Path 745" d="M405.2,311.82h16.215v2.316H405.2Zm0,0" transform="translate(-375.089 -288.655)" fill="#173069"/>
  <path id="Path_746" data-name="Path 746" d="M561.047,249.484H572.63V251.8H561.047Zm0,0" transform="translate(-519.35 -230.952)" fill="#173069"/>
  <path id="Path_747" data-name="Path 747" d="M73.83,378.723l-2.942,2.942a5.809,5.809,0,1,0,1.638,1.638l2.942-2.942ZM67.7,389.966a3.475,3.475,0,0,1,0-6.95,3.417,3.417,0,0,1,1.489.348l-2.307,2.308,1.637,1.637L70.827,385a3.412,3.412,0,0,1,.347,1.488A3.475,3.475,0,0,1,67.7,389.966Zm0,0" transform="translate(-57.275 -350.586)" fill="#173069"/>
  <path id="Path_748" data-name="Path 748" d="M264.941,436.492h19.69v2.317h-19.69Zm0,0" transform="translate(-245.251 -404.062)" fill="#173069"/>
  <path id="Path_749" data-name="Path 749" d="M264.941,498.836h8.107v2.316h-8.107Zm0,0" transform="translate(-245.251 -461.772)" fill="#173069"/>
  <path id="Path_750" data-name="Path 750" d="M405.2,498.836h9.266v2.316H405.2Zm0,0" transform="translate(-375.089 -461.772)" fill="#173069"/>
  <path id="Path_751" data-name="Path 751" d="M561.047,436.492h4.633v2.317h-4.633Zm0,0" transform="translate(-519.35 -404.062)" fill="#173069"/>
  <path id="Path_752" data-name="Path 752" d="M73.83,565.738l-2.942,2.942a5.809,5.809,0,1,0,1.638,1.638l2.942-2.942ZM67.7,576.981a3.475,3.475,0,0,1,0-6.949,3.408,3.408,0,0,1,1.489.347l-2.307,2.308,1.637,1.637,2.309-2.306a3.414,3.414,0,0,1,.347,1.488A3.475,3.475,0,0,1,67.7,576.981Zm0,0" transform="translate(-57.275 -523.702)" fill="#173069"/>
  <path id="Path_753" data-name="Path 753" d="M264.941,623.512H280v2.317H264.941Zm0,0" transform="translate(-245.251 -577.182)" fill="#173069"/>
  <path id="Path_754" data-name="Path 754" d="M264.941,685.852h8.107v2.316h-8.107Zm0,0" transform="translate(-245.251 -634.889)" fill="#173069"/>
  <path id="Path_755" data-name="Path 755" d="M405.2,685.852h4.633v2.316H405.2Zm0,0" transform="translate(-375.089 -634.889)" fill="#173069"/>
  <path id="Path_756" data-name="Path 756" d="M516.085,502.412a17.374,17.374,0,1,0-17.374-17.374A17.374,17.374,0,0,0,516.085,502.412Zm0-32.431a15.057,15.057,0,1,1-15.058,15.057A15.058,15.058,0,0,1,516.085,469.981Zm0,0" transform="translate(-461.647 -432.917)" fill="#173069"/>
  <path id="Path_757" data-name="Path 757" d="M611.593,590.891l-2.073,1.035,2.317,4.633a1.157,1.157,0,0,0,.851.626,1.277,1.277,0,0,0,.18.015,1.161,1.161,0,0,0,.819-.339l13.9-13.9-1.637-1.638-12.763,12.763Zm0,0" transform="translate(-564.221 -538.13)" fill="#173069"/>
</svg>
