<svg xmlns="http://www.w3.org/2000/svg" width="61.448" height="61.445" viewBox="0 0 61.448 61.445">
  <g id="Group_1766" data-name="Group 1766" transform="translate(-1275 -3289.907)">
    <g id="Group_23" data-name="Group 23" transform="translate(1275 3289.907)">
      <path id="Path_889" data-name="Path 889" d="M135.279,30.734H128v2.56h30.724v-2.56h-7.243a14,14,0,0,0,5-6.4h6.849l4.223,4.7a1.281,1.281,0,0,0,.952.424h4.3v-2.56h-3.728l-4.227-4.7a1.281,1.281,0,0,0-.952-.424h-9.015a1.28,1.28,0,0,1-1.28-1.28,3.841,3.841,0,0,1,3.84-3.84h1.28a1.28,1.28,0,0,1,1.28,1.28,1.28,1.28,0,0,0,1.28,1.28h7.681v-2.56h-6.62a3.848,3.848,0,0,0-3.622-2.56h-1.28a6.457,6.457,0,0,0-.93.069,14.13,14.13,0,0,0-2.285-3.907l2.624-1.42,4.953,3.648,1.518-2.066-5.608-4.13a1.28,1.28,0,0,0-1.367-.095l-10.339,5.6A1.8,1.8,0,0,1,144.179,8.7l12.763-6.06L172.5,6.379l.6-2.489L157.1.05a1.257,1.257,0,0,0-.847.088L145.42,5.28a14.082,14.082,0,0,0-10.141,25.453Zm-3.2-13.814a11.525,11.525,0,0,1,9.412-9.077,4.348,4.348,0,0,0-.652,3.072,5.12,5.12,0,0,0,2.52,9.578,2.56,2.56,0,1,1-2.56,2.56h-2.56a5.123,5.123,0,0,0,3.84,4.959v1.441h2.56V28.012a5.121,5.121,0,0,0-1.28-10.08,2.559,2.559,0,0,1-1.378-4.716,4.354,4.354,0,0,0,3.938,1.285v2.151h2.56V13.364l3.443-1.863a11.559,11.559,0,0,1,2.177,3.535,6.4,6.4,0,0,0-3.06,5.457,3.842,3.842,0,0,0,2.726,3.676,11.519,11.519,0,0,1-21.687-7.248Z" transform="translate(-112.638 -0.013)" fill="#274584"/>
      <path id="Path_890" data-name="Path 890" d="M58.887,88.31v15.362a1.28,1.28,0,0,1-1.28,1.28H3.84a1.28,1.28,0,0,1-1.28-1.28V67.827a1.28,1.28,0,0,1,1.28-1.28h12.8v-2.56H3.84A3.841,3.841,0,0,0,0,67.827v35.845a3.841,3.841,0,0,0,3.84,3.84h17.13l-3.84,7.681H14.082v2.56H47.366v-2.56H44.316l-3.84-7.681H57.607a3.84,3.84,0,0,0,3.84-3.84V88.31ZM41.454,115.194H19.993l3.84-7.681h13.78Z" transform="translate(0 -56.309)" fill="#274584"/>
      <rect id="Rectangle_52" data-name="Rectangle 52" width="2.56" height="2.56" transform="translate(10.241 30.721)" fill="#274584"/>
      <path id="Path_891" data-name="Path 891" d="M42.667,330.654v5.121a1.28,1.28,0,0,0,1.28,1.28h5.121v-2.56h-3.84v-3.84h-2.56Z" transform="translate(-37.546 -290.972)" fill="#274584"/>
      <rect id="Rectangle_53" data-name="Rectangle 53" width="2.56" height="2.56" transform="translate(14.082 43.522)" fill="#274584"/>
      <path id="Path_892" data-name="Path 892" d="M419.841,334.494H416v2.56h5.121a1.28,1.28,0,0,0,1.28-1.28v-5.121h-2.56Z" transform="translate(-366.074 -290.971)" fill="#274584"/>
      <rect id="Rectangle_54" data-name="Rectangle 54" width="2.56" height="2.56" transform="translate(44.806 43.522)" fill="#274584"/>
      <path id="Path_893" data-name="Path 893" d="M51.628,106.654H46.507a3.841,3.841,0,0,0-3.84,3.84v20.483h2.56V110.494a1.28,1.28,0,0,1,1.28-1.28h5.121v-2.56Z" transform="translate(-37.546 -93.855)" fill="#274584"/>
      <rect id="Rectangle_55" data-name="Rectangle 55" width="23.043" height="2.56" transform="translate(19.202 43.522)" fill="#274584"/>
    </g>
  </g>
</svg>
