<svg xmlns="http://www.w3.org/2000/svg" width="221.347" height="221.051" viewBox="0 0 221.347 221.051">
  <g id="Group_1755" data-name="Group 1755" transform="translate(-1463.475 -6050.953)">
    <path id="Path_1199" data-name="Path 1199" d="M70.131,123.066a11.066,11.066,0,1,0-11.066,11.066,11.066,11.066,0,0,0,11.066-11.066Zm-14.754,0a3.689,3.689,0,1,1,3.689,3.689A3.689,3.689,0,0,1,55.377,123.066Z" transform="translate(1430.229 5983.215)" fill="#274584"/>
    <path id="Path_1200" data-name="Path 1200" d="M148.885,56A36.885,36.885,0,1,0,185.77,92.885,36.885,36.885,0,0,0,148.885,56Zm0,66.393a29.508,29.508,0,1,1,29.508-29.508A29.508,29.508,0,0,1,148.885,122.393Z" transform="translate(1395.737 6013.396)" fill="#274584"/>
    <path id="Path_1201" data-name="Path 1201" d="M179.066,99.066a3.693,3.693,0,0,1,3.689,3.689,3.689,3.689,0,0,0,7.377,0,11.084,11.084,0,0,0-7.377-10.431v-.634a3.689,3.689,0,0,0-7.377,0v.634a11.066,11.066,0,0,0,3.689,21.5,3.689,3.689,0,1,1-3.689,3.689,3.688,3.688,0,1,0-7.377,0,11.083,11.083,0,0,0,7.377,10.431v.634a3.689,3.689,0,0,0,7.377,0v-.634a11.066,11.066,0,0,0-3.689-21.5,3.689,3.689,0,0,1,0-7.377Z" transform="translate(1365.557 5996.15)" fill="#17ecff"/>
    <path id="Path_1202" data-name="Path 1202" d="M141.459,232H67.689a3.689,3.689,0,1,0,0,7.377h73.77a3.689,3.689,0,1,0,0-7.377Z" transform="translate(1421.606 5918.542)" fill="#274584"/>
    <path id="Path_1203" data-name="Path 1203" d="M141.459,264H67.689a3.689,3.689,0,1,0,0,7.377h73.77a3.689,3.689,0,1,0,0-7.377Z" transform="translate(1421.606 5901.296)" fill="#274584"/>
    <path id="Path_1204" data-name="Path 1204" d="M141.459,296H67.689a3.688,3.688,0,1,0,0,7.377h73.77a3.688,3.688,0,1,0,0-7.377Z" transform="translate(1421.606 5884.051)" fill="#274584"/>
    <path id="Path_1205" data-name="Path 1205" d="M141.459,328H67.689a3.689,3.689,0,1,0,0,7.377h73.77a3.689,3.689,0,1,0,0-7.377Z" transform="translate(1421.606 5866.805)" fill="#274584"/>
    <path id="Path_1206" data-name="Path 1206" d="M141.459,360H67.689a3.689,3.689,0,1,0,0,7.377h73.77a3.689,3.689,0,1,0,0-7.377Z" transform="translate(1421.606 5849.559)" fill="#274584"/>
    <path id="Path_1207" data-name="Path 1207" d="M290.443,360H275.689a3.689,3.689,0,1,0,0,7.377h14.754a3.689,3.689,0,1,0,0-7.377Z" transform="translate(1309.507 5849.559)" fill="#274584"/>
    <path id="Path_1208" data-name="Path 1208" d="M141.459,392H67.689a3.688,3.688,0,1,0,0,7.377h73.77a3.688,3.688,0,1,0,0-7.377Z" transform="translate(1421.606 5832.313)" fill="#274584"/>
    <path id="Path_1209" data-name="Path 1209" d="M290.443,392H275.689a3.688,3.688,0,1,0,0,7.377h14.754a3.688,3.688,0,1,0,0-7.377Z" transform="translate(1309.507 5832.313)" fill="#274584"/>
    <path id="Path_1210" data-name="Path 1210" d="M324.9,160.023a36.885,36.885,0,1,0,36.885,36.885A36.885,36.885,0,0,0,324.9,160.023Zm-29.508,36.885a29.56,29.56,0,0,1,22.125-28.572v57.145A29.56,29.56,0,0,1,295.391,196.908ZM324.9,226.416h-.006V167.4h.006a29.508,29.508,0,1,1,0,59.016Z" transform="translate(1300.877 5957.333)" fill="#274584"/>
    <path id="Path_1211" data-name="Path 1211" d="M236.232,221.152l-17.054-35.434a3.666,3.666,0,0,0-.627-1.3l-6.086-12.648a3.688,3.688,0,0,0-4.939-1.716l-3.316,1.614-2.984-6.123a51.633,51.633,0,0,0-22.916-97.9h-.017V19.689A3.689,3.689,0,0,0,174.606,16H19.689A3.689,3.689,0,0,0,16,19.689V215.561a3.688,3.688,0,0,0,1.126,2.653L28.192,228.9a3.689,3.689,0,0,0,5.124,0l8.5-8.211,8.5,8.211a3.689,3.689,0,0,0,5.124,0l8.5-8.211,8.5,8.211a3.689,3.689,0,0,0,5.124,0l8.5-8.211,8.5,8.211a3.689,3.689,0,0,0,5.124,0l8.5-8.211,8.5,8.211a3.689,3.689,0,0,0,5.124,0l8.5-8.211,8.5,8.211a3.689,3.689,0,0,0,5.124,0l8.5-8.211,8.5,8.211a3.689,3.689,0,0,0,5.124,0l11.066-10.684a3.689,3.689,0,0,0,1.126-2.653V170.917h.017a51.428,51.428,0,0,0,16.076-2.565l3.191,6.547-3.316,1.614a3.688,3.688,0,0,0-1.706,4.915l23.776,49.4a11.065,11.065,0,0,0,14.794,5.1h0a11.066,11.066,0,0,0,5.108-14.779Zm-65.315-7.157-7.377,7.123-8.5-8.211a3.688,3.688,0,0,0-5.124,0l-8.5,8.211-8.5-8.211a3.688,3.688,0,0,0-5.124,0l-8.5,8.211-8.5-8.211a3.688,3.688,0,0,0-5.124,0l-8.5,8.211-8.5-8.211a3.688,3.688,0,0,0-5.124,0l-8.5,8.211-8.5-8.211a3.688,3.688,0,0,0-5.124,0l-8.5,8.211-8.5-8.211a3.688,3.688,0,0,0-5.124,0l-8.5,8.211-7.377-7.123V23.377h147.54V68.171a51.246,51.246,0,0,0-7.481,1.66,11.066,11.066,0,1,0-18.218,9.842,51.574,51.574,0,0,0,1.184,80.179h-8.682a3.689,3.689,0,1,0,0,7.377h14.754a3.684,3.684,0,0,0,3.053-1.618,51.221,51.221,0,0,0,15.39,4.775ZM151.844,74.958a3.68,3.68,0,1,1,4.031-2.2l.019.008Q153.816,73.776,151.844,74.958Zm26.467,88.582a44.262,44.262,0,1,1,44.262-44.262A44.262,44.262,0,0,1,178.311,163.54Zm22.483,18,3.328-1.622h.007l3.3-1.606,3.2,6.648-6.631,3.232Zm28.971,45.645a3.689,3.689,0,0,1-6.8.43l-15.778-32.782,6.632-3.232,15.768,32.766a3.665,3.665,0,0,1,.172,2.818Z" transform="translate(1447.475 6034.953)" fill="#274584"/>
  </g>
</svg>
