<svg id="Group_1661" data-name="Group 1661" xmlns="http://www.w3.org/2000/svg" width="43.977" height="44.014" viewBox="0 0 43.977 44.014">
  <g id="performance" transform="translate(0 0)">
    <path id="Path_1185" data-name="Path 1185" d="M54.116,28.231A2.116,2.116,0,1,0,52,26.116,2.118,2.118,0,0,0,54.116,28.231Zm0-2.821a.705.705,0,1,1-.705.705A.705.705,0,0,1,54.116,25.41Z" transform="translate(-16.035 -7.489)" fill="#173069"/>
    <path id="Path_1186" data-name="Path 1186" d="M43.272,20.392l1.705-.99-2.1-3.666-1.688.994,0-1.979H36.976l.017,1.967.006.01-.01.006-1.705-1-1.86,3.245H20.745A2.824,2.824,0,0,0,17.925,21.8V38.727s0,.006,0,.009c-.047,0-.092-.01-.14-.01a2.077,2.077,0,0,0-1.341.506,17.409,17.409,0,0,0-4.867-10.667V27.416A3.084,3.084,0,0,0,14.4,24.331V23.016l2.116-.705V21.8a12.692,12.692,0,0,0-1.785-6.139,3.472,3.472,0,0,0,1.07-5.144h1.42v7.052h1.41V9.109H17.511L20.04,6.58l2.529,2.529H21.45v8.462h1.41V10.519h3.113L20.04,4.586,14.934,9.692A3.487,3.487,0,0,0,13,9.108H7.347a4.943,4.943,0,0,0-4.928,4.646A5.483,5.483,0,0,0,1,17.45v.293A7.237,7.237,0,0,0,4.025,23.62l1.912,1.366v3.932A4.234,4.234,0,0,0,2.41,33.086v4.231a1.412,1.412,0,0,0,1.41,1.41v2.778a4.2,4.2,0,0,0,1.259,3,4.3,4.3,0,0,0,3.054,1.269H20.042a3.529,3.529,0,0,0,3.524-3.526,2.088,2.088,0,0,0-.13-.7h2.951v2.821h-1.41v1.41H37.67v-1.41H36.26V41.548H41.9a2.824,2.824,0,0,0,2.821-2.821v-16.9l.255-.446Zm-7.664-1.214-.5-.292.7-1.216.478.279a1.4,1.4,0,0,0,1.337.034l.075-.042a1.408,1.408,0,0,0,.7-1.212v-.569h1.387v.57a1.416,1.416,0,0,0,.714,1.223l.008,0,.037.02.017.008a1.39,1.39,0,0,0,1.333-.037l.477-.279.7,1.216-.5.293a1.408,1.408,0,0,0,0,2.426l.5.293-.7,1.216-.478-.279a1.408,1.408,0,0,0-2.108,1.22v.569H38.387v-.57a1.413,1.413,0,0,0-.7-1.216,1.4,1.4,0,0,0-1.408,0l-.477.279-.7-1.216.5-.293a1.408,1.408,0,0,0,0-2.426ZM15.073,40.137H9.462v-1.41a1.412,1.412,0,0,0,1.41-1.41V33.085a4.206,4.206,0,0,0-.805-2.474,3.288,3.288,0,0,0,.865-.644A16,16,0,0,1,15.073,40.137ZM12.988,22v2.332a1.7,1.7,0,0,1-1.7,1.7H8.757v1.41h1.41v1.2a1.831,1.831,0,0,1-1.262.868,4.207,4.207,0,0,0-1.559-.6V22.094a1.4,1.4,0,0,0-.413-1l-.706-.706a.987.987,0,0,1-.291-.7.705.705,0,0,1,.705-.705h.705v-1.41a1.412,1.412,0,0,1,1.41-1.41h4.035a4.221,4.221,0,0,0,.566-.039A11.826,11.826,0,0,1,15.089,21.3Zm-8.144.473a5.824,5.824,0,0,1-2.434-4.73V17.45a4.084,4.084,0,0,1,1.2-2.907l.207-.207v-.292a3.53,3.53,0,0,1,3.526-3.526H13a2.1,2.1,0,0,1,.564,4.125,2.871,2.871,0,0,1-.776.106H8.757A2.824,2.824,0,0,0,5.936,17.57v.121a2.12,2.12,0,0,0-1.41,1.995,2.388,2.388,0,0,0,.705,1.7l.705.706v1.158ZM3.821,33.085a2.821,2.821,0,0,1,5.642,0v4.231H3.821Zm18.335,9.167a2.117,2.117,0,0,1-2.113,2.116H8.134a2.916,2.916,0,0,1-2.083-.884,2.779,2.779,0,0,1-.82-1.98V38.726H8.052v1.41a1.412,1.412,0,0,0,1.41,1.41H16.1l1.218-1.217a.682.682,0,0,1,1.058.172l.523,1.044h2.555A.705.705,0,0,1,22.156,42.252Zm12.693,2.116H27.8V41.548h7.052ZM41.9,40.137H20.738a1.412,1.412,0,0,1-1.4-1.41v-1.41H43.311v1.41A1.412,1.412,0,0,1,41.9,40.137Zm1.41-4.231H19.335V21.8a1.412,1.412,0,0,1,1.41-1.41H34.888l-1.705.99,2.1,3.666,1.692-1v1.981h4.208l-.013-1.982,1.705,1,.437-.759Z" transform="translate(-1 -1.765)" fill="#173069"/>
    <path id="Path_1187" data-name="Path 1187" d="M40.55,35.57a1.978,1.978,0,0,0-3.354,0l-.059.1-.675-2.025a2.662,2.662,0,0,0-5.051,0l-1,3V29H29V41.693H45.219v-1.41H43.494Zm-1.2.748,2.477,3.965H35.914l2.477-3.965a.589.589,0,0,1,.963,0Zm-6.606-2.231a1.253,1.253,0,0,1,2.376,0l1.043,3.13-1.917,3.066H30.683Z" transform="translate(-9.255 -8.963)" fill="#173069"/>
    <path id="Path_1188" data-name="Path 1188" d="M52,41h4.936v1.41H52Z" transform="translate(-16.035 -12.5)" fill="#173069"/>
    <path id="Path_1189" data-name="Path 1189" d="M52,37h4.936v1.41H52Z" transform="translate(-16.035 -11.321)" fill="#173069"/>
    <path id="Path_1190" data-name="Path 1190" d="M35,29h2.821v1.41H35Z" transform="translate(-11.024 -8.963)" fill="#173069"/>
    <path id="Path_1191" data-name="Path 1191" d="M41,29h2.821v1.41H41Z" transform="translate(-12.792 -8.963)" fill="#173069"/>
    <path id="Path_1192" data-name="Path 1192" d="M35.7,16.392h1.41V5.109H35.991L38.519,2.58l2.529,2.529H39.93V16.392h1.41V6.519h3.113L38.519.586,32.586,6.519H35.7Z" transform="translate(-10.312 -0.586)" fill="#173069"/>
    <path id="Path_1193" data-name="Path 1193" d="M48.7,12.519v1.41h1.41V11.109H48.991L51.519,8.58l2.529,2.529H52.93V13.93h1.41v-1.41h3.113L51.519,6.586l-5.933,5.933Z" transform="translate(-14.144 -2.355)" fill="#173069"/>
  </g>
</svg>
