<svg xmlns="http://www.w3.org/2000/svg" xmlns:xlink="http://www.w3.org/1999/xlink" width="848.768" height="607.388" viewBox="0 0 848.768 607.388">
  <defs>
    <linearGradient id="linear-gradient" x1="0.5" y1="1" x2="0.5" gradientUnits="objectBoundingBox">
      <stop offset="0" stop-color="gray" stop-opacity="0.251"/>
      <stop offset="0.54" stop-color="gray" stop-opacity="0.122"/>
      <stop offset="1" stop-color="gray" stop-opacity="0.102"/>
    </linearGradient>
    <linearGradient id="linear-gradient-2" x1="0.5" y1="1" x2="0.5" xlink:href="#linear-gradient"/>
  </defs>
  <g id="Group_1764" data-name="Group 1764" transform="translate(-1005.37 -1932.873)">
    <g id="undraw_security_o890" transform="translate(1005.378 1932.87)">
      <path id="Path_1411" data-name="Path 1411" d="M881.15,448.385c-19.683,40.6-59.649,67.754-101.067,85.659-55.76,24.113-117.165,33.677-177.726,29.632q-15.92-1.059-31.743-3.385a400.36,400.36,0,0,1-106.134-30.906q-14.623-6.586-28.654-14.379a366.57,366.57,0,0,1-44.789-29.291q-5.356-4.089-10.564-8.386c-2.408-1.985-4.793-4.015-7.215-5.986a91.049,91.049,0,0,0-16.238-11.06,58,58,0,0,0-5.437-2.4c-18.579-7.067-40-4.4-59.346,1.111-14.712,4.193-29.054,9.934-43.752,14.031a145.2,145.2,0,0,1-19.935,4.237,106.09,106.09,0,0,1-44.789-3.934l-1.237-.385q-3.111-.978-6.171-2.141l-1.237-.474q-2.963-1.141-5.8-2.452l-1.237-.563q-2.963-1.378-5.8-2.911c-.682-.356-1.356-.741-2.022-1.1a121.246,121.246,0,0,1-29.01-22.587c-.245-.244-.474-.5-.741-.741-1.178-1.274-2.334-2.571-3.452-3.9-.415-.489-.83-.978-1.237-1.482q-1.993-2.43-3.845-4.971c-.185-.244-.363-.5-.541-.741a107.113,107.113,0,0,1-12.49-22.587c-.1-.244-.2-.5-.289-.741q-1.482-3.815-2.7-7.756c-.333-1.1-.652-2.222-.933-3.319-.1-.326-.185-.659-.267-.985-4.089-16.1-4.556-32.832-4.556-49.471v-5.815c.119-26.913.533-54.286,4.5-80.829a3.373,3.373,0,0,1,.081-.548,252.441,252.441,0,0,1,5.415-26.535A195.754,195.754,0,0,1,119.31,203.4c9.134-21.483,22.417-41.033,37.166-59.153,37.151-45.6,85.874-83.873,142.9-98.2C360.826,30.618,429.12,45.4,478.687,84.867c15.112,12.031,28.691,26.276,45.663,35.5,14.816,8.03,32.158,11.356,48.026,5.037,13.112-5.223,21.646-7.815,36.373-7.023a304.884,304.884,0,0,1,89.163,18.676c1.156.422,2.311.859,3.459,1.3C775.978,166.9,840.109,223.6,873.445,296.476q1.326,2.889,2.57,5.823C895.892,348.725,903.077,403.137,881.15,448.385Z" transform="translate(-45.835 -40.04)" fill="#17ecff" opacity="0.1"/>
      <ellipse id="Ellipse_57" data-name="Ellipse 57" cx="65.398" cy="10.505" rx="65.398" ry="10.505" transform="translate(23.834 529.399)" fill="#17ecff" opacity="0.1"/>
      <ellipse id="Ellipse_58" data-name="Ellipse 58" cx="115.958" cy="11.26" rx="115.958" ry="11.26" transform="translate(559.96 584.871)" fill="#17ecff" opacity="0.1"/>
      <rect id="Rectangle_83" data-name="Rectangle 83" width="704.005" height="398.795" rx="12.49" transform="translate(86.151 79.822)" fill="url(#linear-gradient)"/>
      <rect id="Rectangle_84" data-name="Rectangle 84" width="701.85" height="391.861" rx="12.49" transform="translate(87.269 85.43)" fill="#fff"/>
      <rect id="Rectangle_85" data-name="Rectangle 85" width="701.85" height="391.861" rx="12.49" transform="translate(87.269 85.43)" fill="#fff"/>
      <rect id="Rectangle_86" data-name="Rectangle 86" width="701.85" height="391.861" rx="12.49" transform="translate(87.269 85.43)" fill="#fff" opacity="0.04"/>
      <path id="Path_1412" data-name="Path 1412" d="M842.906,149.29H148.183a3.563,3.563,0,0,0-3.563,3.563v15.06H846.44v-15.06a3.563,3.563,0,0,0-3.534-3.563Z" transform="translate(-57.351 -68.357)" fill="#5a5773"/>
      <g id="buttons" transform="translate(96.47 85.43)">
        <circle id="Ellipse_59" data-name="Ellipse 59" cx="4.815" cy="4.815" r="4.815" fill="#fff"/>
        <circle id="Ellipse_60" data-name="Ellipse 60" cx="4.815" cy="4.815" r="4.815" transform="translate(12.964)" fill="#fff"/>
        <circle id="Ellipse_61" data-name="Ellipse 61" cx="4.815" cy="4.815" r="4.815" transform="translate(25.928)" fill="#fff"/>
      </g>
      <rect id="Rectangle_87" data-name="Rectangle 87" width="188.349" height="15.986" transform="translate(145.074 134.582)" fill="#17ecff" opacity="0.2"/>
      <rect id="Rectangle_88" data-name="Rectangle 88" width="586.24" height="245.916" transform="translate(145.074 198.684)" fill="#5a5773" opacity="0.1"/>
      <path id="Path_1413" data-name="Path 1413" d="M645.086,308.853H635.048v-19.5c0-22-17.542-40.292-39.544-40.625a40.211,40.211,0,0,0-40.633,40.085v20.039H544.855a16.757,16.757,0,0,0-16.705,16.705v80.169a16.757,16.757,0,0,0,16.705,16.705h100.23a16.749,16.749,0,0,0,16.7-16.705V325.558a16.75,16.75,0,0,0-16.7-16.705Zm-44.263,52.115v28.713a5.993,5.993,0,0,1-5.556,6.015,5.86,5.86,0,0,1-6.134-5.852V360.953a13.334,13.334,0,1,1,11.69,0Zm22.55-52.115H566.561V288.814a28.395,28.395,0,1,1,56.79,0Z" transform="translate(-156.761 -94.131)" opacity="0.1"/>
      <path id="Path_1414" data-name="Path 1414" d="M645.086,306.853H635.048v-19.5c0-22-17.542-40.292-39.544-40.626a40.211,40.211,0,0,0-40.633,40.085v20.039H544.855a16.757,16.757,0,0,0-16.705,16.7v80.17a16.757,16.757,0,0,0,16.705,16.705h100.23a16.75,16.75,0,0,0,16.7-16.705v-80.17a16.749,16.749,0,0,0-16.7-16.7Zm-44.263,52.115v28.713a5.993,5.993,0,0,1-5.556,6.015,5.86,5.86,0,0,1-6.134-5.852V358.953a13.334,13.334,0,1,1,11.69,0Zm22.55-52.115H566.561V286.814a28.395,28.395,0,1,1,56.79,0Z" transform="translate(-156.761 -93.612)" fill="#17ecff"/>
      <rect id="Rectangle_89" data-name="Rectangle 89" width="59.338" height="14.009" transform="translate(671.976 175.015)" fill="#5a5773" opacity="0.1"/>
      <path id="Path_1415" data-name="Path 1415" d="M991,704.166a21.1,21.1,0,0,0-1.986-5.638l-8.89-13.275h.052s-1.4-6.667,0-9.942-4.993-11.327-4.993-11.327-.778-2.022,1.252-4.511-1.252-9.779-1.252-9.779-1.556-15.223-1.711-17.549-1.408-15.216-1.408-15.216L969.1,589.6l-5.274-72.428-.1-1.356c.652-.319,1-.519,1-.519l-1.052-40.048.911-.822c7.956-7.2,26.306-23.869,26.12-24.232s-2.222-27.832-2.459-34.707a41.362,41.362,0,0,0-3.156-14.209c-.459-.911-1.785-6.919-2.334-9.46-.148-.7-.244-1.133-.244-1.133s-5.378-10.253-4.912-14.912,1.4-8.149-10.067-9.779c0,0-9.63-1.437-15.364-5.356a43.707,43.707,0,0,0-11.008-5.512s-3.215-5.926-5.452-3.919a31.116,31.116,0,0,1-2.111-6.6l-.067-.415a21.83,21.83,0,0,0,8.623-12.342c.074-.281.133-.57.2-.852a2.409,2.409,0,0,0,.689.126c1.948,0,3.148-2.171,4.971-2.859.741-.289,1.652-.333,2.222-.919a2.171,2.171,0,0,0,.489-1.637,3.332,3.332,0,0,0,0-.607c0-.072,0-.143,0-.215v.074c-.5-2.7-2.585-5.089-2.356-7.83.222-2.578,2.489-4.845,2.3-7.356a4,4,0,0,0-.052-.593v.089a6.344,6.344,0,0,0-1.482-2.622,8.415,8.415,0,0,0-3.052-2.563c-1.03-.452-2.222-.556-3.185-1.1-2.83-1.541-2.822-5.556-4.5-8.3a7.341,7.341,0,0,0-6.867-3.4c-2.1.207-4.008,1.326-6.089,1.689-2.845.5-5.741-.422-8.438-1.482s-5.43-2.222-8.327-2.222-6.03,1.482-6.9,4.215c-.467,1.482-.237,3.074-.593,4.578-.637,2.652-2.963,4.548-5.371,5.867-1.482.822-3.245,1.763-3.7,3.319v-.119a2.852,2.852,0,0,0-.074.378,2.785,2.785,0,0,0,0,.5,9.339,9.339,0,0,0,.941,3.1,8.542,8.542,0,0,1-.044,5.971c-.548,1.408-1.482,2.645-2.015,4.045a7.968,7.968,0,0,0-.489,2.03v-.119a8.137,8.137,0,0,0,0,.948,6.667,6.667,0,0,0,.741,3.111,5.585,5.585,0,0,0,3.326,2.793c1.482.341,2.408-1.111,3.971-.741a6.249,6.249,0,0,1,.822.259c.052.333.1.667.163.993a21.773,21.773,0,0,0,7.512,12.72,4.784,4.784,0,0,0,.081.541h0a49.73,49.73,0,0,1,.615,8.934s-2.333-3.415-5.534,3.178c0,0-8.349,4.815-11.23,5.363s-13.112,4.111-13.112,4.111a9.023,9.023,0,0,1-5.3,1.711c-3.193,0-5.845,6.986-5.46,10.786s-.23,6.6-3.2,6.756-1.348,6.178-1.326,6.282l-.274,1.3c-.578,2.652-1.837,8.341-2.282,9.23a41.483,41.483,0,0,0-3.163,14.209c-.23,6.875-2.222,34.24-2.452,34.707-.156.3,12.416,11.794,21.253,19.824l1.282,1.156-4.067,37.988a10.142,10.142,0,0,0,4.178,7.408c0,.444,0,.9-.044,1.363-.178,4.445-.533,9.823-1.245,11.231-1.244,2.489-.933,15.838-.933,15.838s-1.252,27.173-2.808,30.128-1.874,9.156-1.408,10.371-1.563,33.847-1.563,33.847l-1.556,14.6s.467,13.971-.941,14.283-2.185,9.941-2.185,9.941-4.986,6.83-2.808,9.312-.319,3.578-.548,4.193-4.756,2.963-1.482,11.645a2.54,2.54,0,0,0,.1.252c-3.067,4.26-12.786,18-12.194,20.09a5.5,5.5,0,0,0,2.593,3.111c2.289,1.37,6.215,2.008,12.46,0,10.371-3.341,9.63-5.749,9.63-5.749a4.4,4.4,0,0,1,4.371-4.193c4.289-.311,7.49-4.267,7.49-4.267l-.5-1.874-.689-2.593c.081-.741.608-2.037,2.963-2.756,3.593-1.089,2.652-7.919,2.652-7.919s-.311-7.141,1.245-8.075.941-12.734.941-12.734a87.518,87.518,0,0,1,4.208-14.29c2.489-5.749,5.467-39.9,5.467-39.9s2.022-16.772,3.9-21.587,3.593-18.32,3.593-18.32,11.549-22.365,11.7-27.336c0,0,1.482-4.66,2.963.467s5.645,17.394,5.645,17.394l4.052,15.061,4.838,22.513L940,609.6s-.474,7.141.741,9.63,2.963,8.223,2.03,9.312,1.867,6.215,2.652,7.3,0,24.069,0,24.069,3.586,19.564,8.734,22.965a6.3,6.3,0,0,0,1.141.593c-.074,2.119-.148,4.956-.052,6.438a2.465,2.465,0,0,0,.163.97c.467.622,5.771,4.815,6.867,4.815s4.986,2.719,5.149,4.037,11.4,6.9,12.994,7.067,9.312,1.548,10.371-.622a3.594,3.594,0,0,0,.215-2.008ZM963.393,424.35l.8.689s.822,6.408,1.408,8.327-.118,5.652-.118,5.652a13,13,0,0,0,.822,4.074c.7,1.4-1.408,4.445-1.408,4.445h-1.874l-.585-23.987Zm-55.73-71.621v-.141a.459.459,0,0,0-.022.141Zm-28.78,92.341a2.7,2.7,0,0,1-.119-1.978,5.915,5.915,0,0,0,.393-1.1,16.986,16.986,0,0,0,.43-2.963.215.215,0,0,0,0-.037c-.067-.356-.667-3.793-.111-5.615s1.4-8.327,1.4-8.327l.533-.452,1.237-1.074a8.8,8.8,0,0,1,.089-1.059c.259,5.63.467,11.853.133,12.164-.622.615-2.889,6.667-2.341,6.9.178.082-.067,2.5-.482,5.763a11.815,11.815,0,0,1-1.163-2.23Z" transform="translate(-239.494 -104.642)" fill="url(#linear-gradient-2)"/>
      <path id="Path_1416" data-name="Path 1416" d="M958.7,374.6v9.216l-18.905,9.5s-18.772-11.356-14.142-15.875c2.963-2.86,2.393-10.712,1.593-16.112h0c-.467-3.141-1.007-5.445-1.007-5.445s33.721-9.63,28.625-2.319c-1.7,2.445-1.837,5.608-1.267,8.741A39.706,39.706,0,0,0,958.7,374.6Z" transform="translate(-259.603 -120.596)" fill="#c37098"/>
      <path id="Path_1417" data-name="Path 1417" d="M889.456,484.2l-2.437,30.017s-3.652-3.311-8.378-7.623c-8.764-7.993-21.209-19.424-21.061-19.728.23-.467,2.222-27.7,2.437-34.544a41.336,41.336,0,0,1,3.126-14.134A87.893,87.893,0,0,0,865.365,429c.178-.822.289-1.356.289-1.356L869.744,426s17.038,19.009,17.038,19.357-1.163,14.949-1.163,14.949l-1.207,1.052-.526.452s-.815,6.378-1.393,8.29.044,5.23.111,5.586h0a17.233,17.233,0,0,1-.422,2.963,6.205,6.205,0,0,1-.393,1.089,2.718,2.718,0,0,0,.119,1.971,11.9,11.9,0,0,0,1.274,2.437Z" transform="translate(-242.149 -140.08)" fill="#3f3d56"/>
      <path id="Path_1418" data-name="Path 1418" d="M1028.855,486.879c.178.363-17.994,16.95-25.869,24.113l-3.571,3.237L997,484.213h6.26s2.089-3.015,1.393-4.408a12.888,12.888,0,0,1-.808-4.052s.689-3.7.111-5.623-1.393-8.29-1.393-8.29l-.792-.682-.941-.822s-1.163-14.6-1.163-14.949,17.039-19.357,17.039-19.357l4.06,1.622s.089.437.237,1.133c.548,2.526,1.859,8.5,2.311,9.416a41.336,41.336,0,0,1,3.126,14.134C1026.632,459.181,1028.617,486.413,1028.855,486.879Z" transform="translate(-278.287 -140.088)" fill="#3f3d56"/>
      <path id="Path_1419" data-name="Path 1419" d="M1027.754,843.269c-1.089,2.163-8.734.741-10.312.622s-12.719-5.727-12.875-7.038-4.015-4.015-5.1-4.015-6.334-4.178-6.8-4.793a2.366,2.366,0,0,1-.155-.963c-.163-2.541.155-9.082.155-9.082l22.409,1.237,10.89,16.379a21.123,21.123,0,0,1,1.97,5.608A3.7,3.7,0,0,1,1027.754,843.269Z" transform="translate(-277.112 -241.686)" fill="#3f3d56"/>
      <path id="Path_1420" data-name="Path 1420" d="M1027.754,843.269c-1.089,2.163-8.734.741-10.312.622s-12.719-5.727-12.875-7.038-4.015-4.015-5.1-4.015-6.334-4.178-6.8-4.793a2.366,2.366,0,0,1-.155-.963c-.163-2.541.155-9.082.155-9.082l22.409,1.237,10.89,16.379a21.123,21.123,0,0,1,1.97,5.608A3.7,3.7,0,0,1,1027.754,843.269Z" transform="translate(-277.112 -241.686)" opacity="0.1"/>
      <path id="Path_1421" data-name="Path 1421" d="M1027.769,846.446c-1.089,2.163-8.734.741-10.312.622s-12.72-5.727-12.875-7.038-4.015-4.015-5.1-4.015-6.334-4.178-6.8-4.793a2.362,2.362,0,0,1-.156-.963l7.26,4.593s4.637,2.963,5.875,4.719,10.986,5.408,11.794,5.482c.6.059,7-1.171,10.5-.652A3.7,3.7,0,0,1,1027.769,846.446Z" transform="translate(-277.127 -244.864)" opacity="0.1"/>
      <path id="Path_1422" data-name="Path 1422" d="M884.442,830.032s-3.171,3.941-7.408,4.245a4.363,4.363,0,0,0-4.326,4.171s.741,2.4-9.5,5.727c-6.186,1.993-10.075,1.363-12.342,0a5.512,5.512,0,0,1-2.571-3.1c-.7-2.467,12.979-21.246,12.979-21.246l12.445-.741,8.89,4.015,1.363,5.089Z" transform="translate(-239.735 -241.968)" fill="#3f3d56"/>
      <path id="Path_1423" data-name="Path 1423" d="M884.442,830.032s-3.171,3.941-7.408,4.245a4.363,4.363,0,0,0-4.326,4.171s.741,2.4-9.5,5.727c-6.186,1.993-10.075,1.363-12.342,0a5.512,5.512,0,0,1-2.571-3.1c-.7-2.467,12.979-21.246,12.979-21.246l12.445-.741,8.89,4.015,1.363,5.089Z" transform="translate(-239.735 -241.968)" opacity="0.1"/>
      <path id="Path_1424" data-name="Path 1424" d="M885.351,833.207s-3.171,3.941-7.408,4.245a4.363,4.363,0,0,0-4.326,4.171s.741,2.4-9.5,5.726c-6.186,1.993-10.075,1.363-12.342,0,5.83-.607,18.713-4.289,20-5.563,1.548-1.548,3.482-5.8,4.793-5.875.911-.059,5.541-2.845,8.319-4.571Z" transform="translate(-240.643 -245.143)" fill="none"/>
      <path id="Path_1425" data-name="Path 1425" d="M885.351,833.207s-3.171,3.941-7.408,4.245a4.363,4.363,0,0,0-4.326,4.171s.741,2.4-9.5,5.726c-6.186,1.993-10.075,1.363-12.342,0,5.83-.607,18.713-4.289,20-5.563,1.548-1.548,3.482-5.8,4.793-5.875.911-.059,5.541-2.845,8.319-4.571Z" transform="translate(-240.643 -245.143)" opacity="0.1"/>
      <path id="Path_1426" data-name="Path 1426" d="M983.628,748.9c-1.393,3.245,0,9.89,0,9.89s-20.743,1.081-25.81-2.319-8.653-22.876-8.653-22.876.741-22.868,0-23.95-3.556-6.178-2.63-7.26-.741-6.8-2.008-9.275-.741-9.579-.741-9.579l-3.1-18.861-4.786-22.4-4.067-14.994s-4.171-12.208-5.586-17.305-2.911-.467-2.911-.467c-.148,4.948-11.586,27.2-11.586,27.2s-1.7,13.446-3.556,18.231-3.867,21.483-3.867,21.483-2.963,34-5.408,39.714a87.614,87.614,0,0,0-4.126,14.216s.622,11.749-.926,12.675-1.3,8.038-1.3,8.038.926,6.793-2.63,7.882-2.963,3.4-2.963,3.4-19.779,3.245-23.024-5.415,1.237-10.964,1.482-11.586,2.711-1.7.548-4.178,2.778-9.267,2.778-9.267.778-9.579,2.163-9.89.933-14.216.933-14.216l1.541-14.527s2.015-32.454,1.548-33.692-.156-7.408,1.393-10.371,2.778-29.988,2.778-29.988-.311-13.283.926-15.757c.741-1.4,1.052-6.786,1.23-11.179.133-3.356.163-6.134.163-6.134l17.305-6.49,22.224-7.1,18.7,8.964,27.358,5.252.341,4.719,5.223,72.087,2.963,27.195s1.237,12.823,1.393,15.142,1.7,17.468,1.7,17.468,3.245,7.26,1.237,9.734-1.237,4.445-1.237,4.445S985.021,745.653,983.628,748.9Z" transform="translate(-243.498 -178.065)" fill="#3f3d56"/>
      <path id="Path_1427" data-name="Path 1427" d="M955.345,353.572c-1.7,2.445-1.837,5.608-1.267,8.741a21.735,21.735,0,0,1-26.35-.985h0c-.467-3.141-1.007-5.445-1.007-5.445S960.441,346.267,955.345,353.572Z" transform="translate(-260.07 -120.596)" opacity="0.1"/>
      <path id="Path_1428" data-name="Path 1428" d="M960.811,334.175a21.6,21.6,0,1,1-6.327-15.379A21.706,21.706,0,0,1,960.811,334.175Z" transform="translate(-257.655 -110.653)" fill="#c37098"/>
      <path id="Path_1429" data-name="Path 1429" d="M936.447,350.283l-7.112,126.64L890.7,468.811l-7.652-50.767,7.578-68.154,5.7.733,10.06,1.282,9.964.615,10.8-1.2Z" transform="translate(-228.772 -90.69)" opacity="0.1"/>
      <path id="Path_1430" data-name="Path 1430" d="M936.447,351.535l-7.112,126.64L890.7,470.063,883.05,419.3l7.578-68.146,5.7.726,10.06,1.282,9.964.615,10.8-1.2Z" transform="translate(-228.772 -91.017)" fill="#17ecff"/>
      <path id="Path_1431" data-name="Path 1431" d="M939.23,396.3l13.912.467-3.911,5.475s.274,11.06,2.133,14.231,1.311,52.152,1.311,52.152l-3.7,7.03-6.334-7.882.082-64.672Z" transform="translate(-263.313 -132.381)" fill="#3f3d56"/>
      <path id="Path_1432" data-name="Path 1432" d="M939.23,396.3l13.912.467-3.911,5.475s.274,11.06,2.133,14.231,1.311,52.152,1.311,52.152l-3.7,7.03-6.334-7.882.082-64.672Z" transform="translate(-263.313 -132.381)" opacity="0.1"/>
      <path id="Path_1433" data-name="Path 1433" d="M937.129,336.86,924.15,351.232l7.415,7.726,12.29-11.979Z" transform="translate(-239.425 -87.313)" opacity="0.1"/>
      <path id="Path_1434" data-name="Path 1434" d="M937.129,335.61,924.15,349.982l7.415,7.727,12.29-11.979Z" transform="translate(-239.425 -86.989)" fill="#17ecff"/>
      <path id="Path_1435" data-name="Path 1435" d="M911.719,350.724,898.577,337.59l-1.237,6.875,6.03,15.068Z" transform="translate(-232.476 -87.502)" opacity="0.1"/>
      <path id="Path_1436" data-name="Path 1436" d="M912.342,349.474,899.207,336.34l-1.237,6.875L904,358.282Z" transform="translate(-232.639 -87.178)" fill="#17ecff"/>
      <path id="Path_1437" data-name="Path 1437" d="M973.908,591.515a64.131,64.131,0,0,1-20,5.786c-12.749,1.622-21.091-14.6-21.091-14.6l-4.867,6.334c-1.548,6.727-25.113,8.423-34.692,5.875a15.326,15.326,0,0,1-5.5-2.6c.133-3.356.163-6.134.163-6.134l17.305-6.49,22.224-7.1,18.7,8.964,27.358,5.252Z" transform="translate(-249.972 -178.073)" opacity="0.1"/>
      <path id="Path_1438" data-name="Path 1438" d="M963.412,391.583l-7.1,126.633-38.64-8.112L910,459.344l7.571-68.154,5.7.741a69.29,69.29,0,0,1-.837,7.408c-.926,4.334,4.793,35.084,4.793,35.084s10.868,34.484,15.757,29.513,11.853-31.217,11.853-31.217c4.719-9.734.081-37.04-.267-37.588a11.026,11.026,0,0,1-.444-2.482Z" transform="translate(-255.737 -131.057)" opacity="0.1"/>
      <path id="Path_1439" data-name="Path 1439" d="M1002.652,518.964l.326,12.408-3.571,3.237L997,504.57h5.334Z" transform="translate(-278.287 -160.445)" opacity="0.1"/>
      <path id="Path_1440" data-name="Path 1440" d="M891.174,493.1h0a17.246,17.246,0,0,1-.422,2.963c0-.274,0-.43-.059-.452C890.47,495.552,890.737,494.419,891.174,493.1Z" transform="translate(-250.711 -157.472)" opacity="0.1"/>
      <path id="Path_1441" data-name="Path 1441" d="M896.826,503.717l-2.437,30.017s-3.652-3.311-8.378-7.623l.563-5.319s1.993-13.068,2.719-19.513a11.908,11.908,0,0,0,1.274,2.437Z" transform="translate(-249.518 -159.592)" opacity="0.1"/>
      <path id="Path_1442" data-name="Path 1442" d="M913.1,376.39s-2.311-3.4-5.482,3.163c0,0-8.267,4.793-11.112,5.334s-12.964,4.1-12.964,4.1a8.95,8.95,0,0,1-5.253,1.7c-3.17,0-5.8,6.956-5.415,10.742s-.23,6.571-3.163,6.726-1.319,6.252-1.319,6.252l19.55,22.409s1.237,20.631.622,21.254-2.859,6.667-2.319,6.875-2.963,23.024-2.963,23.024l-4.712,44.278s0,7.408,9.586,9.964,33.166.867,34.684-5.86L927.711,530s8.341,16.231,21.091,14.609,20.868-6.26,20.868-6.26l-1.393-53.064-.926-38.247,19.905-32.706s-5.334-10.2-4.867-14.816,1.385-8.112-9.971-9.734c0,0-9.579-1.43-15.224-5.334a43.514,43.514,0,0,0-10.89-5.482s-3.185-5.926-5.4-3.9c0,0,2.222,8.378,2.037,9.63a31.865,31.865,0,0,0,.7,7.5c.348.585,4.986,27.854.267,37.588,0,0-6.926,26.247-11.853,31.217S916.3,431.491,916.3,431.491s-5.719-30.758-4.793-35.084S913.1,376.39,913.1,376.39Z" transform="translate(-244.838 -126.769)" fill="#3f3d56"/>
      <circle id="Ellipse_62" data-name="Ellipse 62" cx="3.4" cy="3.4" r="3.4" transform="translate(681.399 344.125)" fill="#3f3d56"/>
      <circle id="Ellipse_63" data-name="Ellipse 63" cx="3.4" cy="3.4" r="3.4" transform="translate(681.399 360.156)" fill="#3f3d56"/>
      <circle id="Ellipse_64" data-name="Ellipse 64" cx="3.4" cy="3.4" r="3.4" transform="translate(681.399 344.125)" opacity="0.1"/>
      <circle id="Ellipse_65" data-name="Ellipse 65" cx="3.4" cy="3.4" r="3.4" transform="translate(681.399 360.156)" opacity="0.1"/>
      <path id="Path_1443" data-name="Path 1443" d="M992.47,804.34s13.957,1.081,15.342,2.163S992.47,804.34,992.47,804.34Z" transform="translate(-277.113 -238.145)" stroke="#17ecff" stroke-miterlimit="10" stroke-width="1" opacity="0.1"/>
      <path id="Path_1444" data-name="Path 1444" d="M880.3,789.53s2.963,3.7,1.7,5.408S880.3,789.53,880.3,789.53Z" transform="translate(-248.038 -234.306)" stroke="#17ecff" stroke-miterlimit="10" stroke-width="1" opacity="0.1"/>
      <path id="Path_1445" data-name="Path 1445" d="M885.1,806.859s5.408-3.556,7.571-1.193S885.1,806.859,885.1,806.859Z" transform="translate(-249.283 -238.279)" stroke="#17ecff" stroke-miterlimit="10" stroke-width="1" opacity="0.1"/>
      <path id="Path_1446" data-name="Path 1446" d="M960.816,334.178a21.6,21.6,0,0,1-.7,5.489,2.467,2.467,0,0,1-1.437-2.415c.1-.882.681-1.689.556-2.563-.185-1.348-1.815-1.9-2.674-2.963-1.059-1.289-.83-3.163-.741-4.83s-.333-3.7-1.9-4.274c-.467-.17-.978-.185-1.43-.378-1.23-.519-1.607-2.045-2.43-3.1-1.644-2.119-4.911-2.074-7.408-1.067a35.221,35.221,0,0,1-3.334,1.393,4.355,4.355,0,0,1-3.489-.259c-.489-.311-.882-.741-1.385-1.052-1.674-1.007-3.867,0-5.319,1.3s-2.615,3.037-4.445,3.83c-.822.37-1.837.593-2.222,1.393a2.918,2.918,0,0,0-.237,1.385c0,2.882.341,5.808-.259,8.63-.385,1.815-1.659,3.874-3.5,3.652a3.457,3.457,0,0,1-.674-.17,21.706,21.706,0,1,1,43.041-4.015Z" transform="translate(-257.66 -110.655)" opacity="0.1"/>
      <path id="Path_1447" data-name="Path 1447" d="M913.791,331.645c.556.126,1.082.415,1.652.489,1.845.222,3.119-1.837,3.5-3.652.6-2.822.289-5.749.267-8.63a2.825,2.825,0,0,1,.23-1.385c.422-.8,1.437-1.022,2.222-1.393,1.793-.8,2.963-2.5,4.445-3.83s3.637-2.3,5.311-1.3c.5.3.9.741,1.385,1.052a4.445,4.445,0,0,0,3.5.259c1.148-.341,2.222-.941,3.326-1.393,2.474-1.007,5.749-1.045,7.408,1.059.822,1.059,1.2,2.578,2.43,3.1.452.193.963.215,1.43.385,1.563.585,1.963,2.608,1.9,4.274s-.289,3.541.741,4.83c.859,1.052,2.489,1.6,2.674,2.963.118.874-.459,1.689-.556,2.563a2.46,2.46,0,0,0,2.319,2.623c1.926,0,3.119-2.156,4.919-2.845a5.847,5.847,0,0,0,2.222-.919,2.453,2.453,0,0,0,.459-2.008c-.363-2.837-2.637-5.3-2.393-8.149.23-2.726,2.756-5.1,2.222-7.786a6.312,6.312,0,0,0-1.482-2.645,8.563,8.563,0,0,0-3.022-2.556,31.082,31.082,0,0,1-3.163-1.089c-2.8-1.533-2.793-5.534-4.445-8.26a7.252,7.252,0,0,0-6.756-3.363c-2.082.207-3.971,1.311-6.03,1.682-2.823.5-5.682-.422-8.356-1.482s-5.378-2.222-8.245-2.222-5.971,1.482-6.845,4.193c-.459,1.482-.23,3.067-.585,4.556-.622,2.645-2.963,4.526-5.319,5.838-1.622.9-3.57,1.941-3.763,3.785-.126,1.17.518,2.222.926,3.356a8.543,8.543,0,0,1-.044,5.926c-.541,1.4-1.445,2.63-1.993,4.023a7.223,7.223,0,0,0,.193,5.926,5.527,5.527,0,0,0,3.385,2.778C911.317,332.749,912.236,331.3,913.791,331.645Z" transform="translate(-254.631 -105.352)" fill="#3f3d56"/>
      <g id="Group_1647" data-name="Group 1647" transform="translate(651.102 204.23)" opacity="0.1">
        <path id="Path_1448" data-name="Path 1448" d="M918.947,337.844c-.385,1.815-1.667,3.874-3.511,3.652-.57-.074-1.089-.363-1.652-.489-1.548-.341-2.467,1.111-3.926.741a5.542,5.542,0,0,1-3.393-2.778,6.415,6.415,0,0,1-.689-2.422,6.766,6.766,0,0,0,.689,3.815,5.542,5.542,0,0,0,3.393,2.778c1.482.341,2.378-1.111,3.926-.741a16.756,16.756,0,0,0,1.652.481c1.845.23,3.126-1.83,3.511-3.645a21.4,21.4,0,0,0,.356-4.867A18.242,18.242,0,0,1,918.947,337.844Z" transform="translate(-905.733 -320.559)"/>
        <path id="Path_1449" data-name="Path 1449" d="M909.369,321.929a8.525,8.525,0,0,0-.489-3.578,18.919,18.919,0,0,1-.852-2.341,3.384,3.384,0,0,0-.074.378c-.126,1.163.526,2.222.926,3.356a8.485,8.485,0,0,1,.489,2.185Z" transform="translate(-906.305 -315.801)"/>
        <path id="Path_1450" data-name="Path 1450" d="M985.482,318.73c-.348,2.1-2.052,4.082-2.222,6.3a5.3,5.3,0,0,0,0,1.141C983.63,323.582,985.919,321.293,985.482,318.73Z" transform="translate(-925.82 -316.506)"/>
        <path id="Path_1451" data-name="Path 1451" d="M982.978,339.83a1.742,1.742,0,0,1-.422.83c-.548.585-1.482.63-2.222.919-1.8.689-2.963,2.867-4.919,2.845a2.482,2.482,0,0,1-2.223-1.719,3.874,3.874,0,0,0-.1.489,2.46,2.46,0,0,0,2.319,2.615c1.934,0,3.119-2.156,4.919-2.837.741-.289,1.645-.333,2.222-.919a2.452,2.452,0,0,0,.459-2.008C983,339.956,982.985,339.9,982.978,339.83Z" transform="translate(-923.19 -321.975)"/>
        <path id="Path_1452" data-name="Path 1452" d="M972.672,337.113c-.185-1.348-1.815-1.9-2.674-2.963a4.06,4.06,0,0,1-.815-2.43,5.468,5.468,0,0,0,.815,3.823c.852,1.037,2.148,1.482,2.563,2.548A2.378,2.378,0,0,0,972.672,337.113Z" transform="translate(-922.174 -319.873)"/>
        <path id="Path_1453" data-name="Path 1453" d="M957.482,325.212c.059-1.667-.341-3.7-1.9-4.274-.459-.17-.97-.193-1.422-.378-1.23-.519-1.615-2.045-2.43-3.1-1.652-2.111-4.919-2.074-7.408-1.067-1.111.452-2.171,1.052-3.326,1.393a4.356,4.356,0,0,1-3.489-.259c-.489-.311-.889-.741-1.385-1.052-1.682-1.008-3.874,0-5.319,1.3s-2.615,3.03-4.445,3.83c-.83.37-1.837.593-2.267,1.393a2.912,2.912,0,0,0-.23,1.385v.867a2.106,2.106,0,0,1,.215-.859c.43-.8,1.437-1.022,2.267-1.393,1.793-.8,2.963-2.5,4.445-3.83s3.637-2.3,5.319-1.3c.5.3.9.741,1.385,1.044a4.326,4.326,0,0,0,3.489.259,34.221,34.221,0,0,0,3.326-1.385c2.482-1.007,5.749-1.052,7.408,1.059.815,1.052,1.2,2.578,2.43,3.1.452.193.963.215,1.422.385,1.267.474,1.77,1.9,1.882,3.3Z" transform="translate(-910.428 -315.727)"/>
      </g>
      <g id="Group_1648" data-name="Group 1648" transform="translate(661.669 215.651)" opacity="0.1">
        <path id="Path_1454" data-name="Path 1454" d="M920,336.964a5.682,5.682,0,0,1,4.282-5.312,17.78,17.78,0,0,1,9.986.452c7.03,2.326-.889,10.7-.889,10.7s-5.267,5.186-10.179,1.563a7.7,7.7,0,0,1-2.867-4.445A11.334,11.334,0,0,1,920,336.964Z" transform="translate(-919.997 -331.144)"/>
        <path id="Path_1455" data-name="Path 1455" d="M966.16,336.964a5.682,5.682,0,0,0-4.289-5.312,17.78,17.78,0,0,0-9.979.452c-7.03,2.326.889,10.7.889,10.7s5.26,5.186,10.179,1.563a7.7,7.7,0,0,0,2.867-4.445,11.334,11.334,0,0,0,.333-2.956Z" transform="translate(-927.51 -331.144)"/>
        <path id="Path_1456" data-name="Path 1456" d="M910.5,291.457v.348h12.838v-.415Z" transform="translate(-897.556 -291.178)"/>
        <path id="Path_1457" data-name="Path 1457" d="M942.876,335.816h.407v-1.178a3.373,3.373,0,0,1,3.467,0v1.052h.741V335h-.363s.148-1.43-2.267-1.2c0,0-1.941-.185-1.9,1.045h-.445Z" transform="translate(-925.835 -331.826)"/>
      </g>
      <path id="Path_1458" data-name="Path 1458" d="M920,336.315A5.682,5.682,0,0,1,924.281,331a17.876,17.876,0,0,1,9.986.452c7.03,2.334-.889,10.7-.889,10.7s-5.267,5.186-10.179,1.563a7.652,7.652,0,0,1-2.867-4.445A11.268,11.268,0,0,1,920,336.315Z" transform="translate(-258.328 -115.326)" fill="#17ecff"/>
      <path id="Path_1459" data-name="Path 1459" d="M966.16,336.315A5.681,5.681,0,0,0,961.871,331a17.846,17.846,0,0,0-9.979.452c-7.03,2.334.889,10.7.889,10.7s5.26,5.186,10.179,1.563a7.652,7.652,0,0,0,2.867-4.445A11.255,11.255,0,0,0,966.16,336.315Z" transform="translate(-265.841 -115.326)" fill="#17ecff"/>
      <path id="Path_1460" data-name="Path 1460" d="M910.5,290.827v.356h12.838v-.422Z" transform="translate(-235.887 -75.364)" fill="#17ecff"/>
      <path id="Path_1461" data-name="Path 1461" d="M942.876,335.187h.407v-1.178a3.393,3.393,0,0,1,3.467,0v1.059h.741v-.7h-.363s.148-1.422-2.267-1.2c0,0-1.941-.178-1.9,1.045h-.445Z" transform="translate(-264.166 -116.013)" fill="#17ecff"/>
      <rect id="Rectangle_90" data-name="Rectangle 90" width="4.208" height="94.748" transform="translate(87.129 338.688)" fill="#535461"/>
      <path id="Path_1462" data-name="Path 1462" d="M165.827,622.5l-.267,4.267-.37,6.023-.156,2.511-.37,6.03-.163,2.511-.37,6.023-4.245,68.5a11.6,11.6,0,0,1-11.579,10.89H126.246a11.593,11.593,0,0,1-11.571-10.889l-4.267-68.5-.37-6.023-.156-2.511-.363-6.045-.156-2.511-.37-6.023-.267-4.267a6.008,6.008,0,0,1,6-6.378h45.107a6,6,0,0,1,5.993,6.393Z" transform="translate(-48.044 -189.356)" fill="#3f3d56"/>
      <path id="Path_1463" data-name="Path 1463" d="M138.685,590.46l-.37,6.023H82.48l-.37-6.023Z" transform="translate(-21.169 -153.046)" fill="#9d9cb5"/>
      <path id="Path_1464" data-name="Path 1464" d="M138.343,601.98l-.37,6.03H83.2l-.378-6.03Z" transform="translate(-21.353 -156.032)" fill="#9d9cb5"/>
      <path id="Path_1465" data-name="Path 1465" d="M138,613.51l-.37,6.023H83.918l-.378-6.023Z" transform="translate(-21.539 -159.02)" fill="#9d9cb5"/>
      <path id="Path_1466" data-name="Path 1466" d="M81.488,538.612c24.506,17.727,34.714,45.463,34.714,45.463s-29.536-1.015-54.078-18.742S27.41,519.87,27.41,519.87,56.975,520.885,81.488,538.612Z" transform="translate(-26.97 -164.411)" fill="#17ecff"/>
      <path id="Path_1467" data-name="Path 1467" d="M27.46,519.87s30.654,17.039,40.485,31.114,48.271,33.1,48.271,33.1" transform="translate(-26.983 -164.411)" fill="none" stroke="#535461" stroke-miterlimit="10" stroke-width="2"/>
      <path id="Path_1468" data-name="Path 1468" d="M111.47,493.431c13.334,9.63,18.9,24.743,18.9,24.743s-16.075-.548-29.417-10.2S82.06,483.23,82.06,483.23,98.135,483.741,111.47,493.431Z" transform="translate(-41.135 -154.914)" fill="#17ecff"/>
      <path id="Path_1469" data-name="Path 1469" d="M82.06,483.18s16.683,9.26,22.031,16.927,26.276,18.016,26.276,18.016" transform="translate(-41.135 -154.901)" fill="none" stroke="#535461" stroke-miterlimit="10" stroke-width="2"/>
      <path id="Path_1470" data-name="Path 1470" d="M166.944,521.573c-15.327,16.838-18.564,38.84-18.564,38.84s21.6-5.3,36.922-22.135,18.564-38.848,18.564-38.848S182.264,504.727,166.944,521.573Z" transform="translate(-58.325 -159.113)" fill="#17ecff"/>
      <path id="Path_1471" data-name="Path 1471" d="M203.866,499.43s-19.957,17.261-25.032,29.158-30.454,31.854-30.454,31.854" transform="translate(-58.325 -159.113)" fill="none" stroke="#535461" stroke-miterlimit="10" stroke-width="2"/>
    </g>
  </g>
</svg>
