<svg xmlns="http://www.w3.org/2000/svg" xmlns:xlink="http://www.w3.org/1999/xlink" width="105.4" height="111.313" viewBox="0 0 105.4 111.313">
  <defs>
    <linearGradient id="linear-gradient" x1="0.231" y1="0.821" x2="0.662" y2="0.293" gradientUnits="objectBoundingBox">
      <stop offset="0.011" stop-color="#dafced"/>
      <stop offset="0.761" stop-color="#cbdcfa"/>
      <stop offset="1" stop-color="#c6d1ff"/>
    </linearGradient>
  </defs>
  <g id="_24-hours_1_" data-name="24-hours (1)" transform="translate(-13.6 0)">
    <g id="Group_1866" data-name="Group 1866" transform="translate(13.6 0)">
      <path id="Path_1896" data-name="Path 1896" d="M118.708,54.737c-2.688-21.6-17.723.584-21.791-12.8-2.466-8.115,7.733-18.086,4.273-26.972C98.3,7.537,90.243,5.542,82.631,7.033c-6.128,1.2-11.58,7.53-18.021,6.474-6.82-1.119-8.95-10.1-15.734-12.46-17.425-6.071-25.6,15.694-29.94,28.24C13.418,45.23,8.174,66.062,25.115,76.66,42.956,87.821,54.951,72.086,66.4,94.523c22.57,44.247,56.074-9.56,52.312-39.785Z" transform="translate(-13.6 0)" fill="url(#linear-gradient)"/>
    </g>
    <g id="Group_1876" data-name="Group 1876" transform="translate(19.197 5.158)">
      <g id="Group_1867" data-name="Group 1867" transform="translate(4.712 6.513)" opacity="0.1">
        <path id="Path_1897" data-name="Path 1897" d="M271.333,141.611a42.4,42.4,0,0,0-24.3-38.35,3.892,3.892,0,0,0-3.317,7.041,34.617,34.617,0,0,1-9.044,65.444l.606-.606a3.886,3.886,0,0,0,.019-5.5,3.8,3.8,0,0,0-5.329.051l-7.424,7.424a3.805,3.805,0,0,0,0,5.381l7.424,7.424a3.8,3.8,0,0,0,5.4-.023,3.869,3.869,0,0,0-.092-5.427l-.822-.822a42.4,42.4,0,0,0,36.879-42.034Z" transform="translate(-186.552 -92.19)" fill="#2626bc"/>
        <path id="Path_1898" data-name="Path 1898" d="M88.641,134.413a34.617,34.617,0,0,1,9.044-65.444l-.608.608A3.869,3.869,0,0,0,96.985,75a3.805,3.805,0,0,0,5.4.024l7.424-7.424a3.8,3.8,0,0,0,0-5.381L102.388,54.8a3.8,3.8,0,0,0-5.328-.051,3.886,3.886,0,0,0,.018,5.5l.821.821a42.4,42.4,0,0,0-12.575,80.384,3.892,3.892,0,0,0,3.317-7.041Z" transform="translate(-61.02 -53.683)" fill="#2626bc"/>
        <path id="Path_1899" data-name="Path 1899" d="M162.365,241.218a3.521,3.521,0,0,0-3.52-3.521H155.2a26.4,26.4,0,0,0,5.347-7.258,10.151,10.151,0,0,0-.829-9.544,9.074,9.074,0,0,0-7.673-4.055,9.475,9.475,0,0,0-9.465,9.465,3.52,3.52,0,1,0,7.041,0,2.427,2.427,0,0,1,2.424-2.424,2.06,2.06,0,0,1,1.821.928,3.176,3.176,0,0,1,.174,2.941c-1.1,2.658-6.593,7.87-10.143,10.722a3.521,3.521,0,0,0,2.2,6.265h12.749A3.52,3.52,0,0,0,162.365,241.218Z" transform="translate(-124.844 -181.369)" fill="#2626bc"/>
        <path id="Path_1900" data-name="Path 1900" d="M253.172,209.132a3.521,3.521,0,0,0-7.042,0v9.107a3.521,3.521,0,0,0,3.522,3.52h7.479v8.1a3.521,3.521,0,0,0,7.042,0V214.117a6.9,6.9,0,1,0-1.307-7.72,3.519,3.519,0,0,0-5.734,2.735v5.587h-3.959Z" transform="translate(-205.886 -170.078)" fill="#2626bc"/>
      </g>
      <g id="Group_1868" data-name="Group 1868" transform="translate(39.586 11.775)">
        <path id="Path_1901" data-name="Path 1901" d="M271.333,116.611a42.4,42.4,0,0,0-24.3-38.35,3.892,3.892,0,0,0-3.317,7.041,34.617,34.617,0,0,1-9.044,65.444l.606-.606a3.886,3.886,0,0,0,.019-5.5,3.8,3.8,0,0,0-5.329.051l-7.424,7.424a3.805,3.805,0,0,0,0,5.381l7.424,7.424a3.8,3.8,0,0,0,5.4-.023,3.869,3.869,0,0,0-.092-5.427l-.822-.822a42.4,42.4,0,0,0,36.879-42.034Z" transform="translate(-221.426 -77.888)" fill="#f65ccb"/>
      </g>
      <path id="Path_1902" data-name="Path 1902" d="M109.813,37.222,102.388,29.8a3.8,3.8,0,0,0-5.328-.051,3.886,3.886,0,0,0,.018,5.5l.821.821a42.4,42.4,0,0,0-12.575,80.384,3.892,3.892,0,0,0,3.317-7.041,34.617,34.617,0,0,1,9.044-65.444l-.608.608A3.869,3.869,0,0,0,96.985,50a3.805,3.805,0,0,0,5.4.024l7.424-7.424a3.8,3.8,0,0,0,0-5.381Z" transform="translate(-56.308 -27.606)" fill="#24dcef"/>
      <g id="Group_1869" data-name="Group 1869" transform="translate(38.499 10.69)">
        <path id="Path_1903" data-name="Path 1903" d="M228.742,163.211a4.86,4.86,0,0,1-3.459-1.433l-7.424-7.424a4.891,4.891,0,0,1,0-6.917l7.424-7.424a4.916,4.916,0,0,1,6.852-.065,4.8,4.8,0,0,1,1.465,3.444,5.065,5.065,0,0,1-.318,1.808,33.531,33.531,0,0,0,6.052-62.822,4.982,4.982,0,0,1-.511-8.708,4.919,4.919,0,0,1,4.758-.3,43.49,43.49,0,0,1-10.858,82.13,4.937,4.937,0,0,1-.492,6.248A4.855,4.855,0,0,1,228.742,163.211Zm0-22.452a2.712,2.712,0,0,0-1.923.791l-7.424,7.424a2.718,2.718,0,0,0,0,3.843l7.424,7.424a2.718,2.718,0,0,0,3.86-.017,2.776,2.776,0,0,0-.086-3.9l-.822-.822a1.087,1.087,0,0,1,.629-1.846,41.314,41.314,0,0,0,12.251-78.324,2.72,2.72,0,0,0-2.665.169,2.808,2.808,0,0,0,.277,4.906,35.7,35.7,0,0,1-9.329,67.5,1.087,1.087,0,0,1-.947-1.841l.606-.606a2.88,2.88,0,0,0,.832-2.052,2.643,2.643,0,0,0-.8-1.9A2.706,2.706,0,0,0,228.743,140.759Z" transform="translate(-216.426 -72.895)"/>
      </g>
      <path id="Path_1904" data-name="Path 1904" d="M83.055,114.033a4.928,4.928,0,0,1-2.109-.476A43.49,43.49,0,0,1,91.808,31.427a5.082,5.082,0,0,1-.88-2.9,4.8,4.8,0,0,1,1.465-3.444,4.916,4.916,0,0,1,6.851.065l7.424,7.424a4.891,4.891,0,0,1,0,6.917l-7.424,7.424a4.874,4.874,0,0,1-8.009-5.184,33.531,33.531,0,0,0-6.043,62.819,4.986,4.986,0,0,1-2.138,9.482ZM95.784,25.9a2.706,2.706,0,0,0-1.883.754,2.643,2.643,0,0,0-.8,1.9,2.878,2.878,0,0,0,.832,2.053l.82.82a1.087,1.087,0,0,1-.629,1.846,41.314,41.314,0,0,0-12.25,78.324,2.721,2.721,0,0,0,2.665-.169,2.808,2.808,0,0,0-.277-4.906,35.7,35.7,0,0,1,9.33-67.5,1.087,1.087,0,0,1,.947,1.841l-.608.608a2.776,2.776,0,0,0-.086,3.9,2.718,2.718,0,0,0,3.86.017l7.424-7.424a2.718,2.718,0,0,0,0-3.843h0l-7.424-7.424a2.712,2.712,0,0,0-1.923-.791Z" transform="translate(-52.395 -23.727)"/>
      <g id="Group_1875" data-name="Group 1875" transform="translate(21.356 32.326)">
        <g id="Group_1873" data-name="Group 1873" transform="translate(0 3.137)">
          <g id="Group_1872" data-name="Group 1872" transform="translate(1.087 1.087)">
            <g id="Group_1871" data-name="Group 1871">
              <g id="Group_1870" data-name="Group 1870">
                <path id="Path_1905" data-name="Path 1905" d="M158.846,212.7H155.2a26.405,26.405,0,0,0,5.347-7.258,10.151,10.151,0,0,0-.829-9.544,9.074,9.074,0,0,0-7.673-4.055,9.475,9.475,0,0,0-9.465,9.465,3.52,3.52,0,0,0,7.041,0,2.427,2.427,0,0,1,2.424-2.424,2.06,2.06,0,0,1,1.821.928,3.176,3.176,0,0,1,.174,2.941c-1.1,2.658-6.593,7.87-10.143,10.722a3.521,3.521,0,0,0,2.2,6.265h12.749a3.52,3.52,0,1,0,0-7.041Z" transform="translate(-142.576 -191.841)" fill="#f65ccb"/>
                <path id="Path_1906" data-name="Path 1906" d="M264.173,195.65v20.732a3.521,3.521,0,0,1-7.042,0v-8.1h-7.479a3.521,3.521,0,0,1-3.522-3.52V195.65a3.521,3.521,0,0,1,7.042,0v5.587h3.959V195.65a3.521,3.521,0,0,1,7.042,0Z" transform="translate(-223.616 -192.067)" fill="#f65ccb"/>
                <path id="Path_1907" data-name="Path 1907" d="M322.092,210.75v9.616a6.9,6.9,0,0,1,0-9.616Z" transform="translate(-281.536 -206.639)" fill="#f65ccb"/>
              </g>
            </g>
          </g>
          <path id="Path_1908" data-name="Path 1908" d="M154.932,216.913h-3.195a1.087,1.087,0,0,1,0-2.174h3.195a2.433,2.433,0,0,0,0-4.866h-3.65a1.087,1.087,0,0,1-.782-1.842,24.72,24.72,0,0,0,5.124-6.918,9.065,9.065,0,0,0-.728-8.525,8,8,0,0,0-6.77-3.572,8.387,8.387,0,0,0-8.377,8.377,2.433,2.433,0,0,0,4.866,0,3.515,3.515,0,0,1,3.511-3.511,3.13,3.13,0,0,1,2.725,1.41,4.273,4.273,0,0,1,.275,3.961c-1.237,2.995-7.077,8.431-10.467,11.154a2.433,2.433,0,0,0,1.523,4.331h3.195a1.087,1.087,0,1,1,0,2.174h-3.195a4.607,4.607,0,0,1-2.884-8.2c4.007-3.219,8.9-8.068,9.819-10.29a2.116,2.116,0,0,0-.073-1.922.971.971,0,0,0-.917-.445,1.338,1.338,0,0,0-1.337,1.337,4.607,4.607,0,1,1-9.215,0,10.563,10.563,0,0,1,10.551-10.551,10.144,10.144,0,0,1,8.577,4.537,11.235,11.235,0,0,1,.93,10.564,22.245,22.245,0,0,1-3.874,5.755h1.173a4.607,4.607,0,0,1,0,9.215Z" transform="translate(-137.575 -186.842)"/>
        </g>
        <g id="Group_1874" data-name="Group 1874" transform="translate(22.515)">
          <circle id="Ellipse_124" data-name="Ellipse 124" cx="6.897" cy="6.897" r="6.897" transform="translate(17.176 1.087)" fill="#6583fe"/>
          <path id="Path_1909" data-name="Path 1909" d="M265.209,172.413a7.982,7.982,0,0,0-6.649,3.571,4.609,4.609,0,0,0-6.424,4.236v4.5h-1.785v-4.5a4.607,4.607,0,1,0-9.215,0v9.107a4.612,4.612,0,0,0,4.607,4.607h6.392v7.017a4.607,4.607,0,1,0,9.215,0V191.5a1.087,1.087,0,1,0-2.174,0v9.455a2.433,2.433,0,0,1-4.866,0v-8.1a1.087,1.087,0,0,0-1.087-1.087h-7.48a2.436,2.436,0,0,1-2.433-2.433v-9.107a2.433,2.433,0,1,1,4.866,0v5.587a1.087,1.087,0,0,0,1.087,1.087h3.959a1.087,1.087,0,0,0,1.087-1.087v-5.587a2.431,2.431,0,0,1,3.3-2.273,7.984,7.984,0,1,0,7.6-5.534Zm0,13.795a5.81,5.81,0,1,1,5.81-5.81A5.817,5.817,0,0,1,265.209,186.208Z" transform="translate(-241.136 -172.413)"/>
          <path id="Path_1910" data-name="Path 1910" d="M344,194.526a.96.96,0,0,0-.96.96v1.257h-1.467v-1.257a.96.96,0,0,0-1.92,0v4.434a.96.96,0,0,0,1.92,0v-1.257h1.467v1.257a.96.96,0,1,0,1.92,0v-4.434A.96.96,0,0,0,344,194.526Z" transform="translate(-318.238 -189.718)" fill="#fff"/>
        </g>
      </g>
      <path id="Path_1911" data-name="Path 1911" d="M434.864,97.379a1.083,1.083,0,0,1-.768-.318l-1.3-1.3-1.3,1.3a1.087,1.087,0,0,1-1.537-1.537l2.065-2.065a1.087,1.087,0,0,1,1.537,0l2.065,2.065a1.087,1.087,0,0,1-.769,1.856Z" transform="translate(-344.792 -78.048)" fill="#00eca2"/>
      <path id="Path_1912" data-name="Path 1912" d="M406.364,67.019a1.083,1.083,0,0,1-.769-.319l-1.3-1.3L403,66.7a1.087,1.087,0,1,1-1.537-1.537L403.53,63.1a1.087,1.087,0,0,1,1.537,0l2.065,2.065a1.087,1.087,0,0,1-.769,1.856Z" transform="translate(-322.488 -54.289)" fill="#6583fe"/>
      <path id="Path_1913" data-name="Path 1913" d="M42.5,374.122a3.151,3.151,0,1,1,2.229-.922A3.142,3.142,0,0,1,42.5,374.122Zm0-4.129a.978.978,0,1,0,.692.286A.976.976,0,0,0,42.5,369.993Z" transform="translate(-39.345 -293.012)" fill="#ff7eb8"/>
      <path id="Path_1914" data-name="Path 1914" d="M432.8,388.622a3.151,3.151,0,1,1,2.229-.922A3.142,3.142,0,0,1,432.8,388.622Zm0-4.129a.978.978,0,1,0,.692.286.976.976,0,0,0-.692-.286Z" transform="translate(-344.797 -304.359)" fill="#ff7eb8"/>
      <path id="Path_1915" data-name="Path 1915" d="M84.539,408.026a1.083,1.083,0,0,1-.769-.319l-1.3-1.3-1.3,1.3a1.087,1.087,0,0,1-1.537-1.537l2.065-2.065a1.087,1.087,0,0,1,1.537,0l2.065,2.065a1.087,1.087,0,0,1-.769,1.856Z" transform="translate(-70.63 -321.158)" fill="#6583fe"/>
    </g>
  </g>
</svg>
