<svg xmlns="http://www.w3.org/2000/svg" xmlns:xlink="http://www.w3.org/1999/xlink" width="126.852" height="106.757" viewBox="0 0 126.852 106.757">
  <defs>
    <linearGradient id="linear-gradient" x1="0.822" y1="0.095" x2="0.355" y2="0.956" gradientUnits="objectBoundingBox">
      <stop offset="0.011" stop-color="#dcfdee"/>
      <stop offset="0.381" stop-color="#e8f1ee"/>
      <stop offset="1" stop-color="#ffdbed"/>
    </linearGradient>
  </defs>
  <g id="Group_1896" data-name="Group 1896" transform="translate(-1352 -4911)">
    <path id="Path_1916" data-name="Path 1916" d="M90.388,44.186c-17.12-6.7-40.826-4.153-53.927,7.807-9.25,8.445-2.091,10.852,4.216,26.3C45.241,89.481,0,87.942,0,108.151c0,23.363,32.766,18.935,44.926,21.609,18.591,4.089,34.809,19.385,54.672,17.369,17.292-1.756,23.885-15.325,26.289-30.881,4.48-28.982-6.523-60.724-35.5-72.061Z" transform="translate(1352 4870.446)" fill="url(#linear-gradient)"/>
    <path id="Path_1917" data-name="Path 1917" d="M129.953,129.9H41.385a4.955,4.955,0,0,0-4.955,4.955v47.928a4.952,4.952,0,0,0,3.716,4.793v2.673a4.952,4.952,0,0,0,3.716,4.793v2.571c0,.159.007.315.022.471a4.952,4.952,0,0,0,4.933,4.484h73.7a4.952,4.952,0,0,0,4.933-4.484c.015-.156.022-.312.022-.471v-2.571a4.953,4.953,0,0,0,3.716-4.793v-2.673a4.953,4.953,0,0,0,3.716-4.793V134.856A4.955,4.955,0,0,0,129.953,129.9Z" transform="translate(1324.596 4803.236)" fill="#2626bc" opacity="0.11"/>
    <path id="Path_1918" data-name="Path 1918" d="M170.873,294.158v18.2c0,.159-.007.315-.022.471a4.952,4.952,0,0,1-4.933,4.484h-73.7a4.952,4.952,0,0,1-4.933-4.484c-.015-.156-.022-.312-.022-.471v-18.2a4.955,4.955,0,0,1,4.955-4.955h73.7A4.955,4.955,0,0,1,170.873,294.158Z" transform="translate(1286.359 4683.402)" fill="#ff7eb8"/>
    <path id="Path_1919" data-name="Path 1919" d="M170.873,294.158v18.2c0,.159-.007.315-.022.471a7.879,7.879,0,0,1-1.216.094H88.5a7.879,7.879,0,0,1-1.216-.094c-.015-.156-.022-.312-.022-.471v-18.2a4.955,4.955,0,0,1,4.955-4.955h73.7A4.955,4.955,0,0,1,170.873,294.158Z" transform="translate(1286.359 4683.402)" fill="#ff5ba8"/>
    <path id="Path_1920" data-name="Path 1920" d="M158.351,242.454H77.215A4.955,4.955,0,0,1,72.26,237.5V204.435a4.955,4.955,0,0,1,4.955-4.955h81.136a4.955,4.955,0,0,1,4.955,4.955V237.5A4.955,4.955,0,0,1,158.351,242.454Z" transform="translate(1297.643 4750.895)" fill="#9fb0fe"/>
    <path id="Path_1921" data-name="Path 1921" d="M163.306,204.438V237.5c0,.124,0,.245-.015.367a7.971,7.971,0,0,1-1.224.094H73.5a7.972,7.972,0,0,1-1.224-.094c-.01-.121-.015-.243-.015-.367V204.438a4.954,4.954,0,0,1,4.955-4.955h81.136A4.954,4.954,0,0,1,163.306,204.438Z" transform="translate(1297.643 4750.893)" fill="#8399fe"/>
    <path id="Path_1922" data-name="Path 1922" d="M150.783,167.185H62.215a4.955,4.955,0,0,1-4.955-4.955V114.3a4.955,4.955,0,0,1,4.955-4.955h88.568a4.955,4.955,0,0,1,4.955,4.955V162.23A4.955,4.955,0,0,1,150.783,167.185Z" transform="translate(1308.927 4818.697)" fill="#24dcef"/>
    <path id="Path_1923" data-name="Path 1923" d="M173.935,160.82v12.652a1.247,1.247,0,0,1-.894,1.189,14.3,14.3,0,0,0-9.844,10.909,1.232,1.232,0,0,1-1.215.983h-56.7a1.232,1.232,0,0,1-1.215-.983,14.3,14.3,0,0,0-9.844-10.909,1.247,1.247,0,0,1-.894-1.189V160.82a1.247,1.247,0,0,1,.894-1.189,14.3,14.3,0,0,0,9.844-10.909,1.232,1.232,0,0,1,1.215-.983h56.7a1.232,1.232,0,0,1,1.215.983,14.3,14.3,0,0,0,9.844,10.909,1.247,1.247,0,0,1,.894,1.189Z" transform="translate(1281.793 4789.816)" fill="#49177b"/>
    <ellipse id="Ellipse_125" data-name="Ellipse 125" cx="12.512" cy="15.903" rx="12.512" ry="15.903" transform="translate(1402.914 4941.06)" fill="#24dcef"/>
    <path id="Path_1924" data-name="Path 1924" d="M161.22,278.465h-5.4a1.239,1.239,0,1,1,0-2.478h5.4a1.239,1.239,0,1,1,0,2.478Z" transform="translate(1235.72 4693.343)" fill="#97ffd2"/>
    <path id="Path_1925" data-name="Path 1925" d="M332.253,168.632h-5.4a1.239,1.239,0,1,1,0-2.478h5.4a1.239,1.239,0,0,1,0,2.478Z" transform="translate(1107.062 4775.964)" fill="#97ffd2"/>
    <g id="Group_1877" data-name="Group 1877" transform="translate(1387.427 4955.578)">
      <circle id="Ellipse_126" data-name="Ellipse 126" cx="1.385" cy="1.385" r="1.385" transform="translate(0 0)" fill="#dcfdee"/>
      <circle id="Ellipse_127" data-name="Ellipse 127" cx="1.385" cy="1.385" r="1.385" transform="translate(4.19 0)" fill="#dcfdee"/>
      <circle id="Ellipse_128" data-name="Ellipse 128" cx="1.385" cy="1.385" r="1.385" transform="translate(8.379 0)" fill="#dcfdee"/>
      <circle id="Ellipse_129" data-name="Ellipse 129" cx="1.385" cy="1.385" r="1.385" transform="translate(44.85 0)" fill="#dcfdee"/>
      <circle id="Ellipse_130" data-name="Ellipse 130" cx="1.385" cy="1.385" r="1.385" transform="translate(49.039 0)" fill="#dcfdee"/>
      <circle id="Ellipse_131" data-name="Ellipse 131" cx="1.385" cy="1.385" r="1.385" transform="translate(53.229 0)" fill="#dcfdee"/>
    </g>
    <path id="Path_1926" data-name="Path 1926" d="M407.147,154a1.239,1.239,0,0,1-.876-2.115l4.377-4.377a1.239,1.239,0,0,1,1.752,1.752l-4.377,4.377A1.235,1.235,0,0,1,407.147,154Z" transform="translate(1046.658 4790.261)" fill="#15bfd1"/>
    <path id="Path_1927" data-name="Path 1927" d="M394.662,140.169a1.239,1.239,0,0,1-.876-2.115l4.377-4.377a1.239,1.239,0,0,1,1.752,1.752l-4.377,4.377A1.235,1.235,0,0,1,394.662,140.169Z" transform="translate(1056.05 4800.667)" fill="#15bfd1"/>
    <path id="Path_1928" data-name="Path 1928" d="M92.147,298.014a1.239,1.239,0,0,1-.876-2.115l4.377-4.377a1.239,1.239,0,1,1,1.752,1.752l-4.377,4.377A1.235,1.235,0,0,1,92.147,298.014Z" transform="translate(1283.615 4681.93)" fill="#15bfd1"/>
    <path id="Path_1929" data-name="Path 1929" d="M79.662,284.181a1.239,1.239,0,0,1-.876-2.115l4.377-4.377a1.239,1.239,0,1,1,1.752,1.752l-4.377,4.377a1.236,1.236,0,0,1-.876.363Z" transform="translate(1293.007 4692.335)" fill="#15bfd1"/>
    <path id="Path_1930" data-name="Path 1930" d="M241.307,200.134h-.384v-2.547h1.613a1.239,1.239,0,1,0,0-2.478h-1.613v-.632a1.239,1.239,0,0,0-2.478,0v.632h-.384a3.751,3.751,0,0,0,0,7.5h.384v2.547h-1.613a1.239,1.239,0,1,0,0,2.478h1.613v.632a1.239,1.239,0,1,0,2.478,0v-.632h.384a3.751,3.751,0,0,0,0-7.5Zm-3.245,0a1.274,1.274,0,0,1,0-2.547h.384v2.547Zm3.245,5.025h-.384v-2.547h.384a1.274,1.274,0,0,1,0,2.547Z" transform="translate(1175.741 4755.59)" fill="#fff"/>
    <path id="Path_1931" data-name="Path 1931" d="M151.977,146.491a1.239,1.239,0,0,0,1.239-1.239V110.54a6.2,6.2,0,0,0-6.194-6.194H58.454a6.2,6.2,0,0,0-6.194,6.194v47.928a6.2,6.2,0,0,0,3.716,5.675v1.791a6.193,6.193,0,0,0,3.716,5.679V173.3a6.2,6.2,0,0,0,6.194,6.194h73.7a6.2,6.2,0,0,0,6.194-6.194v-1.688a6.19,6.19,0,0,0,3.716-5.677v-1.791a6.2,6.2,0,0,0,3.716-5.675v-6.255a1.239,1.239,0,0,0-2.478,0v6.255a3.721,3.721,0,0,1-3.716,3.716H58.454a3.721,3.721,0,0,1-3.716-3.716V110.54a3.721,3.721,0,0,1,3.716-3.716h88.568a3.721,3.721,0,0,1,3.716,3.716v34.712A1.239,1.239,0,0,0,151.977,146.491Zm-4.955,18.172v1.272a3.713,3.713,0,0,1-2.785,3.6,3.759,3.759,0,0,1-.931.117H68.068a1.239,1.239,0,0,0,0,2.478h75.238v1.17a3.721,3.721,0,0,1-3.716,3.716h-73.7A3.721,3.721,0,0,1,62.17,173.3v-2.565a1.239,1.239,0,0,0-.93-1.2,3.714,3.714,0,0,1-2.787-3.6v-1.272Z" transform="translate(1312.688 4822.459)"/>
    <path id="Path_1932" data-name="Path 1932" d="M160.653,144.724a2.472,2.472,0,0,0-2.43-1.984h-56.7a2.472,2.472,0,0,0-2.43,1.984,13,13,0,0,1-8.989,9.962,2.475,2.475,0,0,0-1.771,2.374v12.652a2.475,2.475,0,0,0,1.771,2.374,13,13,0,0,1,8.989,9.962,2.472,2.472,0,0,0,2.43,1.984h56.7a2.472,2.472,0,0,0,2.43-1.984,13,13,0,0,1,8.989-9.962,2.475,2.475,0,0,0,1.771-2.374V157.059a2.475,2.475,0,0,0-1.771-2.374,13,13,0,0,1-8.989-9.962Zm8.266,24.992a15.476,15.476,0,0,0-10.7,11.838l-56.7.019a15.481,15.481,0,0,0-10.714-11.86l.016-12.656a15.476,15.476,0,0,0,10.7-11.838l56.7-.019a15.5,15.5,0,0,0,10.714,11.867Z" transform="translate(1285.554 4793.577)"/>
    <path id="Path_1933" data-name="Path 1933" d="M43.077,374.993h-.805v-.805a1.239,1.239,0,0,0-2.478,0v.805h-.805a1.239,1.239,0,1,0,0,2.478h.805v.805a1.239,1.239,0,0,0,2.478,0v-.805h.805a1.239,1.239,0,1,0,0-2.478Z" transform="translate(1323.603 4620.404)" fill="#8399fe"/>
    <path id="Path_1934" data-name="Path 1934" d="M138.036,71.877h-.805v-.805a1.239,1.239,0,0,0-2.478,0v.805h-.805a1.239,1.239,0,0,0,0,2.478h.805v.805a1.239,1.239,0,0,0,2.478,0v-.805h.805a1.239,1.239,0,0,0,0-2.478Z" transform="translate(1252.171 4848.421)" fill="#01eca5"/>
    <path id="Path_1935" data-name="Path 1935" d="M449.931,383h-.805V382.2a1.239,1.239,0,0,0-2.478,0V383h-.805a1.239,1.239,0,1,0,0,2.478h.805v.805a1.239,1.239,0,0,0,2.478,0v-.805h.805a1.239,1.239,0,0,0,0-2.478Z" transform="translate(1017.55 4614.378)" fill="#ff7eb8"/>
    <path id="Path_1936" data-name="Path 1936" d="M438.619,51.445a3.62,3.62,0,0,1-3.459-4.694,3.616,3.616,0,1,1,3.459,4.694Zm-.006-4.761a1.144,1.144,0,1,0,.34.052A1.136,1.136,0,0,0,438.613,46.684Z" transform="translate(1024.779 4867.699)" fill="#ff7eb8"/>
    <path id="Path_1937" data-name="Path 1937" d="M64.436,415.65a3.618,3.618,0,1,1,3.457-2.544A3.607,3.607,0,0,1,64.436,415.65Zm0-4.759a1.141,1.141,0,1,0,.338.052A1.142,1.142,0,0,0,64.439,410.892Zm2.271,1.847h0Z" transform="translate(1306.248 4593.726)" fill="#ff7eb8"/>
  </g>
</svg>
