<svg xmlns="http://www.w3.org/2000/svg" xmlns:xlink="http://www.w3.org/1999/xlink" width="144.124" height="119.814" viewBox="0 0 144.124 119.814">
  <defs>
    <linearGradient id="linear-gradient" x1="0.047" y1="0.689" x2="0.898" y2="0.144" gradientUnits="objectBoundingBox">
      <stop offset="0" stop-color="#dcfdee" stop-opacity="0"/>
      <stop offset="0.629" stop-color="#d2f3e4"/>
    </linearGradient>
  </defs>
  <g id="Group_1893" data-name="Group 1893" transform="translate(-195.876 -3221.576)">
    <g id="Group_1864" data-name="Group 1864" transform="translate(195.876 3221.576)">
      <g id="Group_1831" data-name="Group 1831" transform="translate(11.034 0)">
        <path id="Path_1712" data-name="Path 1712" d="M4.178,90.692c4.868,16.637,18.9,50.575,42.61,47.529C70.569,135.165,61.282,104.5,83.052,100.3c9.583-1.85,16.079,14.736,25.684,14.22,12.37-.665,18.666-12.909,22.123-23.2,7.33-21.827-3.647-58.838-29.337-65.248C79.1,20.472,76.482,47.863,56.989,39.907c-10.956-4.472-9.862-17.826-23.205-20.52C-6.585,11.235-2.3,68.554,4.178,90.692Z" transform="translate(0 -18.599)" fill="url(#linear-gradient)"/>
      </g>
      <path id="Path_1856" data-name="Path 1856" d="M407.76,376.086a3.715,3.715,0,1,1,3.715-3.715A3.719,3.719,0,0,1,407.76,376.086Zm0-4.831a1.116,1.116,0,1,0,1.115,1.116A1.117,1.117,0,0,0,407.76,371.256Z" transform="translate(-287.983 -277.662)" fill="#9fb0fe"/>
      <path id="Path_1857" data-name="Path 1857" d="M71.078,160.727a1.3,1.3,0,0,1-1.3-1.3,1.561,1.561,0,0,0-1.56-1.56,1.3,1.3,0,1,1,0-2.6,1.561,1.561,0,0,0,1.56-1.56,1.3,1.3,0,1,1,2.6,0,1.561,1.561,0,0,0,1.56,1.56,1.3,1.3,0,1,1,0,2.6,1.561,1.561,0,0,0-1.56,1.56A1.3,1.3,0,0,1,71.078,160.727Z" transform="translate(-64.244 -117.626)" fill="#22d4ea"/>
      <path id="Path_1858" data-name="Path 1858" d="M420.811,418.811a1.3,1.3,0,0,1-1.3-1.3,1.561,1.561,0,0,0-1.56-1.56,1.3,1.3,0,1,1,0-2.6,1.561,1.561,0,0,0,1.56-1.56,1.3,1.3,0,1,1,2.6,0,1.561,1.561,0,0,0,1.56,1.56,1.3,1.3,0,1,1,0,2.6,1.561,1.561,0,0,0-1.56,1.56A1.3,1.3,0,0,1,420.811,418.811Z" transform="translate(-297.313 -308.624)" fill="#22d4ea"/>
      <g id="Group_1832" data-name="Group 1832" transform="translate(0 26)">
        <path id="Path_1742" data-name="Path 1742" d="M431.811,126.94a1.3,1.3,0,0,1-1.3-1.3,1.561,1.561,0,0,0-1.56-1.56,1.3,1.3,0,1,1,0-2.6,1.561,1.561,0,0,0,1.56-1.56,1.3,1.3,0,1,1,2.6,0,1.561,1.561,0,0,0,1.56,1.56,1.3,1.3,0,0,1,0,2.6,1.561,1.561,0,0,0-1.56,1.56A1.3,1.3,0,0,1,431.811,126.94Z" transform="translate(-305.454 -118.622)" fill="#f65ccb"/>
        <path id="Path_1743" data-name="Path 1743" d="M60.786,210.024a1.3,1.3,0,0,1-1.3-1.3,1.561,1.561,0,0,0-1.56-1.56,1.3,1.3,0,1,1,0-2.6,1.561,1.561,0,0,0,1.56-1.56,1.3,1.3,0,1,1,2.6,0,1.561,1.561,0,0,0,1.56,1.56,1.3,1.3,0,1,1,0,2.6,1.561,1.561,0,0,0-1.56,1.56A1.3,1.3,0,0,1,60.786,210.024Z" transform="translate(-56.627 -180.109)" fill="#f65ccb"/>
      </g>
    </g>
    <g id="Group_1865" data-name="Group 1865" transform="translate(211.325 3230.356)">
      <g id="Group_1861" data-name="Group 1861" transform="translate(1.487 1.487)">
        <g id="Group_1775" data-name="Group 1775" transform="translate(64.911 21.837)">
          <g id="Group_1771" data-name="Group 1771" transform="translate(6.812)">
            <ellipse id="Ellipse_105" data-name="Ellipse 105" cx="10.017" cy="10.017" rx="10.017" ry="10.017" fill="#feeca8"/>
          </g>
          <g id="Group_1772" data-name="Group 1772" transform="translate(8.14 1.328)">
            <path id="Path_1766" data-name="Path 1766" d="M389.507,124.306a10.015,10.015,0,0,1-13.671,13.671,10.016,10.016,0,1,0,13.671-13.671Z" transform="translate(-375.836 -124.306)" fill="#fbcd9c"/>
          </g>
          <g id="Group_1773" data-name="Group 1773" transform="translate(0 20.034)">
            <path id="Path_1767" data-name="Path 1767" d="M334.793,226.637v19.834h33.658V226.637a8.014,8.014,0,0,0-8.014-8.014h-17.63A8.014,8.014,0,0,0,334.793,226.637Z" transform="translate(-334.793 -218.623)" fill="#f65ccb"/>
          </g>
          <g id="Group_1774" data-name="Group 1774" transform="translate(20.836 20.034)">
            <path id="Path_1768" data-name="Path 1768" d="M444.658,218.624H439.85a8.014,8.014,0,0,1,8.014,8.014v19.834h4.808V226.638A8.014,8.014,0,0,0,444.658,218.624Z" transform="translate(-439.85 -218.624)" fill="#d623a4"/>
          </g>
        </g>
        <g id="Group_1780" data-name="Group 1780" transform="translate(0 21.837)">
          <g id="Group_1776" data-name="Group 1776" transform="translate(6.812)">
            <ellipse id="Ellipse_106" data-name="Ellipse 106" cx="10.017" cy="10.017" rx="10.017" ry="10.017" fill="#feeca8"/>
          </g>
          <g id="Group_1777" data-name="Group 1777" transform="translate(8.14 1.328)">
            <path id="Path_1769" data-name="Path 1769" d="M62.215,124.306a10.015,10.015,0,0,1-13.671,13.671,10.016,10.016,0,1,0,13.671-13.671Z" transform="translate(-48.544 -124.306)" fill="#fbcd9c"/>
          </g>
          <g id="Group_1778" data-name="Group 1778" transform="translate(0 20.034)">
            <path id="Path_1770" data-name="Path 1770" d="M7.5,226.637v19.834H41.158V226.637a8.014,8.014,0,0,0-8.014-8.014H15.514A8.014,8.014,0,0,0,7.5,226.637Z" transform="translate(-7.5 -218.623)" fill="#f65ccb"/>
          </g>
          <g id="Group_1779" data-name="Group 1779" transform="translate(20.836 20.034)">
            <path id="Path_1771" data-name="Path 1771" d="M117.365,218.624h-4.808a8.014,8.014,0,0,1,8.014,8.014v19.834h4.808V226.638A8.014,8.014,0,0,0,117.365,218.624Z" transform="translate(-112.557 -218.624)" fill="#d623a4"/>
          </g>
        </g>
        <g id="Group_1792" data-name="Group 1792" transform="translate(24.642)">
          <g id="Group_1781" data-name="Group 1781" transform="translate(36.262 20.034)">
            <path id="Path_1772" data-name="Path 1772" d="M317.795,114.927h-3.206v-6.411h3.206a3.205,3.205,0,1,1,0,6.411Z" transform="translate(-314.589 -108.516)" fill="#f1d0a5"/>
          </g>
          <g id="Group_1782" data-name="Group 1782" transform="translate(0 44.276)">
            <path id="Path_1773" data-name="Path 1773" d="M161.6,230.746l9.04,2.423a14.024,14.024,0,0,1,10.393,13.546v9.475H131.75v-9.475a14.024,14.024,0,0,1,10.393-13.546l9.04-2.423Z" transform="translate(-131.75 -230.746)" fill="#24dcef"/>
          </g>
          <g id="Group_1783" data-name="Group 1783" transform="translate(24.642 47.052)">
            <path id="Path_1774" data-name="Path 1774" d="M271.373,244.741c.033.408.052.818.052,1.231,0,7.424-7.192,17.746-15.427,21.437h24.642v-9.475A14.024,14.024,0,0,0,271.373,244.741Z" transform="translate(-255.999 -244.741)" fill="#15bfd1"/>
          </g>
          <g id="Group_1784" data-name="Group 1784" transform="translate(13.299 44.276)">
            <path id="Path_1775" data-name="Path 1775" d="M204.939,230.746,198.8,232.39l1.272,4.593a4.007,4.007,0,0,0,6.427,2.009l3.645-3.037v-5.209Z" transform="translate(-198.805 -230.746)" fill="#ecf4ff"/>
          </g>
          <g id="Group_1785" data-name="Group 1785" transform="translate(24.642 44.276)">
            <path id="Path_1776" data-name="Path 1776" d="M261.209,230.746l6.134,1.644-1.272,4.593a4.007,4.007,0,0,1-6.427,2.009L256,235.955v-5.209Z" transform="translate(-256 -230.746)" fill="#ecf4ff"/>
          </g>
          <g id="Group_1786" data-name="Group 1786" transform="translate(19.433 37.865)">
            <path id="Path_1777" data-name="Path 1777" d="M234.945,210.041a5.209,5.209,0,0,1-5.209-5.209v-6.411h10.418v6.411A5.209,5.209,0,0,1,234.945,210.041Z" transform="translate(-229.736 -198.421)" fill="#f1d0a5"/>
          </g>
          <g id="Group_1787" data-name="Group 1787" transform="translate(19.433 37.865)">
            <path id="Path_1778" data-name="Path 1778" d="M229.736,202.51a15.233,15.233,0,0,0,10.418,0v-4.09H229.736Z" transform="translate(-229.736 -198.42)" fill="#f1b986"/>
          </g>
          <g id="Group_1788" data-name="Group 1788" transform="translate(13.022 16.027)">
            <path id="Path_1779" data-name="Path 1779" d="M197.411,88.313v11.62a11.62,11.62,0,1,0,23.24,0V88.313Z" transform="translate(-197.411 -88.313)" fill="#feeca8"/>
          </g>
          <g id="Group_1789" data-name="Group 1789" transform="translate(6.611 20.034)">
            <path id="Path_1780" data-name="Path 1780" d="M168.291,114.927H171.5v-6.411h-3.206a3.205,3.205,0,1,0,0,6.411Z" transform="translate(-165.085 -108.516)" fill="#f1d0a5"/>
          </g>
          <g id="Group_1790" data-name="Group 1790" transform="translate(30.608 16.027)">
            <path id="Path_1781" data-name="Path 1781" d="M287.726,88.313V103.94a11.565,11.565,0,0,1-1.648,5.965,11.613,11.613,0,0,0,5.655-9.972V88.313Z" transform="translate(-286.078 -88.313)" fill="#fbcd9c"/>
          </g>
          <g id="Group_1791" data-name="Group 1791" transform="translate(9.817)">
            <path id="Path_1782" data-name="Path 1782" d="M181.248,22.125v5.409h14.825a4.007,4.007,0,0,0,4.007-4.007,4.007,4.007,0,0,0,4.007,4.007H210.5V22.125a14.625,14.625,0,1,0-29.25,0Z" transform="translate(-181.248 -7.5)" fill="#49177b"/>
          </g>
        </g>
      </g>
      <g id="Group_1862" data-name="Group 1862" transform="translate(33.495 65.502)">
        <g id="Group_1794" data-name="Group 1794" transform="translate(0)">
          <ellipse id="Ellipse_107" data-name="Ellipse 107" cx="17.277" cy="17.277" rx="17.277" ry="17.277" fill="#ecf4ff"/>
        </g>
        <g id="Group_1796" data-name="Group 1796" transform="translate(8.201 9.951)">
          <g id="Group_1795" data-name="Group 1795">
            <path id="Path_1783" data-name="Path 1783" d="M217.236,395.1a3.489,3.489,0,0,1-2.474-1.025l-3.5-3.5a3.5,3.5,0,1,1,4.949-4.949l1.025,1.025,5.18-5.18a3.5,3.5,0,1,1,4.949,4.949l-7.654,7.654A3.488,3.488,0,0,1,217.236,395.1Z" transform="translate(-210.238 -380.447)" fill="#24dcef"/>
          </g>
        </g>
      </g>
      <g id="Group_1863" data-name="Group 1863">
        <path id="Path_1784" data-name="Path 1784" d="M100.057,56.5a1.487,1.487,0,0,0,1.487-1.487V51.373a9.513,9.513,0,0,0-9.5-9.5h-1.1a11.5,11.5,0,1,0-15.424,0h-1.1a9.5,9.5,0,0,0-8.4,5.054q-.3-.094-.606-.176l-7.938-2.126V40.4a13.112,13.112,0,0,0,6.4-10.976H65.6a4.692,4.692,0,0,0,1.087-9.258v-4.05a16.113,16.113,0,0,0-32.225,0v4.165a4.692,4.692,0,0,0,1.487,9.143h1.725a13.112,13.112,0,0,0,6.4,10.976v4.226l-7.938,2.126q-.306.082-.605.176a9.5,9.5,0,0,0-8.4-5.054h-1.1a11.5,11.5,0,1,0-15.424,0H9.5a9.513,9.513,0,0,0-9.5,9.5v3.641a1.487,1.487,0,1,0,2.975,0V51.373A6.535,6.535,0,0,1,9.5,44.846H27.131a6.525,6.525,0,0,1,5.641,3.247,15.539,15.539,0,0,0-8.13,13.638V69.72H2.975V61.956a1.487,1.487,0,0,0-2.975,0v9.252A1.487,1.487,0,0,0,1.488,72.7H34.956a18.576,18.576,0,0,0-2.573,6.336,1.488,1.488,0,0,0,2.916.592,15.789,15.789,0,1,1,0,6.314,1.488,1.488,0,0,0-2.916.592A18.765,18.765,0,1,0,66.589,72.7h33.467a1.487,1.487,0,0,0,1.487-1.487V61.956a1.487,1.487,0,0,0-2.975,0V69.72H76.9V61.732a15.54,15.54,0,0,0-8.13-13.638,6.525,6.525,0,0,1,5.641-3.247H92.042a6.534,6.534,0,0,1,6.527,6.527v3.641a1.487,1.487,0,0,0,1.487,1.487ZM9.787,33.342a8.53,8.53,0,1,1,8.56,8.529h-.061a8.539,8.539,0,0,1-8.5-8.529ZM47.615,51.667l-1.44,1.2A2.519,2.519,0,0,1,42.134,51.6l-.872-3.148,3.08-.825A6.726,6.726,0,0,0,47.615,51.667ZM57.2,47.631l3.08.825L59.41,51.6a2.519,2.519,0,0,1-4.041,1.263l-1.44-1.2A6.726,6.726,0,0,0,57.2,47.631Zm10.114-22.9A1.72,1.72,0,0,1,65.6,26.445H63.88V23.009H65.6A1.72,1.72,0,0,1,67.316,24.727ZM37.434,16.113a13.138,13.138,0,1,1,26.275,0v3.922H58.786a2.522,2.522,0,0,1-2.519-2.519,1.487,1.487,0,0,0-2.975,0,2.522,2.522,0,0,1-2.519,2.519H37.434Zm-3.206,8.615a1.72,1.72,0,0,1,1.718-1.718h1.718v3.436H35.947A1.72,1.72,0,0,1,34.228,24.727Zm6.411,4.407V23.009H50.772a5.48,5.48,0,0,0,4.007-1.739,5.48,5.48,0,0,0,4.007,1.739H60.9v6.126a10.133,10.133,0,0,1-20.265,0ZM50.772,42.242a13.064,13.064,0,0,0,3.722-.541v4.063a3.722,3.722,0,0,1-7.443,0V41.7A13.064,13.064,0,0,0,50.772,42.242ZM73.927,61.732V69.72H64.232a18.723,18.723,0,0,0-26.915,0h-9.7V61.732a12.556,12.556,0,0,1,9.29-12.109l1.482-.4.878,3.172a5.492,5.492,0,0,0,8.813,2.754l2.692-2.243,2.692,2.244A5.494,5.494,0,0,0,62.277,52.4l.879-3.172,1.481.4A12.556,12.556,0,0,1,73.927,61.732ZM74.7,33.342a8.53,8.53,0,1,1,8.56,8.529H83.2a8.539,8.539,0,0,1-8.5-8.529Z" transform="translate(0 0)"/>
        <path id="Path_1785" data-name="Path 1785" d="M211.233,390.583a4.954,4.954,0,0,0,3.526-1.46l7.654-7.654a4.987,4.987,0,0,0-7.053-7.052l-4.128,4.128a4.987,4.987,0,0,0-7.025,7.079l3.5,3.5a4.954,4.954,0,0,0,3.526,1.46Zm-4.922-9.908a2.015,2.015,0,0,1,2.845,0l1.025,1.025a1.488,1.488,0,0,0,2.1,0l5.18-5.18a2.012,2.012,0,1,1,2.845,2.845l-7.654,7.654a2.012,2.012,0,0,1-2.845,0l-3.5-3.5A2.014,2.014,0,0,1,206.311,380.675Z" transform="translate(-162.539 -298.99)"/>
      </g>
    </g>
  </g>
</svg>
