<svg xmlns="http://www.w3.org/2000/svg" xmlns:xlink="http://www.w3.org/1999/xlink" width="434.432" height="365.703" viewBox="0 0 434.432 365.703">
  <defs>
    <linearGradient id="linear-gradient" x1="0.5" x2="0.5" y2="1" gradientUnits="objectBoundingBox">
      <stop offset="0" stop-color="#ffc444"/>
      <stop offset="1" stop-color="#f8924f"/>
    </linearGradient>
    <linearGradient id="linear-gradient-2" x1="0.5" x2="0.5" y2="1" gradientUnits="objectBoundingBox">
      <stop offset="0" stop-color="#444b8c"/>
      <stop offset="1" stop-color="#26264f"/>
    </linearGradient>
    <linearGradient id="linear-gradient-8" x1="0.366" y1="-0.503" x2="0.772" y2="0.5" xlink:href="#linear-gradient-2"/>
    <linearGradient id="linear-gradient-9" x1="0.5" x2="0.5" y2="1" gradientUnits="objectBoundingBox">
      <stop offset="0" stop-color="#aa80f9"/>
      <stop offset="1" stop-color="#6165d7"/>
    </linearGradient>
    <linearGradient id="linear-gradient-10" x1="0.5" y1="0.628" x2="1.315" y2="0.293" gradientUnits="objectBoundingBox">
      <stop offset="0" stop-color="#26264f"/>
      <stop offset="1" stop-color="#444b8c"/>
    </linearGradient>
  </defs>
  <g id="Group_4299" data-name="Group 4299" transform="translate(-67.078 -88.7)">
    <path id="Path_16284" data-name="Path 16284" d="M492.38,198.093c12.963-76.774-72.311-101.684-107.9-105.286-40.233-4.076-81.338-.322-120.142,9.9C188.089,122.8,120.656,163.822,86,229.366,31.839,331.8,130.108,390.387,188.19,411.318c76.888,27.709,171.618,23.391,231.111-29.6,30.7-27.349,59.555-72.7,40.561-112.011a64.247,64.247,0,0,0-4.276-7.494C475.535,245.848,488.419,221.554,492.38,198.093Z" transform="translate(7.8 6.129)" fill="#f4f7fa"/>
    <g id="Group_4298" data-name="Group 4298" transform="translate(67.078 88.7)">
      <g id="Group_4287" data-name="Group 4287" transform="translate(321.786 72.779)">
        <path id="Path_16285" data-name="Path 16285" d="M219.416,113.042c-4.6.875-16.652,5.982-24.183,9.552-9.556-2.654-26.792-5.442-26.792-5.442s5.245,10.1,9.051,15.2c-4.518,4.283-10.69,9.964-13.237,13.382,7.954.464,18.457.3,26.429.01,2.827,3.9,11.946,13.168,14.936,15.108,5.926-5.169,9.781-13.783,10.964-15.569,3.453-.3,22.758-3.159,25.9-4.252-4.75-3.034-21.343-10.313-25.155-11.815C218.043,127.479,220.454,117.176,219.416,113.042Zm-6.044,16.489c5.6,2.366,20.312,9.089,23.478,10.86-6.11.73-19.174,3-22.585,3.214-.785,1.232-5.1,8.058-5.927,9.424-.477.792-1.91,4.089-3.051,4.515-1.879-.834-11.531-12.071-12.863-13.323-7.165.076-17.188.18-24.322.36,3.73-3.5,7.93-7.885,12.244-11.545a85.342,85.342,0,0,1-9.051-14.451c5.816,1.294,21.426,4.844,25.107,5.864,3.771-1.436,16.264-7.508,20.769-9.168C216.86,118.571,215.075,126.116,213.372,129.531Z" transform="translate(-149.838 -101.605)" fill="url(#linear-gradient)"/>
        <path id="Path_16286" data-name="Path 16286" d="M179.332,120.923c-.917-2.114-7.321-9.428-9.2-10.044a.388.388,0,0,0-.481.273c-.3,2.131,6.262,10.41,8.639,11.119A.93.93,0,0,0,179.332,120.923Z" transform="translate(-136.58 -106.963)" fill="#f8924f"/>
        <path id="Path_16287" data-name="Path 16287" d="M175.023,110.905c-.111-1.546-2.526-1.571-2.436,0,.114,1.927.668,9.1,1.647,10.4a.866.866,0,0,0,1.557-.2C176.3,119.558,175.151,112.7,175.023,110.905Z" transform="translate(-129.348 -109.736)" fill="#f8924f"/>
        <path id="Path_16288" data-name="Path 16288" d="M202.737,117.017c-3.515-.54-17.354.246-20.6,1.332a.5.5,0,0,0,0,.962c3.273.951,17.2.08,20.6-1.2C203.2,117.937,203.353,117.111,202.737,117.017Z" transform="translate(-106.716 -92.257)" fill="#f8924f"/>
        <path id="Path_16289" data-name="Path 16289" d="M196.468,114.617a37.817,37.817,0,0,0-14.645,4.435.705.705,0,0,0,.54,1.284,78.419,78.419,0,0,0,14.316-4.152C197.447,115.891,197.433,114.521,196.468,114.617Z" transform="translate(-107.491 -97.741)" fill="#f8924f"/>
        <path id="Path_16290" data-name="Path 16290" d="M175.1,119.542a28.04,28.04,0,0,0-8.04.526c-2.3.391-5.055.581-6.764,2.294a.721.721,0,0,0,.315,1.2c2.2.56,4.453-.443,6.6-.989a58.968,58.968,0,0,0,8-2.256A.4.4,0,0,0,175.1,119.542Z" transform="translate(-160.088 -85.904)" fill="#f8924f"/>
        <path id="Path_16291" data-name="Path 16291" d="M180.528,125.189c-.512-.7-1.809-.322-1.5.637.789,2.481,5.324,11.839,7.047,13.808.564.647,1.519-.052,1.356-.789C186.887,136.433,182.113,127.358,180.528,125.189Z" transform="translate(-113.624 -72.616)" fill="#f8924f"/>
        <path id="Path_16292" data-name="Path 16292" d="M182.9,125.113c-.893-1.152-2.937.4-2.038,1.571,1.176,1.526,5.446,7.418,6.823,8.341a1.078,1.078,0,0,0,1.567-1.207C188.714,132.254,184.088,126.635,182.9,125.113Z" transform="translate(-109.527 -72.91)" fill="#f8924f"/>
        <path id="Path_16293" data-name="Path 16293" d="M174.628,118.246c-1.951-.816-4.051-.564-6.131-.56a27.608,27.608,0,0,0-6.093.432l.014.035a.489.489,0,0,0-.014.945,24.879,24.879,0,0,0,6.093.771c2.079.093,4.162.4,6.131-.394A.644.644,0,0,0,174.628,118.246Z" transform="translate(-155.271 -90.281)" fill="#f8924f"/>
      </g>
      <path id="Path_16294" data-name="Path 16294" d="M214.528,108.74c-20.987-6.075-44.661-4.774-59.839,3.311-14.631,7.795-20.641,21.585-9.881,33.611,10.22,11.42,33.286,15.576,51.428,12.057,16.921-3.283,30.328-14.641,20.824-25.923-4.556-5.408-14.41-10.13-24.64-9.846-8.279.232-15.714,3.868-16.427,8.7-.675,4.57,5.978,10.469,14.88,10.424,6.871-.035,10.76-4.072,7.424-7.784-.574-.637-2.377-.287-1.872.374,4.01,5.255-6.992,7.165-13.071,3.477-3.875-2.346-4.8-5.619-2.813-8.186,3.608-4.671,13.565-6.248,22.225-3.432,21.083,6.854,14.465,22.246.214,27.806-12.573,4.9-32.57,5.055-46.2-1.9-14.583-7.445-16.589-19.824-10.407-28.47,14.05-19.651,63.724-21.471,88.682-1.408,11.483,9.227,13.5,19.62,8.732,29.217-5.034,10.123-14.807,20.513-31.151,25.356-16.434,4.871-37.43,2.432-54.269-4.28-19.156-7.636-35.825-18.62-40.994-30.892-.235-.553-1.595-.381-1.4.156,5.12,14.1,23.055,26.851,46.339,34.6,19.641,6.539,42.288,7.12,58.59.253,17.755-7.476,30.5-22.561,29.435-36.247C249.374,127.312,234.833,114.622,214.528,108.74Z" transform="translate(53.139 -48.742)" fill="url(#linear-gradient-2)"/>
      <g id="Group_4288" data-name="Group 4288" transform="translate(98.962 138.063)">
        <path id="Path_16295" data-name="Path 16295" d="M232.956,137.754c6.068,1.373,14.3,5.414,18.873,7.985,4.453,2.636,11.448,7.39,13.825,10.895,12.842,18.931-13.268,34.2-22.267,38.794-13.2,6.736-26.536,8.341-42.222,11.265-22.235,4.148-43.091,19.706-59.528,29.2-3.941-.114-17.136-7.85-21.8-10.7-.889-.543-1.879-1.069-2.827-1.612s-1.854-1.121-2.8-1.633c-4.937-2.692-18.333-10.31-18.534-12.586,16.437-9.49,43.388-21.53,50.567-34.369,5.068-9.054,7.847-16.759,19.513-24.377C173.719,145.417,200.161,130.343,232.956,137.754ZM122.218,220.569c1.242.675,13.053,7.276,19.336,10.265A246.2,246.2,0,0,1,169,214.1c-4.352-2.162-8.293-4.6-12.351-6.933-1.858-1.066-3.951-2.048-5.764-3.145-1.9-1.045-3.6-2.256-5.449-3.328-4.044-2.342-8.262-4.619-12.005-7.13-7.2,4.823-19.551,11.344-28.992,15.845C109.614,213.033,121.045,219.852,122.218,220.569Zm31.469-48.585c-3.474,7.373-9.165,13.448-16.513,18.918,4.622,2.162,8.791,4.636,13.081,7,1.9,1.052,4.031,2.01,5.878,3.083s3.518,2.294,5.338,3.394c4.1,2.477,8.386,4.882,12.13,7.553a126.612,126.612,0,0,1,32.767-9.535c16.084-2.526,30.175-6.217,41.88-13.984,8.383-5.56,11.825-11.773,13.77-17.651,3.356-10.137-11.047-20.513-14.527-22.523s-21.45-10.324-39.008-8.386c-10.178,1.124-20.945,3.11-30.577,7.95C164.454,154.561,158.064,162.7,153.687,171.984Z" transform="translate(-95.682 -111.052)" fill="url(#linear-gradient)"/>
        <path id="Path_16296" data-name="Path 16296" d="M166.506,153.2a2.678,2.678,0,0,1,.536-.9c1.373-1.529,4.2-2.522,6.926-2.934,5.03-.765,10.331.82,7.819,4.172-1.747,2.332-6.816,4.114-13.361,2.2a3.658,3.658,0,0,1-1.4-.73c-7.241,1.847-14.562,3.5-21.568,5.812a219.776,219.776,0,0,0-28.726,12.251c-1.889.927-4.2-.325-2.4-1.387C127.892,163.663,147.664,155.931,166.506,153.2Z" transform="translate(-51.416 -78.004)" fill="url(#linear-gradient)"/>
        <path id="Path_16297" data-name="Path 16297" d="M145.575,152.116a9.174,9.174,0,0,0,1.55-.308,7.936,7.936,0,0,0,5.082-4c1.322-2.906-1.418-5.968-7.224-4.518-4.041,1.01-7.127,3.937-3.813,7.715a3.228,3.228,0,0,0,1.27.813c-3.2,4.179-6.072,8.407-10.068,12.451-5.933,6.006-13.392,11.275-21.218,16.582-1.605,1.093.564,2.425,2.4,1.387C127.45,174.414,140.839,163,145.575,152.116Z" transform="translate(-59.003 -93.391)" fill="url(#linear-gradient)"/>
        <path id="Path_16298" data-name="Path 16298" d="M109.337,155.616c3.885,2.072,7.687,4.2,11.424,6.362,2.017,1.166,4.595,2.211,6.162,3.6.585.522-1.128,1.668-2,1.387-2.612-.837-4.6-2.335-6.781-3.484-3.913-2.055-7.777-4.148-11.545-6.293C105.061,156.318,107.756,154.771,109.337,155.616Z" transform="translate(-69.955 -62.771)" fill="url(#linear-gradient)"/>
        <path id="Path_16299" data-name="Path 16299" d="M106.5,157.255c3.885,2.072,7.687,4.2,11.424,6.362,2.017,1.166,4.594,2.211,6.162,3.605.585.522-1.128,1.668-2,1.387-2.612-.837-4.6-2.335-6.781-3.484-3.913-2.055-7.777-4.148-11.545-6.293C102.222,157.957,104.917,156.41,106.5,157.255Z" transform="translate(-76.938 -58.739)" fill="url(#linear-gradient)"/>
        <path id="Path_16300" data-name="Path 16300" d="M143.514,146.7c1.74-3.166,15.344-12.479,19.177-13.143.242-.042.512.211.349.457-1.969,2.979-15.053,12.732-18.824,13.6A.63.63,0,0,1,143.514,146.7Z" transform="translate(21.773 -116.451)" fill="#f8924f"/>
        <path id="Path_16301" data-name="Path 16301" d="M147.371,143.931c3.169-2.214,17.638-5.712,20.938-5.165a.6.6,0,0,1,.142,1.076c-2.962,1.408-16.676,5.19-20.385,5.736A.906.906,0,0,1,147.371,143.931Z" transform="translate(30.399 -103.757)" fill="#f8924f"/>
        <path id="Path_16302" data-name="Path 16302" d="M144.615,130.1a.658.658,0,0,1,1.214.329c.374,2.927-3.643,14.434-5.57,16.5a.878.878,0,0,1-1.484-.616C139.055,143.431,142.978,132.377,144.615,130.1Z" transform="translate(10.304 -125.689)" fill="#f8924f"/>
        <path id="Path_16303" data-name="Path 16303" d="M148.027,147.948c4.771-.481,21.011.5,23.671,2.567a.483.483,0,0,1-.1.754c-3.214,1.83-19.679.066-23.889-1C146.342,149.916,146.771,148.076,148.027,147.948Z" transform="translate(30.213 -81.327)" fill="#f8924f"/>
        <path id="Path_16304" data-name="Path 16304" d="M143.308,152.4c3.743,1.342,7.144,3.57,10.607,5.5a102.471,102.471,0,0,1,11.448,6.985c.706.526.336,1.847-.647,1.533-7.625-2.449-16.427-7.061-22.149-12.749C142.055,153.16,142.574,152.136,143.308,152.4Z" transform="translate(19.136 -70.186)" fill="#f8924f"/>
        <path id="Path_16305" data-name="Path 16305" d="M140.527,153.8c7.307,3.726,16.046,8.487,20.713,15.5a.937.937,0,0,1-1.273,1.273c-3.3-2.041-16.254-13.178-20.021-15.783A.576.576,0,0,1,140.527,153.8Z" transform="translate(12.537 -66.824)" fill="#f8924f"/>
        <path id="Path_16306" data-name="Path 16306" d="M137.079,155.967c2.069,1.934,8.455,11.583,9.089,14.212a1.254,1.254,0,0,1-2.007,1.131c-1.806-1.827-6.989-12.022-7.753-14.842C136.307,156.1,136.723,155.631,137.079,155.967Z" transform="translate(4.454 -61.589)" fill="#f8924f"/>
        <path id="Path_16307" data-name="Path 16307" d="M122.5,128.8c2.747,2.533,11.517,13.32,12.514,16.3a.767.767,0,0,1-1.117.858c-2.612-1.733-10.76-13-12.5-16.312A.7.7,0,0,1,122.5,128.8Z" transform="translate(-32.628 -128.606)" fill="#f8924f"/>
        <path id="Path_16308" data-name="Path 16308" d="M115.274,130.353c4.525,2.2,20.658,11.106,23.066,14.379.436.6-.287,1.439-.948,1.232-4.01-1.263-19.059-11.49-23.263-13.655C112.825,131.64,113.97,129.72,115.274,130.353Z" transform="translate(-51.723 -124.62)" fill="#f8924f"/>
        <path id="Path_16309" data-name="Path 16309" d="M108.768,134.984c8.528-.208,19.5,1.166,27.4,4.335a.405.405,0,0,1-.107.792c-8.715.4-19.066-1.093-27.591-2.962C107.231,136.877,107.553,135.016,108.768,134.984Z" transform="translate(-66.158 -112.967)" fill="#f8924f"/>
      </g>
      <path id="Path_16310" data-name="Path 16310" d="M195.355,127.239l-43.3,24.929-43.25-24.97,43.3-24.929Z" transform="translate(35.57 -55.324)" fill="#f8924f"/>
      <path id="Path_16311" data-name="Path 16311" d="M203.22,193.244l-43.3,24.929-43.25-24.97,43.3-24.928Z" transform="translate(54.913 107.028)" fill="#f8924f"/>
      <g id="Group_4290" data-name="Group 4290" transform="translate(234.469 94.162)">
        <path id="Path_16312" data-name="Path 16312" d="M176.249,168.727s13.365,4.072,16.759,8.608,5.041,8.151,5.7,13.735-1.678,9.089-7.667,8.822c-5.255-.232-7.9-2.955-8.784-5.951,0,0-14.763-1.557-22.319-6.812S163.815,167.329,176.249,168.727Z" transform="translate(-79.098 13.749)" fill="#fd9c3e"/>
        <path id="Path_16313" data-name="Path 16313" d="M160.211,149.071c11.836-2.629,26.47,1.8,38.939,7.6a2.391,2.391,0,0,1,.91.246c14.922,7.172,49.906,23.834,49.726,24.353,5.515,11.742-2.847,29.93-18.329,27.961a28.148,28.148,0,0,1-25.041,2.3c.377.543,5.92,8.417,10.071,15.835-4.29,2.176-5.906,4.082-12.555,9.794-7.2-2.917-18.091-12.386-24.225-17.029-6.117-4.626-27.128-27.4-27.128-46.574C144.819,166.314,146.531,152.109,160.211,149.071Z" transform="translate(-102.577 -36.277)" fill="#792d3d"/>
        <path id="Path_16314" data-name="Path 16314" d="M151.966,213.359c.678-8.4,5.778-20.153,9.341-25.477,9.383-14.022,12.995-23.149,23.049-29.584,12.123-7.757,19.817,6.158,32.556,7.957.125-.073,13.309-5.269,14.23-5.76-.221.4-.37,19.862-5.508,29.868-2.951,5.743-10.95,10.839-22.744,11.168-4.781,8.213-12.247,14.064-14.365,15.105,3.681,2.9,7.826,4.992,14.036,10.85a257.445,257.445,0,0,0,30.829,25.183,23.325,23.325,0,0,0-6.463,5.442,15.893,15.893,0,0,0-3.335,7.819c-20.236-4.629-36.275-15.216-52.9-26.944-5.978-4.217-9.23-8.542-13.486-13.8C149.025,223.873,149.4,215.767,151.966,213.359Z" transform="translate(-96.754 -17.411)" fill="#792d3d"/>
        <path id="Path_16315" data-name="Path 16315" d="M163.589,133.172s14.825-16.178,29.449,2.235c4.522,5.691,5.107,10.362,6.4,13.479,5.418,9.341,14.268,22.668,17.651,31.518,1.412,3.685.561,9.417-.567,10.936-2.238,3.013-26.7,12.393-34.5,3.84C166.329,177.964,163.589,133.172,163.589,133.172Z" transform="translate(-64.158 -89.637)" fill="#fce7d9"/>
        <g id="Group_4289" data-name="Group 4289" transform="translate(40.9)">
          <path id="Path_16316" data-name="Path 16316" d="M174.275,159.433l11.887,9.749c6.411-2.28,11.292-9.853,14.043-17.108-2.346-1.879-10.663-6.632-11.247-9.147,2.474-6.916-1.27-12.739-7.687-18.945-6.722-6.508-18.855-6.445-26.138-.7-1.062.415-6.49,4.325-5.764,10.922.81,7.355,5.013,25.027,11.261,28.214C164.989,164.64,170.075,161.021,174.275,159.433Z" transform="translate(-140.201 -108.25)" fill="#ffb69f"/>
          <path id="Path_16317" data-name="Path 16317" d="M197.853,131.542a16.214,16.214,0,0,0-9.7-13.4c-6.784-3.107-18.886-3.55-24.349,2.567a4.028,4.028,0,0,0-.28-.592c-1.688-2.166-4.46-1.83-6.445-.322a11.225,11.225,0,0,0-3.508,4.84,5.307,5.307,0,0,0-3.6.062c-3.941,1.633-3.792,7.22-2.4,10.479,2.889,6.767,13.569,14.164,21.443,12.316-.391,3.941,1.529,6.079,4.684,8.66,4.93,4.034,12.019,4.249,17.606,1.477,6.321-3.131,12.071-10.372,11.618-17.745A10.494,10.494,0,0,0,197.853,131.542Z" transform="translate(-146.671 -115.917)" fill="url(#linear-gradient-8)"/>
          <path id="Path_16318" data-name="Path 16318" d="M152.322,127.456s1.429-4.608,5.774-1.723-.851,11.483-.851,11.483Z" transform="translate(-132.772 -94.107)" fill="#ffb69f"/>
        </g>
        <path id="Path_16319" data-name="Path 16319" d="M191.182,127.93c-7.29,3.155-6.778,4.473-21.934,16.133s-15.942,18.52-14.562,25.744,2.429,10.929,8.327,25.014c7.508,17.928,17.122,27.671,17.122,27.671a43.709,43.709,0,0,0-7.5,3.041c-2.332,1.45-2.906,9.431-.3,11.881,7.459,7.009,38.4,24.73,63.883-.789-1.159-20.056-8.386-60.569-13.524-76.394C216.895,142.333,197.572,125.166,191.182,127.93Z" transform="translate(-87.216 -87.091)" fill="#fff"/>
        <path id="Path_16320" data-name="Path 16320" d="M162.221,156.3a97.125,97.125,0,0,0,18.15,7.442c8.712,2.3,9.8,2,16.032,3.2-2.418,0-15.963,1.349-21.533-1.986S162.221,156.3,162.221,156.3Z" transform="translate(-67.523 -16.591)" fill="#fce7d9"/>
        <path id="Path_16321" data-name="Path 16321" d="M188.322,155.154a18.16,18.16,0,0,1-12.493,3.418c-7.473-.727-12.192-1.633-12.192-1.633s8.047-2.3,12.192-1.785S188.322,155.154,188.322,155.154Z" transform="translate(-64.04 -19.591)" fill="#fce7d9"/>
        <path id="Path_16322" data-name="Path 16322" d="M174.152,181.944s10.991-.761,15.479,0,5.145,8.867,9.089,12.7,15.358,5.8,18.4,13.687-2.512,20.087-9.646,17.084c-11.711-4.927-35.362-24.64-35.362-24.64S166.669,192.351,174.152,181.944Z" transform="translate(-47.898 45.659)" fill="#fd9c3e"/>
        <path id="Path_16323" data-name="Path 16323" d="M165.831,137.5c-5.608,3.079-12.047,14.116-10.715,30.175a65.7,65.7,0,0,0-4.785,21.9c4.314,8.587,9.774,16.056,17.371,20.613a18.153,18.153,0,0,0,1.477-5.5c5.812-2.436,15.143-17.2,11.926-26.567,4.463-2.18,9.528-13.943,4.2-31.836C182.59,137.163,173.72,133.167,165.831,137.5Z" transform="translate(-96.767 -67.138)" fill="#fce7d9"/>
        <path id="Path_16324" data-name="Path 16324" d="M167.93,158.89s-3.224,1.387-7.328,3.138c-2.543-.021-5.674-.114-8.372-.4-5.622-.6-8-1.349-9.082.215s1.591,1.446,3.674,3.294a21.5,21.5,0,0,0,2.356,1.73c-.678.284-1.332.554-1.924.8-13.136,5.414-15.268,10.6-9.082,16.056,4.975,4.387,23.353-6.189,28.76-10.642,4.837-3.986,5.868-6.74,5.868-6.74Z" transform="translate(-134.849 -10.216)" fill="#ffb69f"/>
        <path id="Path_16325" data-name="Path 16325" d="M180.39,148.911a120.112,120.112,0,0,1-12.009,8.283c-5.7,3.29-25.387,27.231-25.387,27.231s.228,4.653,2.391,7.871a19.953,19.953,0,0,0,5.837,5.324s33.051-14.306,34.531-19.814S180.39,148.911,180.39,148.911Z" transform="translate(-114.816 -34.761)" fill="#fce7d9"/>
        <path id="Path_16326" data-name="Path 16326" d="M157.515,149.466s1.657-11.375,9.13-19.36,16.42.294,16.42.294-5.736,4.806-12.777,9.514A123.49,123.49,0,0,0,157.515,149.466Z" transform="translate(-79.099 -89.561)" fill="#fce7d9"/>
      </g>
      <g id="Group_4293" data-name="Group 4293">
        <path id="Path_16327" data-name="Path 16327" d="M134.932,147.282a94.148,94.148,0,0,1-9.642-7.975c-1.955-3.705-4.9-11.49-8.334-14.835-6.158,8.891-16.624,15.157-27.384,17.091-.46,3.612-.031,7.57.028,10.777.183,9.981,1.661,19.52,10.58,23.187a28.638,28.638,0,0,0,9.729,7.722,73.421,73.421,0,0,1,11.711,6.9,21.342,21.342,0,0,0,4.979,2.868c4.6,1.83,8.843.727,13.545,1.339,5.833.765,11.853-5.525,11.839-12.794C151.974,178.561,148.438,158.149,134.932,147.282Z" transform="translate(-12.268 -0.712)" fill="#792d3d"/>
        <g id="Group_4291" data-name="Group 4291" transform="translate(0 163.873)">
          <path id="Path_16328" data-name="Path 16328" d="M79.776,170.517c-8.687.263-3.346-14.136-1.785-18,1.239-3.062,2.259-6.141,5.5-7.366,3.342-1.266,7.054-1.429,10.313-2.526a17.043,17.043,0,0,1-3.024-3.861c-3.314-6.075-11.061-.581-13.856,3.574s-3.975,9.493-7.438,14.9-3.221,12.531.938,19.049c3.138,4.92,9.58,4.536,12.31-1.9.775-1.827,1.46-3.567,2.1-5.241A13.206,13.206,0,0,1,79.776,170.517Z" transform="translate(-67.078 -136.066)" fill="#fd9c3e"/>
          <path id="Path_16329" data-name="Path 16329" d="M88.42,154.158c2.93,3.3,9.265-9.614,9.265-9.614a39.731,39.731,0,0,1-9.469-6.58c-3.259,1.1-6.971,1.259-10.313,2.526-3.238,1.225-4.259,4.3-5.5,7.366-1.56,3.861-6.9,18.26,1.785,18a13.205,13.205,0,0,0,5.058-1.374c1.623-4.224,2.927-7.912,4.321-10.645C84.123,152.75,85.486,150.854,88.42,154.158Z" transform="translate(-61.492 -131.401)" fill="#ffc9b6"/>
        </g>
        <g id="Group_4292" data-name="Group 4292" transform="translate(31.561 142.087)">
          <path id="Path_16330" data-name="Path 16330" d="M88.9,164.22c-8.687.263-3.346-14.136-1.785-18,1.235-3.062,2.259-6.141,5.5-7.366,3.339-1.266,7.054-1.429,10.313-2.526A16.947,16.947,0,0,1,99.9,132.47c-3.318-6.075-11.061-.581-13.856,3.574s-3.979,9.493-7.438,14.9-3.221,12.531.938,19.049c3.138,4.92,9.58,4.536,12.31-1.9.775-1.827,1.457-3.567,2.1-5.241A13.19,13.19,0,0,1,88.9,164.22Z" transform="translate(-76.2 -129.769)" fill="#fd9c3e"/>
          <path id="Path_16331" data-name="Path 16331" d="M97.539,147.861c2.934,3.3,9.269-9.615,9.269-9.615a39.849,39.849,0,0,1-9.469-6.58c-3.259,1.1-6.975,1.259-10.313,2.526-3.238,1.225-4.262,4.3-5.5,7.366-1.56,3.861-6.9,18.26,1.785,18a13.19,13.19,0,0,0,5.055-1.374c1.626-4.224,2.93-7.916,4.325-10.645C93.246,146.453,94.609,144.557,97.539,147.861Z" transform="translate(-70.614 -125.104)" fill="#ffc9b6"/>
        </g>
        <path id="Path_16332" data-name="Path 16332" d="M131.725,139.8c-4.311-25.82-26.9-11.666-38.565-11.6a1.757,1.757,0,0,0-1.194,2.989c-5.477,10.047-13.621,25.315-10.708,36.939.6,2.387,6.061,7.379,6.307,7.8,0,6.746,2.844,15.555,2.723,19.7-.318,10.863,2.595,17.451,9.265,24.173,2.844,5.57,6.643,8.853,10.438,9.493,4.515.761,8.137-3.923,10.569-9.466,11.026-.439,9.092-20.426,8.815-31.94-.2-8.227-2.439-14.818,0-23.042C130.944,159.563,134.113,154.1,131.725,139.8Z" transform="translate(-33.701 -1.205)" fill="#792d3d"/>
        <path id="Path_16333" data-name="Path 16333" d="M172.193,173.726c-4.245-2.072-10.6-3.252-15.326-3.889-7.144-5.017-17.925-10.708-25.332-12.631-2.8-5.324-7.919-19.893-11.244-32.435a70.716,70.716,0,0,0-11.209-22.879s-10.926,8.31-10.645,9.151,7.494,23.74,11.417,32.573,6.169,19.122,10.054,25.564c1.674,4.124,25.858,6.556,33.632,8.763,1.4,1.259,4.394,2.861,10.172,5.971,6.7,3.6,10.732,10.839,15.6,7.736S179.69,177.383,172.193,173.726Z" transform="translate(10.04 -56.252)" fill="#ffb69f"/>
        <path id="Path_16334" data-name="Path 16334" d="M147.067,110.242c-7.5-9.507-11.182-10.241-20.26-5.044-11.123,6.369-20.1,10.383-24.972,14.43-8.258,6.864-13.047,21.014-14.451,38.811a101.713,101.713,0,0,1-2.8,14.624c-3.418,9.718-1.751,11.317.678,13.586-1.335,1.311-2.64,7,.163,8.642,12.87,7.553,41.471,8.895,51.418-9.4.616-1.135-.986-5.089-1.775-6.11a8.063,8.063,0,0,0,3.55-6.719c3.813-2.062,7.075-5.179,7.943-10.573,7.646-1.723,15.877-6.016,13.392-15.237-1.214-4.494-7.321-14.936-8.407-20.2C149.586,117.528,149.2,112.957,147.067,110.242Z" transform="translate(-28.783 -56.011)" fill="url(#linear-gradient-9)"/>
        <path id="Path_16335" data-name="Path 16335" d="M116.674,121.867c-2.093-.342-7.559-3.131-5.923-13.278.457-2.84-12.313-10.473-12.306-10.071.131,9.192-1.308,19.693-5.522,24.463,6.075,6.345,12.279,26.5,22.671,24.3C121.3,146.068,120.8,133.572,116.674,121.867Z" transform="translate(-3.506 -64.588)" fill="#ffb69f"/>
        <path id="Path_16336" data-name="Path 16336" d="M126.884,95.666c-8.653-1.941-13.178-2.3-20.862.813a42.8,42.8,0,0,0-12.289,5.65,1.082,1.082,0,0,0-.477.983c1.976,11.4,5.8,23.481,18.6,28.543,10.521,4.162,16.423-7.383,18.253-15.122C132.24,107.512,132.883,97.012,126.884,95.666Z" transform="translate(-2.712 -75.237)" fill="#ffc9b6"/>
        <path id="Path_16337" data-name="Path 16337" d="M144.764,99.09a24.355,24.355,0,0,0-4.927-7.9c-5.051-5.359-9.711-1.124-11.753,3.9-3.034-3.643-7.38-7.113-12.493-4.785-5.345,2.432-5.086,7.836-3.117,12.175-5.584-2.135-13.15-5.235-16.575.934-2.245,4.034.484,7.047,3.951,9.016-6.65,1.121-15.081,4.712-13.053,11.009,1.221,3.781,6.753,5.958,10.317,6.217a29.548,29.548,0,0,1,16.209,5.843c2.173-2.231,11.583-7.933,13.842-21.741a64.943,64.943,0,0,0,18.191,1.014c4.7-3.432,5.152-6.39,6.234-9.037,1.034-2.526,2.2-6.812.626-9.313C149.968,92.834,146.757,95.588,144.764,99.09Z" transform="translate(-19.329 -88.7)" fill="url(#linear-gradient-10)"/>
        <path id="Path_16338" data-name="Path 16338" d="M102.992,102.938s-2.065-7-6.629-3.4,1.9,10.684,1.9,10.684Z" transform="translate(0.942 -64.577)" fill="#ffc9b6"/>
        <path id="Path_16339" data-name="Path 16339" d="M115.385,124.1s-10.317-3.346-15.89-2.674A43.678,43.678,0,0,0,89.129,124.1s7.864,1.114,13.126,1.335S115.385,124.1,115.385,124.1Z" transform="translate(-12.839 -8.412)" fill="#6165d7"/>
        <path id="Path_16340" data-name="Path 16340" d="M114.744,126.871c-.671,0-12.261-.336-18.5-.778s-8.694-.751-8.694-.751a22.318,22.318,0,0,0,12.372,3.868A58.267,58.267,0,0,0,114.744,126.871Z" transform="translate(-16.72 1.428)" fill="#aa80f9"/>
        <path id="Path_16341" data-name="Path 16341" d="M158.045,192.666c-3.723-7.252-10-9.909-15.4-11.026-7.577-6.39-18.06-18.029-26.813-20.758-.841-9.379-3.519-22.056-5.622-28.11,2.124-5.9,1.934-14.828-.647-19.246-2.121-3.626-10.69-8.864-16.953-2.162-5.082,5.439-8.089,21.381-6.833,28.975.882,5.363,3.252,10.331,9.251,9.455.45,3.28,5.255,13.624,7.85,21.623.931,2.872,3.328,2.221,8.317,6.238,5.231,4.207,21.5,11.486,28.421,12.2,2.11,4.252,2.813,8.189,10.175,13.621,3.65,2.7,10.732,4.712,13.562.771C166.414,199.99,160.266,197,158.045,192.666Z" transform="translate(-21.78 -40.899)" fill="#ffc9b6"/>
        <path id="Path_16342" data-name="Path 16342" d="M79.938,139.074s-7.577,7.639-4.577,12.351,12.514,13.095,18.281,18.994,16.814,12.313,23.927,17.935,10.365,1.515,10.365,1.515l6.265-10.092s-15.188-21.333-15.766-22.2S100.474,144.637,79.938,139.074Z" transform="translate(-48.433 35.205)" fill="#792d3d"/>
      </g>
      <g id="Group_4295" data-name="Group 4295" transform="translate(155.814 26.531)">
        <path id="Path_16343" data-name="Path 16343" d="M145.689,145.8l-33.575-19.384,52.434-30.05,33.575,19.384Z" transform="translate(-112.115 -96.369)" fill="#ffc444"/>
        <g id="Group_4294" data-name="Group 4294" transform="translate(20.153 10.107)">
          <path id="Path_16344" data-name="Path 16344" d="M155.842,103.38c-3.162-2.872-10.521-5.3-17.122-3.439-4.439,1.252-6.632,4.065-4.643,6.158.654.692,2.339.09,2.1-.716-.145-.5-.453-.972-.36-1.329.758-2.851,7.283-4.017,11.735-2.536a24.724,24.724,0,0,1,4.4,1.837c3.48,2.1,4.024,5.536-.349,8.172-5.854,3.529-12.593,1.38-18.99,1.484-6.169.1-13.223,2.688-11.341,6.629.495,1.034,3.211.522,2.979-.564-1.028-4.84,10.531-4.224,13.548-4.037a50.375,50.375,0,0,0,6.124.228,22.147,22.147,0,0,0,8.113-1.9C157.593,110.773,159.163,106.4,155.842,103.38Z" transform="translate(-110.495 -99.29)" fill="#fff"/>
          <path id="Path_16345" data-name="Path 16345" d="M127.51,108.461c.429-.965-.1-1.941-1.284-2.5a7.7,7.7,0,0,0-5.971.3c-3.083,1.325-2.979,3.477-.332,4.446C122.629,111.692,126.666,110.35,127.51,108.461Zm-5.131.948c-1.214-.017-2.076-.875-1.474-1.553a2.952,2.952,0,0,1,1.744-.765c.861-.086,2.072.27,2.176.827C124.953,108.627,123.615,109.426,122.379,109.409Z" transform="translate(-117.94 -84.018)" fill="#fff"/>
        </g>
      </g>
      <g id="Group_4297" data-name="Group 4297" transform="translate(163.986 253.019)">
        <path id="Path_16346" data-name="Path 16346" d="M166.911,211.267l33.574-19.384-52.434-30.05-33.574,19.384Z" transform="translate(-114.477 -161.833)" fill="#ffc444"/>
        <g id="Group_4296" data-name="Group 4296" transform="translate(19.606 9.935)">
          <path id="Path_16347" data-name="Path 16347" d="M127.227,165.7c-4.975,1.827-9.175,6.075-5.954,9.888,2.166,2.56,7.037,3.826,10.663,2.681,1.2-.381.156-1.353-1.242-1.214a15.275,15.275,0,0,1-2.294.208c-4.944-.439-6.964-4.207-4.394-6.778a15.279,15.279,0,0,1,3.179-2.539,15.581,15.581,0,0,1,14.154.2c6.113,3.38,2.391,7.272,2.574,10.964.173,3.563,4.653,7.636,11.479,6.549,1.792-.287.9-1.854-.979-1.719-8.379.592-7.317-6.082-6.992-7.822a9.854,9.854,0,0,0,.394-3.536,7.335,7.335,0,0,0-3.294-4.684C140.031,164.692,132.451,163.785,127.227,165.7Z" transform="translate(-120.144 -164.705)" fill="#fff"/>
          <path id="Path_16348" data-name="Path 16348" d="M136.024,171.025a6.351,6.351,0,0,0-4.328.74c-.886.626-1.412,1.955.512,3.449,2.294,1.778,6.023,1.719,7.7.19C141.622,173.845,139.3,171.513,136.024,171.025Zm1.643,2.961c-.028.7-1.519,1.2-2.692.851a1.977,1.977,0,0,1-1.322-1.007c-.152-.495.467-1.2,1.436-1.256C136.311,172.5,137.7,173.274,137.667,173.986Z" transform="translate(-93.69 -149.37)" fill="#fff"/>
        </g>
      </g>
    </g>
  </g>
</svg>
