<svg xmlns="http://www.w3.org/2000/svg" width="144.113" height="144.113" viewBox="0 0 144.113 144.113">
  <g id="Group_1645" data-name="Group 1645" opacity="0.09">
    <g id="programming" transform="translate(0)">
      <path id="Path_1322" data-name="Path 1322" d="M60.568,7A25.569,25.569,0,1,0,86.137,32.569,25.6,25.6,0,0,0,60.568,7Zm0,46.488a20.92,20.92,0,1,1,20.92-20.92A20.945,20.945,0,0,1,60.568,53.488Z" transform="translate(44.03 6.946)"/>
      <path id="Path_1323" data-name="Path 1323" d="M138.758,29.809a34.715,34.715,0,0,0-2.136-5.181l3.05-5.925L127.413,6.444l-5.925,3.05a34.715,34.715,0,0,0-5.181-2.136L114.266,1H96.928L94.892,7.355a34.715,34.715,0,0,0-5.181,2.136l-5.925-3.05L71.527,18.7l2.85,5.544H7.973A6.982,6.982,0,0,0,1,31.217v97.625a6.982,6.982,0,0,0,6.973,6.973H90.92a16.258,16.258,0,1,0,17-23.058V84.679h-4.649v28.079a16.112,16.112,0,0,0-13.76,18.409H7.973a2.328,2.328,0,0,1-2.324-2.324V56.786h68.73l-2.852,5.541L83.786,74.586l5.925-3.05a34.715,34.715,0,0,0,5.181,2.136l2.038,6.357h17.338l2.036-6.355a34.715,34.715,0,0,0,5.181-2.136l5.925,3.05L139.67,62.33l-3.05-5.923a34.759,34.759,0,0,0,2.136-5.181l6.357-2.043V31.845ZM105.6,117.22a11.622,11.622,0,1,1-11.622,11.622A11.635,11.635,0,0,1,105.6,117.22Zm-99.95-86a2.328,2.328,0,0,1,2.324-2.324h64.8c-.109.307-.235.6-.335.916l-6.357,2.039V49.185l6.355,2.036c.1.311.228.609.335.916H5.649ZM140.465,45.794l-5.476,1.755-.339,1.2a29.924,29.924,0,0,1-2.68,6.5l-.611,1.09,2.627,5.1L126.52,68.9l-5.1-2.624-1.088.609a30.019,30.019,0,0,1-6.5,2.68l-1.2.339-1.753,5.474H100.322L98.567,69.9l-1.2-.339a30.136,30.136,0,0,1-6.5-2.68l-1.088-.609-5.1,2.624-7.464-7.464,2.627-5.1-.611-1.09a29.972,29.972,0,0,1-2.68-6.5l-.339-1.2-5.476-1.753V35.239l5.476-1.755.339-1.2a30.135,30.135,0,0,1,2.68-6.5l.609-1.088-2.624-5.1,7.464-7.464,5.1,2.624,1.088-.609a30.019,30.019,0,0,1,6.5-2.68l1.2-.339,1.753-5.476h10.555l1.755,5.476,1.2.339a30.136,30.136,0,0,1,6.5,2.68l1.088.609,5.1-2.624,7.464,7.464-2.624,5.1.609,1.088a30.019,30.019,0,0,1,2.68,6.5l.339,1.2,5.476,1.753Z" transform="translate(-1 -1)"/>
      <path id="Path_1324" data-name="Path 1324" d="M48.2,16.189l5.927,7.9L48.2,32l3.719,2.789,8.019-10.692L51.919,13.4Z" transform="translate(61.512 15.423)"/>
      <path id="Path_1325" data-name="Path 1325" d="M46.769,13.4,38.75,24.092l8.019,10.692L50.488,32l-5.927-7.9,5.927-7.9Z" transform="translate(48.996 15.423)"/>
      <path id="Path_1326" data-name="Path 1326" d="M0,0H32.872V4.649H0Z" transform="translate(100.008 55.463) rotate(-81.837)"/>
      <path id="Path_1327" data-name="Path 1327" d="M32.893,15H9.649A4.653,4.653,0,0,0,5,19.649V24.3a4.653,4.653,0,0,0,4.649,4.649H32.893A4.653,4.653,0,0,0,37.542,24.3V19.649A4.653,4.653,0,0,0,32.893,15Zm-9.3,4.649V24.3H18.946V19.649Zm-13.946,0H14.3V24.3H9.649Zm18.6,4.649V19.649h4.649l0,4.649Z" transform="translate(4.298 17.542)"/>
      <path id="Path_1328" data-name="Path 1328" d="M49.973,66.946A6.973,6.973,0,1,0,43,59.973,6.982,6.982,0,0,0,49.973,66.946Zm0-9.3a2.324,2.324,0,1,1-2.324,2.324A2.328,2.328,0,0,1,49.973,57.649Z" transform="translate(54.625 67.869)"/>
      <path id="Path_1329" data-name="Path 1329" d="M66.946,69.294V60.931l-9.3-9.3V34H53V53.558l9.3,9.3v6.439a6.973,6.973,0,1,0,4.649,0Zm-2.324,8.87a2.324,2.324,0,1,1,2.324-2.324A2.328,2.328,0,0,1,64.622,78.164Z" transform="translate(67.869 42.706)"/>
      <path id="Path_1330" data-name="Path 1330" d="M49.6,53.558V34H44.946V51.633l-9.3,9.3v8.363a6.973,6.973,0,1,0,4.649,0V62.855ZM37.973,78.164A2.324,2.324,0,1,1,40.3,75.839,2.328,2.328,0,0,1,37.973,78.164Z" transform="translate(38.732 42.706)"/>
      <path id="Path_1331" data-name="Path 1331" d="M16.622,31.649h2.324V27H16.622a6.982,6.982,0,0,0-6.973,6.973A2.328,2.328,0,0,1,7.324,36.3H5v4.649H7.324a2.328,2.328,0,0,1,2.324,2.324,6.982,6.982,0,0,0,6.973,6.973h2.324V45.6H16.622A2.328,2.328,0,0,1,14.3,43.271a6.928,6.928,0,0,0-1.813-4.649A6.928,6.928,0,0,0,14.3,33.973,2.328,2.328,0,0,1,16.622,31.649Z" transform="translate(4.298 33.435)"/>
      <path id="Path_1332" data-name="Path 1332" d="M13,27H40.893v4.649H13Z" transform="translate(14.893 33.435)"/>
      <path id="Path_1333" data-name="Path 1333" d="M13,31H40.893v4.649H13Z" transform="translate(14.893 38.732)"/>
      <path id="Path_1334" data-name="Path 1334" d="M23,35h4.649v4.649H23Z" transform="translate(28.137 44.03)"/>
      <path id="Path_1335" data-name="Path 1335" d="M13,35H31.6v4.649H13Z" transform="translate(14.893 44.03)"/>
      <path id="Path_1336" data-name="Path 1336" d="M32.3,59.271a2.328,2.328,0,0,1,2.324-2.324h2.324V52.3H34.622A2.328,2.328,0,0,1,32.3,49.973,6.982,6.982,0,0,0,25.324,43H23v4.649h2.324a2.328,2.328,0,0,1,2.324,2.324,6.928,6.928,0,0,0,1.813,4.649,6.917,6.917,0,0,0-1.813,4.649A2.328,2.328,0,0,1,25.324,61.6H23v4.649h2.324A6.982,6.982,0,0,0,32.3,59.271Z" transform="translate(28.137 54.625)"/>
      <path id="Path_1337" data-name="Path 1337" d="M9,51H36.893v4.649H9Z" transform="translate(9.595 65.22)"/>
      <path id="Path_1338" data-name="Path 1338" d="M13,47H31.6v4.649H13Z" transform="translate(14.893 59.923)"/>
      <path id="Path_1339" data-name="Path 1339" d="M9,47h4.649v4.649H9Z" transform="translate(9.595 59.923)"/>
      <path id="Path_1340" data-name="Path 1340" d="M9,43H36.893v4.649H9Z" transform="translate(9.595 54.625)"/>
      <path id="Path_1341" data-name="Path 1341" d="M5,39H51.488v4.649H5Z" transform="translate(4.298 49.328)"/>
    </g>
  </g>
</svg>
