<svg xmlns="http://www.w3.org/2000/svg" width="238.443" height="238.779" viewBox="0 0 238.443 238.779">
  <g id="phone-call" transform="translate(-0.344 -0.023)">
    <g id="Group_1750" data-name="Group 1750" transform="translate(0.344 0.023)">
      <path id="Path_1688" data-name="Path 1688" d="M188.89,161.516c-4.889-5.09-10.785-7.812-17.035-7.812-6.2,0-12.146,2.671-17.236,7.761l-15.926,15.875c-1.31-.706-2.621-1.361-3.881-2.016-1.814-.907-3.528-1.764-4.989-2.671-14.918-9.475-28.475-21.822-41.478-37.8-6.3-7.963-10.533-14.666-13.608-21.47,4.133-3.78,7.963-7.711,11.692-11.491,1.411-1.411,2.822-2.873,4.233-4.284,10.584-10.584,10.584-24.292,0-34.876L76.905,48.976c-1.562-1.562-3.175-3.175-4.687-4.788-3.024-3.125-6.2-6.35-9.475-9.374-4.889-4.838-10.735-7.409-16.883-7.409s-12.1,2.57-17.135,7.409l-.1.1L11.488,52.2A36.872,36.872,0,0,0,.552,75.637C-.658,90.354,3.677,104.062,7,113.033c8.165,22.024,20.361,42.435,38.555,64.308a237.17,237.17,0,0,0,78.974,61.839c11.592,5.493,27.064,11.995,44.351,13.1,1.058.05,2.167.1,3.175.1,11.642,0,21.419-4.183,29.08-12.5.05-.1.151-.151.2-.252a114.571,114.571,0,0,1,8.82-9.122c2.167-2.066,4.385-4.233,6.552-6.5,4.989-5.191,7.61-11.239,7.61-17.438,0-6.249-2.671-12.247-7.761-17.287Zm18.043,53.069c-.05,0-.05.05,0,0-1.966,2.117-3.981,4.032-6.149,6.149a132.525,132.525,0,0,0-9.727,10.08c-5.09,5.443-11.088,8.013-18.95,8.013-.756,0-1.562,0-2.318-.05-14.968-.958-28.878-6.8-39.311-11.793a223.874,223.874,0,0,1-74.388-58.26C38.9,148.009,27.414,128.858,19.8,108.3c-4.687-12.549-6.4-22.326-5.645-31.549a23.133,23.133,0,0,1,6.955-14.968L38.3,44.592c2.47-2.318,5.09-3.578,7.661-3.578,3.175,0,5.745,1.915,7.358,3.528l.151.151c3.074,2.873,6,5.846,9.072,9.021,1.562,1.613,3.175,3.225,4.788,4.889L81.088,72.361c5.342,5.342,5.342,10.281,0,15.623-1.462,1.462-2.873,2.923-4.334,4.334-4.233,4.334-8.265,8.366-12.65,12.3-.1.1-.2.151-.252.252-4.334,4.334-3.528,8.568-2.621,11.44l.151.454c3.578,8.669,8.618,16.833,16.279,26.56l.05.05c13.91,17.135,28.576,30.491,44.754,40.722a68.82,68.82,0,0,0,6.2,3.377c1.814.907,3.528,1.764,4.989,2.671.2.1.4.252.6.353a10.925,10.925,0,0,0,4.989,1.26,10.776,10.776,0,0,0,7.661-3.477l17.236-17.236c1.714-1.714,4.435-3.78,7.61-3.78,3.125,0,5.7,1.966,7.257,3.679l.1.1,27.77,27.769c5.191,5.141,5.191,10.432.05,15.775Z" transform="translate(-0.344 -13.605)" fill="#a2aed2"/>
      <path id="Path_1689" data-name="Path 1689" d="M250.538,99.419a64.863,64.863,0,0,1,52.817,52.817,6.762,6.762,0,0,0,6.7,5.645,9,9,0,0,0,1.159-.1,6.81,6.81,0,0,0,5.594-7.862,78.429,78.429,0,0,0-63.905-63.905,6.84,6.84,0,0,0-7.862,5.544,6.73,6.73,0,0,0,5.493,7.862Z" transform="translate(-121.664 -42.628)" fill="#a2aed2"/>
      <path id="Path_1690" data-name="Path 1690" d="M361.909,105.347A129.144,129.144,0,0,0,256.677.115a6.794,6.794,0,1,0-2.218,13.406A115.351,115.351,0,0,1,348.5,107.565a6.762,6.762,0,0,0,6.7,5.645,9,9,0,0,0,1.159-.1,6.677,6.677,0,0,0,5.544-7.761Z" transform="translate(-123.569 -0.023)" fill="#a2aed2"/>
    </g>
  </g>
</svg>
