<svg xmlns="http://www.w3.org/2000/svg" width="46.367" height="46.367" viewBox="0 0 46.367 46.367">
  <g id="Group_1759" data-name="Group 1759" transform="translate(-1412 -1373.423)">
    <path id="Path_57" data-name="Path 57" d="M43.65,38.95V15.442a1.358,1.358,0,0,0-2.717,0v6.792H34.141a1.358,1.358,0,1,0,0,2.717h6.792v14a4.1,4.1,0,0,0-2.483,2.483H24.633v-9.69a1.358,1.358,0,0,0-2.717,0v9.69h-14A4.1,4.1,0,0,0,5.434,38.95v-14h9.69a1.358,1.358,0,1,0,0-2.717H5.434V8.417A4.1,4.1,0,0,0,7.917,5.934h14v6.792a1.358,1.358,0,0,0,2.717,0V5.934h6.792a1.358,1.358,0,1,0,0-2.717H7.917a4.075,4.075,0,1,0-5.2,5.2V38.95a4.075,4.075,0,1,0,5.2,5.2H38.45a4.075,4.075,0,1,0,5.2-5.2ZM4.075,3.217A1.358,1.358,0,1,1,2.717,4.575,1.36,1.36,0,0,1,4.075,3.217Zm0,40.933a1.358,1.358,0,1,1,1.358-1.358A1.36,1.36,0,0,1,4.075,44.15Zm38.216,0a1.358,1.358,0,1,1,1.358-1.358A1.36,1.36,0,0,1,42.292,44.15Zm0,0" transform="translate(1412 1372.923)" fill="#274584"/>
    <path id="Path_58" data-name="Path 58" d="M198.991,1.714l-16.7,16.7h0l-2.58,2.58a1.352,1.352,0,0,0-.328.531l-1.82,5.459-1.694,1.694a1.358,1.358,0,0,0,1.921,1.921l1.694-1.694,5.459-1.82a1.356,1.356,0,0,0,.531-.328L204.754,7.478a4.075,4.075,0,0,0-5.763-5.763Zm-15.21,22.895-2.881.96.96-2.882,1.393-1.393,1.921,1.921Zm3.314-3.314-1.921-1.921L198.03,6.517l1.921,1.921ZM202.834,5.556l-.961.961L199.951,4.6l.961-.961a1.358,1.358,0,1,1,1.921,1.921Zm0,0" transform="translate(1252.418 1372.902)" fill="#274584"/>
  </g>
</svg>
