<svg xmlns="http://www.w3.org/2000/svg" width="558.129" height="442.654" viewBox="0 0 558.129 442.654">
  <g id="Group_1687" data-name="Group 1687" transform="translate(0)" opacity="0.75">
    <path id="Path_1440" data-name="Path 1440" d="M-955.841-34.486a375.011,375.011,0,0,1,82.29,9.5C-824.408-13.892-785.383,11.863-760.7,49.5c21.774,33.193,31.263,73.93,26.721,114.7-3.976,35.676-18.565,68.255-41.081,91.735-24.737,25.794-57.589,39.429-95.006,39.429-3.5,0-7.094-.121-10.67-.359-10.536-.7-20.77-1.058-30.418-1.058-98.009,0-140.032,35.629-193.235,80.733l-4.161,3.527c-21.348,18.077-47.918,28.032-74.812,28.032a104.262,104.262,0,0,1-50.725-12.97,101.513,101.513,0,0,1-38.579-38.535c-14.235-24.974-19.34-57.269-14.765-93.393,5.312-41.935,23.191-88.842,53.144-139.425.227-.39,23.141-39.525,68.744-78.191a335.441,335.441,0,0,1,86.915-53.776A315.293,315.293,0,0,1-955.841-34.486Zm0-.963c-188.488,0-279.274,156.888-279.274,156.888-110.84,187.174-33.361,285.766,51.757,285.766,26.172,0,53.07-9.324,75.433-28.259,54.731-46.344,96.564-84.033,196.774-84.033q14.343,0,30.354,1.056,5.461.363,10.734.361c169.655,0,199.36-276.525-3.277-322.249a374,374,0,0,0-82.5-9.529Z" transform="translate(1290.045 35.449)" fill="#f16db4"/>
  </g>
</svg>
