<svg xmlns="http://www.w3.org/2000/svg" xmlns:xlink="http://www.w3.org/1999/xlink" width="399.371" height="456.703" viewBox="0 0 399.371 456.703">
  <defs>
    <linearGradient id="linear-gradient" x1="0.204" y1="1.407" x2="0.559" y2="2.227" gradientUnits="objectBoundingBox">
      <stop offset="0.056" stop-color="#200041"/>
      <stop offset="0.181" stop-color="#210143"/>
      <stop offset="0.243" stop-color="#25084a"/>
      <stop offset="0.291" stop-color="#2c1357"/>
      <stop offset="0.313" stop-color="#311b61"/>
      <stop offset="0.346" stop-color="#331d65"/>
      <stop offset="0.382" stop-color="#3a2572"/>
      <stop offset="0.419" stop-color="#453288"/>
      <stop offset="0.457" stop-color="#5444a6"/>
      <stop offset="0.496" stop-color="#685bcd"/>
      <stop offset="0.53" stop-color="#7e74f7"/>
      <stop offset="0.542" stop-color="#6f62d9"/>
      <stop offset="0.561" stop-color="#5849ae"/>
      <stop offset="0.579" stop-color="#47358c"/>
      <stop offset="0.597" stop-color="#3b2674"/>
      <stop offset="0.613" stop-color="#331d66"/>
      <stop offset="0.626" stop-color="#311b61"/>
      <stop offset="0.672" stop-color="#2a1054"/>
      <stop offset="0.749" stop-color="#220446"/>
      <stop offset="0.813" stop-color="#200041"/>
      <stop offset="1" stop-color="#200041"/>
    </linearGradient>
    <radialGradient id="radial-gradient" cx="0.973" cy="0.242" r="0.357" gradientTransform="matrix(0.746, 0.005, -0.004, 1.022, 0.175, -0.029)" gradientUnits="objectBoundingBox">
      <stop offset="0" stop-color="#af8afc"/>
      <stop offset="1" stop-color="#10054d"/>
    </radialGradient>
    <linearGradient id="linear-gradient-2" x1="0.593" y1="1.604" x2="-1.316" y2="0.803" gradientUnits="objectBoundingBox">
      <stop offset="0.187" stop-color="#3d065f"/>
      <stop offset="0.934" stop-color="#3d065f"/>
    </linearGradient>
    <linearGradient id="linear-gradient-3" x1="0.404" y1="2.187" x2="-0.137" y2="0.633" gradientUnits="objectBoundingBox">
      <stop offset="0" stop-color="#311b61"/>
      <stop offset="0.203" stop-color="#290e52"/>
      <stop offset="0.495" stop-color="#200041"/>
      <stop offset="1" stop-color="#0f001f"/>
    </linearGradient>
    <linearGradient id="linear-gradient-4" x1="0.217" y1="1.506" x2="0.138" y2="1.692" gradientUnits="objectBoundingBox">
      <stop offset="0.121" stop-color="#4916a1"/>
      <stop offset="0.669" stop-color="#442276"/>
      <stop offset="1" stop-color="#432962"/>
    </linearGradient>
    <linearGradient id="linear-gradient-5" x1="0.373" y1="0.041" x2="0.948" y2="0.681" gradientUnits="objectBoundingBox">
      <stop offset="0.056" stop-color="#200041"/>
      <stop offset="0.258" stop-color="#210143"/>
      <stop offset="0.357" stop-color="#25084a"/>
      <stop offset="0.434" stop-color="#2c1357"/>
      <stop offset="0.47" stop-color="#311b61"/>
      <stop offset="0.482" stop-color="#351f65"/>
      <stop offset="0.495" stop-color="#422c72"/>
      <stop offset="0.509" stop-color="#574188"/>
      <stop offset="0.523" stop-color="#755fa6"/>
      <stop offset="0.53" stop-color="#8770b8"/>
      <stop offset="0.537" stop-color="#7d66ae"/>
      <stop offset="0.562" stop-color="#5c458c"/>
      <stop offset="0.586" stop-color="#442e74"/>
      <stop offset="0.608" stop-color="#351f66"/>
      <stop offset="0.626" stop-color="#311b61"/>
      <stop offset="0.672" stop-color="#2a1054"/>
      <stop offset="0.749" stop-color="#220446"/>
      <stop offset="0.813" stop-color="#200041"/>
      <stop offset="1" stop-color="#200041"/>
    </linearGradient>
    <radialGradient id="radial-gradient-2" cx="1.282" cy="0.288" r="0.804" gradientTransform="matrix(3.097, 0.351, -1.043, 0.84, -3.056, -0.517)" gradientUnits="objectBoundingBox">
      <stop offset="0" stop-color="#711f56"/>
      <stop offset="0.161" stop-color="#6b1d51"/>
      <stop offset="0.363" stop-color="#5c1946"/>
      <stop offset="0.585" stop-color="#421232"/>
      <stop offset="0.821" stop-color="#1f0818"/>
      <stop offset="1"/>
    </radialGradient>
    <radialGradient id="radial-gradient-3" cx="0.994" cy="0.224" r="0.449" gradientTransform="matrix(1.447, 0.351, -0.487, 0.84, -0.385, -0.357)" xlink:href="#radial-gradient"/>
    <linearGradient id="linear-gradient-6" x1="1.191" y1="0.626" x2="-0.568" y2="0.27" xlink:href="#linear-gradient-2"/>
    <linearGradient id="linear-gradient-7" x1="1.231" y1="1.078" x2="0.316" y2="-0.167" xlink:href="#linear-gradient-3"/>
    <linearGradient id="linear-gradient-8" x1="0.563" y1="0.558" x2="1.16" y2="0.558" xlink:href="#linear-gradient-3"/>
    <linearGradient id="linear-gradient-9" x1="0.495" y1="0.106" x2="1.418" y2="1.229" gradientUnits="objectBoundingBox">
      <stop offset="0.01" stop-color="#9f19ab"/>
      <stop offset="0.429" stop-color="#5f27bd"/>
      <stop offset="0.904" stop-color="#3d065f"/>
    </linearGradient>
    <linearGradient id="linear-gradient-10" x1="1.484" y1="1.679" x2="0.395" y2="-0.14" gradientUnits="objectBoundingBox">
      <stop offset="0.035" stop-color="#9f19ab"/>
      <stop offset="0.244" stop-color="#ae24b0"/>
      <stop offset="0.645" stop-color="#d643bf"/>
      <stop offset="1" stop-color="#ff63ce"/>
    </linearGradient>
    <linearGradient id="linear-gradient-11" x1="1.902" y1="1.758" x2="0.81" y2="-0.033" gradientUnits="objectBoundingBox">
      <stop offset="0.035" stop-color="#138bbd"/>
      <stop offset="0.226" stop-color="#169ac6"/>
      <stop offset="0.595" stop-color="#1ec2df"/>
      <stop offset="1" stop-color="#2af6ff"/>
    </linearGradient>
    <linearGradient id="linear-gradient-12" x1="2.03" y1="1.849" x2="0.944" y2="0.019" gradientUnits="objectBoundingBox">
      <stop offset="0.035" stop-color="#ffa98c"/>
      <stop offset="0.317" stop-color="#feb892"/>
      <stop offset="0.86" stop-color="#fee0a3"/>
      <stop offset="1" stop-color="#feeca8"/>
    </linearGradient>
    <linearGradient id="linear-gradient-13" x1="2.819" y1="260.56" x2="4.307" y2="260.56" xlink:href="#linear-gradient-3"/>
    <linearGradient id="linear-gradient-14" x1="4.908" y1="1.101" x2="3.765" y2="1.072" gradientUnits="objectBoundingBox">
      <stop offset="0" stop-color="#3d065f"/>
      <stop offset="1" stop-color="#5f27bd"/>
    </linearGradient>
    <radialGradient id="radial-gradient-4" cx="0.514" cy="0.246" r="0.433" gradientTransform="matrix(1.595, 0.351, -0.537, 0.84, -2.156, -1.401)" xlink:href="#radial-gradient-2"/>
    <linearGradient id="linear-gradient-15" x1="2.488" y1="2.391" x2="-0.645" y2="-0.706" xlink:href="#linear-gradient-11"/>
    <linearGradient id="linear-gradient-16" x1="0.108" y1="-0.052" x2="0.894" y2="1.008" gradientUnits="objectBoundingBox">
      <stop offset="0.338" stop-color="#fbcd9c"/>
      <stop offset="0.808" stop-color="#feeca8"/>
      <stop offset="0.914" stop-color="#ffa98c"/>
    </linearGradient>
    <linearGradient id="linear-gradient-17" x1="-3.963" y1="4.001" x2="0.208" y2="2.969" xlink:href="#linear-gradient-12"/>
    <radialGradient id="radial-gradient-5" cx="1.113" cy="0.464" r="0.528" gradientTransform="translate(0.036) scale(0.927 1)" gradientUnits="objectBoundingBox">
      <stop offset="0" stop-color="#fff"/>
      <stop offset="1"/>
    </radialGradient>
    <radialGradient id="radial-gradient-6" cx="0.5" cy="0.5" r="0.299" gradientTransform="matrix(1.354, -0.38, 0.979, 1.627, 130.315, -34.08)" gradientUnits="objectBoundingBox">
      <stop offset="0" stop-color="#c211a1"/>
      <stop offset="0.013" stop-color="#bc109c"/>
      <stop offset="0.148" stop-color="#8b0c73"/>
      <stop offset="0.285" stop-color="#60084f"/>
      <stop offset="0.423" stop-color="#3d0533"/>
      <stop offset="0.563" stop-color="#22031c"/>
      <stop offset="0.704" stop-color="#0f010c"/>
      <stop offset="0.849" stop-color="#030003"/>
      <stop offset="1"/>
    </radialGradient>
    <linearGradient id="linear-gradient-18" x1="0.108" y1="-0.051" x2="0.895" y2="1.007" gradientUnits="objectBoundingBox">
      <stop offset="0.167" stop-color="#dc48c1"/>
      <stop offset="0.425" stop-color="#de4ac2"/>
      <stop offset="0.6" stop-color="#e751c5"/>
      <stop offset="0.75" stop-color="#f65cca"/>
      <stop offset="0.808" stop-color="#ff63ce"/>
      <stop offset="0.914" stop-color="#9f19ab"/>
    </linearGradient>
    <linearGradient id="linear-gradient-19" x1="-3.209" y1="3.724" x2="0.965" y2="2.695" xlink:href="#linear-gradient-10"/>
    <radialGradient id="radial-gradient-7" cx="1.113" cy="0.464" r="0.528" gradientTransform="translate(0.035) scale(0.931 1)" xlink:href="#radial-gradient-5"/>
    <radialGradient id="radial-gradient-8" cx="0.5" cy="0.5" r="0.299" gradientTransform="matrix(1.355, -0.38, 0.979, 1.627, 122.562, -26.77)" xlink:href="#radial-gradient-6"/>
    <linearGradient id="linear-gradient-20" x1="0.08" y1="-0.022" x2="0.977" y2="0.995" gradientUnits="objectBoundingBox">
      <stop offset="0" stop-color="#4ec1de"/>
      <stop offset="0.239" stop-color="#4cc4de"/>
      <stop offset="0.446" stop-color="#49cfde"/>
      <stop offset="0.64" stop-color="#43e0de"/>
      <stop offset="0.652" stop-color="#43e2de"/>
      <stop offset="0.771" stop-color="#3cabc7"/>
      <stop offset="0.838" stop-color="#3a91bd"/>
      <stop offset="0.88" stop-color="#3a95be"/>
      <stop offset="1" stop-color="#3ca0c3"/>
    </linearGradient>
    <linearGradient id="linear-gradient-21" x1="-1.983" y1="3.391" x2="1.518" y2="2.6" xlink:href="#linear-gradient-11"/>
    <radialGradient id="radial-gradient-9" cx="1.021" cy="0.361" r="0.506" gradientTransform="translate(-0.004) scale(1.007 1)" xlink:href="#radial-gradient-5"/>
  </defs>
  <g id="Group_1710" data-name="Group 1710" transform="translate(-3286.675 1143.21)">
    <g id="Group_1689" data-name="Group 1689" transform="translate(3397.92 -849.288)" opacity="0.2">
      <path id="Path_1444" data-name="Path 1444" d="M-783.358,502.585a22.864,22.864,0,0,1-11.417-2.754L-864.12,460.37l-69.344-39.461c-4.162-2.405-6.551-6.209-6.549-10.436,0-4.636,2.875-8.953,7.89-11.849l45.379-25.534a28.136,28.136,0,0,1,13.866-3.523,22.871,22.871,0,0,1,11.418,2.753l69.343,39.461,69.343,39.461c4.163,2.4,6.55,6.208,6.55,10.436,0,4.634-2.876,8.953-7.889,11.847l-45.38,25.534A28.108,28.108,0,0,1-783.358,502.585Z" transform="translate(940.013 -369.567)" opacity="0"/>
      <path id="Path_1445" data-name="Path 1445" d="M-929.826,402.229l12.346-6.887c.5-.289,23.589-12.885,24.022-12.634l7.9-3.87c3.579-2.064,8.838-2.751,13.389-2.751a23.476,23.476,0,0,1,11.023,2.873L-805.6,410.6l11.821,6.734,67.364,38.371a14.356,14.356,0,0,1,5.233,5.1,10.693,10.693,0,0,1,1.373,4.851c.138,4.454-2.6,8.678-7.532,11.523l-12.346,6.887c-.5.29-23.587,12.884-24.022,12.633l-7.9,3.871c-3.579,2.067-8.838,2.753-13.389,2.753a23.458,23.458,0,0,1-11.022-2.874l-55.544-31.638-11.822-6.734L-930.755,423.7a14.377,14.377,0,0,1-5.234-5.1,10.68,10.68,0,0,1-1.37-4.848C-937.5,409.3-934.759,405.076-929.826,402.229Z" transform="translate(938.945 -372.195)" opacity="0.091"/>
      <path id="Path_1446" data-name="Path 1446" d="M-927.536,405.834l12.011-6.638c1-.579,22.615-11.949,23.483-11.448l7.665-3.163c3.221-1.858,8.816-1.979,12.911-1.979a24.3,24.3,0,0,1,10.627,2.994l53.912,30.739,11.474,6.542,65.386,37.282a15.583,15.583,0,0,1,5.163,4.851,10.554,10.554,0,0,1,1.5,4.613c.262,4.275-2.329,8.4-7.175,11.2l-12.01,6.637c-1,.579-22.614,11.948-23.483,11.447l-7.668,3.164c-3.221,1.86-8.816,1.98-12.911,1.98a24.289,24.289,0,0,1-10.625-2.994l-53.912-30.739-11.474-6.542L-928.051,426.5a15.6,15.6,0,0,1-5.164-4.854,10.538,10.538,0,0,1-1.5-4.611C-934.973,412.759-932.385,408.632-927.536,405.834Z" transform="translate(937.883 -374.824)" opacity="0.182"/>
      <path id="Path_1447" data-name="Path 1447" d="M-925.252,409.4l11.676-6.389c1.5-.868,21.642-11.013,22.944-10.261l7.43-2.455c2.863-1.652,8.793-1.206,12.434-1.206,3.163,0,7.962,1.8,10.231,3.114l52.281,29.84,11.126,6.351,63.407,36.191a17.182,17.182,0,0,1,5.094,4.6,10.425,10.425,0,0,1,1.624,4.375c.4,4.1-2.055,8.126-6.818,10.875l-11.675,6.388c-1.5.868-21.641,11.013-22.943,10.261l-7.433,2.456c-2.862,1.653-8.793,1.208-12.434,1.208-3.164,0-7.963-1.8-10.23-3.115L-850.819,471.8l-11.126-6.35-63.408-36.191a17.207,17.207,0,0,1-5.1-4.606,10.417,10.417,0,0,1-1.621-4.373C-932.464,416.181-930.017,412.153-925.252,409.4Z" transform="translate(936.827 -377.416)" opacity="0.273"/>
      <path id="Path_1448" data-name="Path 1448" d="M-922.974,412.811l11.34-6.139c2-1.157,20.668-10.078,22.4-9.076l7.2-1.748c2.5-1.445,8.77-.434,11.956-.434,2.768,0,7.85,2.088,9.836,3.235l50.65,28.942,10.778,6.158,61.429,35.1a19.325,19.325,0,0,1,5.025,4.356,10.376,10.376,0,0,1,1.749,4.137c.529,3.917-1.782,7.85-6.462,10.551l-11.338,6.139c-2,1.158-20.667,10.077-22.4,9.075l-7.2,1.748c-2.505,1.447-8.771.436-11.956.436-2.769,0-7.851-2.089-9.834-3.236l-50.651-28.942-10.778-6.158-61.43-35.1a19.379,19.379,0,0,1-5.026-4.358,10.368,10.368,0,0,1-1.746-4.136C-929.964,419.446-927.656,415.514-922.974,412.811Z" transform="translate(935.779 -379.849)" opacity="0.364"/>
      <path id="Path_1449" data-name="Path 1449" d="M-920.7,416.1l11-5.89c2.506-1.447,19.7-9.142,21.866-7.889l6.959-1.04c2.147-1.238,8.748.338,11.479.338,2.372,0,7.738,2.372,9.439,3.356l49.019,28.043,10.43,5.967,59.45,34.011A22.313,22.313,0,0,1-736.1,477.1a10.435,10.435,0,0,1,1.874,3.9c.664,3.739-1.508,7.574-6.1,10.227l-11,5.89c-2.506,1.447-19.694,9.142-21.865,7.889l-6.962,1.041c-2.147,1.24-8.749-.337-11.479-.337-2.373,0-7.738-2.373-9.439-3.356L-850.1,474.313l-10.43-5.967-59.451-34.01a22.367,22.367,0,0,1-4.956-4.109,10.439,10.439,0,0,1-1.872-3.9C-927.472,422.589-925.3,418.754-920.7,416.1Z" transform="translate(934.737 -382.16)" opacity="0.455"/>
      <path id="Path_1450" data-name="Path 1450" d="M-918.44,419.313l10.668-5.641c3.007-1.736,18.722-8.206,21.326-6.7l6.725-.333c1.789-1.032,8.726,1.111,11,1.111,1.977,0,7.625,2.657,9.044,3.476l47.388,27.145,10.082,5.775,57.472,32.921a26.665,26.665,0,0,1,4.886,3.86,10.624,10.624,0,0,1,2,3.662c.8,3.559-1.235,7.3-5.748,9.9l-10.668,5.642c-3.006,1.737-18.721,8.206-21.325,6.7l-6.727.334c-1.789,1.033-8.725-1.11-11-1.11-1.978,0-7.626-2.657-9.043-3.476l-47.388-27.145-10.083-5.775-57.472-32.92a26.682,26.682,0,0,1-4.887-3.862,10.636,10.636,0,0,1-2-3.659C-924.988,425.658-922.955,421.92-918.44,419.313Z" transform="translate(933.702 -384.398)" opacity="0.545"/>
      <path id="Path_1451" data-name="Path 1451" d="M-916.184,422.094l10.333-5.391c3.509-2.026,17.748-7.272,20.787-5.517l6.489.374c1.431-.826,8.7,1.883,10.524,1.883,1.582,0,7.513,2.941,8.647,3.6l45.758,26.246,9.734,5.584,55.494,31.83a33.409,33.409,0,0,1,4.816,3.612,11.018,11.018,0,0,1,2.125,3.424c.939,3.381-.961,7.022-5.391,9.579l-10.332,5.392c-3.507,2.026-17.747,7.271-20.786,5.517l-6.492-.374c-1.431.827-8.7-1.883-10.524-1.883-1.582,0-7.513-2.942-8.647-3.6l-45.757-26.246-9.735-5.584-55.494-31.83a33.477,33.477,0,0,1-4.817-3.614,11.016,11.016,0,0,1-2.123-3.422C-922.514,428.294-920.614,424.653-916.184,422.094Z" transform="translate(932.674 -386.203)" opacity="0.636"/>
      <path id="Path_1452" data-name="Path 1452" d="M-913.935,424.571l10-5.143c4.01-2.315,16.775-6.336,20.248-4.331l6.255,1.082c1.074-.62,8.681,2.655,10.046,2.655,1.186,0,7.4,3.226,8.252,3.717L-815.01,447.9l9.387,5.392,53.514,30.741c.653.377,4.447,2.786,4.747,3.364a7.209,7.209,0,0,1,2.25,3.186c1.08,3.2-.688,6.746-5.034,9.255l-10,5.143c-4.009,2.316-16.774,6.336-20.247,4.331l-6.256-1.082c-1.074.62-8.681-2.655-10.046-2.655-1.187,0-7.4-3.225-8.251-3.717L-849.07,476.51l-9.387-5.391-53.514-30.74c-.653-.377-4.448-2.787-4.749-3.366a7.21,7.21,0,0,1-2.248-3.184C-920.048,430.627-918.282,427.082-913.935,424.571Z" transform="translate(931.653 -387.703)" opacity="0.727"/>
      <path id="Path_1453" data-name="Path 1453" d="M-911.693,426.985l9.662-4.894c4.511-2.6,15.8-5.4,19.709-3.144l6.019,1.789c.716-.413,8.658,3.428,9.568,3.428.791,0,7.289,3.51,7.856,3.838l42.5,24.449,9.039,5.2,51.536,29.651a43.4,43.4,0,0,1,4.677,3.116,7.025,7.025,0,0,1,2.375,2.948c1.224,3.02-.414,6.47-4.677,8.931l-9.66,4.894c-4.51,2.605-15.8,5.4-19.708,3.144l-6.021-1.789c-.716.414-8.659-3.428-9.569-3.428-.791,0-7.289-3.51-7.855-3.837l-42.5-24.449-9.039-5.2-51.536-29.65a43.517,43.517,0,0,1-4.679-3.117,7.032,7.032,0,0,1-2.373-2.947C-917.593,432.9-915.956,429.447-911.693,426.985Z" transform="translate(930.64 -389.141)" opacity="0.818"/>
      <path id="Path_1454" data-name="Path 1454" d="M-909.459,429.3l9.326-4.644c5.012-2.894,14.828-4.465,19.17-1.958l5.784,2.5c.358-.207,8.635,4.2,9.091,4.2.4,0,7.177,3.795,7.46,3.958l40.865,23.55,8.691,5.009,49.557,28.56c.218.126,4.508,2.676,4.608,2.868a6.92,6.92,0,0,1,2.5,2.71c1.369,2.838-.141,6.194-4.321,8.607l-9.325,4.646c-5.011,2.894-14.827,4.464-19.168,1.958l-5.786-2.5c-.358.207-8.636-4.2-9.091-4.2-.4,0-7.177-3.794-7.46-3.958l-40.865-23.55-8.691-5.008-49.557-28.56c-.218-.125-4.509-2.676-4.609-2.869a6.932,6.932,0,0,1-2.5-2.709C-915.147,435.075-913.639,431.719-909.459,429.3Z" transform="translate(929.635 -390.483)" opacity="0.909"/>
      <path id="Path_1455" data-name="Path 1455" d="M-787.645,512.069l-60.461-34.907-60.462-34.907c-4.774-2.758-4.176-7.572,1.337-10.757l8.991-4.4c5.513-3.182,13.855-3.529,18.63-.772l60.461,34.907,60.461,34.907c4.776,2.757,4.176,7.572-1.338,10.755l-8.989,4.4C-774.528,514.481-782.869,514.826-787.645,512.069Z" transform="translate(928.636 -391.701)"/>
    </g>
    <g id="Group_1690" data-name="Group 1690" transform="translate(3406.253 -806.43)" opacity="0.15">
      <path id="Path_1456" data-name="Path 1456" d="M-911.11,460.812c.041-8.616-6.876-10.7-2.666-13.688.16-.113,9.856-4.353,10.039-4.42,4.525-1.652,9.357-2.313,15.21,1.306l109.854,67.927c12.393,7.662,22.373,27.609,22.293,44.551l-9.889,3.5C-766.311,568.991-911.11,460.812-911.11,460.812Z" transform="translate(921.65 -441.374)" fill="url(#linear-gradient)"/>
      <path id="Path_1457" data-name="Path 1457" d="M-922.76,466.892c.082-16.941,10.192-24.463,22.583-16.8l109.855,67.929c12.394,7.662,22.374,27.608,22.293,44.548Z" transform="translate(924.724 -443.679)" opacity="0.6" fill="url(#radial-gradient)" style="mix-blend-mode: screen;isolation: isolate"/>
      <path id="Path_1458" data-name="Path 1458" d="M-926.051,468.621c.08-16.941,10.191-24.463,22.582-16.8l109.855,67.929c12.393,7.662,22.372,27.608,22.293,44.55Z" transform="translate(926.051 -444.375)" fill="url(#linear-gradient-2)"/>
      <path id="Path_1459" data-name="Path 1459" d="M-920.925,473.131c.072-14.852,8.934-21.446,19.8-14.729l109.272,67.569c10.863,6.717,19.613,24.2,19.543,39.054Z" transform="translate(923.985 -447.179)" fill="url(#linear-gradient-3)"/>
      <path id="Path_1460" data-name="Path 1460" d="M-913.606,480.846c.058-12.432,7.477-17.951,16.57-12.329L-790.1,534.644c9.094,5.621,16.417,20.258,16.359,32.689Z" transform="translate(921.034 -451.429)" opacity="0.8" fill="url(#linear-gradient-4)"/>
    </g>
    <g id="Group_1692" data-name="Group 1692" transform="translate(3419.696 -1125.02)">
      <path id="Path_1461" data-name="Path 1461" d="M-771.23,295.471-869.215,234.5c-11.052-6.878-15.019-24.787-8.859-40L-769-74.94c3.132-7.738-3.82-9.61,1.936-12.294.218-.1,12.534-3.914,12.763-3.974,5.628-1.484,11.25-2.079,16.469,1.167l97.985,60.967c11.052,6.877,15.019,24.787,8.859,40.006L-740.063,280.37c-3.273,8.086-8.746,13.783-14.816,16.316-.359.15-15.29,4.971-15.658,5.055C-775.468,302.878-766.4,298.477-771.23,295.471Z" transform="translate(894.436 92.404)" fill="url(#linear-gradient-5)"/>
      <path id="Path_1462" data-name="Path 1462" d="M-546.809-27.074-644.794-88.04c-5.219-3.248,90.507,62.69,90.507,62.69,11.052,6.877,15.019,24.788,8.859,40,0,0-104.868,275.8-101.6,267.716L-537.95,12.931C-531.791-2.285-535.755-20.2-546.809-27.074Z" transform="translate(800.151 90.692)" fill="url(#radial-gradient-2)" style="mix-blend-mode: color-dodge;isolation: isolate"/>
      <path id="Path_1463" data-name="Path 1463" d="M-789.5,300.936-887.48,239.97c-11.054-6.876-15.022-24.787-8.861-40l109.075-269.44c6.159-15.216,20.113-21.978,31.166-15.1l97.986,60.967C-647.06-16.728-643.1,1.18-649.256,16.4L-758.331,285.836C-764.489,301.054-778.442,307.814-789.5,300.936Z" transform="translate(901.8 90.332)" opacity="0.6" fill="url(#radial-gradient-3)" style="mix-blend-mode: screen;isolation: isolate"/>
      <path id="Path_1464" data-name="Path 1464" d="M-793.782,302.491l-97.985-60.967c-11.052-6.879-15.018-24.789-8.859-40.005L-791.551-67.92c6.159-15.217,20.113-21.978,31.167-15.1L-662.4-22.052c11.053,6.878,15.019,24.787,8.859,40L-762.615,287.391C-768.774,302.607-782.728,309.369-793.782,302.491Z" transform="translate(903.527 89.706)" fill="url(#linear-gradient-6)"/>
      <path id="Path_1465" data-name="Path 1465" d="M-895.923,205.9-786.714-63.87c5.4-13.339,17.632-19.264,27.321-13.237l97.465,60.644c9.691,6.029,13.166,21.729,7.766,35.069L-763.37,288.377c-5.4,13.339-17.634,19.264-27.322,13.236l-97.464-60.643C-897.846,234.941-901.322,219.239-895.923,205.9Z" transform="translate(901.487 87.188)" fill="url(#linear-gradient-7)"/>
      <path id="Path_1466" data-name="Path 1466" d="M-888.649,211.459l108.654-268.4c4.521-11.167,14.76-16.127,22.87-11.081l95.387,59.35c8.11,5.047,11.021,18.189,6.5,29.355l-108.654,268.4c-4.521,11.167-14.76,16.125-22.87,11.081l-95.385-59.351C-890.258,235.767-893.169,222.624-888.649,211.459Z" transform="translate(898.388 83.372)" fill="url(#linear-gradient-8)"/>
      <path id="Path_1467" data-name="Path 1467" d="M-673.78-12.177c-2.273,5.612-7.954,7.772-12.691,4.826l-53.375-33.212c-4.739-2.945-6.737-9.886-4.464-15.5l-11.324-7.046c-7.643-4.756-16.812-1.27-20.478,7.788L-885.99,216.1c-3.666,9.057-.44,20.253,7.2,25.01l93.176,57.975c7.644,4.757,16.812,1.27,20.478-7.787L-655.255,19.878c3.666-9.056.442-20.255-7.2-25.01Z" transform="translate(897.067 81.451)" fill="url(#linear-gradient-9)"/>
      <g id="Group_1691" data-name="Group 1691" transform="translate(31.031 37.342)">
        <path id="Path_1468" data-name="Path 1468" d="M-719.4-29.839-736.668,12.6-645.1,69.1a12.15,12.15,0,0,0,17.68-5.735l7.971-19.6a12.154,12.154,0,0,0-4.83-14.893Z" transform="translate(805.229 29.839)" fill="url(#linear-gradient-10)"/>
        <path id="Path_1469" data-name="Path 1469" d="M-737.084,159.708l-5.621,13.819a15.232,15.232,0,0,0,6.078,18.679l83.674,51.918,17.262-42.441-79.257-49.177A15.23,15.23,0,0,0-737.084,159.708Z" transform="translate(808.115 -42.747)" fill="url(#linear-gradient-11)"/>
        <path id="Path_1470" data-name="Path 1470" d="M-834.275,251.164l-17.262,42.443,95.013,58.662a12.6,12.6,0,0,0,18.328-5.943l7.63-18.762a12.593,12.593,0,0,0-5-15.435Z" transform="translate(851.537 -83.445)" fill="url(#linear-gradient-12)"/>
      </g>
      <path id="Path_1471" data-name="Path 1471" d="M-521.714,175.993l7.363-18.189a12.393,12.393,0,0,1,6.241-5.955h0c2.5-.963,3.77.143,2.829,2.468l-7.363,18.189a12.381,12.381,0,0,1-6.24,5.955h0C-521.388,179.425-522.655,178.318-521.714,175.993Z" transform="translate(749.728 -5.924)" fill="url(#linear-gradient-13)"/>
      <path id="Path_1472" data-name="Path 1472" d="M-519.677,178.586c-1.082-.023-1.012-1.154-.623-2.115l7.363-18.188a11.342,11.342,0,0,1,5.588-5.374,3.388,3.388,0,0,1,1.213-.263c1.083.023,1.014,1.154.625,2.115l-7.364,18.189a11.335,11.335,0,0,1-5.59,5.373A3.375,3.375,0,0,1-519.677,178.586Z" transform="translate(749.138 -6.386)" fill="url(#linear-gradient-14)"/>
      <path id="Path_1473" data-name="Path 1473" d="M-519.369,176.96l7.363-18.189a11.326,11.326,0,0,1,5.591-5.372,3.532,3.532,0,0,1,1.081-.249.791.791,0,0,0-.8-.506,3.421,3.421,0,0,0-1.213.264,11.335,11.335,0,0,0-5.588,5.374l-7.363,18.188c-.389.961-.459,2.092.623,2.115a1.228,1.228,0,0,0,.131-.014A2.38,2.38,0,0,1-519.369,176.96Z" transform="translate(749.138 -6.385)" fill="url(#radial-gradient-4)" style="mix-blend-mode: color-dodge;isolation: isolate"/>
      <path id="Path_1474" data-name="Path 1474" d="M-662.457-5.132l-11.323-7.046c-2.273,5.613-7.954,7.773-12.691,4.827l-53.378-33.212c-4.735-2.948-6.734-9.886-4.461-15.5l-11.324-7.046c-7.643-4.756-16.812-1.27-20.478,7.787L-885.99,216.1c-3.666,9.057-.44,20.253,7.2,25.01l93.178,57.975c7.644,4.757,16.812,1.27,20.478-7.787L-655.255,19.878C-651.59,10.822-654.814-.377-662.457-5.132Zm-104.169,296.4a14.943,14.943,0,0,1-5,6.632,10.835,10.835,0,0,1-6.559,2.066h0a12.372,12.372,0,0,1-6.235-1.942L-877.6,240.052c-7.3-4.543-10.392-15.271-6.89-23.918L-774.619-55.29c2.214-5.469,6.646-8.8,11.564-8.7a12.365,12.365,0,0,1,6.237,1.943l10.74,6.681c-2.027,5.942.1,12.785,5.046,15.863L-687.654-6.29a9.67,9.67,0,0,0,4.966,1.5,10.846,10.846,0,0,0,9.356-5.309l9.691,6.029c7.3,4.543,10.392,15.272,6.892,23.92Z" transform="translate(897.067 81.451)" fill="#bcbec0" style="mix-blend-mode: multiply;isolation: isolate"/>
      <path id="Path_1475" data-name="Path 1475" d="M-709.865,479.284l.542-1.337-1.28-.8,1.491-3.684a1.685,1.685,0,0,0,1.689-1.148,2.45,2.45,0,0,0-.842-2.923,1.616,1.616,0,0,0-2.39.91,2.554,2.554,0,0,0,.263,2.366l-1.49,3.683-1.279-.8-.54,1.336c-4.726-1.625-9.783.875-11.971,6.28-2.5,6.184-.3,13.829,4.916,17.076s11.481.868,13.983-5.316A14.7,14.7,0,0,0-709.865,479.284Zm.344,15.632a2.032,2.032,0,0,1-2.585,1.314,33.842,33.842,0,0,1-11.115-6.893,3.308,3.308,0,0,1-.744-3.572l1.032-2.545a1.431,1.431,0,0,1,2.369-.619,33.889,33.889,0,0,0,11.108,6.912,2.112,2.112,0,0,1,1.018,2.725Zm-2.943-4.562a1.145,1.145,0,0,0-1.7.645,1.738,1.738,0,0,0,.6,2.072,1.145,1.145,0,0,0,1.7-.646A1.735,1.735,0,0,0-712.463,490.354Zm-6.846-4.261a1.146,1.146,0,0,0-1.7.646,1.74,1.74,0,0,0,.595,2.072,1.149,1.149,0,0,0,1.7-.646A1.739,1.739,0,0,0-719.309,486.093Z" transform="translate(832.243 -133.981)" fill="url(#linear-gradient-15)"/>
    </g>
    <g id="Group_1694" data-name="Group 1694" transform="translate(3302.323 -998.712)">
      <path id="Path_1476" data-name="Path 1476" d="M-911.051,208.459l-154.262-89.242-25.057,14.673a19.8,19.8,0,0,0-9.691,17.026v27.535a30.582,30.582,0,0,0,15.28,26.48l134.439,77.624a10.05,10.05,0,0,0,10.134-.046l29.157-16.956Z" transform="translate(1100.132 -119.217)" fill="none" style="mix-blend-mode: screen;isolation: isolate"/>
      <path id="Path_1477" data-name="Path 1477" d="M-941.8,287.835l-135.82-78.245c-7.409-4.278-13.416-15.751-13.416-25.631V153.814c0-5.011-4.894-5.111-2.4-6.92.2-.147,6.857-3.822,7.072-3.945,2.348-1.339,5.405-1.2,8.748.726l135.82,78.244c7.408,4.277,13.413,15.751,13.413,25.629v30.144c0,5.4-1.8,9.208-4.636,10.848-.093.053-6.853,3.9-6.948,3.945C-942.285,293.68-938.576,289.7-941.8,287.835Z" transform="translate(1097.748 -128.428)" fill="url(#linear-gradient-16)"/>
      <path id="Path_1478" data-name="Path 1478" d="M-950.945,294.22l-135.82-78.243c-7.409-4.277-13.415-15.752-13.415-25.628V160.2c0-9.878,6.006-14.418,13.415-10.14l135.82,78.243c7.406,4.277,13.414,15.752,13.414,25.629V284.08C-937.531,293.959-943.539,298.5-950.945,294.22Z" transform="translate(1100.18 -131.003)" fill="url(#linear-gradient-17)"/>
      <path id="Path_1479" data-name="Path 1479" d="M-944.834,226.016l-135.822-78.243c-3.767-2.176-7.165-2.062-9.6-.136a9.858,9.858,0,0,1,6.521,1.5l135.822,78.243c7.408,4.277,13.414,15.752,13.414,25.631v30.143c0,4.857-1.457,8.415-3.813,10.276,4.108-.685,6.893-4.925,6.893-11.645V251.647C-931.42,241.767-937.428,230.293-944.834,226.016Z" transform="translate(1096.18 -130.081)" fill="url(#radial-gradient-5)" style="mix-blend-mode: color-dodge;isolation: isolate"/>
      <g id="Group_1693" data-name="Group 1693" transform="translate(17.052 41.074)">
        <path id="Path_1480" data-name="Path 1480" d="M-1001.281,222.6v3.243l86.489,49.491v-3.243Z" transform="translate(1043.258 -201.967)" fill="#fff"/>
        <path id="Path_1481" data-name="Path 1481" d="M-966.7,287.4l-34.584-19.63v3.244l34.584,19.631Z" transform="translate(1043.258 -220.178)" fill="#fff"/>
        <path id="Path_1482" data-name="Path 1482" d="M-947.623,275.826l-53.658-30.645v3.244l53.658,30.644Z" transform="translate(1043.258 -211.072)" fill="#fff"/>
        <path id="Path_1483" data-name="Path 1483" d="M-979.443,268.747l-21.839-12.273v3.246l21.839,12.272Z" transform="translate(1043.258 -215.624)" fill="#fff"/>
        <path id="Path_1484" data-name="Path 1484" d="M-959.34,280.124v3.244l44.169,25.393v-3.243Z" transform="translate(1026.349 -225.159)" fill="#fff"/>
        <path id="Path_1485" data-name="Path 1485" d="M-937.986,303.747v3.244L-913.21,321.3v-3.244Z" transform="translate(1017.741 -234.682)" fill="#fff"/>
        <path id="Path_1486" data-name="Path 1486" d="M-906.029,302.855l29.637,17v-3.243l-29.637-17Z" transform="translate(1004.857 -233.015)" fill="#fff"/>
        <path id="Path_1487" data-name="Path 1487" d="M-879.99,329l14.1,8.137V333.9l-14.1-8.137Z" transform="translate(994.36 -243.558)" fill="#fff"/>
        <path id="Path_1488" data-name="Path 1488" d="M-1001.281,237.132l86.489,49.49v-3.243l-86.489-49.491Z" transform="translate(1043.258 -206.519)" fill="#fff"/>
        <path id="Path_1489" data-name="Path 1489" d="M-891.124,334.049l20.741,11.866v-3.243L-891.124,330.8Z" transform="translate(998.849 -245.59)" fill="#fff"/>
        <path id="Path_1490" data-name="Path 1490" d="M-1001.281,282.3l86.489,49.492v-3.244l-86.489-49.491Z" transform="translate(1043.258 -224.73)" fill="#fff"/>
        <path id="Path_1491" data-name="Path 1491" d="M-1045.041,223.775a26.861,26.861,0,0,1-5.539-6.632c-.915-1.534-.884-3.2.008-3.714a7.1,7.1,0,0,0,2.826-3.154c.971.269,2.176-.09,2.176-1.421a5.247,5.247,0,0,0-1.4-3.583c-.237-5.811-2.221-11.783-8.9-15.642s-8.671-.18-8.907,5.357c-.8-.179-1.4.606-1.4,1.964a6.427,6.427,0,0,0,2.173,3.932,31.515,31.515,0,0,0,2.828,6.417c.891,1.549.924,3.249.007,3.724a7.3,7.3,0,0,1-5.54.236c-2.805-.849-4.89.845-4.89,4.3v5.991a4.04,4.04,0,0,0,1.833,3.163l27.794,16.047c1.012.584,1.832.116,1.832-1.045v-5.992A14.267,14.267,0,0,0-1045.041,223.775Z" transform="translate(1071.61 -188.033)" fill="#fff"/>
      </g>
      <path id="Path_1492" data-name="Path 1492" d="M-830.013,284.724c2.549,6.2,1.757,12.409-1.769,13.859s-8.453-2.406-11-8.61-1.757-12.41,1.769-13.86S-832.562,278.519-830.013,284.724Z" transform="translate(997.016 -182.345)" fill="url(#radial-gradient-6)" style="mix-blend-mode: color-dodge;isolation: isolate"/>
    </g>
    <g id="Group_1696" data-name="Group 1696" transform="translate(3424.927 -1138.309)">
      <path id="Path_1493" data-name="Path 1493" d="M-709.969-25.951-863.09-114.67l-21.864,13.3a19.8,19.8,0,0,0-9.692,17.027v27.534a30.587,30.587,0,0,0,15.279,26.481l133.3,77.1a10.048,10.048,0,0,0,10.132-.045l25.965-15.587Z" transform="translate(894.716 114.67)" fill="none" style="mix-blend-mode: screen;isolation: isolate"/>
      <path id="Path_1494" data-name="Path 1494" d="M-737.528,51.132-872.207-26.591c-7.409-4.276-13.415-15.752-13.415-25.629V-82.366c0-5.013-4.9-5.112-2.4-6.92.2-.147,6.856-3.823,7.072-3.946,2.349-1.338,5.4-1.2,8.746.728l134.679,77.722c7.409,4.276,13.415,15.752,13.415,25.629V40.992c0,5.4-1.8,9.207-4.636,10.847-.091.054-6.853,3.9-6.946,3.946C-738.011,56.977-734.3,53-737.528,51.132Z" transform="translate(892.332 106.384)" fill="url(#linear-gradient-18)"/>
      <path id="Path_1495" data-name="Path 1495" d="M-746.67,57.519-881.35-20.2c-7.408-4.276-13.413-15.752-13.413-25.629V-75.978c0-9.879,6.005-14.418,13.413-10.142L-746.67-8.4c7.409,4.277,13.414,15.752,13.414,25.63V47.379C-733.256,57.256-739.261,61.8-746.67,57.519Z" transform="translate(894.763 103.809)" fill="url(#linear-gradient-19)"/>
      <path id="Path_1496" data-name="Path 1496" d="M-740.56-10.686-875.239-88.408c-3.766-2.176-7.165-2.062-9.6-.135a9.864,9.864,0,0,1,6.522,1.5L-743.639-9.318c7.408,4.277,13.413,15.752,13.413,25.63V46.458c0,4.855-1.457,8.413-3.812,10.274,4.109-.685,6.892-4.926,6.892-11.644V14.943C-727.146,5.066-733.151-6.41-740.56-10.686Z" transform="translate(890.763 104.73)" fill="url(#radial-gradient-7)" style="mix-blend-mode: color-dodge;isolation: isolate"/>
      <g id="Group_1695" data-name="Group 1695" transform="translate(17.052 39.704)">
        <path id="Path_1497" data-name="Path 1497" d="M-795.865-13.585v3.243l85.348,48.97V35.383Z" transform="translate(837.841 34.214)" fill="#fff"/>
        <path id="Path_1498" data-name="Path 1498" d="M-761.282,51.217l-34.583-19.631v3.246l34.583,19.63Z" transform="translate(837.841 16.004)" fill="#fff"/>
        <path id="Path_1499" data-name="Path 1499" d="M-742.207,39.644-795.865,9v3.244l53.658,30.644Z" transform="translate(837.841 25.109)" fill="#fff"/>
        <path id="Path_1500" data-name="Path 1500" d="M-774.027,32.567-795.865,20.3v3.243l21.837,12.272Z" transform="translate(837.841 20.556)" fill="#fff"/>
        <path id="Path_1501" data-name="Path 1501" d="M-753.926,43.944v3.244L-710.9,72.061V68.817Z" transform="translate(820.933 11.022)" fill="#fff"/>
        <path id="Path_1502" data-name="Path 1502" d="M-732.572,67.567v3.244l24.776,14.3V81.872Z" transform="translate(812.325 1.499)" fill="#fff"/>
        <path id="Path_1503" data-name="Path 1503" d="M-700.613,66.675l28.5,16.481V79.915l-28.5-16.483Z" transform="translate(799.441 3.165)" fill="#fff"/>
        <path id="Path_1504" data-name="Path 1504" d="M-676.482,91.951l14.094,8.137V96.844l-14.094-8.138Z" transform="translate(789.713 -7.023)" fill="#fff"/>
        <path id="Path_1505" data-name="Path 1505" d="M-795.865.951l85.348,48.968V46.676L-795.865-2.295Z" transform="translate(837.841 29.663)" fill="#fff"/>
        <path id="Path_1506" data-name="Path 1506" d="M-685.71,97.867l19.6,11.347V105.97l-19.6-11.345Z" transform="translate(793.433 -9.41)" fill="#fff"/>
        <path id="Path_1507" data-name="Path 1507" d="M-795.865,46.125l85.348,48.969V91.851L-795.865,42.88Z" transform="translate(837.841 11.451)" fill="#fff"/>
        <path id="Path_1508" data-name="Path 1508" d="M-839.626-12.407a26.92,26.92,0,0,1-5.539-6.632c-.915-1.533-.884-3.2.008-3.715a7.081,7.081,0,0,0,2.827-3.154c.971.269,2.175-.087,2.175-1.419a5.263,5.263,0,0,0-1.4-3.584c-.239-5.812-2.223-11.783-8.907-15.644s-8.671-.179-8.906,5.357c-.8-.176-1.4.608-1.4,1.966A6.425,6.425,0,0,0-858.6-35.3a31.7,31.7,0,0,0,2.827,6.419c.892,1.547.923,3.247.008,3.723a7.306,7.306,0,0,1-5.539.238c-2.807-.849-4.891.843-4.891,4.3v5.991a4.044,4.044,0,0,0,1.831,3.163l27.8,16.045c1.012.584,1.833.117,1.833-1.044V-2.457A14.268,14.268,0,0,0-839.626-12.407Z" transform="translate(866.193 48.148)" fill="#fff"/>
      </g>
      <path id="Path_1509" data-name="Path 1509" d="M-626.507,47.669c2.549,6.2,1.758,12.409-1.77,13.859s-8.452-2.407-11-8.612-1.759-12.408,1.767-13.859S-629.058,41.465-626.507,47.669Z" transform="translate(792.37 52.819)" fill="url(#radial-gradient-8)" style="mix-blend-mode: color-dodge;isolation: isolate"/>
    </g>
    <g id="Group_1702" data-name="Group 1702" transform="translate(3286.675 -1117.812)">
      <path id="Path_1569" data-name="Path 1569" d="M-943.023,8.938-1097.14-80.328l-19.563,11.6a19.8,19.8,0,0,0-9.694,17.026v27.535a30.589,30.589,0,0,0,15.279,26.48l134.3,77.647c3.136,1.814,33.812,37.733,36.934,35.891l23.664-13.878Z" transform="translate(1126.396 80.328)" fill="none" style="mix-blend-mode: screen;isolation: isolate"/>
      <path id="Path_1570" data-name="Path 1570" d="M-933.619,120.722-956.353,69.19V40.677c0-8.5-6.006-18.86-13.415-23.137l-134.665-77.9c-3.7-2.14-7.058-2.352-9.486-.969-.217.124-6.708,3.763-6.909,3.914-2.056,1.518,2.98.832,2.98,4.7v35.131c0,8.5,6.005,18.859,13.415,23.137L-973.94,81.046l33.9,43.368Z" transform="translate(1124.35 73.023)" fill="url(#linear-gradient-20)"/>
      <path id="Path_1571" data-name="Path 1571" d="M-942.036,126.907l-22.732-51.533V46.86c0-8.5-6.007-18.861-13.414-23.137l-134.665-77.9c-7.409-4.278-13.414-.854-13.414,7.646V-11.4c0,8.5,6,18.861,13.414,23.137l130.493,75.5Z" transform="translate(1126.342 70.53)" fill="url(#linear-gradient-21)"/>
      <path id="Path_1572" data-name="Path 1572" d="M-1110.379-53.727l134.665,77.906c7.408,4.278,13.414,14.636,13.414,23.135V75.829l19.388,43.951,6.083,5.985-22.733-51.533V45.719c0-8.5-6.007-18.861-13.414-23.136L-1107.64-55.323c-4.435-2.561-8.356-2.344-10.8.053C-1116.193-55.918-1113.408-55.476-1110.379-53.727Z" transform="translate(1123.188 70.987)" fill="url(#radial-gradient-9)" style="mix-blend-mode: color-dodge;isolation: isolate"/>
      <path id="Path_1573" data-name="Path 1573" d="M-1087.309-12.213V-14.4l-2.162-1.247v-6.028c.969.08,1.65-.633,1.65-1.924a6.016,6.016,0,0,0-2.731-4.713c-1.506-.872-2.732-.174-2.732,1.558a6.047,6.047,0,0,0,1.651,3.831V-16.9l-2.162-1.249v2.187c-7.265-2.476-12.728,1.753-12.728,10.6,0,10.123,7.149,22.455,15.97,27.549s15.972,1.015,15.972-9.107C-1074.581,4.237-1080.044-6.3-1087.309-12.213Zm6.235,27.578a69.149,69.149,0,0,1-18.772-10.808,8.038,8.038,0,0,1-2.954-5.77V-5.38c0-1.739,1.373-2.259,2.863-1.084a69.4,69.4,0,0,0,18.771,10.837,5.175,5.175,0,0,1,2.863,4.39v4.381C-1078.3,15.017-1079.468,15.95-1081.074,15.365Zm-15.263-16.2c-1.07-.619-1.937-.124-1.937,1.1a4.271,4.271,0,0,0,1.938,3.341c1.071.62,1.939.125,1.939-1.1A4.268,4.268,0,0,0-1096.337-.839Zm11.57,6.679c-1.07-.618-1.939-.123-1.939,1.105a4.273,4.273,0,0,0,1.939,3.341c1.07.617,1.937.123,1.937-1.1A4.273,4.273,0,0,0-1084.767,5.84Z" transform="translate(1118.384 59.51)" fill="#fff"/>
      <path id="Path_1574" data-name="Path 1574" d="M-1035.248,11.99v3.244l88.964,50.935V62.924Z" transform="translate(1089.651 43.111)" fill="#fff"/>
      <path id="Path_1575" data-name="Path 1575" d="M-998.042,78.213l-37.207-21.05v3.246l37.207,21.048Z" transform="translate(1089.651 24.9)" fill="#fff"/>
      <path id="Path_1576" data-name="Path 1576" d="M-978.966,66.641l-56.282-32.063v3.244l56.282,32.062Z" transform="translate(1089.651 34.005)" fill="#fff"/>
      <path id="Path_1577" data-name="Path 1577" d="M-1010.787,59.562l-24.461-13.692v3.244l24.461,13.69Z" transform="translate(1089.651 29.452)" fill="#fff"/>
      <path id="Path_1578" data-name="Path 1578" d="M-988.916,71.9v3.244l44.024,25.419V97.317Z" transform="translate(1070.972 18.96)" fill="#fff"/>
      <path id="Path_1579" data-name="Path 1579" d="M-967.559,95.52v3.243l24.777,14.307v-3.244Z" transform="translate(1062.362 9.436)" fill="#fff"/>
      <path id="Path_1580" data-name="Path 1580" d="M-935.6,94.63l29.49,17.028v-3.244L-935.6,91.386Z" transform="translate(1049.479 11.103)" fill="#fff"/>
      <path id="Path_1581" data-name="Path 1581" d="M-909.8,120.82l14.092,8.136v-3.244l-14.092-8.137Z" transform="translate(1039.079 0.546)" fill="#fff"/>
      <path id="Path_1582" data-name="Path 1582" d="M-1035.248,26.528l88.964,50.934V74.218l-88.964-50.935Z" transform="translate(1089.651 38.558)" fill="#fff"/>
      <path id="Path_1583" data-name="Path 1583" d="M-920.7,125.821l20.6,11.89v-3.243l-20.6-11.893Z" transform="translate(1043.471 -1.471)" fill="#fff"/>
      <path id="Path_1584" data-name="Path 1584" d="M-1035.248,71.7l88.964,50.933v-3.243l-88.964-50.934Z" transform="translate(1089.651 20.346)" fill="#fff"/>
      <path id="Path_1585" data-name="Path 1585" d="M-856.209,84.65c2.549,6.2,1.757,12.41-1.768,13.859s-8.453-2.4-11-8.609-1.758-12.412,1.767-13.86S-858.758,78.447-856.209,84.65Z" transform="translate(1023.223 17.412)" fill="none" style="mix-blend-mode: color-dodge;isolation: isolate"/>
    </g>
    <path id="Path_1586" data-name="Path 1586" d="M-674.866,544.62c-6.463,15.478-22.437,23.542-35.681,18.013s-18.742-22.558-12.281-38.035,22.435-23.539,35.68-18.012S-668.4,529.142-674.866,544.62Z" transform="translate(4251.468 -1273.391)" fill="none" style="mix-blend-mode: color-dodge;isolation: isolate"/>
    <path id="Path_1587" data-name="Path 1587" d="M-676.716-100.388c7,17.027,1.89,35.259-11.407,40.724S-717.871-63.572-724.87-80.6s-1.891-35.262,11.408-40.727S-683.711-117.414-676.716-100.388Z" transform="translate(4252.463 -1020.329)" fill="none" style="mix-blend-mode: color-dodge;isolation: isolate"/>
  </g>
</svg>
