<svg id="chronometer" xmlns="http://www.w3.org/2000/svg" width="43.977" height="51.195" viewBox="0 0 43.977 51.195">
  <path id="Path_1152" data-name="Path 1152" d="M47.982,16.083l2.178-3.789a.753.753,0,0,0-.278-1.029L46.8,9.5a.753.753,0,0,0-1.029.278L43.6,13.56a21.811,21.811,0,0,0-6.156-1.642v-2.3h1.528a.753.753,0,0,0,.753-.753V5.31a.753.753,0,0,0-.753-.753H30.857a.753.753,0,0,0-.753.753V8.861a.753.753,0,0,0,.753.753h1.528v2.3a21.811,21.811,0,0,0-6.156,1.642L24.054,9.773a.753.753,0,0,0-1.029-.278l-3.08,1.769a.753.753,0,0,0-.278,1.029l2.178,3.791a21.987,21.987,0,1,0,26.135,0Zm-1.276-4.908L48.478,12.2l-1.743,3.033q-.861-.55-1.771-1.021ZM31.61,6.064h6.608V8.108H31.61Zm2.282,3.551h2.044v2.177c-.339-.016-.678-.027-1.022-.027s-.683.01-1.022.026ZM21.351,12.2l1.772-1.018,1.741,3.03q-.911.47-1.771,1.021ZM34.914,54.233a20.48,20.48,0,1,1,20.48-20.48,20.48,20.48,0,0,1-20.48,20.48Z" transform="translate(-12.926 -4.557)" fill="#173069"/>
  <path id="Path_1153" data-name="Path 1153" d="M56.226,58.262a17.014,17.014,0,0,0-.046-17.034.7.7,0,0,0-.034-.075q-.02-.03-.043-.058a17.2,17.2,0,0,0-6.073-6.041.655.655,0,0,0-.065-.047.692.692,0,0,0-.075-.034,17.012,17.012,0,0,0-17.034.046.768.768,0,0,0-.077.035.692.692,0,0,0-.057.043A17.2,17.2,0,0,0,26.68,41.17a.407.407,0,0,0-.08.139,17.013,17.013,0,0,0,.047,17.034.743.743,0,0,0,.034.076c.009.016.024.028.034.043a17.2,17.2,0,0,0,6.08,6.055.733.733,0,0,0,.066.048c.019.011.04.015.059.025a17.017,17.017,0,0,0,17.07-.049c.019-.009.038-.013.056-.024a.639.639,0,0,0,.057-.043,17.2,17.2,0,0,0,6.052-6.089c.012-.017.026-.029.037-.047a.622.622,0,0,0,.034-.075Zm-6.3,4.551-.968-1.65a.754.754,0,1,0-1.3.762l.97,1.654a15.456,15.456,0,0,1-6.458,1.757V63.414a.753.753,0,0,0-1.507,0v1.922a15.452,15.452,0,0,1-6.378-1.72l.96-1.659a.753.753,0,1,0-1.3-.755l-.959,1.657a15.69,15.69,0,0,1-4.592-4.567l1.652-.968a.753.753,0,1,0-.762-1.3L27.621,57a15.456,15.456,0,0,1-1.758-6.458h1.922a.753.753,0,0,0,0-1.507H25.864a15.456,15.456,0,0,1,1.718-6.379l1.659.96a.753.753,0,1,0,.754-1.3l-1.657-.959A15.688,15.688,0,0,1,32.9,36.757l.968,1.652a.753.753,0,1,0,1.3-.762l-.97-1.654a15.448,15.448,0,0,1,6.458-1.757v1.922a.753.753,0,0,0,1.507,0V34.236a15.456,15.456,0,0,1,6.379,1.718l-.962,1.66a.753.753,0,1,0,1.3.755l.959-1.659a15.69,15.69,0,0,1,4.592,4.568l-1.652.968a.753.753,0,1,0,.762,1.3l1.654-.97a15.463,15.463,0,0,1,1.757,6.458H55.04a.753.753,0,0,0,0,1.507h1.922a15.456,15.456,0,0,1-1.718,6.378l-1.659-.96a.754.754,0,1,0-.755,1.3l1.657.959A15.687,15.687,0,0,1,49.921,62.813Z" transform="translate(-19.425 -20.59)" fill="#173069"/>
  <path id="Path_1154" data-name="Path 1154" d="M70.81,57.342a.753.753,0,0,0-.753-.753H62.8a3.45,3.45,0,0,0-2.6-2.6V46.732a.753.753,0,0,0-1.507,0v7.254A3.44,3.44,0,1,0,62.8,58.1h7.254A.754.754,0,0,0,70.81,57.342ZM59.447,59.276a1.935,1.935,0,1,1,1.934-1.934A1.935,1.935,0,0,1,59.447,59.276Z" transform="translate(-37.459 -28.146)" fill="#173069"/>
</svg>
