<svg xmlns="http://www.w3.org/2000/svg" width="36.611" height="26.386" viewBox="0 0 36.611 26.386">
  <g id="Group_1658" data-name="Group 1658" transform="translate(0)">
    <g id="code_1_" data-name="code (1)" transform="translate(0 0)">
      <g id="Group_1504" data-name="Group 1504" transform="translate(0 0)">
        <path id="Path_1160" data-name="Path 1160" d="M33.93,71.5H32.052a.536.536,0,1,0,0,1.073H33.93a1.611,1.611,0,0,1,1.609,1.609v2.467H1.073V74.182a1.611,1.611,0,0,1,1.609-1.609H29.7a.536.536,0,1,0,0-1.073H2.681A2.684,2.684,0,0,0,0,74.182v5.912a.536.536,0,0,0,1.073,0V77.721H35.539V91.548a.536.536,0,0,0,1.073,0V74.182A2.684,2.684,0,0,0,33.93,71.5Z" transform="translate(0 -71.5)" fill="#173069"/>
        <path id="Path_1161" data-name="Path 1161" d="M36.075,227.781a.536.536,0,0,0-.536.536v1.395a1.611,1.611,0,0,1-1.609,1.609H2.681a1.611,1.611,0,0,1-1.609-1.609V216.9A.536.536,0,1,0,0,216.9v12.809a2.684,2.684,0,0,0,2.681,2.682H33.93a2.684,2.684,0,0,0,2.681-2.682v-1.395A.536.536,0,0,0,36.075,227.781Z" transform="translate(0 -206.008)" fill="#173069"/>
        <path id="Path_1162" data-name="Path 1162" d="M54.747,232.418a.536.536,0,0,0-.758,0l-3.223,3.223a.536.536,0,0,0,0,.759l3.18,3.18a.536.536,0,0,0,.758-.758l-2.8-2.8,2.844-2.844A.536.536,0,0,0,54.747,232.418Z" transform="translate(-46.99 -220.766)" fill="#173069"/>
        <path id="Path_1163" data-name="Path 1163" d="M206.751,239.579a.536.536,0,0,0,.758,0l3.18-3.18a.537.537,0,0,0,0-.759l-3.223-3.223a.536.536,0,0,0-.758.758l2.844,2.844-2.8,2.8A.536.536,0,0,0,206.751,239.579Z" transform="translate(-191.781 -220.765)" fill="#173069"/>
        <path id="Path_1164" data-name="Path 1164" d="M125.026,217.943a.536.536,0,0,0,.5-.346l3.811-10.039a.536.536,0,1,0-1-.381l-3.811,10.04a.537.537,0,0,0,.5.727Z" transform="translate(-115.588 -197.153)" fill="#173069"/>
        <path id="Path_1165" data-name="Path 1165" d="M33.006,94.48a1.609,1.609,0,1,0,1.609-1.609A1.611,1.611,0,0,0,33.006,94.48Zm2.145,0a.536.536,0,1,1-.536-.536A.537.537,0,0,1,35.151,94.48Z" transform="translate(-30.646 -91.343)" fill="#173069"/>
        <path id="Path_1166" data-name="Path 1166" d="M91.166,94.48a1.609,1.609,0,1,0,1.609-1.609A1.611,1.611,0,0,0,91.166,94.48Zm2.145,0a.536.536,0,1,1-.536-.536A.537.537,0,0,1,93.311,94.48Z" transform="translate(-84.647 -91.343)" fill="#173069"/>
        <path id="Path_1167" data-name="Path 1167" d="M149.325,94.48a1.609,1.609,0,1,0,1.609-1.609A1.611,1.611,0,0,0,149.325,94.48Zm2.145,0a.536.536,0,1,1-.536-.536A.537.537,0,0,1,151.47,94.48Z" transform="translate(-138.647 -91.343)" fill="#173069"/>
        <path id="Path_1168" data-name="Path 1168" d="M314.609,200.586h3.361a1.609,1.609,0,1,0,0-3.218h-3.361a1.609,1.609,0,1,0,0,3.218Zm0-2.145h3.361a.536.536,0,1,1,0,1.073h-3.361a.536.536,0,1,1,0-1.073Z" transform="translate(-290.619 -188.368)" fill="#173069"/>
        <path id="Path_1169" data-name="Path 1169" d="M314.609,260.586h8.867a1.609,1.609,0,0,0,0-3.218h-8.867a1.609,1.609,0,1,0,0,3.218Zm0-2.145h8.867a.536.536,0,0,1,0,1.073h-8.867a.536.536,0,1,1,0-1.073Z" transform="translate(-290.619 -244.077)" fill="#173069"/>
        <path id="Path_1170" data-name="Path 1170" d="M314.609,320.586h6.233a1.609,1.609,0,0,0,0-3.218h-6.233a1.609,1.609,0,1,0,0,3.218Zm0-2.145h6.233a.536.536,0,0,1,0,1.073h-6.233a.536.536,0,1,1,0-1.073Z" transform="translate(-290.619 -299.787)" fill="#173069"/>
      </g>
    </g>
  </g>
</svg>
