<svg xmlns="http://www.w3.org/2000/svg" width="42.857" height="40.151" viewBox="0 0 42.857 40.151">
  <g id="Group_1757" data-name="Group 1757" transform="translate(-196 -1376.422)">
    <circle id="Ellipse_1" data-name="Ellipse 1" cx="0.846" cy="0.846" r="0.846" transform="translate(199.249 1378.741)" fill="#173069"/>
    <circle id="Ellipse_2" data-name="Ellipse 2" cx="0.846" cy="0.846" r="0.846" transform="translate(202.716 1378.741)" fill="#173069"/>
    <circle id="Ellipse_3" data-name="Ellipse 3" cx="0.846" cy="0.846" r="0.846" transform="translate(206.183 1378.741)" fill="#173069"/>
    <path id="Path_5" data-name="Path 5" d="M40.555,16.163H2.3a2.3,2.3,0,0,0-2.3,2.3V32.1a.628.628,0,0,0,1.256,0v-9.6H41.6v2.914a.628.628,0,0,0,1.256,0V18.465a2.3,2.3,0,0,0-2.3-2.3Zm-39.3,5.073V18.465A1.047,1.047,0,0,1,2.3,17.418H40.555A1.047,1.047,0,0,1,41.6,18.465v2.771Z" transform="translate(196 1360.26)" fill="#173069"/>
    <path id="Path_6" data-name="Path 6" d="M42.229,154a.628.628,0,0,0-.628.628v17.4a1.047,1.047,0,0,1-1.046,1.046H2.3a1.047,1.047,0,0,1-1.046-1.046V161.331a.628.628,0,1,0-1.256,0v10.694a2.3,2.3,0,0,0,2.3,2.3H40.555a2.3,2.3,0,0,0,2.3-2.3v-17.4A.628.628,0,0,0,42.229,154Z" transform="translate(196 1233.96)" fill="#173069"/>
    <path id="Path_7" data-name="Path 7" d="M223.748,137.628h4.228a.628.628,0,0,0,0-1.256h-4.228a.628.628,0,0,0,0,1.256Z" transform="translate(-8.443 1250.113)" fill="#173069"/>
    <path id="Path_8" data-name="Path 8" d="M228.6,167.3a.628.628,0,0,0-.628-.628h-4.228a.628.628,0,0,0,0,1.256h4.228A.628.628,0,0,0,228.6,167.3Z" transform="translate(-8.443 1222.344)" fill="#173069"/>
    <path id="Path_9" data-name="Path 9" d="M80.077,422.248H68.559a.628.628,0,0,0,0,1.256H73.7v1.2H50.144a.628.628,0,1,0,0,1.256H73.7v1.2H49.271l-2.2-1.824,2.2-1.824H65.645a.628.628,0,0,0,0-1.256h-16.6a.628.628,0,0,0-.4.144l-2.959,2.452a.628.628,0,0,0,0,.967l2.959,2.452a.628.628,0,0,0,.4.144H80.077a.628.628,0,0,0,.628-.628v-4.9A.628.628,0,0,0,80.077,422.248Zm-.628,4.9H74.955V423.5h4.494Z" transform="translate(154.348 988.166)" fill="#173069"/>
    <path id="Path_10" data-name="Path 10" d="M49.3,120.842a.628.628,0,0,0-.628.628v2.5h-3.6a.628.628,0,0,0-.628.628v6.764a.628.628,0,0,0,.628.628H53.53a.628.628,0,0,0,.628-.628V124.6a.628.628,0,0,0-.628-.628h-3.6V122.1h11.6v1.873h-3.6a.628.628,0,0,0-.628.628v6.764a.628.628,0,0,0,.628.628h8.456a.628.628,0,0,0,.628-.628V124.6a.628.628,0,0,0-.628-.628h-3.6V122.1h11.6v1.873h-3.6a.628.628,0,0,0-.628.628v6.764a.628.628,0,0,0,.628.628h8.455a.628.628,0,0,0,.628-.628V124.6a.628.628,0,0,0-.628-.628h-3.6v-2.5a.628.628,0,0,0-.628-.628H62.783v-1.7h3.6a.628.628,0,0,0,.628-.628v-6.764a.628.628,0,0,0-.628-.628H57.927a.628.628,0,0,0-.628.628v6.764a.628.628,0,0,0,.628.628h3.6v1.7Zm3.6,9.893H45.7v-5.509h7.2Zm12.852,0h-7.2v-5.509h7.2Zm12.852,0h-7.2v-5.509h7.2ZM58.555,112.374h7.2v5.509h-7.2Z" transform="translate(155.273 1273.253)" fill="#173069"/>
    <path id="Path_11" data-name="Path 11" d="M376.791,290.545a.628.628,0,0,0,.628.628h4.228a.628.628,0,1,0,0-1.256h-4.228A.628.628,0,0,0,376.791,290.545Z" transform="translate(-149.252 1109.42)" fill="#173069"/>
    <path id="Path_12" data-name="Path 12" d="M381.647,320.222h-4.228a.628.628,0,0,0,0,1.256h4.228a.628.628,0,1,0,0-1.256Z" transform="translate(-149.252 1081.652)" fill="#173069"/>
    <path id="Path_13" data-name="Path 13" d="M223.246,290.545a.628.628,0,0,0,.628.628H228.1a.628.628,0,1,0,0-1.256h-4.228A.628.628,0,0,0,223.246,290.545Z" transform="translate(-8.56 1109.42)" fill="#173069"/>
    <path id="Path_14" data-name="Path 14" d="M228.1,320.222h-4.228a.628.628,0,1,0,0,1.256H228.1a.628.628,0,1,0,0-1.256Z" transform="translate(-8.56 1081.652)" fill="#173069"/>
    <path id="Path_15" data-name="Path 15" d="M69.7,290.545a.628.628,0,0,0,.628.628h4.228a.628.628,0,0,0,0-1.256H70.329A.628.628,0,0,0,69.7,290.545Z" transform="translate(132.133 1109.42)" fill="#173069"/>
    <path id="Path_16" data-name="Path 16" d="M74.557,320.222H70.329a.628.628,0,0,0,0,1.256h4.228a.628.628,0,0,0,0-1.256Z" transform="translate(132.133 1081.652)" fill="#173069"/>
  </g>
</svg>
