<svg id="usa" xmlns="http://www.w3.org/2000/svg" width="25.085" height="18.814" viewBox="0 0 25.085 18.814">
  <path id="Path_684" data-name="Path 684" d="M0,391.045a1.045,1.045,0,0,0,1.045,1.045H24.04a1.045,1.045,0,0,0,1.045-1.045V390H0Zm0,0" transform="translate(0 -373.276)" fill="#fbfbfd"/>
  <path id="Path_685" data-name="Path 685" d="M25.085,2.09V1.045A1.045,1.045,0,0,0,24.04,0H1.045A1.045,1.045,0,0,0,0,1.045v9.407H25.085V8.362H12.543V6.271H25.085V4.181H12.543V2.09ZM3.136,9.407A1.045,1.045,0,1,1,4.181,8.362,1.045,1.045,0,0,1,3.136,9.407Zm0-3.136A1.045,1.045,0,1,1,4.181,5.226,1.045,1.045,0,0,1,3.136,6.271Zm0-3.136A1.045,1.045,0,1,1,4.181,2.09,1.045,1.045,0,0,1,3.136,3.136ZM6.271,9.407A1.045,1.045,0,1,1,7.317,8.362,1.045,1.045,0,0,1,6.271,9.407Zm0-3.136A1.045,1.045,0,1,1,7.317,5.226,1.045,1.045,0,0,1,6.271,6.271Zm0-3.136A1.045,1.045,0,1,1,7.317,2.09,1.045,1.045,0,0,1,6.271,3.136ZM9.407,9.407a1.045,1.045,0,1,1,1.045-1.045A1.045,1.045,0,0,1,9.407,9.407Zm0-3.136a1.045,1.045,0,1,1,1.045-1.045A1.045,1.045,0,0,1,9.407,6.271Zm0-3.136A1.045,1.045,0,1,1,10.452,2.09,1.045,1.045,0,0,1,9.407,3.136Zm0,0" fill="#fbfbfd"/>
  <path id="Path_686" data-name="Path 686" d="M0,292.5H25.085v2.09H0Zm0,0" transform="translate(0 -279.957)" fill="#fbfbfd"/>
</svg>
