<svg xmlns="http://www.w3.org/2000/svg" width="240.553" height="238.652" viewBox="0 0 240.553 238.652">
  <path id="whatsapp" d="M120.27,238.642h-.049a120.493,120.493,0,0,1-54.05-12.833l-51.4,11.682A9.378,9.378,0,0,1,3.514,226.307l11.135-50.624A118.77,118.77,0,0,1,0,119.442v-.2a117.96,117.96,0,0,1,35.413-84.31A120.335,120.335,0,0,1,205,34.965a117.911,117.911,0,0,1,14.851,151.108,9.4,9.4,0,0,1-15.508-10.612A99.121,99.121,0,0,0,191.738,48.276,101.446,101.446,0,0,0,18.795,119.1q0,.089,0,.178a100.429,100.429,0,0,0,13.928,50.215,9.378,9.378,0,0,1,1.046,6.732l-8.721,39.652L65.377,206.7a9.417,9.417,0,0,1,6.569.9,101.575,101.575,0,0,0,48.28,12.24h.044a101.7,101.7,0,0,0,52.062-14.326,9.4,9.4,0,1,1,9.6,16.152,120.463,120.463,0,0,1-61.665,16.978ZM93.732,71.513c-2.063-4.565-4.23-4.723-6.189-4.8H82.271a10.118,10.118,0,0,0-7.334,3.43,30.694,30.694,0,0,0-9.629,22.867c0,13.489,9.871,26.529,11.233,28.36s19.032,30.4,46.992,41.39c23.237,9.136,27.97,7.315,33.009,6.86s16.287-6.628,18.568-13.035a22.822,22.822,0,0,0,1.6-13.035c-.686-1.14-2.522-1.826-5.271-3.2s-16.238-8.119-18.755-9.032-4.353-1.372-6.189,1.377-7.241,9.081-8.845,10.913-3.208,2.063-5.962.691a76.092,76.092,0,0,1-22.032-13.662A84.275,84.275,0,0,1,94.2,111.353c-1.6-2.744-.173-4.23,1.209-5.6,1.234-1.229,2.907-2.907,4.284-4.506a18.454,18.454,0,0,0,2.68-4.575,5.034,5.034,0,0,0-.227-4.8c-.686-1.372-5.972-14.93-8.415-20.354" transform="translate(0 0)" fill="#a2aed2"/>
</svg>
