<svg xmlns="http://www.w3.org/2000/svg" width="18.883" height="18.733" viewBox="0 0 18.883 18.733">
  <path id="whatsapp" d="M9.441,18.733h0a9.459,9.459,0,0,1-4.243-1.008l-4.035.918a.738.738,0,0,1-.884-.878l.874-3.974A9.323,9.323,0,0,1,0,9.378c0-.005,0-.01,0-.015a9.261,9.261,0,0,1,2.78-6.62,9.446,9.446,0,0,1,13.313,0,9.256,9.256,0,0,1,1.166,11.861.738.738,0,1,1-1.217-.833,7.781,7.781,0,0,0-.99-9.983A7.963,7.963,0,0,0,1.475,9.349s0,.009,0,.014a7.884,7.884,0,0,0,1.093,3.942.737.737,0,0,1,.082.529l-.685,3.112,3.166-.72a.739.739,0,0,1,.516.071,7.974,7.974,0,0,0,3.79.961h0a7.981,7.981,0,0,0,4.085-1.125.738.738,0,0,1,.755,1.267,9.456,9.456,0,0,1-4.841,1.333ZM7.358,5.614c-.162-.358-.332-.371-.486-.377H6.458a.794.794,0,0,0-.576.269,2.41,2.41,0,0,0-.756,1.8,4.181,4.181,0,0,0,.882,2.226A8.855,8.855,0,0,0,9.7,12.776c1.824.717,2.2.574,2.591.538a2.18,2.18,0,0,0,1.458-1.023,1.792,1.792,0,0,0,.126-1.023c-.054-.09-.2-.143-.414-.251s-1.275-.637-1.472-.709-.342-.108-.486.108-.568.713-.694.856-.252.162-.468.054a5.973,5.973,0,0,1-1.729-1.072A6.616,6.616,0,0,1,7.395,8.74c-.126-.215-.014-.332.095-.439s.228-.228.336-.354a1.449,1.449,0,0,0,.21-.359.4.4,0,0,0-.018-.377c-.054-.108-.469-1.172-.661-1.6" transform="translate(0 0)" fill="#eaeeff"/>
</svg>
