<svg xmlns="http://www.w3.org/2000/svg" width="92.825" height="110.051" viewBox="0 0 92.825 110.051">
  <g id="Group_2080" data-name="Group 2080" transform="translate(-3017.069 -4479.998)">
    <circle id="Ellipse_242" data-name="Ellipse 242" cx="33.177" cy="33.177" r="33.177" transform="translate(3038.861 4505.894)" fill="#7ed2ff"/>
    <g id="pie-chart" transform="translate(3017.069 4479.998)">
      <path id="Path_2746" data-name="Path 2746" d="M55.645,32.059H84.929v3.249H55.645Zm0,0" transform="translate(-43.684 -25.168)" fill="#0757a0"/>
      <path id="Path_2747" data-name="Path 2747" d="M239.969,32.059h3.446v3.249h-3.446Zm0,0" transform="translate(-188.389 -25.168)" fill="#0757a0"/>
      <path id="Path_2748" data-name="Path 2748" d="M215.93,264.469h3.445v3.249H215.93Zm0,0" transform="translate(-169.517 -207.623)" fill="#0757a0"/>
      <path id="Path_2749" data-name="Path 2749" d="M183.871,264.469h3.445v3.249h-3.445Zm0,0" transform="translate(-144.349 -207.623)" fill="#0757a0"/>
      <path id="Path_2750" data-name="Path 2750" d="M215.93,328.586h3.445v3.249H215.93Zm0,0" transform="translate(-169.517 -257.958)" fill="#0757a0"/>
      <path id="Path_2751" data-name="Path 2751" d="M31.6,320.57h3.445v3.249H31.6Zm0,0" transform="translate(-24.809 -251.665)" fill="#0757a0"/>
      <path id="Path_2752" data-name="Path 2752" d="M207.914,32.059h3.445v3.249h-3.445Zm0,0" transform="translate(-163.224 -25.168)" fill="#0757a0"/>
      <path id="Path_2753" data-name="Path 2753" d="M272.027,32.059h3.446v3.249h-3.446Zm0,0" transform="translate(-213.556 -25.168)" fill="#0757a0"/>
      <path id="Path_2754" data-name="Path 2754" d="M167.844,464.828h3.445v3.249h-3.445Zm0,0" transform="translate(-131.767 -364.916)" fill="#0757a0"/>
      <path id="Path_2755" data-name="Path 2755" d="M70.529,167.052H80.912A25.938,25.938,0,1,1,53.4,139.541v27.511h11.96V163.8H56.65V136.241H55.025A29.187,29.187,0,1,0,72.349,188.9v11.076H3.249V167.15H0v49.858H75.6v-30.9a29.1,29.1,0,0,0,8.613-20.682V163.8H70.529ZM3.249,213.759V203.227h69.1v10.531Zm0,0" transform="translate(0 -106.957)" fill="#0757a0"/>
      <path id="Path_2756" data-name="Path 2756" d="M75.6,23.236V0H58.471V3.249H72.35V13.781H3.25V3.249H53.3V0H0V55.026H3.25v-38h69.1V22a29.065,29.065,0,0,0-8.711-1.328H62.014V51.482H92.825V49.858A29.228,29.228,0,0,0,75.6,23.236Zm-10.336,25V44.592H82.588V41.342H65.264V37.7H77.42V34.452H65.264V30.811h6.989V27.562H65.264V23.971A25.976,25.976,0,0,1,89.526,48.233Zm0,0" transform="translate(-0.001)" fill="#0757a0"/>
      <path id="Path_2757" data-name="Path 2757" d="M151.813,264.469h3.445v3.249h-3.445Zm0,0" transform="translate(-119.182 -207.623)" fill="#0757a0"/>
      <path id="Path_2758" data-name="Path 2758" d="M215.93,296.527h3.445v3.249H215.93Zm0,0" transform="translate(-169.517 -232.79)" fill="#0757a0"/>
      <path id="Path_2759" data-name="Path 2759" d="M247.984,328.586h3.445v3.249h-3.445Zm0,0" transform="translate(-194.681 -257.958)" fill="#0757a0"/>
      <path id="Path_2760" data-name="Path 2760" d="M44.018,99.421V96.172H32.059v44.69h3.249V99.421Zm0,0" transform="translate(-25.168 -75.5)" fill="#0757a0"/>
      <path id="Path_2761" data-name="Path 2761" d="M31.6,352.629h3.445v3.249H31.6Zm0,0" transform="translate(-24.809 -276.834)" fill="#0757a0"/>
      <path id="Path_2762" data-name="Path 2762" d="M31.6,384.684h3.445v3.249H31.6Zm0,0" transform="translate(-24.809 -301.999)" fill="#0757a0"/>
    </g>
  </g>
</svg>
