<svg xmlns="http://www.w3.org/2000/svg" width="111.051" height="111.051" viewBox="0 0 111.051 111.051">
  <g id="Group_2083" data-name="Group 2083" transform="translate(-2711.5 -4113.5)">
    <ellipse id="Ellipse_243" data-name="Ellipse 243" cx="17.198" cy="17.513" rx="17.198" ry="17.513" transform="translate(2749.828 4142.031)" fill="#7ed2ff"/>
    <g id="Group_2083-2" data-name="Group 2083" transform="translate(2712 4114)">
      <g id="Group_2085" data-name="Group 2085" transform="translate(0 0)">
        <path id="Path_2763" data-name="Path 2763" d="M264.32,127.694H256V122.3h8.32a.628.628,0,0,1,.628.628v4.134A.628.628,0,0,1,264.32,127.694Z" transform="translate(-200.975 -98.988)" fill="#7ed2ff" stroke="#0757a0" stroke-width="1"/>
        <g id="Group_2083-3" data-name="Group 2083" transform="translate(31.823 49.054)">
          <path id="Path_2764" data-name="Path 2764" d="M169.5,362.08h41.033v1.807H169.5Z" transform="translate(-166.811 -330.949)" fill="#ebe7f2" stroke="#0757a0" stroke-width="1"/>
          <path id="Path_2765" data-name="Path 2765" d="M183.084,320.69h6.464v4.179h-6.464Z" transform="translate(-177.176 -299.376)" fill="#ebe7f2" stroke="#0757a0" stroke-width="1"/>
          <path id="Path_2766" data-name="Path 2766" d="M242.374,320.69h6.464v4.179h-6.464Z" transform="translate(-222.404 -299.376)" fill="#ebe7f2" stroke="#0757a0" stroke-width="1"/>
          <path id="Path_2767" data-name="Path 2767" d="M301.662,320.69h6.464v4.179h-6.464Z" transform="translate(-267.63 -299.376)" fill="#ebe7f2" stroke="#0757a0" stroke-width="1"/>
          <path id="Path_2768" data-name="Path 2768" d="M183.084,262.278h6.464v4.179h-6.464Z" transform="translate(-177.176 -254.818)" fill="#ebe7f2" stroke="#0757a0" stroke-width="1"/>
          <path id="Path_2769" data-name="Path 2769" d="M242.374,262.278h6.464v4.179h-6.464Z" transform="translate(-222.404 -254.818)" fill="#ebe7f2" stroke="#0757a0" stroke-width="1"/>
          <path id="Path_2770" data-name="Path 2770" d="M301.662,262.278h6.464v4.179h-6.464Z" transform="translate(-267.63 -254.818)" fill="#ebe7f2" stroke="#0757a0" stroke-width="1"/>
          <path id="Path_2771" data-name="Path 2771" d="M202.907,234.167H159.846a1.672,1.672,0,0,1,0-3.343h43.061a1.672,1.672,0,0,1,0,3.343Z" transform="translate(-158.174 -230.824)" fill="#ebe7f2" stroke="#0757a0" stroke-width="1"/>
        </g>
        <g id="Group_2084" data-name="Group 2084">
          <path id="Path_2772" data-name="Path 2772" d="M199.093,225.824H156.032a2.858,2.858,0,0,0,0,5.715h43.061a2.858,2.858,0,0,0,0-5.715Zm0,3.343H156.032a.486.486,0,1,1,0-.971h43.061a.486.486,0,0,1,0,.971Z" transform="translate(-122.537 -177.956)" fill="#0757a0" stroke="#0757a0" stroke-width="1"/>
          <path id="Path_2773" data-name="Path 2773" d="M205.312,349.462H167.089a2.594,2.594,0,0,0-2.591,2.591v2.208a1.186,1.186,0,0,0,1.186,1.186h41.033a1.186,1.186,0,0,0,1.186-1.186v-2.208A2.594,2.594,0,0,0,205.312,349.462Zm.219,3.613H166.869v-1.022a.22.22,0,0,1,.219-.219h38.223a.22.22,0,0,1,.219.219v1.022Z" transform="translate(-131.175 -272.269)" fill="#0757a0" stroke="#0757a0" stroke-width="1"/>
          <path id="Path_2774" data-name="Path 2774" d="M173.928,274.422a1.186,1.186,0,0,0,2.346.249h6.116a1.186,1.186,0,0,0,2.346-.249,2.117,2.117,0,0,0-.986-1.786V256.3a2.118,2.118,0,0,0,.986-1.786,1.186,1.186,0,0,0-2.346-.249h-6.116a1.186,1.186,0,0,0-2.346.249,2.119,2.119,0,0,0,.986,1.786v16.334a2.118,2.118,0,0,0-.986,1.786Zm7.449-17.784V272.3h-4.092V256.639Z" transform="translate(-138.368 -198.938)" fill="#0757a0" stroke="#0757a0" stroke-width="1"/>
          <path id="Path_2775" data-name="Path 2775" d="M292.506,274.421a1.186,1.186,0,0,0,2.346.249h6.116a1.186,1.186,0,0,0,2.346-.249,2.119,2.119,0,0,0-.986-1.786V256.3a2.119,2.119,0,0,0,.986-1.786,1.186,1.186,0,0,0-2.346-.249h-6.116a1.186,1.186,0,0,0-2.346.249,2.117,2.117,0,0,0,.986,1.786v16.334A2.12,2.12,0,0,0,292.506,274.421Zm7.45-17.784V272.3h-4.092V256.637Z" transform="translate(-228.822 -198.936)" fill="#0757a0" stroke="#0757a0" stroke-width="1"/>
          <path id="Path_2776" data-name="Path 2776" d="M233.216,274.421a1.186,1.186,0,0,0,2.346.249h6.116a1.186,1.186,0,0,0,2.346-.249,2.119,2.119,0,0,0-.986-1.786V256.3a2.119,2.119,0,0,0,.986-1.786,1.186,1.186,0,0,0-2.346-.249h-6.116a1.186,1.186,0,0,0-2.346.249,2.119,2.119,0,0,0,.986,1.786v16.334a2.119,2.119,0,0,0-.986,1.786Zm7.45-17.784V272.3h-4.092V256.637Z" transform="translate(-183.595 -198.936)" fill="#0757a0" stroke="#0757a0" stroke-width="1"/>
          <path id="Path_2777" data-name="Path 2777" d="M193.288,142.091a1.186,1.186,0,0,0,1.186-1.186,12.783,12.783,0,0,1,25.567,0,1.186,1.186,0,1,0,2.372,0,15.172,15.172,0,0,0-13.969-15.1v-7.31a1.186,1.186,0,0,0-2.372,0v7.31A15.172,15.172,0,0,0,192.1,140.9,1.186,1.186,0,0,0,193.288,142.091Z" transform="translate(-152.232 -95.174)" fill="#0757a0" stroke="#0757a0" stroke-width="1"/>
          <path id="Path_2778" data-name="Path 2778" d="M134.051,79.025c0-5.231-4.878-8.865-9.952-12.287,2.6-5.433,5.05-10.973,2.584-15.235-2.531-4.374-8.564-5.058-14.623-5.511-.453-6.059-1.137-12.093-5.511-14.623-4.263-2.466-9.8-.016-15.235,2.583C87.891,28.878,84.256,24,79.025,24s-8.865,4.878-12.287,9.952c-5.433-2.6-10.974-5.049-15.235-2.583-4.374,2.53-5.058,8.564-5.511,14.623-6.059.453-12.093,1.137-14.623,5.511-2.466,4.263-.016,9.8,2.584,15.235C28.878,70.16,24,73.795,24,79.025s4.878,8.865,9.952,12.287c-2.6,5.433-5.05,10.973-2.584,15.235,2.531,4.374,8.564,5.058,14.623,5.511.453,6.059,1.138,12.093,5.511,14.623a7.885,7.885,0,0,0,4.029,1.021c3.462,0,7.361-1.765,11.206-3.605,3.422,5.075,7.057,9.952,12.287,9.952s8.865-4.878,12.287-9.952c5.433,2.6,10.974,5.05,15.235,2.583,4.374-2.53,5.058-8.564,5.511-14.623,6.059-.453,12.093-1.138,14.623-5.511,2.466-4.263.016-9.8-2.584-15.235,5.075-3.422,9.952-7.056,9.952-12.287Zm-24.208,30.817c-4.279.315-8.6.728-11.609,2.469-2.932,1.7-5.291,5.1-7.748,8.761-3.9-1.859-7.869-3.625-11.46-3.625s-7.565,1.766-11.46,3.625c-2.456-3.665-4.816-7.065-7.748-8.761-3.01-1.741-7.33-2.154-11.609-2.469-.315-4.279-.728-8.6-2.469-11.609-1.7-2.932-5.1-5.291-8.761-7.748,1.859-3.9,3.625-7.869,3.625-11.46s-1.766-7.565-3.625-11.46c3.665-2.456,7.065-4.816,8.761-7.748,1.741-3.01,2.153-7.33,2.469-11.609,4.279-.315,8.6-.728,11.609-2.469,2.932-1.7,5.291-5.1,7.748-8.761,3.9,1.859,7.869,3.625,11.46,3.625s7.565-1.766,11.46-3.625c2.456,3.665,4.816,7.065,7.748,8.761,3.01,1.741,7.33,2.153,11.609,2.469.315,4.279.728,8.6,2.469,11.609,1.7,2.932,5.1,5.291,8.761,7.748-1.859,3.9-3.624,7.869-3.624,11.46s1.766,7.565,3.625,11.46c-3.665,2.456-7.065,4.816-8.761,7.748C110.57,101.244,110.158,105.564,109.842,109.842Zm14.787-57.152c1.824,3.153-.16,7.762-2.521,12.712-3.2-2.153-6.359-4.38-7.743-6.773-1.437-2.484-1.837-6.352-2.13-10.245C117.555,48.792,122.744,49.433,124.629,52.691ZM105.36,33.422c3.258,1.885,3.9,7.075,4.306,12.395-3.894-.293-7.761-.694-10.245-2.13-2.394-1.385-4.621-4.541-6.773-7.744C97.6,33.581,102.207,31.6,105.36,33.422Zm-26.335-7.05c3.938,0,7.11,4.167,10.124,8.616-3.552,1.687-7.131,3.243-10.124,3.243S72.454,36.675,68.9,34.988C71.916,30.539,75.088,26.372,79.025,26.372Zm-26.335,7.05c3.154-1.824,7.762.16,12.712,2.521-2.153,3.2-4.38,6.359-6.773,7.743-2.484,1.437-6.352,1.837-10.245,2.13C48.792,40.5,49.433,35.306,52.691,33.422ZM33.422,52.691c1.885-3.258,7.075-3.9,12.395-4.306-.293,3.894-.694,7.761-2.13,10.245-1.385,2.394-4.541,4.621-7.744,6.773C33.582,60.453,31.6,55.844,33.422,52.691Zm-7.05,26.335c0-3.938,4.167-7.11,8.616-10.124,1.687,3.552,3.243,7.131,3.243,10.124S36.675,85.6,34.988,89.149C30.539,86.135,26.372,82.963,26.372,79.025Zm7.05,26.335c-1.824-3.153.16-7.762,2.521-12.712,3.2,2.153,6.359,4.38,7.744,6.773,1.437,2.484,1.837,6.352,2.13,10.245C40.5,109.259,35.306,108.618,33.422,105.36Zm19.269,19.269c-3.258-1.885-3.9-7.075-4.306-12.395,3.894.293,7.761.694,10.245,2.13,2.394,1.385,4.621,4.541,6.773,7.743C60.453,124.469,55.843,126.453,52.691,124.629Zm26.335,7.05c-3.938,0-7.11-4.167-10.124-8.616,3.552-1.687,7.132-3.243,10.124-3.243s6.572,1.556,10.124,3.243C86.135,127.512,82.963,131.679,79.025,131.679Zm26.335-7.05c-3.153,1.824-7.762-.16-12.712-2.521,2.153-3.2,4.38-6.359,6.773-7.744,2.484-1.437,6.352-1.837,10.245-2.13C109.259,117.555,108.618,122.744,105.36,124.629Zm19.269-19.269c-1.885,3.258-7.075,3.9-12.395,4.306.293-3.894.694-7.761,2.13-10.245,1.385-2.394,4.541-4.621,7.743-6.773C124.469,97.6,126.453,102.207,124.629,105.36Zm-1.566-16.211c-1.687-3.552-3.243-7.131-3.243-10.124s1.556-6.572,3.243-10.124c4.449,3.014,8.616,6.186,8.616,10.124S127.512,86.135,123.063,89.149Z" transform="translate(-24 -24)" fill="#0757a0" stroke="#0757a0" stroke-width="1"/>
        </g>
      </g>
    </g>
  </g>
</svg>
