<svg xmlns="http://www.w3.org/2000/svg" width="111.666" height="110.051" viewBox="0 0 111.666 110.051">
  <g id="Group_2071" data-name="Group 2071" transform="translate(-2781.536 -4356.708)">
    <ellipse id="Ellipse_232" data-name="Ellipse 232" cx="16.259" cy="16.534" rx="16.259" ry="16.534" transform="translate(2821.11 4425.38)" fill="#7ed2ff"/>
    <ellipse id="Ellipse_231" data-name="Ellipse 231" cx="27.235" cy="27.697" rx="27.235" ry="27.697" transform="translate(2815.673 4367.133)" fill="#7ed2ff"/>
    <g id="diploma" transform="translate(2781.536 4356.708)">
      <path id="Path_2693" data-name="Path 2693" d="M43.308,30.968l18.8,9.787V57.024c0,2.248,1.5,5.424,8.671,7.79a59.674,59.674,0,0,0,18,2.479,59.674,59.674,0,0,0,18-2.479c7.167-2.367,8.671-5.543,8.671-7.79,0-.015,0-.03,0-.044V40.755l5.5-2.861V48.935a2.181,2.181,0,1,0,4.362,0V35.622l8.941-4.655a2.181,2.181,0,0,0,0-3.869L89.788,3.951a2.181,2.181,0,0,0-2.014,0L43.308,27.1a2.181,2.181,0,0,0,0,3.869Zm67.785,20.125a23.5,23.5,0,0,0-4.309-1.86,59.675,59.675,0,0,0-18-2.479,59.672,59.672,0,0,0-18,2.479,23.49,23.49,0,0,0-4.309,1.86V34.806c0-.713,1.512-2.273,5.677-3.648A55.272,55.272,0,0,1,88.781,28.9a55.279,55.279,0,0,1,16.635,2.259c4.165,1.375,5.677,2.935,5.677,3.648V51.093Zm-5.677,9.579a55.273,55.273,0,0,1-16.635,2.259,55.279,55.279,0,0,1-16.635-2.259c-4.165-1.375-5.677-2.935-5.677-3.648s1.512-2.273,5.677-3.648a55.272,55.272,0,0,1,16.635-2.259,55.279,55.279,0,0,1,16.635,2.259c4.14,1.367,5.659,2.917,5.677,3.636v.02c-.01.716-1.526,2.27-5.677,3.641Zm19.9-29.967V27.362l3.211,1.672ZM88.781,8.344l32.17,16.747v7.885l-5.5,2.861V34.806c0-2.248-1.5-5.424-8.671-7.79a59.675,59.675,0,0,0-18-2.479,59.672,59.672,0,0,0-18,2.479c-7.167,2.367-8.671,5.543-8.671,7.79v1.031l-13.069-6.8Z" transform="translate(-32.945 -3.704)" fill="#0757a0"/>
      <path id="Path_2694" data-name="Path 2694" d="M104.536,316.038H2.186a2.181,2.181,0,0,0-.177,4.355q.084.007.171.007c.674.146,2.775,3.316,2.775,9.685s-2.109,9.552-2.769,9.685a2.181,2.181,0,1,0,0,4.362H45.135v11.659a2.181,2.181,0,0,0,3.141,1.958l7.56-3.706,7.559,3.706a2.181,2.181,0,0,0,3.141-1.958V344.132h38c4.681,0,7.13-7.067,7.13-14.047S109.217,316.038,104.536,316.038Zm-48.7,23.4a9.373,9.373,0,1,1,9.373-9.373A9.384,9.384,0,0,1,55.836,339.435ZM7.487,320.4h38.6a13.713,13.713,0,0,0,.046,19.371H7.487a24.181,24.181,0,0,0,1.83-9.685,24.18,24.18,0,0,0-1.83-9.685Zm54.687,31.894L56.8,349.657a2.181,2.181,0,0,0-1.92,0L49.5,352.294v-8.161H62.174v8.161Zm42.362-12.523H65.542a13.713,13.713,0,0,0,.046-19.371h38.941c.674.146,2.775,3.316,2.775,9.685s-2.109,9.552-2.769,9.685Z" transform="translate(0 -247.922)" fill="#0757a0"/>
    </g>
  </g>
</svg>
