<svg xmlns="http://www.w3.org/2000/svg" width="134.554" height="93.138" viewBox="0 0 134.554 93.138">
  <g id="Group_2075" data-name="Group 2075" transform="translate(-738 -4015.66)">
    <ellipse id="Ellipse_233" data-name="Ellipse 233" cx="26.925" cy="27.295" rx="26.925" ry="27.295" transform="translate(776.136 4027.241)" fill="#7ed2ff"/>
    <rect id="Rectangle_393" data-name="Rectangle 393" width="134.529" height="19.372" rx="9.686" transform="translate(738.024 4089.426)" fill="#7ed2ff"/>
    <g id="heart-rate" transform="translate(738 4015.66)">
      <path id="Path_2705" data-name="Path 2705" d="M124.06,148.512h-2.169V82.1a4.44,4.44,0,0,0-4.435-4.435H101.471a1.9,1.9,0,0,0,0,3.8h15.985a.634.634,0,0,1,.634.634v66.417h-4.073V87.433a1.9,1.9,0,0,0-1.9-1.9H17.647a1.9,1.9,0,0,0-1.9,1.9v41.339a1.9,1.9,0,0,0,3.8,0V89.334h90.667v59.179H19.548V137.054a1.9,1.9,0,1,0-3.8,0v11.458H11.674V82.1a.634.634,0,0,1,.634-.634H93.188a1.9,1.9,0,0,0,0-3.8H12.307A4.44,4.44,0,0,0,7.872,82.1v66.417H5.7a5.709,5.709,0,0,0-5.7,5.7v8.141a5.709,5.709,0,0,0,5.7,5.7H60.74a1.9,1.9,0,1,0,0-3.8H5.7a1.9,1.9,0,0,1-1.9-1.9v-8.141a1.9,1.9,0,0,1,1.9-1.9H47.235v5.972a1.9,1.9,0,0,0,1.9,1.9h31.49a1.9,1.9,0,0,0,1.9-1.9v-5.972H124.06a1.9,1.9,0,0,1,1.9,1.9v8.141a1.9,1.9,0,0,1-1.9,1.9H69.023a1.9,1.9,0,1,0,0,3.8H124.06a5.709,5.709,0,0,0,5.7-5.7v-8.141a5.709,5.709,0,0,0-5.7-5.7Zm-45.335,7.873H51.037v-4.071H78.725Z" transform="translate(0 -77.66)" fill="#0757a0"/>
      <path id="Path_2706" data-name="Path 2706" d="M93.189,164.09a1.9,1.9,0,0,0,1.9,1.9h14.67l.061.06L133.109,189.3a1.9,1.9,0,0,0,2.686,0l23.226-23.185h14.793a1.9,1.9,0,0,0,0-3.8h-11.9a16.2,16.2,0,0,0-27.459-17.106,16.2,16.2,0,0,0-27.529,16.983H95.09a1.9,1.9,0,0,0-1.9,1.9Zm41.263,21.178-19.312-19.277h7.5a1.9,1.9,0,0,0,1.8-1.294l2.277-6.761,5.962,15.085a1.9,1.9,0,0,0,3.494.1l6.1-13.254,2.239,5.112a1.9,1.9,0,0,0,1.741,1.138h7.379ZM108.8,154.523a12.41,12.41,0,0,1,12.4-12.4,12.648,12.648,0,0,1,11.495,7.755c.96,2.137,2.649,1.883,3.524,0a12.756,12.756,0,0,1,11.495-7.755,12.4,12.4,0,0,1,9.642,20.186H147.5l-3.438-7.851c-.785-1.81-2.517-1.852-3.468-.032l-6.013,13.059-6.238-15.782c-.865-1.926-2.935-1.715-3.569.092l-3.5,10.391h-9.82A12.306,12.306,0,0,1,108.8,154.523Z" transform="translate(-69.571 -122.95)" fill="#0757a0"/>
    </g>
  </g>
</svg>
