<svg xmlns="http://www.w3.org/2000/svg" width="107.979" height="110.051" viewBox="0 0 107.979 110.051">
  <g id="Group_2078" data-name="Group 2078" transform="translate(-2747 -3436)">
    <ellipse id="Ellipse_240" data-name="Ellipse 240" cx="18" cy="18.288" rx="18" ry="18.288" transform="translate(2779.439 3457.99)" fill="#7ed2ff"/>
    <rect id="Rectangle_398" data-name="Rectangle 398" width="15.681" height="22.808" rx="7.84" transform="translate(2791.01 3523.242)" fill="#7ed2ff"/>
    <g id="_07-robot" data-name="07-robot" transform="translate(2747 3436)">
      <path id="Path_2735" data-name="Path 2735" d="M102.551,133.139a2.571,2.571,0,0,0-2.571,2.571V140H91.41V135.71a2.571,2.571,0,1,0-5.142,0v6.856a2.571,2.571,0,0,0,2.571,2.571h4.285v12.357a9.461,9.461,0,0,0-6.5,6.5h-5.5V152.85a2.571,2.571,0,0,0-2.571-2.571H57.131v-1.714H68.272a2.571,2.571,0,0,0,2.571-2.571v-6.856a16.27,16.27,0,0,0-6.856-13.264v-7.3a2.571,2.571,0,0,0-5.142,0v4.861a16.217,16.217,0,0,0-8.57,0v-4.861a2.571,2.571,0,0,0-5.142,0v7.3a16.27,16.27,0,0,0-6.856,13.264v6.856a2.571,2.571,0,0,0,2.571,2.571H51.989v1.714H30.565a2.571,2.571,0,0,0-2.571,2.571v11.141h-5.5a9.461,9.461,0,0,0-6.5-6.5V145.137h4.285a2.571,2.571,0,0,0,2.571-2.571V135.71a2.571,2.571,0,1,0-5.142,0V140H9.14V135.71a2.571,2.571,0,1,0-5.142,0v6.856a2.571,2.571,0,0,0,2.571,2.571h4.285v12.357a9.426,9.426,0,1,0,11.638,11.638h5.5V183.7a2.571,2.571,0,0,0,2.571,2.571h18v5.142H44.276a2.571,2.571,0,1,0,0,5.142h4.285v.857a2.571,2.571,0,0,0,2.571,2.571h6.856a2.571,2.571,0,0,0,2.571-2.571v-.857h4.285a2.571,2.571,0,1,0,0-5.142H60.559v-5.142h18a2.571,2.571,0,0,0,2.571-2.571V169.132h5.5a9.426,9.426,0,1,0,11.638-11.638V145.137h4.285a2.571,2.571,0,0,0,2.571-2.571V135.71A2.571,2.571,0,0,0,102.551,133.139Zm-59.131,6a11.141,11.141,0,0,1,22.281,0v4.285H43.419ZM13.425,170.846a4.285,4.285,0,1,1,4.285-4.285A4.285,4.285,0,0,1,13.425,170.846Zm41.992,24H53.7V179.416h1.714ZM75.984,181.13H60.559v-4.285a2.571,2.571,0,0,0-2.571-2.571H51.132a2.571,2.571,0,0,0-2.571,2.571v4.285H33.136V155.421H75.984Zm24-14.569a4.285,4.285,0,1,1-4.285-4.285A4.285,4.285,0,0,1,99.98,166.562Z" transform="translate(-3.998 -92.005)" fill="#0757a0"/>
      <path id="Path_2736" data-name="Path 2736" d="M212.283,324H198.571a2.571,2.571,0,0,0,0,5.142h13.712a2.571,2.571,0,0,0,0-5.142Z" transform="translate(-154.865 -255.442)" fill="#0757a0"/>
      <path id="Path_2737" data-name="Path 2737" d="M221.427,356h-6.856a2.571,2.571,0,0,0,0,5.142h6.856a2.571,2.571,0,0,0,0-5.142Z" transform="translate(-167.437 -280.586)" fill="#0757a0"/>
      <ellipse id="Ellipse_238" data-name="Ellipse 238" cx="2.138" cy="2.851" rx="2.138" ry="2.851" transform="translate(52.563 43.051)" fill="#0757a0"/>
      <ellipse id="Ellipse_239" data-name="Ellipse 239" cx="2.138" cy="2.851" rx="2.138" ry="2.851" transform="translate(44.01 43.051)" fill="#0757a0"/>
      <path id="Path_2738" data-name="Path 2738" d="M342.571,105.142a7.721,7.721,0,0,1,7.713,7.713,2.571,2.571,0,0,0,5.142,0A12.869,12.869,0,0,0,342.571,100a2.571,2.571,0,1,0,0,5.142Z" transform="translate(-268.014 -79.433)" fill="#0757a0"/>
      <path id="Path_2739" data-name="Path 2739" d="M342.571,57.142a18.018,18.018,0,0,1,18,18,2.571,2.571,0,1,0,5.142,0A23.165,23.165,0,0,0,342.571,52a2.571,2.571,0,1,0,0,5.142Z" transform="translate(-268.014 -41.716)" fill="#0757a0"/>
      <path id="Path_2740" data-name="Path 2740" d="M342.571,4a2.571,2.571,0,1,0,0,5.142,28.312,28.312,0,0,1,28.28,28.28,2.571,2.571,0,1,0,5.142,0A33.46,33.46,0,0,0,342.571,4Z" transform="translate(-268.014 -4)" fill="#0757a0"/>
    </g>
  </g>
</svg>
