<svg xmlns="http://www.w3.org/2000/svg" width="109.747" height="110" viewBox="0 0 109.747 110">
  <g id="Group_2077" data-name="Group 2077" transform="translate(-2914 -4188)">
    <ellipse id="Ellipse_237" data-name="Ellipse 237" cx="14.062" cy="14.238" rx="14.062" ry="14.238" transform="translate(2985.92 4221.527)" fill="#7ed2ff"/>
    <rect id="Rectangle_396" data-name="Rectangle 396" width="104" height="14" rx="7" transform="translate(2917 4256)" fill="#7ed2ff"/>
    <rect id="Rectangle_397" data-name="Rectangle 397" width="56" height="11" rx="5.5" transform="translate(2943 4287)" fill="#7ed2ff"/>
    <g id="payment_4_" data-name="payment (4)" transform="translate(2914 4188)">
      <path id="Path_2730" data-name="Path 2730" d="M102.6,2H11.146A9.156,9.156,0,0,0,2,11.146V76.994a9.156,9.156,0,0,0,9.146,9.146H43.441l-4.39,14.633H31.266a1.829,1.829,0,0,0-1.829,1.829,9.156,9.156,0,0,0,9.146,9.146H75.165A9.156,9.156,0,0,0,84.31,102.6a1.829,1.829,0,0,0-1.829-1.829H74.7L70.307,86.14H102.6a9.156,9.156,0,0,0,9.146-9.146V11.146A9.156,9.156,0,0,0,102.6,2ZM11.146,5.658H102.6a5.494,5.494,0,0,1,5.487,5.487v56.7H5.658V45.9H33.1v1.829a5.494,5.494,0,0,0,5.487,5.487h34.9A12.8,12.8,0,1,0,87.969,38.729V22.12a5.494,5.494,0,0,0-5.487-5.487H49.989L35.742,9.509a1.826,1.826,0,0,0-1.321-.123L21.864,12.975H5.658V11.146A5.494,5.494,0,0,1,11.146,5.658Zm62.336,43.9h-34.9a1.831,1.831,0,0,1-1.829-1.829V45.9h6.4a6.409,6.409,0,0,0,6.4-6.4,6.337,6.337,0,0,0-.642-2.744h35.4v1.975A12.813,12.813,0,0,0,73.482,49.557ZM36.753,29.437H84.31V33.1H36.753Zm49.386,12.8a9.146,9.146,0,1,1-9.146,9.146A9.156,9.156,0,0,1,86.14,42.241ZM84.31,25.779H36.753V22.12a1.831,1.831,0,0,1,1.829-1.829h43.9A1.831,1.831,0,0,1,84.31,22.12ZM38.582,16.633A5.494,5.494,0,0,0,33.1,22.12V33.1H29.437v3.658H43.155a2.744,2.744,0,1,1,0,5.487H5.658V16.633H22.12a1.775,1.775,0,0,0,.5-.071L34.741,13.1l7.068,3.534Zm36.582,91.456H38.582a5.5,5.5,0,0,1-5.175-3.658H80.339a5.5,5.5,0,0,1-5.175,3.658Zm-4.287-7.316H42.87L47.26,86.14H66.487ZM102.6,82.481H11.146a5.494,5.494,0,0,1-5.487-5.487V71.507H108.089v5.487A5.494,5.494,0,0,1,102.6,82.481Z" transform="translate(-2 -2)" fill="#0757a0"/>
      <path id="Path_2731" data-name="Path 2731" d="M49.244,36.732a1.824,1.824,0,0,0,1.293-.536l7.316-7.316-2.586-2.586-6.023,6.023-2.365-2.365-2.586,2.586L47.951,36.2A1.824,1.824,0,0,0,49.244,36.732Z" transform="translate(33.066 18.142)" fill="#0757a0"/>
      <path id="Path_2732" data-name="Path 2732" d="M29,23h3.658v3.658H29Z" transform="translate(20.386 15.412)" fill="#0757a0"/>
      <path id="Path_2733" data-name="Path 2733" d="M33,23h3.658v3.658H33Z" transform="translate(23.703 15.412)" fill="#0757a0"/>
      <path id="Path_2734" data-name="Path 2734" d="M37,23h3.658v3.658H37Z" transform="translate(27.019 15.412)" fill="#0757a0"/>
    </g>
  </g>
</svg>
